<?xml version="1.0" encoding="utf-8"?>
<!-- Generator: Adobe Illustrator 13.0.0, SVG Export Plug-In . SVG Version: 6.00 Build 14948)  -->
<!DOCTYPE svg PUBLIC "-//W3C//DTD SVG 1.1//EN" "http://www.w3.org/Graphics/SVG/1.1/DTD/svg11.dtd">
<svg version="1.1" xmlns="http://www.w3.org/2000/svg" xmlns:xlink="http://www.w3.org/1999/xlink" x="0px" y="0px" width="150px"
	 height="171px" viewBox="0 -0.111 150 171" enable-background="new 0 -0.111 150 171" xml:space="preserve">
<g id="Layer_1" display="none">
	<path display="inline" fill="#404040" d="M24.396,170.079c-0.267,0-0.481-0.218-0.481-0.481V14.402
		c0-0.266,0.215-0.482,0.481-0.482s0.481,0.216,0.481,0.482v155.194C24.877,169.861,24.662,170.079,24.396,170.079z M148.783,92.042
		c0-0.269-0.215-0.481-0.48-0.481H40.25c-0.266,0-0.481,0.215-0.481,0.481s0.216,0.479,0.481,0.479h108.052
		C148.568,92.521,148.783,92.307,148.783,92.042z M148.783,117.872c0-0.267-0.215-0.479-0.48-0.479H40.25
		c-0.266,0-0.481,0.215-0.481,0.479s0.216,0.479,0.481,0.479h108.052C148.568,118.352,148.783,118.137,148.783,117.872z
		 M148.783,143.704c0-0.269-0.215-0.479-0.48-0.479H40.25c-0.266,0-0.481,0.213-0.481,0.479s0.216,0.481,0.481,0.481h108.052
		C148.568,144.186,148.783,143.969,148.783,143.704z"/>
	<path display="inline" fill="#404040" d="M148.227,54.389c0-0.202,0.076-0.385,0.201-0.51c-0.125-0.135-0.201-0.309-0.201-0.511
		c0-0.395,0.318-0.722,0.724-0.722c0.396,0,0.721,0.328,0.721,0.722c0,0.202-0.086,0.375-0.211,0.511
		c0.125,0.125,0.211,0.308,0.211,0.51c0,0.396-0.325,0.723-0.721,0.723C148.545,55.111,148.227,54.784,148.227,54.389z
		 M145.338,54.389c0-0.404,0.316-0.722,0.721-0.722c0.396,0,0.724,0.317,0.724,0.722c0,0.396-0.326,0.723-0.724,0.723
		C145.654,55.111,145.338,54.784,145.338,54.389z M142.449,54.389c0-0.404,0.318-0.722,0.723-0.722c0.395,0,0.721,0.317,0.721,0.722
		c0,0.396-0.326,0.723-0.721,0.723C142.768,55.111,142.449,54.784,142.449,54.389z M139.559,54.389c0-0.404,0.318-0.722,0.724-0.722
		c0.396,0,0.723,0.317,0.723,0.722c0,0.396-0.327,0.723-0.723,0.723C139.877,55.111,139.559,54.784,139.559,54.389z M136.672,54.389
		c0-0.404,0.316-0.722,0.721-0.722c0.396,0,0.724,0.317,0.724,0.722c0,0.396-0.326,0.723-0.724,0.723
		C136.988,55.111,136.672,54.784,136.672,54.389z M133.781,54.389c0-0.404,0.318-0.722,0.723-0.722c0.395,0,0.723,0.317,0.723,0.722
		c0,0.396-0.328,0.723-0.723,0.723C134.1,55.111,133.781,54.784,133.781,54.389z M130.893,54.389c0-0.404,0.318-0.722,0.724-0.722
		c0.396,0,0.723,0.317,0.723,0.722c0,0.396-0.327,0.723-0.723,0.723C131.211,55.111,130.893,54.784,130.893,54.389z M128.004,54.389
		c0-0.404,0.318-0.722,0.723-0.722c0.396,0,0.724,0.317,0.724,0.722c0,0.396-0.328,0.723-0.724,0.723
		C128.322,55.111,128.004,54.784,128.004,54.389z M125.115,54.389c0-0.404,0.318-0.722,0.723-0.722c0.395,0,0.721,0.317,0.721,0.722
		c0,0.396-0.326,0.723-0.721,0.723C125.434,55.111,125.115,54.784,125.115,54.389z M122.227,54.389c0-0.404,0.318-0.722,0.724-0.722
		c0.396,0,0.723,0.317,0.723,0.722c0,0.396-0.327,0.723-0.723,0.723C122.545,55.111,122.227,54.784,122.227,54.389z M119.338,54.389
		c0-0.404,0.316-0.722,0.721-0.722c0.396,0,0.724,0.317,0.724,0.722c0,0.396-0.326,0.723-0.724,0.723
		C119.654,55.111,119.338,54.784,119.338,54.389z M116.449,54.389c0-0.404,0.316-0.722,0.723-0.722c0.395,0,0.721,0.317,0.721,0.722
		c0,0.396-0.326,0.723-0.721,0.723C116.766,55.111,116.449,54.784,116.449,54.389z M113.561,54.389c0-0.404,0.316-0.722,0.722-0.722
		c0.396,0,0.723,0.317,0.723,0.722c0,0.396-0.325,0.723-0.723,0.723C113.877,55.111,113.561,54.784,113.561,54.389z M110.67,54.389
		c0-0.404,0.318-0.722,0.723-0.722c0.396,0,0.724,0.317,0.724,0.722c0,0.396-0.328,0.723-0.724,0.723
		C110.988,55.111,110.67,54.784,110.67,54.389z M110.373,51.789c0-0.404,0.326-0.722,0.73-0.722c0.396,0,0.713,0.318,0.713,0.722
		c0,0.395-0.316,0.722-0.713,0.722C110.699,52.511,110.373,52.184,110.373,51.789z M148.227,50.479c0-0.395,0.318-0.723,0.724-0.723
		c0.396,0,0.721,0.328,0.721,0.723c0,0.405-0.325,0.722-0.721,0.722C148.545,51.202,148.227,50.884,148.227,50.479z M110.373,48.9
		c0-0.405,0.326-0.722,0.73-0.722c0.396,0,0.713,0.317,0.713,0.722c0,0.395-0.316,0.722-0.713,0.722
		C110.699,49.623,110.373,49.295,110.373,48.9z M148.227,47.59c0-0.394,0.318-0.722,0.724-0.722c0.396,0,0.721,0.328,0.721,0.722
		c0,0.405-0.325,0.723-0.721,0.723C148.545,48.313,148.227,47.995,148.227,47.59z M110.373,46.011c0-0.404,0.326-0.722,0.73-0.722
		c0.396,0,0.713,0.317,0.713,0.722c0,0.395-0.316,0.722-0.713,0.722C110.699,46.733,110.373,46.406,110.373,46.011z M148.227,44.702
		c0-0.395,0.318-0.722,0.724-0.722c0.396,0,0.721,0.327,0.721,0.722s-0.325,0.722-0.721,0.722
		C148.545,45.424,148.227,45.096,148.227,44.702z M110.373,43.123c0-0.404,0.326-0.722,0.73-0.722c0.396,0,0.713,0.318,0.713,0.722
		c0,0.395-0.316,0.722-0.713,0.722C110.699,43.845,110.373,43.517,110.373,43.123z M148.227,41.813c0-0.394,0.318-0.722,0.724-0.722
		c0.396,0,0.721,0.328,0.721,0.722c0,0.405-0.325,0.723-0.721,0.723C148.545,42.535,148.227,42.218,148.227,41.813z M110.373,40.233
		c0-0.404,0.326-0.722,0.73-0.722c0.396,0,0.713,0.317,0.713,0.722c0,0.395-0.316,0.723-0.713,0.723
		C110.699,40.956,110.373,40.628,110.373,40.233z M148.227,38.924c0-0.395,0.318-0.722,0.724-0.722c0.396,0,0.721,0.328,0.721,0.722
		c0,0.405-0.325,0.722-0.721,0.722C148.545,39.646,148.227,39.329,148.227,38.924z M110.373,37.345c0-0.404,0.326-0.722,0.73-0.722
		c0.396,0,0.713,0.317,0.713,0.722c0,0.395-0.316,0.722-0.713,0.722C110.699,38.067,110.373,37.739,110.373,37.345z M148.227,36.035
		c0-0.395,0.318-0.723,0.724-0.723c0.396,0,0.721,0.328,0.721,0.723c0,0.405-0.325,0.722-0.721,0.722
		C148.545,36.757,148.227,36.44,148.227,36.035z M110.373,34.456c0-0.405,0.326-0.722,0.73-0.722c0.396,0,0.713,0.317,0.713,0.722
		c0,0.395-0.316,0.722-0.713,0.722C110.699,35.178,110.373,34.851,110.373,34.456z M148.227,33.146c0-0.395,0.318-0.722,0.724-0.722
		c0.396,0,0.721,0.328,0.721,0.722c0,0.395-0.325,0.723-0.721,0.723C148.545,33.869,148.227,33.541,148.227,33.146z M110.373,31.567
		c0-0.404,0.326-0.722,0.73-0.722c0.396,0,0.713,0.317,0.713,0.722c0,0.395-0.316,0.722-0.713,0.722
		C110.699,32.289,110.373,31.962,110.373,31.567z M148.227,30.257c0-0.395,0.318-0.722,0.724-0.722c0.396,0,0.721,0.327,0.721,0.722
		s-0.325,0.722-0.721,0.722C148.545,30.979,148.227,30.652,148.227,30.257z M110.373,28.678c0-0.404,0.326-0.722,0.73-0.722
		c0.396,0,0.713,0.318,0.713,0.722c0,0.395-0.316,0.722-0.713,0.722C110.699,29.4,110.373,29.073,110.373,28.678z M148.227,27.368
		c0-0.395,0.318-0.722,0.724-0.722c0.396,0,0.721,0.328,0.721,0.722c0,0.405-0.325,0.723-0.721,0.723
		C148.545,28.091,148.227,27.773,148.227,27.368z M110.373,25.789c0-0.404,0.326-0.722,0.73-0.722c0.396,0,0.713,0.318,0.713,0.722
		c0,0.395-0.316,0.723-0.713,0.723C110.699,26.512,110.373,26.184,110.373,25.789z M148.227,24.479c0-0.395,0.318-0.722,0.724-0.722
		c0.396,0,0.721,0.328,0.721,0.722c0,0.405-0.325,0.722-0.721,0.722C148.545,25.201,148.227,24.884,148.227,24.479z M110.373,22.9
		c0-0.404,0.326-0.722,0.73-0.722c0.396,0,0.713,0.318,0.713,0.722c0,0.395-0.316,0.722-0.713,0.722
		C110.699,23.623,110.373,23.295,110.373,22.9z M148.227,21.591c0-0.395,0.318-0.723,0.724-0.723c0.396,0,0.721,0.328,0.721,0.723
		c0,0.405-0.325,0.722-0.721,0.722C148.545,22.313,148.227,21.996,148.227,21.591z M110.373,20.012c0-0.405,0.326-0.723,0.73-0.723
		c0.396,0,0.713,0.318,0.713,0.723c0,0.395-0.316,0.722-0.713,0.722C110.699,20.734,110.373,20.406,110.373,20.012z M148.227,18.702
		c0-0.395,0.318-0.722,0.724-0.722c0.396,0,0.721,0.328,0.721,0.722c0,0.395-0.325,0.722-0.721,0.722
		C148.545,19.424,148.227,19.097,148.227,18.702z M110.373,17.123c0-0.404,0.326-0.722,0.73-0.722c0.396,0,0.713,0.318,0.713,0.722
		c0,0.395-0.316,0.723-0.713,0.723C110.699,17.845,110.373,17.518,110.373,17.123z M148.227,15.813c0-0.395,0.318-0.722,0.724-0.722
		c0.396,0,0.721,0.327,0.721,0.722c0,0.405-0.325,0.722-0.721,0.722C148.545,16.535,148.227,16.218,148.227,15.813z M110.373,14.234
		c0-0.404,0.326-0.722,0.73-0.722c0.396,0,0.713,0.318,0.713,0.722c0,0.395-0.316,0.722-0.713,0.722
		C110.699,14.956,110.373,14.628,110.373,14.234z M148.227,12.924c0-0.395,0.318-0.722,0.724-0.722c0.396,0,0.721,0.328,0.721,0.722
		c0,0.405-0.325,0.722-0.721,0.722C148.545,13.646,148.227,13.329,148.227,12.924z M110.373,11.345c0-0.404,0.326-0.722,0.73-0.722
		c0.396,0,0.713,0.318,0.713,0.722c0,0.395-0.316,0.723-0.713,0.723C110.699,12.067,110.373,11.739,110.373,11.345z M148.227,10.035
		c0-0.395,0.318-0.722,0.724-0.722c0.396,0,0.721,0.328,0.721,0.722c0,0.405-0.325,0.722-0.721,0.722
		C148.545,10.757,148.227,10.44,148.227,10.035z M110.373,8.456c0-0.404,0.326-0.722,0.73-0.722c0.396,0,0.713,0.318,0.713,0.722
		c0,0.395-0.316,0.722-0.713,0.722C110.699,9.178,110.373,8.851,110.373,8.456z M148.227,7.146c0-0.395,0.318-0.723,0.724-0.723
		c0.396,0,0.721,0.328,0.721,0.723c0,0.405-0.325,0.722-0.721,0.722C148.545,7.868,148.227,7.551,148.227,7.146z M110.373,5.567
		c0-0.405,0.326-0.723,0.73-0.723c0.396,0,0.713,0.318,0.713,0.723c0,0.394-0.316,0.722-0.713,0.722
		C110.699,6.29,110.373,5.961,110.373,5.567z M148.227,4.257c0-0.395,0.318-0.722,0.724-0.722c0.396,0,0.721,0.328,0.721,0.722
		c0,0.395-0.325,0.722-0.721,0.722C148.545,4.979,148.227,4.652,148.227,4.257z M145.982,3.612c0-0.394,0.317-0.722,0.723-0.722
		c0.395,0,0.723,0.328,0.723,0.722c0,0.396-0.328,0.723-0.723,0.723C146.301,4.334,145.982,4.007,145.982,3.612z M143.094,3.612
		c0-0.394,0.318-0.722,0.713-0.722c0.404,0,0.73,0.328,0.73,0.722c0,0.396-0.326,0.723-0.73,0.723
		C143.412,4.334,143.094,4.007,143.094,3.612z M140.205,3.612c0-0.394,0.318-0.722,0.723-0.722c0.396,0,0.723,0.328,0.723,0.722
		c0,0.396-0.327,0.723-0.723,0.723C140.523,4.334,140.205,4.007,140.205,3.612z M137.307,3.612c0-0.394,0.326-0.722,0.73-0.722
		c0.396,0,0.723,0.328,0.723,0.722c0,0.396-0.326,0.723-0.723,0.723C137.633,4.334,137.307,4.007,137.307,3.612z M134.428,3.612
		c0-0.394,0.318-0.722,0.723-0.722c0.396,0,0.722,0.328,0.722,0.722c0,0.396-0.326,0.723-0.722,0.723
		C134.746,4.334,134.428,4.007,134.428,3.612z M131.537,3.612c0-0.394,0.318-0.722,0.723-0.722c0.395,0,0.723,0.328,0.723,0.722
		c0,0.396-0.328,0.723-0.723,0.723C131.855,4.334,131.537,4.007,131.537,3.612z M128.65,3.612c0-0.394,0.315-0.722,0.721-0.722
		c0.396,0,0.723,0.328,0.723,0.722c0,0.396-0.326,0.723-0.723,0.723C128.967,4.334,128.65,4.007,128.65,3.612z M125.76,3.612
		c0-0.394,0.318-0.722,0.723-0.722c0.396,0,0.724,0.328,0.724,0.722c0,0.396-0.328,0.723-0.724,0.723
		C126.078,4.334,125.76,4.007,125.76,3.612z M122.871,3.612c0-0.394,0.318-0.722,0.723-0.722c0.395,0,0.723,0.328,0.723,0.722
		c0,0.396-0.328,0.723-0.723,0.723C123.189,4.334,122.871,4.007,122.871,3.612z M119.982,3.612c0-0.394,0.317-0.722,0.723-0.722
		c0.395,0,0.723,0.328,0.723,0.722c0,0.396-0.328,0.723-0.723,0.723C120.301,4.334,119.982,4.007,119.982,3.612z M117.094,3.612
		c0-0.394,0.318-0.722,0.723-0.722c0.396,0,0.722,0.328,0.722,0.722c0,0.396-0.326,0.723-0.722,0.723
		C117.412,4.334,117.094,4.007,117.094,3.612z M114.205,3.612c0-0.394,0.318-0.722,0.723-0.722c0.396,0,0.721,0.328,0.721,0.722
		c0,0.396-0.325,0.723-0.721,0.723C114.523,4.334,114.205,4.007,114.205,3.612z M111.316,3.612c0-0.394,0.317-0.722,0.723-0.722
		c0.395,0,0.721,0.328,0.721,0.722c0,0.396-0.326,0.723-0.721,0.723C111.635,4.334,111.316,4.007,111.316,3.612z"/>
	<path display="inline" fill="#343434" d="M80.77,40.353c-1.66,1.367-3.608,2.5-6.836,2.5c-8.132,0-8.145-7.191-15.889-7.191v-0.657
		c8.132,0,8.144,7.19,15.889,7.19c2.799,0,4.584-0.94,6.113-2.139C80.285,40.155,80.527,40.254,80.77,40.353z M137.113,38.909
		c0.039-0.046,0.066-0.092,0.086-0.137c-7.121-0.17-7.551-6.559-14.566-7.136c0.121,0.104,0.256,0.227,0.424,0.363
		c-0.149,0.026-0.268,0.056-0.381,0.082c0.254,0.092,0.512,0.185,0.768,0.277c-0.012,0.012-0.022,0.026-0.034,0.039
		c2.532,0.433,4.114,1.756,5.653,3.144c0.267,0.077,0.533,0.159,0.775,0.207c-0.09,0.083-0.18,0.167-0.266,0.253
		c1.77,1.594,3.625,3.143,6.947,3.396C136.752,39.252,136.957,39.093,137.113,38.909z M123.303,35.126
		c0.129,0.06,0.248,0.122,0.344,0.202c0.063,0.054-0.131,0.287-0.266,0.48c1.104,0.185,2.029,0.536,2.846,0.991
		c0.172-0.183,0.328-0.352,0.479-0.509C125.756,35.742,124.658,35.321,123.303,35.126z M118.227,36.225
		c0.398-0.269,0.611-0.429,0.646-0.41c0.078,0.044,0.152,0.093,0.229,0.139c0.738-0.184,1.56-0.292,2.496-0.292
		c0.432,0,0.836,0.026,1.223,0.068c-0.28-0.103-0.561-0.207-0.842-0.311c0.144-0.113,0.287-0.227,0.486-0.383
		c-0.279-0.02-0.566-0.032-0.867-0.032c-1.35,0-2.473,0.201-3.447,0.531c-0.018,0.03-0.037,0.058-0.053,0.088
		c-0.016,0.029-0.135,0.041-0.309,0.039c-3.947,1.525-5.381,5.242-9.693,6.265c0.051,0.061,0.104,0.119,0.158,0.17
		c-0.279,0.117-0.557,0.328-0.832,0.335c-1.207,0.031-2.426,0.06-3.617-0.031c-0.615-0.046-1.184-0.347-1.775-0.532
		c0.156-0.057,0.316-0.115,0.48-0.175c-4.756-1.628-5.863-6.69-12.688-6.69c-4.885,0-6.84,2.593-9.301,4.666
		c0.231,0.1,0.463,0.203,0.69,0.308c0.813-0.705,1.576-1.447,2.414-2.114c0.033-0.044,0.052-0.049,0.067-0.053
		c1.529-1.204,3.318-2.15,6.127-2.15c0.771,0,1.464,0.075,2.099,0.203c0.08-0.102,0.164-0.202,0.233-0.299
		c0.525,0.071,0.841,0.114,1.152,0.157c-0.139,0.132-0.272,0.265-0.41,0.397c2.344,0.763,3.81,2.354,5.465,3.799
		c0.045-0.1,0.123-0.251,0.201-0.431c0.308,0.413,0.73,0.731,0.681,0.966c-0.015,0.061-0.021,0.118-0.025,0.173
		c0.377,0.297,0.775,0.579,1.201,0.836c0.028-0.044,0.06-0.09,0.09-0.139c0.158,0.162,0.271,0.275,0.384,0.389
		c1.254,0.688,2.78,1.139,4.817,1.139C112.451,42.853,113.613,37.915,118.227,36.225z M117.045,29.535
		c-0.121-0.058-0.27-0.104-0.432-0.146c-2.078,1.158-3.465,2.913-5.307,4.224c0.145,0.145,0.299,0.325,0.452,0.517
		c1.979-1.424,3.412-3.307,5.677-4.403C117.307,29.663,117.176,29.597,117.045,29.535z M62.354,29.046
		c-0.251-0.114-0.514-0.216-0.786-0.312c-0.011,0.013-0.021,0.027-0.032,0.039C61.807,28.852,62.083,28.984,62.354,29.046z
		 M64.825,30.632c-0.066-0.054-0.134-0.11-0.201-0.164c0.056,0.063,0.11,0.125,0.172,0.196
		C64.807,30.651,64.815,30.644,64.825,30.632z M58.043,31.589v0.658c7.744,0,7.757,7.19,15.889,7.19s8.144-7.19,15.89-7.19
		c4.93,0,6.729,2.914,9.482,5.031c0.194-0.246,0.166-0.516,0.102-0.789c-2.6-2.104-4.514-4.9-9.584-4.9
		c-1.041,0-1.947,0.12-2.756,0.325c-0.275,0.182-0.412,0.267-0.535,0.261c-0.055-0.001-0.115-0.019-0.18-0.046
		c-4.879,1.668-5.97,6.651-12.419,6.651c-1.565,0-2.812-0.297-3.875-0.766c-0.417-0.047-0.834-0.094-1.25-0.141
		c0.174-0.071,0.345-0.145,0.518-0.217C65.673,35.633,64.141,31.589,58.043,31.589z M58.043,24.798
		c0.233,0.132,0.454,0.284,0.692,0.409c0.216,0.113,0.459,0.192,0.69,0.286c6.192,0.761,6.838,6.723,13.81,7.097
		c0.539-0.253,0.996-0.467,1.455-0.664c-0.244,0.016-0.497,0.026-0.759,0.026c-7.745,0-7.758-7.19-15.889-7.19L58.043,24.798
		L58.043,24.798z M89.822,42.492c5.188,0,6.906,3.223,9.918,5.354c0.406,0.008,0.816,0.046,1.203-0.039
		c-2.256-1.308-3.721-3.375-6.041-4.704c-0.027-0.006-0.053-0.02-0.068-0.039c-1.303-0.731-2.875-1.23-5.012-1.23
		c-7.873,0-8.135,6.737-15.17,7.168c-0.158,0.077-0.32,0.153-0.484,0.224c-0.1,0.043-0.322-0.092-0.533-0.21
		c-3.638-0.091-5.531-1.804-7.446-3.537c-0.026,0.032-0.052,0.064-0.073,0.097c-0.102-0.106-0.264-0.204-0.288-0.323
		c-0.006-0.029-0.002-0.059,0.007-0.093c-1.898-1.704-3.928-3.325-7.79-3.325v0.657c7.744,0,7.757,7.19,15.889,7.19
		C82.068,49.682,82.074,42.492,89.822,42.492z M133.58,48.86c-0.176-0.263-0.291-0.556-0.449-0.829
		c-3.834-1.972-5.297-6.197-11.533-6.197c-8.133,0-8.143,7.19-15.889,7.19c-1.438,0-2.607-0.249-3.613-0.652
		c-0.094,0.205-0.209,0.402-0.326,0.595c1.086,0.439,2.357,0.714,3.939,0.714c8.133,0,8.143-7.19,15.889-7.19
		c6.354,0,7.506,4.837,12.203,6.575C133.713,49.005,133.633,48.939,133.58,48.86z M89.793,39.078
		c-0.016-0.201-0.043-0.455,0.076-0.578c0.029-0.028,0.049-0.053,0.066-0.077c-0.037,0-0.074-0.003-0.113-0.003
		c-1.023,0-1.916,0.114-2.713,0.313c0.117,0.063,0.256,0.134,0.43,0.214c-0.797,0.149-1.141,0.269-1.48,0.255
		C86,39.199,85.943,39.17,85.887,39.13c-2.141,0.864-3.541,2.374-5.094,3.721c0.391,0.077,0.832-0.126,1.289-0.232
		c1.707-1.544,3.393-3.075,6.318-3.452c-0.156-0.072-0.281-0.261-0.42-0.392c0.215-0.096,0.43-0.265,0.646-0.265
		c0.188,0,0.375,0.192,0.819,0.447c-0.219,0.058-0.389,0.114-0.524,0.159C89.201,39.093,89.488,39.079,89.793,39.078z
		 M116.654,40.399c-0.086-0.096-0.166-0.233-0.15-0.259c0.104-0.175,0.26-0.342,0.434-0.422c0.054-0.024,0.172,0.125,0.365,0.321
		c1.154-0.582,2.52-0.962,4.295-0.962c7.746,0,7.754,7.19,15.887,7.189v-0.657c-7.586,0-7.758-6.895-15.403-7.176
		c-0.052,0.014-0.101,0.025-0.147,0.029c-0.287,0.023-0.685,0.125-0.894-0.026c-7.576,0.324-7.767,7.174-15.33,7.174
		c-0.551,0-1.063-0.04-1.541-0.108c-4.14-0.602-5.778-3.499-8.594-5.397c-0.072,0.051-0.146,0.101-0.212,0.149
		c-0.131,0.095-0.418,0.018-0.633,0.02c0.119-0.146,0.205-0.357,0.365-0.425c0.018-0.007,0.029-0.015,0.045-0.022
		c-1.133-0.689-2.473-1.202-4.219-1.355c0.006,0.052,0.012,0.101,0.008,0.161c-0.199,0.154-0.391,0.321-0.6,0.459
		c0.512,0.022,0.992,0.074,1.439,0.157c0.043-0.019,0.057-0.004,0.067,0.013c5.808,1.121,6.513,7.006,13.871,7.005
		C111.617,46.267,113.24,42.475,116.654,40.399z M79.828,43.945c-0.078-0.027-0.166-0.07-0.256-0.119
		c-1.426,1.024-3.123,1.784-5.64,1.784c-3.404,0-5.314-1.39-7.077-2.946c-0.064-0.039-0.11-0.078-0.135-0.12
		c-2.193-1.955-4.211-4.124-8.677-4.124v0.658c3.597,0,5.526,1.552,7.375,3.213c0.025,0.021,0.047,0.043,0.073,0.06
		c1.859,1.675,3.655,3.445,7.013,3.837c-0.081-0.086-0.16-0.174-0.243-0.259c0.133-0.104,0.314-0.319,0.391-0.292
		c0.252,0.089,0.465,0.266,0.785,0.466c-0.065,0.048-0.131,0.099-0.192,0.146c0.224,0.012,0.45,0.019,0.688,0.019
		c2.947,0,4.826-0.944,6.394-2.147C80.158,44.061,79.992,44.001,79.828,43.945z M66.323,32.101c-0.333-0.1-0.594-0.07-0.819,0.021
		c2.102,1.894,4.132,3.901,8.429,3.901c8.131,0,8.144-7.191,15.89-7.191c3.459,0,5.375,1.436,7.161,3.024
		c0.06-0.021,0.113-0.033,0.166-0.03c0.369,0.015,0.724,0.167,1.084,0.261c-0.143,0.144-0.291,0.363-0.434,0.504
		c1.297,1.168,2.641,2.313,4.574,2.94c0.145-0.083,0.273-0.143,0.41-0.164c0.191-0.029,0.453,0.271,0.684,0.424
		c0.654,0.152,1.402,0.231,2.24,0.231c2.043,0,3.574-0.454,4.844-1.134c-0.104-0.2-0.342-0.335-0.627-0.445
		c-1.137,0.56-2.48,0.922-4.217,0.922c-1.705,0-3.035-0.35-4.16-0.893c-0.209,0.046-0.418,0.094-0.623,0.144
		c0.119-0.093,0.234-0.188,0.354-0.283c-3.778-1.988-5.264-6.157-11.457-6.157c-0.829,0-1.569,0.078-2.247,0.212
		c0.141,0.994-0.681,0.417-1.05,0.593c-0.104,0.05-0.266,0.07-0.358,0.018c-0.074-0.042-0.146-0.092-0.217-0.139
		c-3.146,1.243-4.691,3.882-7.425,5.39c-0.012,0.024-0.018,0.051-0.03,0.075c-0.188,0.337-1.033,0.709-1.507,0.668
		c-0.063-0.005-0.114-0.018-0.168-0.029c-0.838,0.251-1.78,0.401-2.887,0.401c-3.777,0-5.715-1.71-7.653-3.463
		C66.293,31.969,66.308,32.035,66.323,32.101z M137.484,49.024c-0.767,0-1.455-0.073-2.086-0.2c-0.15,0.27-0.474,0.452-0.793,0.498
		c0.84,0.226,1.783,0.36,2.879,0.36V49.024z M131.043,29.547c-0.379,0.02-0.727-0.129-1.344-0.271
		c0.217-0.161,0.395-0.311,0.537-0.425c-1.246-1.113-2.443-2.286-4.066-3.091c-0.145,0.074-0.256,0.115-0.328,0.083
		c-0.184-0.084-0.32-0.251-0.451-0.428c-1.051-0.405-2.283-0.654-3.793-0.654c-1.836,0-3.254,0.367-4.443,0.934
		c0.068,0.083,0.107,0.129,0.099,0.118c-0.002,0.234-0.002,0.427-0.002,0.595c1.164-0.598,2.545-0.99,4.349-0.99
		c6.35,0,7.502,4.829,12.188,6.571c-0.021-0.168-0.072-0.358-0.179-0.581c0.146-0.002,0.304-0.019,0.466-0.035
		C132.887,30.932,131.93,30.278,131.043,29.547z M109.133,31.671c0.049,0.113,0.055,0.25,0.045,0.398
		c0.471-0.161,0.91-0.351,1.318-0.567c-0.445,0.038-0.893,0.073-1.338,0.11c0.014,0.017,0.027,0.026,0.041,0.043
		C109.176,31.661,109.154,31.666,109.133,31.671z M58.043,28.832c0.957,0,1.797,0.111,2.548,0.304
		c-0.494-0.313-0.963-0.661-1.504-0.914c-0.334-0.028-0.679-0.047-1.044-0.047V28.832z M75.297,32.068
		c-0.195,0.172-0.39,0.344-0.585,0.516c0.919-0.056,1.729-0.209,2.455-0.436c0.021-0.05,0.041-0.101,0.063-0.151
		c0.104-0.246,0.307-0.471,0.496-0.751c0.385,0.088,0.721,0.165,1.032,0.237c3.798-2.023,5.257-6.065,11.064-6.065
		c6.139,0,7.42,4.511,11.731,6.386c0.086-0.027,0.17-0.049,0.258-0.063c0.713-0.11,1.488,0.058,2.238,0.102
		c0.021,0.001,0.043,0.001,0.063,0.003c-6.189-0.912-6.75-7.084-14.291-7.084c-7.736,0-8.13,6.501-14.816,7.136
		C75.1,31.946,75.209,32.023,75.297,32.068z M115.146,26.952c-1.433,1.111-2.611,2.431-4.117,3.437
		c0.283,0.059,0.561,0.124,0.813,0.205c0.02,0.006,0.035,0.016,0.053,0.024c1.142-0.843,2.107-1.832,3.17-2.721
		C115.072,27.583,115.102,27.267,115.146,26.952z M105.709,32.608c0.494,0,0.955-0.027,1.391-0.078
		c-0.113-0.108-0.225-0.216-0.336-0.326c0.791-0.178,1.58-0.356,2.369-0.534c-0.006-0.019-0.012-0.038-0.021-0.055
		c-0.008-0.075-0.065-0.136-0.125-0.193c-0.93,0.328-1.995,0.527-3.276,0.527c-0.062,0-0.117-0.004-0.178-0.005
		c-0.13,0.213-0.25,0.431-0.371,0.647C105.34,32.601,105.52,32.608,105.709,32.608z M128.143,37.271
		c-0.051,0.033-0.102,0.068-0.156,0.099c-0.161,0.094-0.397,0.114-0.704,0.109c2.633,1.907,4.354,4.702,8.602,5.269
		c-0.032-0.02-0.065-0.041-0.102-0.059c0.301-0.098,0.602-0.276,0.896-0.277c0.271-0.001,0.537,0.008,0.807,0.012v-0.229
		C132.639,42.195,130.818,39.378,128.143,37.271z M62.511,29.885c0.206,0.109,0.406,0.222,0.6,0.344
		C62.919,30.111,62.727,29.944,62.511,29.885z M137.244,32.602c0.045-0.05,0.09-0.101,0.139-0.156
		c0.035,0.013,0.066,0.025,0.102,0.038v-0.533c-0.803,0-1.518-0.081-2.172-0.219c0.101,0.212,0.142,0.469,0.158,0.709
		C136.016,32.536,136.605,32.59,137.244,32.602z M136.307,35.302c-0.51-0.054-0.986-0.139-1.43-0.256
		c-0.988-0.157-1.963-0.372-2.939-0.576c1.222,0.786,2.67,1.374,4.627,1.516C136.762,35.666,136.688,35.445,136.307,35.302z
		 M120.912,28.194c-0.158,0.091-0.338,0.192-0.543,0.307c-0.268,0.15-0.75,0.284-0.777,0.449c-0.004,0.024-0.01,0.043-0.014,0.067
		c0.613-0.119,1.281-0.186,2.02-0.186c1.4,0,2.547,0.238,3.535,0.624c0.063-0.028,0.115-0.042,0.166-0.041
		c0.195,0.007,0.492,0.208,0.559,0.362c1.644,0.821,2.853,2.054,4.164,3.21c0.072-0.007,0.146-0.012,0.217-0.005
		c0.271,0.025,0.513,0.272,0.943,0.524c-0.117,0.065-0.223,0.13-0.318,0.19c0.039,0.031,0.078,0.062,0.117,0.092
		c0.111-0.086,0.224-0.145,0.34-0.2c-0.041-0.077-0.069-0.14-0.067-0.197c0-0.088-0.019-0.187-0.03-0.283
		c-2.619-2.108-4.525-4.933-9.623-4.933C121.361,28.175,121.135,28.183,120.912,28.194z M99.711,37.579
		c1.172,0.834,2.537,1.502,4.381,1.75c0.479-0.198,0.92-0.383,1.352-0.557c-2.215-0.049-3.784-0.697-5.104-1.588
		C100.113,37.252,99.908,37.393,99.711,37.579z M105.133,39.422c0.189,0.008,0.379,0.016,0.576,0.016
		c3.352,0,5.322-1.222,7.025-2.658c-0.287-0.059-0.574-0.119-0.861-0.178c-1.381,1.095-2.975,1.979-5.338,2.147
		C106.072,38.977,105.604,39.202,105.133,39.422z M121.598,31.589c-0.09,0-0.176,0.006-0.264,0.008
		c0.156,0.056,0.311,0.112,0.467,0.168c0.02-0.061,0.066-0.113,0.115-0.167C121.809,31.596,121.707,31.589,121.598,31.589z
		 M121.254,31.6c-4.25,0.11-6.223,2.236-8.371,4.148c0.111,0.205,0.221,0.412,0.326,0.621c1.387-1.224,2.662-2.527,4.463-3.334
		c0.191-0.644,0.666-0.909,1.58-0.57c0.104-0.018,0.211-0.026,0.316-0.03c0.535-0.105,1.119-0.165,1.754-0.179
		C121.379,32.122,121.365,31.916,121.254,31.6z"/>
	<path display="inline" fill="#676767" d="M0,0.112h2.506c1.256,0,2.21,0.806,2.21,1.942c0,1.136-0.954,1.941-2.21,1.941h-1.63
		v2.073H0V0.112z M2.385,3.181c0.857,0,1.438-0.424,1.438-1.127c0-0.703-0.58-1.127-1.438-1.127H0.876v2.254H2.385z M5.39,3.086
		c0-1.673,1.422-3.078,3.096-3.078c1.673,0,3.077,1.405,3.077,3.078s-1.404,3.086-3.077,3.086C6.813,6.172,5.39,4.759,5.39,3.086z
		 M10.671,3.086c0-1.231-0.997-2.271-2.185-2.271s-2.194,1.04-2.194,2.271c0,1.24,1.006,2.28,2.194,2.28S10.671,4.326,10.671,3.086z
		 M12.315,5.21l0.53-0.65c0.528,0.503,1.153,0.833,1.958,0.833c0.824,0,1.249-0.434,1.249-0.91c0-0.563-0.495-0.781-1.491-1.006
		c-1.214-0.286-2.02-0.65-2.02-1.725c0-0.997,0.867-1.75,2.063-1.75c0.919,0,1.604,0.338,2.176,0.84l-0.503,0.659
		c-0.502-0.459-1.101-0.728-1.708-0.728c-0.668,0-1.135,0.425-1.135,0.902c0,0.555,0.51,0.746,1.491,0.979
		c1.188,0.278,2.011,0.676,2.011,1.743c0,1.005-0.763,1.768-2.167,1.768C13.772,6.163,12.948,5.816,12.315,5.21z M19.666,0.927
		h-1.95V0.112h4.786v0.815h-1.96v5.141h-0.875L19.666,0.927L19.666,0.927z M23.261,3.086c0-1.673,1.423-3.078,3.096-3.078
		c0.85,0,1.631,0.355,2.193,0.937l-0.616,0.589c-0.398-0.434-0.962-0.719-1.577-0.719c-1.187,0-2.193,1.04-2.193,2.271
		c0,1.24,1.007,2.28,2.193,2.28c0.615,0,1.179-0.287,1.577-0.72l0.616,0.59c-0.563,0.572-1.344,0.936-2.193,0.936
		C24.684,6.172,23.261,4.759,23.261,3.086z M33.603,4.854H30.5l-0.521,1.214h-0.971l2.557-5.956h0.972l2.557,5.956h-0.97
		L33.603,4.854z M33.264,4.065L32.05,1.239l-1.213,2.827L33.264,4.065L33.264,4.065z M39.158,3.909l1.518,2.159H39.67l-1.456-2.073
		h-1.371v2.073h-0.875V0.112h2.507c1.256,0,2.209,0.806,2.209,1.942C40.683,2.973,40.06,3.675,39.158,3.909z M36.842,3.181h1.51
		c0.857,0,1.438-0.424,1.438-1.127c0-0.703-0.581-1.127-1.438-1.127h-1.51V3.181z M41.783,0.112h2.055
		c1.924,0,3.294,1.231,3.294,2.974c0,1.743-1.37,2.982-3.294,2.982h-2.055V0.112z M43.889,5.271c1.379,0,2.341-0.901,2.341-2.185
		c0-1.274-0.962-2.176-2.341-2.176h-1.231v4.36L43.889,5.271L43.889,5.271z"/>
</g>
<g id="Layer_2">
	<g>
		<path fill="#333333" d="M149.166,55.25c-0.276,0-0.5-0.224-0.5-0.5l0,0c0-0.223,0.146-0.413,0.349-0.477l0,0
			c0.091-0.123,0.237-0.202,0.402-0.202l0,0c0.275,0,0.498,0.222,0.498,0.498l0,0v0.181c0,0.133-0.052,0.259-0.146,0.353l0,0
			c-0.094,0.096-0.22,0.147-0.353,0.147l0,0H149.166L149.166,55.25z M147.326,55.25c-0.276,0-0.5-0.224-0.5-0.5l0,0
			c0-0.276,0.224-0.5,0.5-0.5l0,0h0.248c0.276,0,0.5,0.224,0.5,0.5l0,0c0,0.276-0.224,0.5-0.5,0.5l0,0H147.326L147.326,55.25z
			 M145.485,55.25c-0.275,0-0.5-0.224-0.5-0.5l0,0c0-0.276,0.225-0.5,0.5-0.5l0,0h0.251c0.274,0,0.5,0.224,0.5,0.5l0,0
			c0,0.276-0.226,0.5-0.5,0.5l0,0H145.485L145.485,55.25z M143.646,55.25c-0.276,0-0.5-0.224-0.5-0.5l0,0c0-0.276,0.224-0.5,0.5-0.5
			l0,0h0.251c0.275,0,0.5,0.224,0.5,0.5l0,0c0,0.276-0.225,0.5-0.5,0.5l0,0H143.646L143.646,55.25z M141.806,55.25
			c-0.276,0-0.5-0.224-0.5-0.5l0,0c0-0.276,0.224-0.5,0.5-0.5l0,0h0.251c0.275,0,0.5,0.224,0.5,0.5l0,0c0,0.276-0.225,0.5-0.5,0.5
			l0,0H141.806L141.806,55.25z M139.967,55.25c-0.277,0-0.5-0.224-0.5-0.5l0,0c0-0.276,0.223-0.5,0.5-0.5l0,0h0.249
			c0.276,0,0.5,0.224,0.5,0.5l0,0c0,0.276-0.224,0.5-0.5,0.5l0,0H139.967L139.967,55.25z M138.127,55.25c-0.276,0-0.5-0.224-0.5-0.5
			l0,0c0-0.276,0.224-0.5,0.5-0.5l0,0h0.249c0.275,0,0.5,0.224,0.5,0.5l0,0c0,0.276-0.225,0.5-0.5,0.5l0,0H138.127L138.127,55.25z
			 M136.285,55.25c-0.276,0-0.5-0.224-0.5-0.5l0,0c0-0.276,0.224-0.5,0.5-0.5l0,0h0.251c0.275,0,0.5,0.224,0.5,0.5l0,0
			c0,0.276-0.225,0.5-0.5,0.5l0,0H136.285L136.285,55.25z M134.446,55.25c-0.277,0-0.5-0.224-0.5-0.5l0,0c0-0.276,0.223-0.5,0.5-0.5
			l0,0h0.249c0.276,0,0.5,0.224,0.5,0.5l0,0c0,0.276-0.224,0.5-0.5,0.5l0,0H134.446L134.446,55.25z M132.606,55.25
			c-0.276,0-0.5-0.224-0.5-0.5l0,0c0-0.276,0.224-0.5,0.5-0.5l0,0h0.249c0.275,0,0.5,0.224,0.5,0.5l0,0c0,0.276-0.225,0.5-0.5,0.5
			l0,0H132.606L132.606,55.25z M130.767,55.25c-0.276,0-0.5-0.224-0.5-0.5l0,0c0-0.276,0.224-0.5,0.5-0.5l0,0h0.249
			c0.275,0,0.5,0.224,0.5,0.5l0,0c0,0.276-0.225,0.5-0.5,0.5l0,0H130.767L130.767,55.25z M128.926,55.25c-0.275,0-0.5-0.224-0.5-0.5
			l0,0c0-0.276,0.225-0.5,0.5-0.5l0,0h0.251c0.274,0,0.5,0.224,0.5,0.5l0,0c0,0.276-0.226,0.5-0.5,0.5l0,0H128.926L128.926,55.25z
			 M127.086,55.25c-0.276,0-0.5-0.224-0.5-0.5l0,0c0-0.276,0.224-0.5,0.5-0.5l0,0h0.251c0.273,0,0.5,0.224,0.5,0.5l0,0
			c0,0.276-0.227,0.5-0.5,0.5l0,0H127.086L127.086,55.25z M125.246,55.25c-0.276,0-0.5-0.224-0.5-0.5l0,0c0-0.276,0.224-0.5,0.5-0.5
			l0,0h0.249c0.275,0,0.5,0.224,0.5,0.5l0,0c0,0.276-0.225,0.5-0.5,0.5l0,0H125.246L125.246,55.25z M123.405,55.25
			c-0.275,0-0.5-0.224-0.5-0.5l0,0c0-0.276,0.225-0.5,0.5-0.5l0,0h0.251c0.274,0,0.5,0.224,0.5,0.5l0,0c0,0.276-0.226,0.5-0.5,0.5
			l0,0H123.405L123.405,55.25z M121.565,55.25c-0.276,0-0.5-0.224-0.5-0.5l0,0c0-0.276,0.224-0.5,0.5-0.5l0,0h0.251
			c0.273,0,0.5,0.224,0.5,0.5l0,0c0,0.276-0.227,0.5-0.5,0.5l0,0H121.565L121.565,55.25z M119.726,55.25c-0.276,0-0.5-0.224-0.5-0.5
			l0,0c0-0.276,0.224-0.5,0.5-0.5l0,0h0.251c0.275,0,0.5,0.224,0.5,0.5l0,0c0,0.276-0.225,0.5-0.5,0.5l0,0H119.726L119.726,55.25z
			 M117.887,55.25c-0.277,0-0.5-0.224-0.5-0.5l0,0c0-0.276,0.223-0.5,0.5-0.5l0,0h0.249c0.276,0,0.5,0.224,0.5,0.5l0,0
			c0,0.276-0.224,0.5-0.5,0.5l0,0H117.887L117.887,55.25z M116.047,55.25c-0.278,0-0.5-0.224-0.5-0.5l0,0c0-0.276,0.222-0.5,0.5-0.5
			l0,0h0.249c0.276,0,0.5,0.224,0.5,0.5l0,0c0,0.276-0.224,0.5-0.5,0.5l0,0H116.047L116.047,55.25z M114.205,55.25
			c-0.276,0-0.5-0.224-0.5-0.5l0,0c0-0.276,0.224-0.5,0.5-0.5l0,0h0.251c0.275,0,0.5,0.224,0.5,0.5l0,0c0,0.276-0.225,0.5-0.5,0.5
			l0,0H114.205L114.205,55.25z M112.366,55.25c-0.277,0-0.5-0.224-0.5-0.5l0,0c0-0.276,0.223-0.5,0.5-0.5l0,0h0.249
			c0.276,0,0.5,0.224,0.5,0.5l0,0c0,0.276-0.224,0.5-0.5,0.5l0,0H112.366L112.366,55.25z M110.665,55.25
			c-0.132,0-0.259-0.052-0.353-0.147l0,0c-0.095-0.093-0.147-0.22-0.147-0.353l0,0l0.003-0.139c0-0.276,0.222-0.5,0.497-0.5l0,0
			c0.191,0,0.357,0.107,0.441,0.265l0,0c0.104,0.092,0.169,0.226,0.169,0.375l0,0c0,0.276-0.224,0.5-0.5,0.5l0,0H110.665
			L110.665,55.25z M110.165,53.02v-0.251c0-0.276,0.225-0.5,0.5-0.5l0,0c0.276,0,0.5,0.224,0.5,0.5l0,0v0.251
			c0,0.276-0.224,0.5-0.5,0.5l0,0C110.39,53.52,110.165,53.295,110.165,53.02L110.165,53.02z M148.917,52.98v-0.251
			c0-0.276,0.224-0.5,0.5-0.5l0,0c0.275,0,0.5,0.224,0.5,0.5l0,0v0.251c0,0.276-0.225,0.5-0.5,0.5l0,0
			C149.141,53.48,148.917,53.256,148.917,52.98L148.917,52.98z M110.165,51.179V50.93c0-0.278,0.225-0.5,0.5-0.5l0,0
			c0.276,0,0.5,0.222,0.5,0.5l0,0v0.249c0,0.276-0.224,0.5-0.5,0.5l0,0C110.39,51.679,110.165,51.455,110.165,51.179L110.165,51.179
			z M148.917,51.14v-0.251c0-0.276,0.224-0.5,0.5-0.5l0,0c0.275,0,0.5,0.224,0.5,0.5l0,0v0.251c0,0.276-0.225,0.5-0.5,0.5l0,0
			C149.141,51.64,148.917,51.416,148.917,51.14L148.917,51.14z M110.165,49.339V49.09c0-0.276,0.225-0.5,0.5-0.5l0,0
			c0.276,0,0.5,0.224,0.5,0.5l0,0v0.249c0,0.276-0.224,0.5-0.5,0.5l0,0C110.39,49.839,110.165,49.615,110.165,49.339L110.165,49.339
			z M148.917,49.3v-0.251c0-0.276,0.224-0.5,0.5-0.5l0,0c0.275,0,0.5,0.224,0.5,0.5l0,0V49.3c0,0.276-0.225,0.5-0.5,0.5l0,0
			C149.141,49.8,148.917,49.576,148.917,49.3L148.917,49.3z M110.165,47.499V47.25c0-0.276,0.225-0.5,0.5-0.5l0,0
			c0.276,0,0.5,0.224,0.5,0.5l0,0v0.249c0,0.276-0.224,0.5-0.5,0.5l0,0C110.39,47.999,110.165,47.775,110.165,47.499L110.165,47.499
			z M148.917,47.459v-0.251c0-0.276,0.224-0.5,0.5-0.5l0,0c0.275,0,0.5,0.224,0.5,0.5l0,0v0.251c0,0.276-0.225,0.5-0.5,0.5l0,0
			C149.141,47.959,148.917,47.735,148.917,47.459L148.917,47.459z M110.165,45.659V45.41c0-0.276,0.225-0.5,0.5-0.5l0,0
			c0.276,0,0.5,0.224,0.5,0.5l0,0v0.249c0,0.276-0.224,0.5-0.5,0.5l0,0C110.39,46.159,110.165,45.935,110.165,45.659L110.165,45.659
			z M148.917,45.619V45.37c0-0.278,0.224-0.5,0.5-0.5l0,0c0.275,0,0.5,0.222,0.5,0.5l0,0v0.249c0,0.276-0.225,0.5-0.5,0.5l0,0
			C149.141,46.119,148.917,45.895,148.917,45.619L148.917,45.619z M110.165,43.821v-0.251c0-0.276,0.225-0.5,0.5-0.5l0,0
			c0.276,0,0.5,0.224,0.5,0.5l0,0v0.251c0,0.273-0.224,0.5-0.5,0.5l0,0C110.39,44.321,110.165,44.094,110.165,43.821L110.165,43.821
			z M148.917,43.779V43.53c0-0.278,0.224-0.5,0.5-0.5l0,0c0.275,0,0.5,0.222,0.5,0.5l0,0v0.249c0,0.276-0.225,0.5-0.5,0.5l0,0
			C149.141,44.279,148.917,44.055,148.917,43.779L148.917,43.779z M110.165,41.98v-0.251c0-0.276,0.225-0.5,0.5-0.5l0,0
			c0.276,0,0.5,0.224,0.5,0.5l0,0v0.251c0,0.276-0.224,0.5-0.5,0.5l0,0C110.39,42.48,110.165,42.256,110.165,41.98L110.165,41.98z
			 M148.917,41.939V41.69c0-0.278,0.224-0.5,0.5-0.5l0,0c0.275,0,0.5,0.222,0.5,0.5l0,0v0.249c0,0.276-0.225,0.5-0.5,0.5l0,0
			C149.141,42.439,148.917,42.215,148.917,41.939L148.917,41.939z M110.165,40.14v-0.251c0-0.276,0.225-0.5,0.5-0.5l0,0
			c0.276,0,0.5,0.224,0.5,0.5l0,0v0.251c0,0.276-0.224,0.5-0.5,0.5l0,0C110.39,40.64,110.165,40.416,110.165,40.14L110.165,40.14z
			 M148.917,40.099V39.85c0-0.276,0.224-0.5,0.5-0.5l0,0c0.275,0,0.5,0.224,0.5,0.5l0,0v0.249c0,0.276-0.225,0.5-0.5,0.5l0,0
			C149.141,40.599,148.917,40.375,148.917,40.099L148.917,40.099z M110.165,38.3v-0.251c0-0.276,0.225-0.5,0.5-0.5l0,0
			c0.276,0,0.5,0.224,0.5,0.5l0,0V38.3c0,0.276-0.224,0.5-0.5,0.5l0,0C110.39,38.8,110.165,38.576,110.165,38.3L110.165,38.3z
			 M148.917,38.259V38.01c0-0.276,0.224-0.5,0.5-0.5l0,0c0.275,0,0.5,0.224,0.5,0.5l0,0v0.249c0,0.276-0.225,0.5-0.5,0.5l0,0
			C149.141,38.759,148.917,38.535,148.917,38.259L148.917,38.259z M110.165,36.46v-0.251c0-0.276,0.225-0.5,0.5-0.5l0,0
			c0.276,0,0.5,0.224,0.5,0.5l0,0v0.251c0,0.276-0.224,0.5-0.5,0.5l0,0C110.39,36.96,110.165,36.736,110.165,36.46L110.165,36.46z
			 M148.917,36.418v-0.249c0-0.276,0.224-0.5,0.5-0.5l0,0c0.275,0,0.5,0.224,0.5,0.5l0,0v0.249c0,0.276-0.225,0.5-0.5,0.5l0,0
			C149.141,36.918,148.917,36.694,148.917,36.418L148.917,36.418z M110.165,34.62v-0.251c0-0.276,0.225-0.5,0.5-0.5l0,0
			c0.276,0,0.5,0.224,0.5,0.5l0,0v0.251c0,0.276-0.224,0.5-0.5,0.5l0,0C110.39,35.12,110.165,34.896,110.165,34.62L110.165,34.62z
			 M148.917,34.581v-0.251c0-0.276,0.224-0.5,0.5-0.5l0,0c0.275,0,0.5,0.224,0.5,0.5l0,0v0.251c0,0.276-0.225,0.5-0.5,0.5l0,0
			C149.141,35.08,148.917,34.856,148.917,34.581L148.917,34.581z M110.165,32.78v-0.251c0-0.276,0.225-0.5,0.5-0.5l0,0
			c0.276,0,0.5,0.224,0.5,0.5l0,0v0.251c0,0.276-0.224,0.5-0.5,0.5l0,0C110.39,33.28,110.165,33.056,110.165,32.78L110.165,32.78z
			 M148.917,32.74v-0.251c0-0.276,0.224-0.5,0.5-0.5l0,0c0.275,0,0.5,0.224,0.5,0.5l0,0v0.251c0,0.276-0.225,0.5-0.5,0.5l0,0
			C149.141,33.24,148.917,33.016,148.917,32.74L148.917,32.74z M110.165,30.939V30.69c0-0.278,0.225-0.5,0.5-0.5l0,0
			c0.276,0,0.5,0.222,0.5,0.5l0,0v0.249c0,0.276-0.224,0.5-0.5,0.5l0,0C110.39,31.439,110.165,31.215,110.165,30.939L110.165,30.939
			z M148.917,30.9v-0.251c0-0.276,0.224-0.5,0.5-0.5l0,0c0.275,0,0.5,0.224,0.5,0.5l0,0V30.9c0,0.276-0.225,0.5-0.5,0.5l0,0
			C149.141,31.4,148.917,31.176,148.917,30.9L148.917,30.9z M110.165,29.099V28.85c0-0.278,0.225-0.5,0.5-0.5l0,0
			c0.276,0,0.5,0.222,0.5,0.5l0,0v0.249c0,0.276-0.224,0.5-0.5,0.5l0,0C110.39,29.599,110.165,29.375,110.165,29.099L110.165,29.099
			z M148.917,29.06v-0.251c0-0.276,0.224-0.5,0.5-0.5l0,0c0.275,0,0.5,0.224,0.5,0.5l0,0v0.251c0,0.276-0.225,0.5-0.5,0.5l0,0
			C149.141,29.56,148.917,29.336,148.917,29.06L148.917,29.06z M110.165,27.259V27.01c0-0.278,0.225-0.5,0.5-0.5l0,0
			c0.276,0,0.5,0.222,0.5,0.5l0,0v0.249c0,0.276-0.224,0.5-0.5,0.5l0,0C110.39,27.759,110.165,27.535,110.165,27.259L110.165,27.259
			z M148.917,27.22v-0.251c0-0.276,0.224-0.5,0.5-0.5l0,0c0.275,0,0.5,0.224,0.5,0.5l0,0v0.251c0,0.276-0.225,0.5-0.5,0.5l0,0
			C149.141,27.72,148.917,27.496,148.917,27.22L148.917,27.22z M110.165,25.419V25.17c0-0.276,0.225-0.5,0.5-0.5l0,0
			c0.276,0,0.5,0.224,0.5,0.5l0,0v0.249c0,0.276-0.224,0.5-0.5,0.5l0,0C110.39,25.919,110.165,25.695,110.165,25.419L110.165,25.419
			z M148.917,25.379V25.13c0-0.278,0.224-0.5,0.5-0.5l0,0c0.275,0,0.5,0.222,0.5,0.5l0,0v0.249c0,0.276-0.225,0.5-0.5,0.5l0,0
			C149.141,25.879,148.917,25.655,148.917,25.379L148.917,25.379z M110.165,23.579V23.33c0-0.276,0.225-0.5,0.5-0.5l0,0
			c0.276,0,0.5,0.224,0.5,0.5l0,0v0.249c0,0.276-0.224,0.5-0.5,0.5l0,0C110.39,24.079,110.165,23.854,110.165,23.579L110.165,23.579
			z M148.917,23.54v-0.251c0-0.276,0.224-0.5,0.5-0.5l0,0c0.275,0,0.5,0.224,0.5,0.5l0,0v0.251c0,0.276-0.225,0.5-0.5,0.5l0,0
			C149.141,24.039,148.917,23.815,148.917,23.54L148.917,23.54z M110.165,21.739V21.49c0-0.276,0.225-0.5,0.5-0.5l0,0
			c0.276,0,0.5,0.224,0.5,0.5l0,0v0.249c0,0.276-0.224,0.5-0.5,0.5l0,0C110.39,22.239,110.165,22.015,110.165,21.739L110.165,21.739
			z M148.917,21.699V21.45c0-0.278,0.224-0.5,0.5-0.5l0,0c0.275,0,0.5,0.222,0.5,0.5l0,0v0.249c0,0.276-0.225,0.5-0.5,0.5l0,0
			C149.141,22.199,148.917,21.975,148.917,21.699L148.917,21.699z M110.165,19.9v-0.251c0-0.276,0.225-0.5,0.5-0.5l0,0
			c0.276,0,0.5,0.224,0.5,0.5l0,0V19.9c0,0.276-0.224,0.5-0.5,0.5l0,0C110.39,20.4,110.165,20.176,110.165,19.9L110.165,19.9z
			 M148.917,19.859V19.61c0-0.276,0.224-0.5,0.5-0.5l0,0c0.275,0,0.5,0.224,0.5,0.5l0,0v0.249c0,0.276-0.225,0.5-0.5,0.5l0,0
			C149.141,20.359,148.917,20.135,148.917,19.859L148.917,19.859z M110.165,18.061v-0.251c0-0.276,0.225-0.5,0.5-0.5l0,0
			c0.276,0,0.5,0.224,0.5,0.5l0,0v0.251c0,0.276-0.224,0.5-0.5,0.5l0,0C110.39,18.56,110.165,18.336,110.165,18.061L110.165,18.061z
			 M148.917,18.019V17.77c0-0.276,0.224-0.5,0.5-0.5l0,0c0.275,0,0.5,0.224,0.5,0.5l0,0v0.249c0,0.276-0.225,0.5-0.5,0.5l0,0
			C149.141,18.519,148.917,18.295,148.917,18.019L148.917,18.019z M110.165,16.22v-0.251c0-0.276,0.225-0.5,0.5-0.5l0,0
			c0.276,0,0.5,0.224,0.5,0.5l0,0v0.251c0,0.276-0.224,0.5-0.5,0.5l0,0C110.39,16.72,110.165,16.496,110.165,16.22L110.165,16.22z
			 M148.917,16.179V15.93c0-0.276,0.224-0.5,0.5-0.5l0,0c0.275,0,0.5,0.224,0.5,0.5l0,0v0.249c0,0.276-0.225,0.5-0.5,0.5l0,0
			C149.141,16.679,148.917,16.455,148.917,16.179L148.917,16.179z M110.165,14.38v-0.251c0-0.276,0.225-0.5,0.5-0.5l0,0
			c0.276,0,0.5,0.224,0.5,0.5l0,0v0.251c0,0.276-0.224,0.5-0.5,0.5l0,0C110.39,14.88,110.165,14.656,110.165,14.38L110.165,14.38z
			 M148.917,14.34v-0.251c0-0.276,0.224-0.5,0.5-0.5l0,0c0.275,0,0.5,0.224,0.5,0.5l0,0v0.251c0,0.276-0.225,0.5-0.5,0.5l0,0
			C149.141,14.84,148.917,14.617,148.917,14.34L148.917,14.34z M110.165,12.54v-0.251c0-0.276,0.225-0.5,0.5-0.5l0,0
			c0.276,0,0.5,0.224,0.5,0.5l0,0v0.251c0,0.276-0.224,0.5-0.5,0.5l0,0C110.39,13.04,110.165,12.816,110.165,12.54L110.165,12.54z
			 M148.917,12.499V12.25c0-0.276,0.224-0.5,0.5-0.5l0,0c0.275,0,0.5,0.224,0.5,0.5l0,0v0.249c0,0.276-0.225,0.5-0.5,0.5l0,0
			C149.141,12.998,148.917,12.774,148.917,12.499L148.917,12.499z M110.165,10.7v-0.251c0-0.276,0.225-0.5,0.5-0.5l0,0
			c0.276,0,0.5,0.224,0.5,0.5l0,0V10.7c0,0.276-0.224,0.5-0.5,0.5l0,0C110.39,11.2,110.165,10.976,110.165,10.7L110.165,10.7z
			 M148.917,10.66v-0.251c0-0.276,0.224-0.5,0.5-0.5l0,0c0.275,0,0.5,0.224,0.5,0.5l0,0v0.251c0,0.276-0.225,0.5-0.5,0.5l0,0
			C149.141,11.16,148.917,10.936,148.917,10.66L148.917,10.66z M110.165,8.859V8.61c0-0.278,0.225-0.5,0.5-0.5l0,0
			c0.276,0,0.5,0.222,0.5,0.5l0,0v0.249c0,0.276-0.224,0.5-0.5,0.5l0,0C110.39,9.359,110.165,9.135,110.165,8.859L110.165,8.859z
			 M148.917,8.82V8.569c0-0.276,0.224-0.5,0.5-0.5l0,0c0.275,0,0.5,0.224,0.5,0.5l0,0V8.82c0,0.276-0.225,0.5-0.5,0.5l0,0
			C149.141,9.32,148.917,9.096,148.917,8.82L148.917,8.82z M110.165,7.02V6.771c0-0.276,0.225-0.5,0.5-0.5l0,0
			c0.276,0,0.5,0.224,0.5,0.5l0,0V7.02c0,0.276-0.224,0.5-0.5,0.5l0,0C110.39,7.519,110.165,7.295,110.165,7.02L110.165,7.02z
			 M148.917,6.98V6.729c0-0.276,0.224-0.5,0.5-0.5l0,0c0.275,0,0.5,0.224,0.5,0.5l0,0V6.98c0,0.276-0.225,0.5-0.5,0.5l0,0
			C149.141,7.48,148.917,7.256,148.917,6.98L148.917,6.98z M110.165,5.179V4.93c0-0.278,0.225-0.5,0.5-0.5l0,0
			c0.276,0,0.5,0.222,0.5,0.5l0,0v0.249c0,0.276-0.224,0.5-0.5,0.5l0,0C110.39,5.679,110.165,5.455,110.165,5.179L110.165,5.179z
			 M148.917,5.14V4.889c0-0.276,0.224-0.5,0.5-0.5l0,0c0.275,0,0.5,0.224,0.5,0.5l0,0V5.14c0,0.276-0.225,0.5-0.5,0.5l0,0
			C149.141,5.64,148.917,5.416,148.917,5.14L148.917,5.14z M110.165,3.339V3.25c0-0.133,0.055-0.262,0.147-0.355l0,0
			c0.094-0.091,0.223-0.145,0.353-0.145l0,0h0.16c0.276,0,0.5,0.224,0.5,0.5l0,0c0,0.22-0.143,0.407-0.341,0.474l0,0
			c-0.086,0.072-0.197,0.115-0.319,0.115l0,0C110.39,3.839,110.165,3.615,110.165,3.339L110.165,3.339z M149.198,3.75
			c-0.268-0.009-0.482-0.229-0.482-0.5l0,0c0-0.276,0.224-0.5,0.5-0.5l0,0h0.201c0.133,0,0.259,0.052,0.353,0.147l0,0
			c0.096,0.093,0.146,0.22,0.146,0.353l0,0l0.002,0.049c0,0.276-0.225,0.5-0.5,0.5l0,0C149.339,3.799,149.265,3.781,149.198,3.75
			L149.198,3.75z M147.376,3.75c-0.276,0-0.5-0.224-0.5-0.5l0,0c0-0.276,0.224-0.5,0.5-0.5l0,0h0.248c0.276,0,0.503,0.224,0.503,0.5
			l0,0c0,0.276-0.227,0.5-0.503,0.5l0,0H147.376L147.376,3.75z M145.535,3.75c-0.275,0-0.5-0.224-0.5-0.5l0,0
			c0-0.276,0.225-0.5,0.5-0.5l0,0h0.251c0.274,0,0.5,0.224,0.5,0.5l0,0c0,0.276-0.226,0.5-0.5,0.5l0,0H145.535L145.535,3.75z
			 M143.695,3.75c-0.276,0-0.5-0.224-0.5-0.5l0,0c0-0.276,0.224-0.5,0.5-0.5l0,0h0.251c0.275,0,0.5,0.224,0.5,0.5l0,0
			c0,0.276-0.225,0.5-0.5,0.5l0,0H143.695L143.695,3.75z M141.855,3.75c-0.276,0-0.5-0.224-0.5-0.5l0,0c0-0.276,0.224-0.5,0.5-0.5
			l0,0h0.251c0.275,0,0.5,0.224,0.5,0.5l0,0c0,0.276-0.225,0.5-0.5,0.5l0,0H141.855L141.855,3.75z M140.017,3.75
			c-0.277,0-0.5-0.224-0.5-0.5l0,0c0-0.276,0.223-0.5,0.5-0.5l0,0h0.249c0.276,0,0.5,0.224,0.5,0.5l0,0c0,0.276-0.224,0.5-0.5,0.5
			l0,0H140.017L140.017,3.75z M138.177,3.75c-0.276,0-0.5-0.224-0.5-0.5l0,0c0-0.276,0.224-0.5,0.5-0.5l0,0h0.249
			c0.275,0,0.5,0.224,0.5,0.5l0,0c0,0.276-0.225,0.5-0.5,0.5l0,0H138.177L138.177,3.75z M136.337,3.75c-0.276,0-0.5-0.224-0.5-0.5
			l0,0c0-0.276,0.224-0.5,0.5-0.5l0,0h0.249c0.275,0,0.5,0.224,0.5,0.5l0,0c0,0.276-0.225,0.5-0.5,0.5l0,0H136.337L136.337,3.75z
			 M134.496,3.75c-0.277,0-0.5-0.224-0.5-0.5l0,0c0-0.276,0.223-0.5,0.5-0.5l0,0h0.249c0.276,0,0.5,0.224,0.5,0.5l0,0
			c0,0.276-0.224,0.5-0.5,0.5l0,0H134.496L134.496,3.75z M132.656,3.75c-0.276,0-0.5-0.224-0.5-0.5l0,0c0-0.276,0.224-0.5,0.5-0.5
			l0,0h0.249c0.275,0,0.5,0.224,0.5,0.5l0,0c0,0.276-0.225,0.5-0.5,0.5l0,0H132.656L132.656,3.75z M130.816,3.75
			c-0.276,0-0.5-0.224-0.5-0.5l0,0c0-0.276,0.224-0.5,0.5-0.5l0,0h0.249c0.275,0,0.5,0.224,0.5,0.5l0,0c0,0.276-0.225,0.5-0.5,0.5
			l0,0H130.816L130.816,3.75z M128.976,3.75c-0.275,0-0.5-0.224-0.5-0.5l0,0c0-0.276,0.225-0.5,0.5-0.5l0,0h0.251
			c0.274,0,0.5,0.224,0.5,0.5l0,0c0,0.276-0.226,0.5-0.5,0.5l0,0H128.976L128.976,3.75z M127.136,3.75c-0.276,0-0.5-0.224-0.5-0.5
			l0,0c0-0.276,0.224-0.5,0.5-0.5l0,0h0.251c0.273,0,0.5,0.224,0.5,0.5l0,0c0,0.276-0.227,0.5-0.5,0.5l0,0H127.136L127.136,3.75z
			 M125.296,3.75c-0.276,0-0.5-0.224-0.5-0.5l0,0c0-0.276,0.224-0.5,0.5-0.5l0,0h0.251c0.275,0,0.5,0.224,0.5,0.5l0,0
			c0,0.276-0.225,0.5-0.5,0.5l0,0H125.296L125.296,3.75z M123.455,3.75c-0.275,0-0.5-0.224-0.5-0.5l0,0c0-0.276,0.225-0.5,0.5-0.5
			l0,0h0.251c0.274,0,0.5,0.224,0.5,0.5l0,0c0,0.276-0.226,0.5-0.5,0.5l0,0H123.455L123.455,3.75z M121.615,3.75
			c-0.276,0-0.5-0.224-0.5-0.5l0,0c0-0.276,0.224-0.5,0.5-0.5l0,0h0.251c0.273,0,0.5,0.224,0.5,0.5l0,0c0,0.276-0.227,0.5-0.5,0.5
			l0,0H121.615L121.615,3.75z M119.775,3.75c-0.276,0-0.5-0.224-0.5-0.5l0,0c0-0.276,0.224-0.5,0.5-0.5l0,0h0.251
			c0.275,0,0.5,0.224,0.5,0.5l0,0c0,0.276-0.225,0.5-0.5,0.5l0,0H119.775L119.775,3.75z M117.937,3.75c-0.277,0-0.5-0.224-0.5-0.5
			l0,0c0-0.276,0.223-0.5,0.5-0.5l0,0h0.249c0.276,0,0.5,0.224,0.5,0.5l0,0c0,0.276-0.224,0.5-0.5,0.5l0,0H117.937L117.937,3.75z
			 M116.097,3.75c-0.278,0-0.5-0.224-0.5-0.5l0,0c0-0.276,0.222-0.5,0.5-0.5l0,0h0.249c0.276,0,0.5,0.224,0.5,0.5l0,0
			c0,0.276-0.224,0.5-0.5,0.5l0,0H116.097L116.097,3.75z M114.257,3.75c-0.276,0-0.5-0.224-0.5-0.5l0,0c0-0.276,0.224-0.5,0.5-0.5
			l0,0h0.249c0.275,0,0.5,0.224,0.5,0.5l0,0c0,0.276-0.225,0.5-0.5,0.5l0,0H114.257L114.257,3.75z M112.416,3.75
			c-0.277,0-0.5-0.224-0.5-0.5l0,0c0-0.276,0.223-0.5,0.5-0.5l0,0h0.249c0.276,0,0.5,0.224,0.5,0.5l0,0c0,0.276-0.224,0.5-0.5,0.5
			l0,0H112.416L112.416,3.75z"/>
	</g>
	<line fill="none" stroke="#333333" stroke-linecap="round" stroke-linejoin="round" x1="39.75" y1="92" x2="149" y2="92"/>
	
		<line fill="none" stroke="#333333" stroke-width="1.4" stroke-linecap="round" stroke-linejoin="round" x1="23.875" y1="15.125" x2="23.875" y2="169.75"/>
	
		<line fill="none" stroke="#000000" stroke-linecap="round" stroke-linejoin="round" x1="39.75" y1="117.875" x2="149" y2="117.875"/>
	<line fill="none" stroke="#000000" stroke-linecap="round" stroke-linejoin="round" x1="39.75" y1="143.75" x2="149" y2="143.75"/>
</g>
<g id="Layer_4" display="none">
	<g display="inline">
		<g>
			<path d="M129.514,31.574c-1.997-1.417-3.803-2.73-7.65-2.741l0,0c-3.849,0.011-5.655,1.324-7.652,2.741l0,0
				c-1.975,1.419-4.14,2.939-8.233,2.927l0,0c-4.096,0.012-6.26-1.508-8.234-2.927l0,0c-1.995-1.417-3.804-2.73-7.65-2.743l0,0
				c-3.848,0.013-5.654,1.326-7.651,2.743l0,0c-1.974,1.419-4.137,2.939-8.23,2.927l0,0c-4.093,0.012-6.256-1.508-8.23-2.927l0,0
				c-1.995-1.417-3.802-2.73-7.646-2.743l0,0v0.002c-0.278,0-0.501-0.226-0.501-0.501l0,0c0-0.276,0.224-0.5,0.501-0.5l0,0
				c4.091-0.012,6.254,1.508,8.229,2.927l0,0c1.995,1.415,3.802,2.729,7.648,2.741l0,0c3.847-0.012,5.653-1.326,7.65-2.741l0,0
				c1.975-1.419,4.138-2.939,8.231-2.927l0,0c4.096-0.012,6.258,1.508,8.232,2.927l0,0c1.997,1.415,3.804,2.729,7.652,2.741l0,0
				c3.848-0.012,5.654-1.326,7.651-2.741l0,0c1.976-1.419,4.141-2.939,8.234-2.927l0,0c4.094-0.012,6.259,1.508,8.233,2.927l0,0
				c1.997,1.415,3.803,2.729,7.652,2.741l0,0c0.275,0,0.501,0.224,0.501,0.501l0,0c0,0.275-0.226,0.5-0.501,0.5l0,0
				c-0.017,0-0.033,0-0.05,0l0,0C133.638,34.501,131.482,32.987,129.514,31.574L129.514,31.574z"/>
		</g>
	</g>
	<g display="inline">
		<g>
			<path d="M129.514,35.158c-1.997-1.417-3.803-2.73-7.65-2.741l0,0c-3.849,0.011-5.655,1.324-7.652,2.741l0,0
				c-1.975,1.419-4.14,2.939-8.233,2.927l0,0c-4.096,0.012-6.26-1.508-8.234-2.927l0,0c-1.995-1.417-3.804-2.73-7.65-2.743l0,0
				c-3.848,0.013-5.654,1.326-7.651,2.743l0,0c-1.974,1.419-4.137,2.939-8.23,2.927l0,0c-4.093,0.012-6.256-1.508-8.23-2.927l0,0
				c-1.995-1.417-3.802-2.73-7.646-2.743l0,0v0.002c-0.278,0-0.501-0.226-0.501-0.501l0,0c0-0.276,0.224-0.5,0.501-0.5l0,0
				c4.091-0.012,6.254,1.508,8.229,2.927l0,0c1.995,1.415,3.802,2.729,7.648,2.741l0,0c3.847-0.012,5.653-1.326,7.65-2.741l0,0
				c1.975-1.419,4.138-2.939,8.231-2.927l0,0c4.096-0.012,6.258,1.508,8.232,2.927l0,0c1.997,1.415,3.804,2.729,7.652,2.741l0,0
				c3.848-0.012,5.654-1.326,7.651-2.741l0,0c1.976-1.419,4.141-2.939,8.234-2.927l0,0c4.094-0.012,6.259,1.508,8.233,2.927l0,0
				c1.997,1.415,3.803,2.729,7.652,2.741l0,0c0.275,0,0.501,0.224,0.501,0.501l0,0c0,0.275-0.226,0.5-0.501,0.5l0,0
				c-0.017,0-0.033,0-0.05,0l0,0C133.638,38.085,131.482,36.571,129.514,35.158L129.514,35.158z"/>
		</g>
	</g>
	<g display="inline">
		<g>
			<path d="M129.514,38.741c-1.997-1.417-3.803-2.73-7.65-2.741l0,0c-3.849,0.011-5.655,1.324-7.652,2.741l0,0
				c-1.975,1.419-4.14,2.939-8.233,2.927l0,0c-4.096,0.012-6.26-1.508-8.234-2.927l0,0c-1.995-1.417-3.804-2.73-7.65-2.743l0,0
				c-3.848,0.013-5.654,1.326-7.651,2.743l0,0c-1.974,1.419-4.137,2.939-8.23,2.927l0,0c-4.093,0.012-6.256-1.508-8.23-2.927l0,0
				c-1.995-1.417-3.802-2.73-7.646-2.743l0,0V36c-0.278,0-0.501-0.226-0.501-0.501l0,0c0-0.276,0.224-0.5,0.501-0.5l0,0
				c4.091-0.012,6.254,1.508,8.229,2.927l0,0c1.995,1.415,3.802,2.729,7.648,2.741l0,0c3.847-0.012,5.653-1.326,7.65-2.741l0,0
				c1.975-1.419,4.138-2.939,8.231-2.927l0,0c4.096-0.012,6.258,1.508,8.232,2.927l0,0c1.997,1.415,3.804,2.729,7.652,2.741l0,0
				c3.848-0.012,5.654-1.326,7.651-2.741l0,0c1.976-1.419,4.141-2.939,8.234-2.927l0,0c4.094-0.012,6.259,1.508,8.233,2.927l0,0
				c1.997,1.415,3.803,2.729,7.652,2.741l0,0c0.275,0,0.501,0.224,0.501,0.501l0,0c0,0.275-0.226,0.5-0.501,0.5l0,0
				c-0.017,0-0.033,0-0.05,0l0,0C133.638,41.668,131.482,40.154,129.514,38.741L129.514,38.741z"/>
		</g>
	</g>
	<g display="inline">
		<g>
			<path d="M129.514,42.324c-1.997-1.417-3.803-2.73-7.65-2.741l0,0c-3.849,0.011-5.655,1.324-7.652,2.741l0,0
				c-1.975,1.419-4.14,2.939-8.233,2.927l0,0c-4.096,0.012-6.26-1.508-8.234-2.927l0,0c-1.995-1.417-3.804-2.73-7.65-2.743l0,0
				c-3.848,0.013-5.654,1.326-7.651,2.743l0,0c-1.974,1.419-4.137,2.939-8.23,2.927l0,0c-4.093,0.012-6.256-1.508-8.23-2.927l0,0
				c-1.995-1.417-3.802-2.73-7.646-2.743l0,0v0.002c-0.278,0-0.501-0.226-0.501-0.501l0,0c0-0.276,0.224-0.5,0.501-0.5l0,0
				c4.091-0.012,6.254,1.508,8.229,2.927l0,0c1.995,1.415,3.802,2.729,7.648,2.741l0,0c3.847-0.012,5.653-1.326,7.65-2.741l0,0
				c1.975-1.419,4.138-2.939,8.231-2.927l0,0c4.096-0.012,6.258,1.508,8.232,2.927l0,0c1.997,1.415,3.804,2.729,7.652,2.741l0,0
				c3.848-0.012,5.654-1.326,7.651-2.741l0,0c1.976-1.419,4.141-2.939,8.234-2.927l0,0c4.094-0.012,6.259,1.508,8.233,2.927l0,0
				c1.997,1.415,3.803,2.729,7.652,2.741l0,0c0.275,0,0.501,0.224,0.501,0.501l0,0c0,0.275-0.226,0.5-0.501,0.5l0,0
				c-0.017,0-0.033,0-0.05,0l0,0C133.638,45.251,131.482,43.737,129.514,42.324L129.514,42.324z"/>
		</g>
	</g>
	<g display="inline">
		<g>
			<path d="M129.514,27.991c-1.997-1.417-3.803-2.73-7.65-2.741l0,0c-3.849,0.011-5.655,1.324-7.652,2.741l0,0
				c-1.975,1.419-4.14,2.939-8.233,2.927l0,0c-4.096,0.012-6.26-1.508-8.234-2.927l0,0c-1.995-1.417-3.804-2.73-7.65-2.743l0,0
				c-3.848,0.013-5.654,1.326-7.651,2.743l0,0c-1.974,1.419-4.137,2.939-8.23,2.927l0,0c-4.093,0.012-6.256-1.508-8.23-2.927l0,0
				c-1.995-1.417-3.802-2.73-7.646-2.743l0,0v0.002c-0.278,0-0.501-0.226-0.501-0.501l0,0c0-0.276,0.224-0.5,0.501-0.5l0,0
				c4.091-0.012,6.254,1.508,8.229,2.927l0,0c1.995,1.415,3.802,2.729,7.648,2.741l0,0c3.847-0.012,5.653-1.326,7.65-2.741l0,0
				c1.975-1.419,4.138-2.939,8.231-2.927l0,0c4.096-0.012,6.258,1.508,8.232,2.927l0,0c1.997,1.415,3.804,2.729,7.652,2.741l0,0
				c3.848-0.012,5.654-1.326,7.651-2.741l0,0c1.976-1.419,4.141-2.939,8.234-2.927l0,0c4.094-0.012,6.259,1.508,8.233,2.927l0,0
				c1.997,1.415,3.803,2.729,7.652,2.741l0,0c0.275,0,0.501,0.224,0.501,0.501l0,0c0,0.275-0.226,0.5-0.501,0.5l0,0
				c-0.017,0-0.033,0-0.05,0l0,0C133.638,30.918,131.482,29.404,129.514,27.991L129.514,27.991z"/>
		</g>
	</g>
	<g display="inline">
		<g>
			<path d="M129.514,45.908c-1.997-1.417-3.803-2.73-7.65-2.741l0,0c-3.849,0.011-5.655,1.324-7.652,2.741l0,0
				c-1.975,1.419-4.14,2.939-8.233,2.927l0,0c-4.096,0.012-6.26-1.508-8.234-2.927l0,0c-1.995-1.417-3.804-2.73-7.65-2.743l0,0
				c-3.848,0.013-5.654,1.326-7.651,2.743l0,0c-1.974,1.419-4.137,2.939-8.23,2.927l0,0c-4.093,0.012-6.256-1.508-8.23-2.927l0,0
				c-1.995-1.417-3.802-2.73-7.646-2.743l0,0v0.002c-0.278,0-0.501-0.226-0.501-0.501l0,0c0-0.276,0.224-0.5,0.501-0.5l0,0
				c4.091-0.012,6.254,1.508,8.229,2.927l0,0c1.995,1.415,3.802,2.729,7.648,2.741l0,0c3.847-0.012,5.653-1.326,7.65-2.741l0,0
				c1.975-1.419,4.138-2.939,8.231-2.927l0,0c4.096-0.012,6.258,1.508,8.232,2.927l0,0c1.997,1.415,3.804,2.729,7.652,2.741l0,0
				c3.848-0.012,5.654-1.326,7.651-2.741l0,0c1.976-1.419,4.141-2.939,8.234-2.927l0,0c4.094-0.012,6.259,1.508,8.233,2.927l0,0
				c1.997,1.415,3.803,2.729,7.652,2.741l0,0c0.275,0,0.501,0.224,0.501,0.501l0,0c0,0.275-0.226,0.5-0.501,0.5l0,0
				c-0.017,0-0.033,0-0.05,0l0,0C133.638,48.835,131.482,47.321,129.514,45.908L129.514,45.908z"/>
		</g>
	</g>
	<g display="inline">
		<g>
			<path d="M129.514,31.574c-1.997-1.417-3.803-2.73-7.65-2.741l0,0c-3.849,0.011-5.655,1.324-7.652,2.741l0,0
				c-1.975,1.419-4.14,2.939-8.233,2.927l0,0c-4.096,0.012-6.26-1.508-8.234-2.927l0,0c-1.995-1.417-3.804-2.73-7.65-2.743l0,0
				c-3.848,0.013-5.654,1.326-7.651,2.743l0,0c-1.974,1.419-4.137,2.939-8.23,2.927l0,0c-4.093,0.012-6.256-1.508-8.23-2.927l0,0
				c-1.995-1.417-3.802-2.73-7.646-2.743l0,0v0.002c-0.278,0-0.501-0.226-0.501-0.501l0,0c0-0.276,0.224-0.5,0.501-0.5l0,0
				c4.091-0.012,6.254,1.508,8.229,2.927l0,0c1.995,1.415,3.802,2.729,7.648,2.741l0,0c3.847-0.012,5.653-1.326,7.65-2.741l0,0
				c1.975-1.419,4.138-2.939,8.231-2.927l0,0c4.096-0.012,6.258,1.508,8.232,2.927l0,0c1.997,1.415,3.804,2.729,7.652,2.741l0,0
				c3.848-0.012,5.654-1.326,7.651-2.741l0,0c1.976-1.419,4.141-2.939,8.234-2.927l0,0c4.094-0.012,6.259,1.508,8.233,2.927l0,0
				c1.997,1.415,3.803,2.729,7.652,2.741l0,0c0.275,0,0.501,0.224,0.501,0.501l0,0c0,0.275-0.226,0.5-0.501,0.5l0,0
				c-0.017,0-0.033,0-0.05,0l0,0C133.638,34.501,131.482,32.987,129.514,31.574L129.514,31.574z"/>
		</g>
	</g>
	<g display="inline">
		<g>
			<path d="M129.514,35.158c-1.997-1.417-3.803-2.73-7.65-2.741l0,0c-3.849,0.011-5.655,1.324-7.652,2.741l0,0
				c-1.975,1.419-4.14,2.939-8.233,2.927l0,0c-4.096,0.012-6.26-1.508-8.234-2.927l0,0c-1.995-1.417-3.804-2.73-7.65-2.743l0,0
				c-3.848,0.013-5.654,1.326-7.651,2.743l0,0c-1.974,1.419-4.137,2.939-8.23,2.927l0,0c-4.093,0.012-6.256-1.508-8.23-2.927l0,0
				c-1.995-1.417-3.802-2.73-7.646-2.743l0,0v0.002c-0.278,0-0.501-0.226-0.501-0.501l0,0c0-0.276,0.224-0.5,0.501-0.5l0,0
				c4.091-0.012,6.254,1.508,8.229,2.927l0,0c1.995,1.415,3.802,2.729,7.648,2.741l0,0c3.847-0.012,5.653-1.326,7.65-2.741l0,0
				c1.975-1.419,4.138-2.939,8.231-2.927l0,0c4.096-0.012,6.258,1.508,8.232,2.927l0,0c1.997,1.415,3.804,2.729,7.652,2.741l0,0
				c3.848-0.012,5.654-1.326,7.651-2.741l0,0c1.976-1.419,4.141-2.939,8.234-2.927l0,0c4.094-0.012,6.259,1.508,8.233,2.927l0,0
				c1.997,1.415,3.803,2.729,7.652,2.741l0,0c0.275,0,0.501,0.224,0.501,0.501l0,0c0,0.275-0.226,0.5-0.501,0.5l0,0
				c-0.017,0-0.033,0-0.05,0l0,0C133.638,38.085,131.482,36.571,129.514,35.158L129.514,35.158z"/>
		</g>
	</g>
	<g display="inline">
		<g>
			<path d="M129.514,38.741c-1.997-1.417-3.803-2.73-7.65-2.741l0,0c-3.849,0.011-5.655,1.324-7.652,2.741l0,0
				c-1.975,1.419-4.14,2.939-8.233,2.927l0,0c-4.096,0.012-6.26-1.508-8.234-2.927l0,0c-1.995-1.417-3.804-2.73-7.65-2.743l0,0
				c-3.848,0.013-5.654,1.326-7.651,2.743l0,0c-1.974,1.419-4.137,2.939-8.23,2.927l0,0c-4.093,0.012-6.256-1.508-8.23-2.927l0,0
				c-1.995-1.417-3.802-2.73-7.646-2.743l0,0V36c-0.278,0-0.501-0.226-0.501-0.501l0,0c0-0.276,0.224-0.5,0.501-0.5l0,0
				c4.091-0.012,6.254,1.508,8.229,2.927l0,0c1.995,1.415,3.802,2.729,7.648,2.741l0,0c3.847-0.012,5.653-1.326,7.65-2.741l0,0
				c1.975-1.419,4.138-2.939,8.231-2.927l0,0c4.096-0.012,6.258,1.508,8.232,2.927l0,0c1.997,1.415,3.804,2.729,7.652,2.741l0,0
				c3.848-0.012,5.654-1.326,7.651-2.741l0,0c1.976-1.419,4.141-2.939,8.234-2.927l0,0c4.094-0.012,6.259,1.508,8.233,2.927l0,0
				c1.997,1.415,3.803,2.729,7.652,2.741l0,0c0.275,0,0.501,0.224,0.501,0.501l0,0c0,0.275-0.226,0.5-0.501,0.5l0,0
				c-0.017,0-0.033,0-0.05,0l0,0C133.638,41.668,131.482,40.154,129.514,38.741L129.514,38.741z"/>
		</g>
	</g>
	<g display="inline">
		<g>
			<path d="M129.514,42.324c-1.997-1.417-3.803-2.73-7.65-2.741l0,0c-3.849,0.011-5.655,1.324-7.652,2.741l0,0
				c-1.975,1.419-4.14,2.939-8.233,2.927l0,0c-4.096,0.012-6.26-1.508-8.234-2.927l0,0c-1.995-1.417-3.804-2.73-7.65-2.743l0,0
				c-3.848,0.013-5.654,1.326-7.651,2.743l0,0c-1.974,1.419-4.137,2.939-8.23,2.927l0,0c-4.093,0.012-6.256-1.508-8.23-2.927l0,0
				c-1.995-1.417-3.802-2.73-7.646-2.743l0,0v0.002c-0.278,0-0.501-0.226-0.501-0.501l0,0c0-0.276,0.224-0.5,0.501-0.5l0,0
				c4.091-0.012,6.254,1.508,8.229,2.927l0,0c1.995,1.415,3.802,2.729,7.648,2.741l0,0c3.847-0.012,5.653-1.326,7.65-2.741l0,0
				c1.975-1.419,4.138-2.939,8.231-2.927l0,0c4.096-0.012,6.258,1.508,8.232,2.927l0,0c1.997,1.415,3.804,2.729,7.652,2.741l0,0
				c3.848-0.012,5.654-1.326,7.651-2.741l0,0c1.976-1.419,4.141-2.939,8.234-2.927l0,0c4.094-0.012,6.259,1.508,8.233,2.927l0,0
				c1.997,1.415,3.803,2.729,7.652,2.741l0,0c0.275,0,0.501,0.224,0.501,0.501l0,0c0,0.275-0.226,0.5-0.501,0.5l0,0
				c-0.017,0-0.033,0-0.05,0l0,0C133.638,45.251,131.482,43.737,129.514,42.324L129.514,42.324z"/>
		</g>
	</g>
	<g display="inline">
		<g>
			<path d="M129.514,27.991c-1.997-1.417-3.803-2.73-7.65-2.741l0,0c-3.849,0.011-5.655,1.324-7.652,2.741l0,0
				c-1.975,1.419-4.14,2.939-8.233,2.927l0,0c-4.096,0.012-6.26-1.508-8.234-2.927l0,0c-1.995-1.417-3.804-2.73-7.65-2.743l0,0
				c-3.848,0.013-5.654,1.326-7.651,2.743l0,0c-1.974,1.419-4.137,2.939-8.23,2.927l0,0c-4.093,0.012-6.256-1.508-8.23-2.927l0,0
				c-1.995-1.417-3.802-2.73-7.646-2.743l0,0v0.002c-0.278,0-0.501-0.226-0.501-0.501l0,0c0-0.276,0.224-0.5,0.501-0.5l0,0
				c4.091-0.012,6.254,1.508,8.229,2.927l0,0c1.995,1.415,3.802,2.729,7.648,2.741l0,0c3.847-0.012,5.653-1.326,7.65-2.741l0,0
				c1.975-1.419,4.138-2.939,8.231-2.927l0,0c4.096-0.012,6.258,1.508,8.232,2.927l0,0c1.997,1.415,3.804,2.729,7.652,2.741l0,0
				c3.848-0.012,5.654-1.326,7.651-2.741l0,0c1.976-1.419,4.141-2.939,8.234-2.927l0,0c4.094-0.012,6.259,1.508,8.233,2.927l0,0
				c1.997,1.415,3.803,2.729,7.652,2.741l0,0c0.275,0,0.501,0.224,0.501,0.501l0,0c0,0.275-0.226,0.5-0.501,0.5l0,0
				c-0.017,0-0.033,0-0.05,0l0,0C133.638,30.918,131.482,29.404,129.514,27.991L129.514,27.991z"/>
		</g>
	</g>
	<g display="inline">
		<g>
			<path d="M129.514,45.908c-1.997-1.417-3.803-2.73-7.65-2.741l0,0c-3.849,0.011-5.655,1.324-7.652,2.741l0,0
				c-1.975,1.419-4.14,2.939-8.233,2.927l0,0c-4.096,0.012-6.26-1.508-8.234-2.927l0,0c-1.995-1.417-3.804-2.73-7.65-2.743l0,0
				c-3.848,0.013-5.654,1.326-7.651,2.743l0,0c-1.974,1.419-4.137,2.939-8.23,2.927l0,0c-4.093,0.012-6.256-1.508-8.23-2.927l0,0
				c-1.995-1.417-3.802-2.73-7.646-2.743l0,0v0.002c-0.278,0-0.501-0.226-0.501-0.501l0,0c0-0.276,0.224-0.5,0.501-0.5l0,0
				c4.091-0.012,6.254,1.508,8.229,2.927l0,0c1.995,1.415,3.802,2.729,7.648,2.741l0,0c3.847-0.012,5.653-1.326,7.65-2.741l0,0
				c1.975-1.419,4.138-2.939,8.231-2.927l0,0c4.096-0.012,6.258,1.508,8.232,2.927l0,0c1.997,1.415,3.804,2.729,7.652,2.741l0,0
				c3.848-0.012,5.654-1.326,7.651-2.741l0,0c1.976-1.419,4.141-2.939,8.234-2.927l0,0c4.094-0.012,6.259,1.508,8.233,2.927l0,0
				c1.997,1.415,3.803,2.729,7.652,2.741l0,0c0.275,0,0.501,0.224,0.501,0.501l0,0c0,0.275-0.226,0.5-0.501,0.5l0,0
				c-0.017,0-0.033,0-0.05,0l0,0C133.638,48.835,131.482,47.321,129.514,45.908L129.514,45.908z"/>
		</g>
	</g>
</g>
<g id="Layer_3">
	<g opacity="0.6">
		<g>
			<path d="M111.58,27.126c0.334,0.324,0.391,0.619,0.788,1.029c2.847,0.125,4.345,1.072,5.922,2.19c0,0-0.082,0.039-0.048,0.067
				c1.589,1.14,3.334,2.383,6.48,2.489c-0.008-0.349-0.014-0.693-0.016-1.032c-2.905-0.109-4.324-1.087-5.92-2.218l-0.099,0.137
				c-1.664-1.196-3.448-2.641-6.899-2.63l0.001-0.041C111.716,27.116,111.652,27.125,111.58,27.126z M115.641,30.903
				c-0.053-0.021-0.105-0.041-0.158-0.061c0.014,0.038,0.025,0.077,0.037,0.117c0.074,0.058,0.142,0.12,0.204,0.186
				C115.698,31.06,115.672,30.979,115.641,30.903z M115.791,31.95c0.086,0.04,0.168,0.08,0.25,0.121
				c0.021-0.104,0.033-0.205,0.038-0.302c-0.077-0.254-0.198-0.457-0.355-0.625C115.791,31.382,115.823,31.652,115.791,31.95z
				 M116.949,32.576c-0.07-0.384-0.186-0.817-0.333-1.223c-0.197-0.106-0.4-0.208-0.613-0.304c0.059,0.213,0.092,0.455,0.076,0.72
				c0.033,0.109,0.06,0.227,0.076,0.356C116.429,32.268,116.695,32.417,116.949,32.576z M118.743,32.734
				c-0.616-0.443-1.257-0.905-1.994-1.313c0.285,0.353,0.438,0.759,0.382,1.274c0.371,0.241,0.732,0.494,1.1,0.755
				c0,0-0.027,0.026-0.021,0.03c1.61,1.156,3.408,2.351,6.639,2.422c-0.02-0.343-0.038-0.685-0.055-1.022
				c-2.961-0.096-4.356-1.121-5.968-2.263L118.743,32.734z M118.742,35.755c-0.991-0.712-2.053-1.46-3.471-1.951
				c-0.101,0.09-0.202,0.182-0.313,0.277c-0.128,0.154-0.267,0.307-0.413,0.459c1.554,0.36,2.646,1.02,3.767,1.815
				c0,0-0.183,0.136-0.133,0.176c1.645,1.18,3.504,2.327,6.866,2.349c-0.024-0.323-0.048-0.646-0.07-0.967
				c-3.097-0.051-4.593-0.985-6.238-2.151L118.742,35.755z M115.02,33.715c-0.181,0.261-0.399,0.526-0.643,0.79
				c0.021,0.004,0.041,0.009,0.063,0.013c0.18-0.148,0.355-0.295,0.52-0.437c0.085-0.102,0.166-0.203,0.24-0.304
				C115.139,33.756,115.081,33.734,115.02,33.715z M112.132,36.503c-0.111-0.002-0.212-0.012-0.327-0.012
				c-0.41,0.277-0.763,0.497-0.993,0.61c0.174-0.015,0.36-0.021,0.545-0.027C111.534,36.95,111.807,36.753,112.132,36.503z
				 M118.813,38.679c-1.587-1.141-3.41-2.093-6.564-2.172c-0.339,0.247-0.627,0.441-0.828,0.564
				c0.126-0.004,0.237-0.018,0.368-0.018v0.018c3.243,0.009,4.756,1.228,6.439,2.423c0,0-0.061,0.073-0.055,0.078
				c1.66,1.191,3.542,2.245,6.966,2.245v0.178c0.014,0,0.028-0.163,0.042-0.163v0.061c0.034,0,0.063-0.008,0.092-0.015
				c-0.023-0.311-0.048-0.623-0.071-0.933c-0.007,0-0.014-0.006-0.021-0.006v0.208c-3.246-0.01-4.777-1.146-6.462-2.339
				L118.813,38.679z M111.789,24.998v0.087c3.243,0.009,4.775,1.103,6.459,2.297c0,0-0.017,0.01-0.01,0.015
				c1.592,1.142,3.345,2.224,6.504,2.311c0.01-0.192,0.024-0.375,0.037-0.562c-2.953-0.124-4.346-1.428-5.955-2.568l-0.189,0.265
				c-1.665-1.196-3.395-2.588-6.846-2.578v-0.061c-2.198-0.007-3.743,0.517-5.006,1.206c0.482,0.079,0.979,0.183,1.486,0.307
				C109.194,25.293,110.295,25.002,111.789,24.998z M110.24,37.174c0.175-0.025,0.345-0.055,0.531-0.071
				c0.204-0.114,0.572-0.353,1.019-0.674l-0.001-0.165c-0.739-0.002-1.391,0.067-1.996,0.173c-0.112,0.117-0.444,0.486-0.896,1.027
				c0.353-0.107,0.73-0.195,1.138-0.262c0.457-0.47,0.784-0.753,0.87-0.763C110.888,36.451,110.63,36.725,110.24,37.174z
				 M106.463,40.874c-0.203,0.46-0.396,0.934-0.577,1.414c0.181-0.128,0.362-0.254,0.544-0.377c0.323-0.551,0.68-1.094,1.05-1.615
				C107.119,40.476,106.781,40.67,106.463,40.874z M104.933,41.936l-0.002-0.002c-0.909,0.644-1.806,1.176-2.94,1.537
				c0.061,0.176,0.147,0.436,0.255,0.75c1.213-0.47,2.158-1.125,3.056-1.77l0.12,0.168c0.012-0.009,0.023-0.017,0.036-0.026
				c0.269-0.561,0.583-1.121,0.92-1.666C105.868,41.257,105.396,41.604,104.933,41.936z M125.454,44.297
				c-0.081-0.031-0.175-0.047-0.272-0.047l-0.001,0.029c-3.245-0.01-4.753-1.291-6.437-2.484l0.029-0.042
				c-1.664-1.196-3.533-2.474-6.984-2.463v0.048c-1.563-0.005-2.764,0.29-3.777,0.716c-0.314,0.457-0.62,0.935-0.906,1.423
				c1.165-0.698,2.522-1.22,4.684-1.226v-0.155c3.243,0.009,4.82,1.133,6.504,2.328c0,0-0.192,0.176-0.155,0.205
				c1.659,1.191,3.578,2.215,7.002,2.215v0.04c0.014,0,0.028,0.17,0.042,0.17v-0.173c0.105,0,0.216-0.024,0.309-0.068
				C125.478,44.641,125.467,44.469,125.454,44.297z M73.819,29.548c-0.46,0.029-1.052,0.081-1.605,0.125
				c-0.006,0.005-0.012,0.01-0.018,0.016c-0.196,0.165-0.375,0.332-0.53,0.497c0.479-0.085,0.974-0.171,1.423-0.254
				c0.272-0.131,0.548-0.261,0.823-0.389C73.881,29.544,73.853,29.545,73.819,29.548z M60.277,31.557
				c0.245-0.042,0.468-0.084,0.661-0.124c0.003-0.001,0.007-0.002,0.011-0.002c-0.018-0.084-0.028-0.172-0.031-0.265
				c-0.162,0.003-0.352,0.01-0.551,0.019c-0.012,0.039-0.021,0.079-0.032,0.118C60.314,31.387,60.29,31.471,60.277,31.557z
				 M60.975,31.542c0.008-0.032,0.014-0.063,0.024-0.095c0.003-0.01,0.007-0.02,0.01-0.029c-0.019,0.004-0.039,0.008-0.059,0.013
				c0,0.001,0,0.003,0.001,0.005C60.958,31.471,60.965,31.508,60.975,31.542z M58.23,28.271c0.001,0-0.035-0.166-0.035-0.166
				l0.034,0.129c1.645,0.005,2.838,0.271,3.837,0.686c0.173-0.196,0.362-0.394,0.564-0.589c-1.133-0.539-2.503-0.921-4.4-0.916
				v-0.011c-0.234,0-0.341,0.047-0.341,0.279h-0.173C57.715,27.916,57.996,28.271,58.23,28.271z M62.432,29.089
				c0.126,0.06,0.254,0.117,0.375,0.182c0.087-0.048,0.161-0.08,0.213-0.086c0.039-0.001,0.006,0.06-0.068,0.168
				c0.326,0.18,0.64,0.374,0.947,0.58c0.185-0.153,0.388-0.31,0.625-0.475c-0.535-0.375-1.104-0.737-1.741-1.054
				C62.651,28.643,62.533,28.874,62.432,29.089z M67.25,31.154c-0.378-0.192-0.734-0.402-1.078-0.625
				c-0.179,0.33-0.222,0.604-0.192,0.814c0.223,0.138,0.453,0.273,0.694,0.402C66.851,31.635,67.004,31.434,67.25,31.154z
				 M64.682,29.572c-0.035-0.024-0.069-0.05-0.104-0.074c-0.189,0.148-0.387,0.316-0.579,0.501c0.039,0.027,0.079,0.054,0.118,0.081
				C64.313,29.896,64.504,29.725,64.682,29.572z M61.28,30.833c-0.103-0.029-0.212-0.053-0.319-0.08
				c-0.032,0.145-0.045,0.282-0.042,0.412c0.069-0.001,0.126-0.001,0.186-0.001C61.155,31.053,61.214,30.943,61.28,30.833z
				 M59.67,31.217c0.243-0.012,0.478-0.024,0.698-0.033c0.056-0.183,0.124-0.36,0.205-0.527c-0.09-0.018-0.19-0.029-0.283-0.045
				c-0.426,0.067-0.873,0.136-1.296,0.203c-0.154,0.111-0.305,0.221-0.451,0.331C58.942,31.154,59.318,31.178,59.67,31.217z
				 M61.852,31.699c0.184,0.065,0.361,0.135,0.533,0.209c0.065-0.157,0.144-0.345,0.267-0.562c-0.222-0.104-0.456-0.2-0.699-0.29
				C61.882,31.271,61.844,31.488,61.852,31.699z M64.753,33.33l-0.042,0.06c1.644,1.182,3.416,2.621,6.786,2.645
				c0.042,0,0.076,0.006,0.118,0.006l0-0.161c0.503,0.002,0.965-0.028,1.406-0.072c2.585-0.261,4.185-1.245,5.606-2.267
				l-0.013-0.017c1.684-1.195,3.146-2.482,6.39-2.493l-0.001,0.223c1.233,0.004,2.223,0.141,3.068,0.373
				c0.145-0.291,0.29-0.59,0.438-0.897c-0.971-0.344-2.102-0.572-3.506-0.567v0.001c-3.451-0.011-5.264,1.406-6.929,2.603
				l-0.071-0.1c-1.59,1.127-3.003,2.257-5.885,2.389c-0.169,0.008-0.325,0.025-0.504,0.025v0.016
				c-0.843-0.002-1.568-0.08-2.217-0.21c-1.544-0.31-2.629-0.932-3.67-1.645C65.384,33.248,65.066,33.296,64.753,33.33z
				 M58.229,30.44V30.2c-0.053,0-0.104,0.018-0.152,0.042c0.046,0.232,0.092,0.466,0.139,0.701c0.238-0.042,0.497-0.085,0.776-0.129
				c0.151-0.109,0.304-0.217,0.456-0.322C59.067,30.458,58.662,30.439,58.229,30.44z M71.615,38.991l0-0.178
				c2.906,0.008,4.689-0.771,6.175-1.73c-0.503-0.034-1.028-0.08-1.573-0.137c-1.157,0.645-2.519,1.108-4.602,1.115l0,0.136
				c-3.243-0.01-4.688-1.341-6.37-2.534l-0.15,0.211c-0.697-0.5-1.416-1.042-2.261-1.508c-0.172-0.053-0.693-0.249-1.217-0.563
				c-0.824-0.308-1.786-0.513-2.938-0.556c0.058,0.288,0.114,0.576,0.171,0.864c2.823,0.136,4.351,1.104,5.919,2.218l-0.087,0.123
				C66.346,37.648,68.164,39.001,71.615,38.991z M72.369,29.035c0.033-0.022,0.062-0.043,0.097-0.065
				c-0.039,0.022-0.077,0.043-0.116,0.066c-0.206,0.118-0.412,0.244-0.614,0.373c0.045-0.008,0.09-0.017,0.136-0.025
				C72.021,29.271,72.187,29.155,72.369,29.035z M71.235,29.739c0.161-0.113,0.329-0.223,0.5-0.33
				c-0.587,0.107-1.02,0.204-1.107,0.273C70.538,29.751,70.806,29.759,71.235,29.739z M69.864,29.893
				c0.422-0.374,0.901-0.729,1.305-1.013c-0.147-0.006-0.296-0.01-0.437-0.021c-0.462,0.265-0.979,0.592-1.451,0.945
				C69.465,29.842,69.669,29.864,69.864,29.893z M71.146,30.005c0.086-0.088,0.183-0.181,0.294-0.278
				c-0.073,0.004-0.14,0.008-0.205,0.011c-0.122,0.084-0.24,0.169-0.353,0.255C70.97,29.999,71.057,30.002,71.146,30.005z
				 M58.229,25.13c0.001,0-0.153-0.046-0.153-0.047L58.229,25.13c2.691,0.008,4.14,0.825,5.517,1.785
				c0.241-0.308,0.478-0.555,0.689-0.693c-1.491-1.007-3.244-1.893-6.206-1.884v-0.112c-0.234,0-0.372,0.205-0.372,0.438h-0.058
				C57.799,24.895,57.996,25.13,58.229,25.13z M64.593,27.514l-0.007,0.009c0.438,0.315,0.898,0.638,1.396,0.944
				c0.434,0.267,0.899,0.521,1.412,0.743c0.463,0.2,0.975,0.366,1.526,0.501c0.399-0.271,0.884-0.563,1.475-0.875
				c-0.761-0.08-1.406-0.232-1.981-0.434c-0.469-0.165-0.899-0.357-1.295-0.579c-0.656-0.366-1.244-0.793-1.865-1.234l-0.096,0.136
				c-0.137-0.099-0.279-0.197-0.419-0.295c-0.165,0.172-0.422,0.4-0.73,0.666C64.201,27.234,64.395,27.373,64.593,27.514z
				 M98.396,33.005v-0.226c3.451,0.01,5.25-1.202,6.914-2.398l0.001,0.001c1.56-1.106,3.021-2.117,5.805-2.268
				c-0.294-0.343-0.386-0.611-0.759-0.91c-2.568,0.303-4.164,1.41-5.582,2.429l0.16,0.224c-1.684,1.193-3.296,2.123-6.539,2.133
				v0.106c-0.926-0.003-1.698-0.109-2.386-0.276c-0.031,0.085-0.063,0.168-0.095,0.252c-0.051,0.207-0.102,0.41-0.152,0.61
				C96.53,32.88,97.388,33.008,98.396,33.005z M69.403,31.912c-0.261-0.054-0.509-0.118-0.747-0.189
				c-0.302-0.09-0.589-0.192-0.859-0.307c-0.165,0.275-0.221,0.528-0.202,0.756c0.424,0.172,0.887,0.317,1.387,0.435
				c0.209,0.05,0.428,0.092,0.653,0.13c0.601,0.1,1.248,0.166,1.979,0.164v-0.042c3.451,0.01,5.239-1.295,6.903-2.491l0.039,0.056
				c1.684-1.195,3.203-2.262,6.447-2.273v-0.063c1.898,0.006,3.203,0.399,4.301,0.959c0.123-0.269,0.246-0.541,0.369-0.815
				c-1.209-0.559-2.675-0.951-4.67-0.945v-0.15c-3.451-0.01-5.19,1.517-6.855,2.713l-0.014-0.018c-1.684,1.193-3.277,2.21-6.52,2.22
				l0,0.079c-0.177,0-0.331-0.017-0.498-0.023c0.237,0.365,0.646,0.591,0.784,0.645c-0.189-0.035-0.702-0.314-1.217-0.665
				C70.225,32.048,69.795,31.993,69.403,31.912z M98.396,35.893c0.007,0,0.014,0,0.021,0c0.053-0.028,0.105-0.059,0.153-0.076
				c-0.035,0.002-0.079,0.03-0.127,0.074c3.42,0,5.311-1.159,6.967-2.35l-0.078-0.111c1.684-1.194,3.212-2.276,6.457-2.285v0.006
				c1.633,0.005,2.827,0.286,3.825,0.715c0.038-0.345-0.011-0.648-0.095-0.907c-0.111-0.089-0.237-0.169-0.372-0.244
				c-0.935-0.314-2.024-0.516-3.358-0.512v0.014c-3.451-0.01-5.324,1.271-6.99,2.467l-0.018-0.024
				c-1.684,1.193-3.142,2.348-6.385,2.358v0.01c-1.283-0.004-2.297-0.169-3.166-0.436c-0.095-0.029-0.183-0.063-0.274-0.094
				c-1.05-0.363-1.891-0.879-2.722-1.457c-0.154,0.275-0.306,0.535-0.454,0.787c0.826,0.561,1.741,1.056,2.874,1.404
				c0.111,0.034,0.22,0.071,0.336,0.103c0.953,0.256,2.059,0.41,3.405,0.406L98.396,35.893z M91.471,32.34
				c-0.653-0.461-1.358-0.92-2.186-1.299c-0.156,0.285-0.311,0.559-0.465,0.829c0.865,0.325,1.587,0.763,2.306,1.257
				C91.239,32.874,91.354,32.61,91.471,32.34z M98.396,38.802c0.444,0.001,0.859-0.018,1.253-0.054
				c0.267-0.396,0.495-0.683,0.667-0.821c-0.569,0.109-1.195,0.178-1.92,0.181v-0.05c-0.179,0-0.347-0.008-0.514-0.016
				c-0.123,0.222-0.247,0.455-0.37,0.7c0.286,0.018,0.569,0.038,0.883,0.037L98.396,38.802z M96.928,38.692
				c0.043-0.099,0.087-0.197,0.131-0.295c-0.066,0.093-0.134,0.189-0.201,0.286C96.881,38.685,96.903,38.689,96.928,38.692z
				 M104.829,35.749l-0.039-0.055c-1.271,0.9-2.421,1.81-4.303,2.207c-0.208,0.196-0.492,0.485-0.836,0.848
				c2.659-0.24,4.226-1.261,5.675-2.303l0.044,0.061c1.684-1.195,3.174-2.216,6.419-2.225v-0.035
				c0.895,0.002,1.655,0.079,2.336,0.205c0.256-0.265,0.481-0.532,0.669-0.795c-0.856-0.245-1.833-0.402-3.005-0.399v-0.034
				C108.338,33.212,106.495,34.553,104.829,35.749z M97.348,38.003c-0.034-0.003-0.069-0.006-0.104-0.009
				c-0.062,0.133-0.123,0.267-0.186,0.402C97.156,38.262,97.252,38.13,97.348,38.003z M94.192,37.065
				c-0.067,0.083-0.133,0.151-0.195,0.184c-0.112,0.086-0.108-0.027-0.021-0.297c-0.688-0.394-1.297-0.851-1.941-1.308l-0.104,0.146
				c-0.308-0.221-0.623-0.449-0.949-0.676c-0.191,0.291-0.37,0.551-0.534,0.774c0.317,0.208,0.63,0.424,0.949,0.651l0.123-0.172
				c1.255,0.901,2.563,1.819,4.608,2.212c0.153-0.236,0.306-0.464,0.455-0.677C95.634,37.731,94.871,37.432,94.192,37.065z
				 M87.165,34.504c1.154,0.22,2.029,0.617,2.832,1.1c0.119-0.261,0.251-0.548,0.402-0.876c-0.739-0.473-1.577-0.899-2.589-1.191
				C87.584,33.89,87.37,34.21,87.165,34.504z M85.003,34.312c0.608,0.002,1.138,0.05,1.634,0.118
				c0.17-0.318,0.355-0.673,0.554-1.056c-0.652-0.138-1.371-0.222-2.188-0.22l0.001,0.173c-3.451-0.01-5.226,1.318-6.89,2.514
				l-0.069-0.096c-0.435,0.308-0.857,0.609-1.3,0.888c0.515,0.067,1.007,0.119,1.479,0.16c0.126-0.088,0.255-0.174,0.379-0.264
				L78.6,36.525c1.684-1.195,3.16-2.519,6.403-2.53V34.312z M97.515,41.107c-0.362-0.027-0.701-0.07-1.019-0.127
				c-0.115,0.278-0.228,0.559-0.337,0.841c0.206,0.041,0.43,0.068,0.65,0.098C97.047,41.643,97.282,41.372,97.515,41.107z
				 M94.497,41.325c0.145-0.264,0.29-0.524,0.437-0.781c-1.155-0.451-2.05-1.095-2.984-1.757l-0.083,0.115
				c-1.665-1.196-3.409-2.71-6.862-2.7v0.21c-1.553-0.005-2.783,0.216-3.832,0.561c0.798,0.04,1.593,0.085,2.432,0.17
				c0.432-0.064,0.886-0.109,1.399-0.111v0.288c0.031,0.005,0.064,0.012,0.095,0.017c3.176,0.028,4.737,0.896,6.402,2.078
				l-0.076,0.108C92.317,40.165,93.275,40.837,94.497,41.325z M95.064,41.539c0.211,0.069,0.441,0.125,0.669,0.18
				c0.053-0.098,0.113-0.198,0.16-0.295c0.016-0.107,0.073-0.296,0.153-0.534c-0.18-0.042-0.355-0.087-0.522-0.137
				C95.369,41.011,95.216,41.273,95.064,41.539z M98.396,41.824c3.451,0.01,5.207-1.243,6.872-2.439l0.038,0.053
				c0.923-0.655,1.811-1.301,2.958-1.756c0.467-0.605,0.94-1.039,1.4-1.225c-2.151,0.405-3.546,1.397-4.831,2.32l0.021,0.028
				c-1.685,1.193-3.215,2.224-6.458,2.234v0.113c-0.052,0-0.094-0.006-0.145-0.007c-0.147,0.279-0.297,0.566-0.445,0.859
				c0.196,0.009,0.381,0.027,0.59,0.027V41.824z M98.396,29.862c3.451,0.01,5.228-1.336,6.893-2.533l0.145,0.203
				c0.713-0.506,1.388-1.031,2.167-1.476c-0.479-0.125-0.944-0.229-1.394-0.312c-0.489,0.303-0.942,0.623-1.38,0.937l-0.024-0.034
				c-1.684,1.193-3.164,2.236-6.407,2.247l0.001,0.103c-0.504-0.002-0.95-0.04-1.374-0.094c-0.095,0.301-0.192,0.599-0.291,0.894
				c0.517,0.066,1.061,0.112,1.665,0.11V29.862z M73.93,29.534c2.066-0.343,3.441-1.149,4.689-2.047l-0.054-0.075
				c1.684-1.194,3.195-2.157,6.439-2.168l-0.001-0.269c2.534,0.008,4.05,0.708,5.395,1.583c0.111-0.264,0.22-0.529,0.327-0.793
				c-1.401-0.806-3.119-1.401-5.722-1.393v-0.167c-3.451-0.01-5.264,1.325-6.928,2.521l0.048,0.068
				c-1.392,0.986-2.729,1.88-4.979,2.169c-0.121,0.085-0.244,0.174-0.365,0.265c1.104-0.183,2.353-0.376,3.074-0.53
				C75.386,28.875,74.679,29.187,73.93,29.534z M91.365,27.52c0.502,0.361,1.034,0.718,1.617,1.046
				c0.372,0.21,0.765,0.41,1.194,0.584c0.661,0.269,1.413,0.475,2.263,0.605c0.064-0.304,0.127-0.609,0.188-0.915
				c-0.787-0.136-1.459-0.349-2.048-0.625c-0.443-0.208-0.848-0.446-1.235-0.7c-0.446-0.293-0.875-0.606-1.318-0.92l-0.009,0.012
				c-0.154-0.111-0.315-0.22-0.476-0.328c-0.109,0.277-0.221,0.553-0.339,0.828c0.102,0.071,0.203,0.142,0.305,0.213L91.365,27.52z
				 M92.469,42.181c-0.065,0.206-0.184,0.429-0.378,0.671c0.056,0.038,0.112,0.076,0.167,0.114c0.204-0.22,0.353-0.429,0.448-0.622
				C92.627,42.29,92.547,42.236,92.469,42.181z M94.792,44.339c0.143,0.053,0.293,0.102,0.444,0.149
				c0.072-0.239,0.148-0.481,0.229-0.728c-0.055-0.017-0.108-0.033-0.162-0.051C95.13,43.921,94.96,44.131,94.792,44.339z
				 M98.396,44.177c-0.583-0.001-1.104-0.044-1.587-0.114c-0.113,0.245-0.224,0.488-0.329,0.728
				c0.578,0.097,1.211,0.151,1.916,0.149v-0.054c1.259,0.004,2.292-0.163,3.184-0.431c-0.025-0.357,0.021-0.666,0.153-0.908
				c-0.912,0.259-1.976,0.415-3.338,0.419L98.396,44.177z M93.79,43.896c0.104,0.053,0.209,0.105,0.317,0.156
				c0.169-0.205,0.335-0.41,0.492-0.614c-0.157-0.069-0.311-0.143-0.458-0.219C94.021,43.446,93.905,43.671,93.79,43.896z
				 M92.804,42.706c0.152,0.025,0.013,0.187-0.302,0.424c0.257,0.173,0.527,0.341,0.807,0.503c0.11-0.229,0.224-0.458,0.34-0.687
				c-0.274-0.161-0.541-0.33-0.799-0.505C92.841,42.524,92.828,42.611,92.804,42.706z M91.947,41.812l0.048-0.066
				c-0.417-0.299-0.848-0.605-1.312-0.896c-0.441-0.159-0.886-0.365-1.272-0.684c-1.156-0.533-2.549-0.912-4.407-0.906v0.019
				c-3.451-0.01-5.222,1.415-6.886,2.611l-0.041-0.057c-1.684,1.193-3.22,2.344-6.462,2.354v-0.104
				c-3.243-0.01-4.727-1.13-6.409-2.323l-0.101,0.14c-1.397-1.004-2.877-2.231-5.354-2.597c-0.473-0.069-0.969-0.119-1.522-0.117
				l0,0.323c-0.234,0-0.369,0.027-0.369,0.259h0.087c0,0.232,0.046,0.297,0.28,0.297c0.001,0-0.026,0.125-0.026,0.124l0.027-0.034
				c0.614,0.002,1.149,0.057,1.651,0.135c2.148,0.333,3.406,1.279,4.77,2.248l-0.035,0.048c1.665,1.196,3.549,2.553,7,2.543l0-0.117
				c3.451,0.01,5.353-1.205,7.017-2.401l-0.041-0.057c1.684-1.194,3.169-2.341,6.413-2.352v-0.073
				c3.243,0.011,4.798,1.136,6.479,2.331l0.021-0.028c0.141,0.101,0.283,0.203,0.427,0.304c0.19-0.246,0.306-0.472,0.364-0.678
				C92.18,41.976,92.064,41.895,91.947,41.812z M93.056,31.5c0.75,0.468,1.602,0.884,2.634,1.161
				c0.075-0.193,0.15-0.389,0.227-0.589c0.021-0.087,0.042-0.173,0.063-0.261c-1.002-0.248-1.805-0.637-2.532-1.091
				c-0.35-0.218-0.688-0.447-1.021-0.683c-0.154-0.109-0.309-0.219-0.465-0.33l0.051-0.071c-0.472-0.339-0.968-0.673-1.507-0.981
				c-0.134,0.282-0.269,0.561-0.406,0.835c0.465,0.29,0.906,0.603,1.357,0.923l0.005-0.006c0.208,0.15,0.419,0.303,0.635,0.456
				C92.399,31.08,92.722,31.293,93.056,31.5z M58.262,37.168l-0.032-0.165c0.42,0.001,0.808,0.028,1.172,0.073
				c2.442,0.3,3.718,1.494,5.182,2.534l0.052-0.075c1.665,1.196,3.527,2.352,6.979,2.342l0,0.236
				c3.451,0.01,5.203-1.537,6.867-2.733l0.163,0.229c1.178-0.835,2.245-1.748,3.882-2.23c-0.704-0.069-1.381-0.113-2.052-0.148
				c-0.957,0.398-1.76,0.9-2.503,1.434l0.014,0.017c-1.684,1.193-3.128,2.465-6.371,2.476l0,0.09
				c-3.243-0.01-4.824-1.179-6.506-2.372l0.02-0.028c-1.488-1.069-3.082-2.304-5.866-2.548c-0.33-0.029-0.668-0.052-1.033-0.051
				l0,0.201c-0.234,0-0.464,0.066-0.464,0.298h-0.099c0,0.232,0.327,0.285,0.562,0.285C58.229,37.032,58.262,37.168,58.262,37.168z"
				/>
		</g>
	</g>
</g>
</svg>
