<?xml version="1.0" encoding="utf-8"?>
<!-- Generator: Adobe Illustrator 13.0.0, SVG Export Plug-In . SVG Version: 6.00 Build 14948)  -->
<!DOCTYPE svg PUBLIC "-//W3C//DTD SVG 1.1//EN" "http://www.w3.org/Graphics/SVG/1.1/DTD/svg11.dtd">
<svg version="1.1" id="Layer_1" xmlns="http://www.w3.org/2000/svg" xmlns:xlink="http://www.w3.org/1999/xlink" x="0px" y="0px"
	 width="356.739px" height="382.648px" viewBox="0 0 356.739 382.648" enable-background="new 0 0 356.739 382.648"
	 xml:space="preserve">
<g opacity="0.1">
	<path fill="#231F20" d="M344.901,212.282c-3.396,97.51-79.619,173.734-170.255,170.252c-90.63-3.481-168.691-82.53-174.351-176.559
		C-5.363,111.948,70.86,35.723,170.548,35.723C270.233,35.723,348.293,114.771,344.901,212.282z"/>
</g>
<g>
	<path fill="#FFFFFF" d="M178.006,52c72.415,0,129.12,57.422,126.655,128.256c-2.412,69.273-55.427,123.76-119.344,123.76
		c-1.439,0-2.884-0.027-4.334-0.083c-65.837-2.529-122.542-59.952-126.652-128.256C50.22,107.372,105.591,52,178.006,52 M178.006,0
		c-25.398,0-49.798,4.907-72.523,14.584C83.14,24.099,63.519,37.73,47.163,55.101c-15.391,16.344-27.105,35.197-34.818,56.036
		c-7.986,21.574-11.323,44.34-9.919,67.662c2.745,45.614,22.308,89.016,55.085,122.207c33.241,33.661,76.382,53.154,121.478,54.888
		c2.096,0.08,4.227,0.121,6.33,0.121c22.936,0,45.244-4.725,66.307-14.04c20.105-8.894,38.211-21.581,53.811-37.715
		c31.4-32.474,49.582-75.868,51.195-122.194c0.842-24.196-3.145-47.754-11.85-70.019c-8.416-21.527-20.865-40.914-37-57.622
		c-16.518-17.101-36.045-30.526-58.043-39.905C227.138,4.885,203.004,0,178.006,0L178.006,0z"/>
	<path fill="#77303E" d="M178.006,52c72.415,0,129.12,57.422,126.655,128.256c-2.412,69.273-55.428,123.76-119.345,123.76
		c-1.438,0-2.882-0.027-4.333-0.083c-65.837-2.529-122.542-59.952-126.652-128.256C50.22,107.372,105.591,52,178.006,52 M178.006,36
		c-20.523,0-40.178,3.938-58.418,11.706c-17.74,7.556-33.289,18.347-46.216,32.075c-24.755,26.29-37.188,60.688-35.012,96.856
		c2.221,36.904,18.119,72.091,44.765,99.073c26.789,27.129,61.324,42.829,97.245,44.209c1.644,0.063,3.309,0.096,4.946,0.096
		c35.343,0,68.81-14.482,94.238-40.779c25.198-26.06,39.792-61.013,41.097-98.423c1.326-38.116-12.441-74.12-38.768-101.378
		c-13.153-13.62-28.721-24.318-46.266-31.799C217.508,39.915,198.124,36,178.006,36L178.006,36z"/>
	<path fill="#F89F20" d="M304.661,180.256c-2.467,70.834-57.839,126.205-123.678,123.677
		c-65.837-2.529-122.542-59.952-126.652-128.256C50.22,107.372,105.591,52,178.006,52C250.42,52,307.125,109.422,304.661,180.256z"
		/>
</g>
<g>
	<path fill="#DF8C26" d="M196.754,53.317c41.357,21.344,68.633,64.353,66.906,113.938c-2.468,70.834-57.839,126.205-123.678,123.677
		c-3.679-0.143-7.326-0.463-10.94-0.939c15.98,8.27,33.605,13.234,51.94,13.939c65.839,2.528,121.211-52.843,123.678-123.677
		C306.909,115.666,259.954,62.235,196.754,53.317z"/>
</g>
<path fill="#77303E" d="M213.575,219.27c-7.648,7.467-23.758,10.438-40.083,7.395c-16.322-3.043-30.274-11.619-34.715-21.34
	c-1.457-3.192-5.227-4.599-8.425-3.139c-3.192,1.457-4.598,5.229-3.137,8.424c6.177,13.52,23.43,24.727,43.946,28.552
	c20.524,3.826,40.66-0.41,51.293-10.795c2.512-2.453,2.561-6.479,0.106-8.99C220.11,216.865,216.084,216.817,213.575,219.27z"/>
<g>
	<path fill="#77303E" stroke="#77303E" stroke-width="6" d="M145.493,133.295c6.677,1.245,7.521,2.888,7.521,2.888
		c2.818,5.481,6.614,7.768,8.436,5.079c0,0,0,0,0.572-3.07c1.693-9.083-4.297-17.818-13.381-19.512
		c-9.082-1.693-17.817,4.297-19.51,13.379c-0.506,2.716-0.506,2.716-0.506,2.716c0.516,2.836,4.845,1.968,9.62-1.929
		C138.246,132.845,139.145,132.111,145.493,133.295z"/>
</g>
<g>
	<path fill="#77303E" stroke="#77303E" stroke-width="6" d="M231.032,134.04c-9.082-1.693-17.816,4.296-19.511,13.379
		c-0.546,2.93-0.546,2.93-0.546,2.93c0.639,3.037,4.783,2.014,9.211-2.274c0,0,1.845-1.788,8.857-0.48
		c6.558,1.223,7.311,2.632,7.311,2.632c2.902,5.437,6.322,8.033,7.602,5.77c0,0,0,0,0.455-2.443
		C246.105,144.469,240.114,135.733,231.032,134.04z"/>
</g>
<path fill="#FED9B0" d="M143.405,76.29c3.164-1.983,7.546-1.791,10.523,0.464c2.977,2.254,4.352,6.42,3.301,10.003
	c-1.073,3.659-4.609,6.453-8.418,6.651c-3.808,0.198-7.615-2.214-9.061-5.743C138.108,83.661,139.738,78.588,143.405,76.29z
	 M131.933,91.751c-0.253-3.695-3.607-6.659-7.244-7.368c-3.636-0.709-7.407,0.439-10.672,2.19
	c-6.685,3.587-12.297,9.253-15.683,16.045c-1.417,2.843-2.268,6.733,0.111,8.839c1.21,1.071,2.974,1.324,4.565,1.047
	c1.592-0.277,3.058-1.021,4.496-1.755c3.697-1.887,10.765-4.304,16.354-7.75C128.585,100.086,132.254,96.437,131.933,91.751z"/>
<path fill="#211206" d="M250.302,128.251c-26.575-4.87-39.373-1.27-46.222,6.819l-23.125-4.237
	c-3.161-10.48-13.657-18.76-41.141-23.795c-47.629-8.727-51.013,9.741-55.187,32.521c-4.174,22.781,13.595,46.094,39.9,50.913
	c26.304,4.819,51.183-10.68,55.356-33.459c1.045-5.701,2.04-11.132,2.199-16.208l17.049,3.124
	c-1.849,5.021-2.903,10.78-4.015,16.844c-4.174,22.781,13.766,45.155,40.07,49.975s51.011-9.74,55.185-32.521
	C294.545,155.445,297.929,136.977,250.302,128.251z"/>
</svg>
