<svg xmlns="http://www.w3.org/2000/svg" width="100.262" height="69.088" xml:space="preserve"><path fill="#295c7c" d="M91.818 18.221c.163-.042.241-.172.206-.412-.627-.267-1.941-1.486-2.062-2.268-.515.026-.644.395-.825-.206.259.043.422.317.414-.207-1.521-.833-3.041-2.645-4.338-3.212 0 .086-.421.207-.566.292.395-.412-.311-.79-.662-.377.121-.421.619-.404.206-.824-2.577-1.065-4.483-2.629-7.214-3.917-.172.335.403.601.18.755.137.026.283.052.438.069 2.062 1.065 5.858 4.363 9.07 5.36.438 1.331 3.074 3.212 4.123 3.916.301.061-.043.473.205.713a6.633 6.633 0 0 1-.867-.549l.043.043c-.146.37-.377.026-.617 0 .781 1.778 3.666 3.195 4.328 5.771-.936-.626-1.615-2.207-3.298-3.092-.593.111.317.318.206.618.043.378-.662-.79-.825-1.236-.396.369-1.048-.164-1.442-.413.008-.197.249-.163.412-.206-1.229-.979-3.771-2.929-5.566-3.299v-.618c-.909.292-1.039-.507-2.267-.618-.061-.335.197-.353.206-.618-.369-.026-.438.248-.825.206-.163-.18-.223-.464-.205-.825-.765.73-2.044-1.125-3.298-1.236.008-.198.248-.164.412-.206-.387-.413-.723-.353-1.236-.207-.318-1.323-.988-2.302-1.65-3.298 1.237 1.374 3.917 1.305 4.947 2.886.197-.009.163-.25.206-.413 3.136 2.38 6.202 3.264 8.657 6.391.92-.258.311-.103.619.618.533.035.67-.549 1.03-.369-2.001-1.486-4.131-4.028-6.184-4.372.231-.73-.498-.541-1.443-1.03-1.099-.575-2.954-2.345-4.122-2.886-1.229-.575-2.688-.559-3.711-1.031-.172-.077-.086-.558-.205-.618-.773-.413-2.285-.172-2.475-1.237 2.499.585 3.177 1.366 5.128 1.744-.257-1.271-2.293-.772-3.066-1.538.369-.12.858.602 1.03 0-1.486-.67-3.453.018-4.741-1.236.662.231 1.221.566 2.062.618-.369-.867-1.623-.851-2.886-.825-7.97-2.508-18.93-6.476-28.034-2.886-1.503-.232-4.165.67-5.771.206-1.642.894-3.145.799-5.155 1.238-.31.601.231.764-.413 1.03.361-.42-.154-.403.206-.824-1.993.249-3.091.747-5.359 1.031.224.559.129.962-.412 1.237.077-.636.704-.8 0-1.237-.034.241.035.583-.206.618-4.123 1.108-7.661 3.221-10.925 5.153C5.628 14.915-1.707 22.567 1.119 35.124c.352-.009.533.154.618.412-.369.627.103 2.319.618 2.474-.292.052-.231.456-.412.618.284.01.456-.094.618-.205-.111 2.146 2.002 4.817 2.887 5.977.069 1.683 3.075 3.221 3.298 4.741 2.232.412 2.791 2.559 4.122 4.122.49.576 1.392.937 1.855 1.443 1.108 1.211 2.405 3.375 3.917 3.916.095.034.172.061.232.077.026-.171.576.172 0 0-.008.053.035.155.181.336.833 1.073 2.113 1.648 3.091 1.855-.017.36.044.644.207.824 5.479 2.559 13.252 7.429 21.438 6.184-.026.24-.369.463 0 .619.472-.336.859-.225.824-.619 5.283.902 12.669-.73 18.347-2.474-.164-.043-.404-.009-.413-.206.928-.267 1.624-.541.619.206 2.182-.636 4.5-1.134 6.184-2.268-.24-.034-.584.034-.618-.206 1.563.541 3.521-.636 4.123-1.443.033.241.326.224.618.207 3.487-1.873 7.292-3.428 10.307-5.772.876-.472 1.512-.644 2.268-1.236 1.769-1.392 4.87-3.616 6.802-5.36 1.126-1.013 2.74-2.508 2.475-3.297.704-.653 1.889-1.521 1.648-2.475.996-.516 1.598-1.889 1.855-2.68 3.271-10.03-2.767-17.674-7.01-22.673zm5.153 8.039c-.335.31.31 1.254.412 2.267-.559-.678-.971-1.503-1.236-2.473.421.112.404.618.824.206zM60.486 2.967c-.36.61-1.1-.12-1.649 0 .283-.532 1.262-.043 1.649 0zm-2.062-.618c.163.782-.971.257-1.443.412.301-.593.55-.232 1.443-.412zm-3.091-.619c-1.28.868 1.442.189 1.442 1.031-1.365-.403-3.366-.274-4.329-1.031-.172 1.211-.326-.446-2.061-.206-.198.748.815.284 1.236.412-.292.893-1.15-.069-2.062.206 1.143-.541-.292-.49-1.03-.618.051.361.352.472.824.412-.155.601-1.701-.189-1.855.413-.755-.447.602-.481 1.031-.413-.155-.722-1.031.095-1.649-.412 3.058-.824 5.892.232 8.453.206zm-8.865 0c.258-.669-.67-.154-.412-.825.36.189.721.387.618 1.031-.833.095-2.036-.026-2.886.206.361-.996 2.174-.532 2.68-.412zm-2.473.825c4.595-.051 9.766.181 14.43.413 3.418.875 6.364.944 9.275 2.267-.6.095-3.916-.438-4.947-1.236-.274.498-.411.128-.617.412.137-.489-1.323-.601-1.855-.412a.1.1 0 0 0 .025.069c.205.042.404.094.592.137-.214-.034-.506.017-.592-.137-2.955-.636-8.107-1.031-10.539-.481-.215-.695.644-.318 1.031-.412-1.056-.765-1.159.515-1.855.412.842-.971-2.474-.782-3.092-.206.446-.43.085-.782-.618-.619-.55-.06.549.799-.413.619-.867.033 0-.318 0-.619-2.087.456-4.165.111-5.978.825.867-1.642 3.512-1.015 5.153-1.032zm-5.772.206c-1.898.413-4.458 1.529-6.184.619 1.821.351 3.925-1.091 6.184-.619zM17.197 8.739c2.611-.669 5.119-2.233 7.215-2.267.189-.154.309-.378.412-.618 3.015-.155 7.095-1.83 9.688-1.855-5.23 2.396-9.533 7-14.842 9.069-5.153 2.01-9.448 5.66-12.162 10.513-.035.172.078.198.206.207-.875.541-.626-.902-.618-1.649.035-2.01 1.486-4.913 1.443-5.772 1.899-2.852 5.395-5.567 8.658-7.628zm8.658 1.855c-.334.421-.687.825-1.443.825.43-.309.91-1.254 1.443-.825zm-3.711 38.753c.361-.824 3.17 1.753 3.299 2.475 2.405.919 4.775 3.59 8.245 4.122.104.902.988.018.825.824 2.646.327 4.707.825 7.627 1.855-6.502-.867-15.803-1.906-22.263-4.535-1.752-.712-3.384-.669-4.741-2.267-1.932-2.268-6.081-6.305-6.597-9.689-.48-3.186.756-4.448.619-7.42 1.202.747 1.777 2.525 2.885 3.916 1.615 2.035 3.702 3.994 5.153 5.359 1.563 1.752 3.719 3.625 4.742 4.742-.164-.043-.207-.207-.413-.207.061.422.559.405.619.825zM8.128 23.168c1.734-3.092 6.424-6.501 8.039-7.833 1.77-.413 2.431-1.349 4.123-2.062-.429 1.778-2.173 2.362-3.299 3.71-3.478 4.174-6.098 10.032-7.832 15.254-1.152-2.954-2.749-6.003-1.031-9.069zM4.21 41.308c-.068-.086-.214.24-.214.37-.231-.765-.274-1.778-1.022-2.019C2.004 34.9.57 31.096 1.325 26.467c.979-5.97 5.239-10.187 9.07-13.811-.231 1.417-3.212 2.972-2.68 5.153-1.941 1.503-.944 5.445-1.236 8.245-.267 2.55-1.778 4.758-1.443 6.39.207.215.413.42.619.618-.885 1.367.403 3.248.617 5.978.343-3.547-1.813-8.468.618-11.955.026 2.568 1.246 4.638 1.855 5.978-.232 2.853-1.203 5.755-.825 8.04-.507-.189-.584-1.469-1.031-2.269-.181.095-.369.181-.412.413 1.692 2.902 1.443 6.501 3.298 9.275-2.532-.781-3.906-5.221-5.565-7.214zm5.154 3.917c.447-.344.275.378.413 1.031.18.034.197-.078.206-.206.738 1.906 2.8 4.183 4.535 5.771-2.602-.369-4.672-4.097-5.154-6.596zm71.529 11.338c-3.444 1.958-8.039 4.698-11.956 6.183-.292.018-.583.035-.618-.205-2.216 1.357-4.904 2.241-8.039 2.68-.198.009-.164.248-.207.412-8.398 1.537-16.619 2.972-24.942.824-9.473-2.447-16.009-7.944-21.85-14.018 4.621 1.959 8.623 6.906 13.811 7.834.523-.009.249.154.205.412 1.314.559 3.514.035 5.36.824.095.043-.292.207-.395.207 3.547.592 9.671.807 12.97.205-10.152.541-22.168-2.035-27.828-7.627-.524-.626.841.37 1.649 0 .67 1.271 3.298.688 3.298 1.649 1.495-.541 3.35.628 5.36 1.03 1.666.335 3.701 0 4.947 1.031 2.525-.215 5.514.867 9.07.824.455.301-.258.498.206.619.413-1.212 4.002.008 4.948.412-.129-.207-.473-.215-.413-.619.936.293 1.082-.094 1.855.207-.008.197-.249.163-.413.205-.103.387 1.375.241 1.194.069 1.177.378 5.575.249 7.669-.274.146.559-.97-.146-.824.412.344.129 2.104-.086 3.092 0-.128-.49-1.271.034-1.442-.412.42-.404 1.666.326 2.68-.207.309.086-.078.267 0 .619.816-.025 1.434-.095 1.648-.207.104.748-.541.336-.824.413-2.963.781-6.502 1.073-9.688 1.237 5.798.721 12.832-1.461 18.552-2.475-.129.181-.248.369 0 .412.215-.162 1.255-1.005 2.062-.412.31-.085-.077-.266 0-.617 2.955.111 9.638-2.32 11.544-3.505.428.843-1.96 1.444-2.681 1.858zM98.415 38.01c-.481 2.903-2.379 5.282-3.917 7.009.163.18.224.464.206.824-2.963 2.259-5.385 6.158-9.275 6.803 3.796-1.993 7.979-5.66 10.307-10.925-.24-.034-.172-.378-.207-.618-4.509 8.115-12.102 13.424-21.644 16.078-9.233 1.254-17.351 2.672-26.385 1.648-5.084-.575-11.123-1.82-15.048-3.504-4.655-1.993-8.099-6.047-12.368-8.864-.67-1.185-1.435-2.275-2.886-2.68-2.388-3.59-5.832-6.124-7.627-10.307.559-3.015 2.413-5.831 2.886-8.245.292-.085 2.018-2.233 1.236-2.68.052-.258.413-.207.413 0 2.517-4.148 5.806-7.524 9.276-10.719 2.534-.404 3.771-.928 5.565-1.443-.025-.464-.515.267-1.03 0 .189-.438 1.133-.438 1.236-.412h.008c8.727-1.46 17.514-3.453 27.614-2.268V7.09c.069 1.168 5.171.885 7.421 1.237.609.094.695.515 1.236.207.069-.55-1.15.188-.824-.619.164.112.335.215.619.207-.344-.413-.773-.353-1.263-.231l.026.025c-.053.008-.096.008-.146.008.043-.008.077-.025.12-.033-1.169-1.022-2.285-.421-3.479-.181-1.039-1.142-2.972-.386-5.153-1.03.343.626.996-.018 1.236.412-.516.73-2.688-.292-3.504-.618-.301.085.086.266 0 .618-2.98-.043-4.476-.146-7.627 0a1.08 1.08 0 0 1 .541-.318c-3.59.336-7.034 1.28-11.259 1.555.18.602.515-.267 1.031 0-.293.592-1.117.412-1.444 0-2.139 1.228-5.745.636-7.833 2.474-.936.154.318-.567-.618-.413 1.417-1.374 3.642-2.594 5.771-3.916 2.749-1.701 5.025-2.74 9.688-2.886 6.081-.197 12.179.344 15.666.824.284 0 .207-.188.035-.318-.155-.025-.301-.06-.447-.094.138-.061.318 0 .447.094 3.581.757 8.193 1.134 11.097 1.967 1.1-.077 2.603 1.513 4.329 1.444.18.893 1.812 1.821 2.267 3.091-.421.138-2.121-.214-2.267-1.031-.311.49-.311.765-1.031.413.034-.241.379-.172.618-.206-.867-.73-2.388-.008-2.267-.825-.413 0-.258.559-.825.413-.06-.335.197-.352.206-.619-.789-.138-1.15.172-1.777.206 2.842 1.134 5.893 1.46 8.168 2.886v1.236c-.576.275-1.469-.206-1.649.825 1.194.387 2.474.36 3.505 0-.173-.24-.275-.549-.207-1.031-.523-.223-.799.962-.824 0 .352.078.387-.163.412-.412 3.857 1.778 7.283 3.985 10.514 6.391.558.06-.207-1.229-.207-.619-.335-.79 1.193.086.412.619 2.354 1.769 5.103 4.242 6.803 5.978.232.042.112.206 0 .206 1.598 2.104 3.161 6.931 2.68 10.925-.249 2.07-1.872 3.745-1.236 5.772 1.177-2.629 1.881-5.651 1.855-9.071 0-.549-.824-1.837.412-2.061-.499 2.059.901 4.499.412 7.419zM57.806 7.09c.541.214 1.263.249 2.061.206-.034.472-1.821.575-2.061-.206zm4.122.824c.283-.824 1.143.008 1.906.008-.566.147-1.209.328-1.906-.008z"/><path fill="none" stroke="#295c7c" d="M91.818 18.221c.163-.042.241-.172.206-.412-.627-.267-1.941-1.486-2.062-2.268-.515.026-.644.395-.825-.206.259.043.422.317.414-.207-1.521-.833-3.041-2.645-4.338-3.212 0 .086-.421.207-.566.292.395-.412-.311-.79-.662-.377.121-.421.619-.404.206-.824-2.577-1.065-4.483-2.629-7.214-3.917-.172.335.403.601.18.755.137.026.283.052.438.069 2.062 1.065 5.858 4.363 9.07 5.36.438 1.331 3.074 3.212 4.123 3.916.301.061-.043.473.205.713a6.633 6.633 0 0 1-.867-.549l.043.043c-.146.37-.377.026-.617 0 .781 1.778 3.666 3.195 4.328 5.771-.936-.626-1.615-2.207-3.298-3.092-.593.111.317.318.206.618.043.378-.662-.79-.825-1.236-.396.369-1.048-.164-1.442-.413.008-.197.249-.163.412-.206-1.229-.979-3.771-2.929-5.566-3.299v-.618c-.909.292-1.039-.507-2.267-.618-.061-.335.197-.353.206-.618-.369-.026-.438.248-.825.206-.163-.18-.223-.464-.205-.825-.765.73-2.044-1.125-3.298-1.236.008-.198.248-.164.412-.206-.387-.413-.723-.353-1.236-.207-.318-1.323-.988-2.302-1.65-3.298 1.237 1.374 3.917 1.305 4.947 2.886.197-.009.163-.25.206-.413 3.136 2.38 6.202 3.264 8.657 6.391.92-.258.311-.103.619.618.533.035.67-.549 1.03-.369-2.001-1.486-4.131-4.028-6.184-4.372.231-.73-.498-.541-1.443-1.03-1.099-.575-2.954-2.345-4.122-2.886-1.229-.575-2.688-.559-3.711-1.031-.172-.077-.086-.558-.205-.618-.773-.413-2.285-.172-2.475-1.237 2.499.585 3.177 1.366 5.128 1.744-.257-1.271-2.293-.772-3.066-1.538.369-.12.858.602 1.03 0-1.486-.67-3.453.018-4.741-1.236.662.231 1.221.566 2.062.618-.369-.867-1.623-.851-2.886-.825-7.97-2.508-18.93-6.476-28.034-2.886-1.503-.232-4.165.67-5.771.206-1.642.894-3.145.799-5.155 1.238-.31.601.231.764-.413 1.03.361-.42-.154-.403.206-.824-1.993.249-3.091.747-5.359 1.031.224.559.129.962-.412 1.237.077-.636.704-.8 0-1.237-.034.241.035.583-.206.618-4.123 1.108-7.661 3.221-10.925 5.153C5.628 14.915-1.707 22.567 1.119 35.124c.352-.009.533.154.618.412-.369.627.103 2.319.618 2.474-.292.052-.231.456-.412.618.284.01.456-.094.618-.205-.111 2.146 2.002 4.817 2.887 5.977.069 1.683 3.075 3.221 3.298 4.741 2.232.412 2.791 2.559 4.122 4.122.49.576 1.392.937 1.855 1.443 1.108 1.211 2.405 3.375 3.917 3.916.095.034.172.061.232.077.026-.171.576.172 0 0-.008.053.035.155.181.336.833 1.073 2.113 1.648 3.091 1.855-.017.36.044.644.207.824 5.479 2.559 13.252 7.429 21.438 6.184-.026.24-.369.463 0 .619.472-.336.859-.225.824-.619 5.283.902 12.669-.73 18.347-2.474-.164-.043-.404-.009-.413-.206.928-.267 1.624-.541.619.206 2.182-.636 4.5-1.134 6.184-2.268-.24-.034-.584.034-.618-.206 1.563.541 3.521-.636 4.123-1.443.033.241.326.224.618.207 3.487-1.873 7.292-3.428 10.307-5.772.876-.472 1.512-.644 2.268-1.236 1.769-1.392 4.87-3.616 6.802-5.36 1.126-1.013 2.74-2.508 2.475-3.297.704-.653 1.889-1.521 1.648-2.475.996-.516 1.598-1.889 1.855-2.68 3.271-10.03-2.767-17.674-7.01-22.673zm5.153 8.039c-.335.31.31 1.254.412 2.267-.559-.678-.971-1.503-1.236-2.473.421.112.404.618.824.206zM60.486 2.967c-.36.61-1.1-.12-1.649 0 .283-.532 1.262-.043 1.649 0zm-2.062-.618c.163.782-.971.257-1.443.412.301-.593.55-.232 1.443-.412zm-3.091-.619c-1.28.868 1.442.189 1.442 1.031-1.365-.403-3.366-.274-4.329-1.031-.172 1.211-.326-.446-2.061-.206-.198.748.815.284 1.236.412-.292.893-1.15-.069-2.062.206 1.143-.541-.292-.49-1.03-.618.051.361.352.472.824.412-.155.601-1.701-.189-1.855.413-.755-.447.602-.481 1.031-.413-.155-.722-1.031.095-1.649-.412 3.058-.824 5.892.232 8.453.206zm-8.865 0c.258-.669-.67-.154-.412-.825.36.189.721.387.618 1.031-.833.095-2.036-.026-2.886.206.361-.996 2.174-.532 2.68-.412zm-2.473.825c4.595-.051 9.766.181 14.43.413 3.418.875 6.364.944 9.275 2.267-.6.095-3.916-.438-4.947-1.236-.274.498-.411.128-.617.412.137-.489-1.323-.601-1.855-.412a.1.1 0 0 0 .025.069c.205.042.404.094.592.137-.214-.034-.506.017-.592-.137-2.955-.636-8.107-1.031-10.539-.481-.215-.695.644-.318 1.031-.412-1.056-.765-1.159.515-1.855.412.842-.971-2.474-.782-3.092-.206.446-.43.085-.782-.618-.619-.55-.06.549.799-.413.619-.867.033 0-.318 0-.619-2.087.456-4.165.111-5.978.825.867-1.642 3.512-1.015 5.153-1.032zm-5.772.206c-1.898.413-4.458 1.529-6.184.619 1.821.351 3.925-1.091 6.184-.619zM17.197 8.739c2.611-.669 5.119-2.233 7.215-2.267.189-.154.309-.378.412-.618 3.015-.155 7.095-1.83 9.688-1.855-5.23 2.396-9.533 7-14.842 9.069-5.153 2.01-9.448 5.66-12.162 10.513-.035.172.078.198.206.207-.875.541-.626-.902-.618-1.649.035-2.01 1.486-4.913 1.443-5.772 1.899-2.852 5.395-5.567 8.658-7.628zm8.658 1.855c-.334.421-.687.825-1.443.825.43-.309.91-1.254 1.443-.825zm-3.711 38.753c.361-.824 3.17 1.753 3.299 2.475 2.405.919 4.775 3.59 8.245 4.122.104.902.988.018.825.824 2.646.327 4.707.825 7.627 1.855-6.502-.867-15.803-1.906-22.263-4.535-1.752-.712-3.384-.669-4.741-2.267-1.932-2.268-6.081-6.305-6.597-9.689-.48-3.186.756-4.448.619-7.42 1.202.747 1.777 2.525 2.885 3.916 1.615 2.035 3.702 3.994 5.153 5.359 1.563 1.752 3.719 3.625 4.742 4.742-.164-.043-.207-.207-.413-.207.061.422.559.405.619.825zM8.128 23.168c1.734-3.092 6.424-6.501 8.039-7.833 1.77-.413 2.431-1.349 4.123-2.062-.429 1.778-2.173 2.362-3.299 3.71-3.478 4.174-6.098 10.032-7.832 15.254-1.152-2.954-2.749-6.003-1.031-9.069zM4.21 41.308c-.068-.086-.214.24-.214.37-.231-.765-.274-1.778-1.022-2.019C2.004 34.9.57 31.096 1.325 26.467c.979-5.97 5.239-10.187 9.07-13.811-.231 1.417-3.212 2.972-2.68 5.153-1.941 1.503-.944 5.445-1.236 8.245-.267 2.55-1.778 4.758-1.443 6.39.207.215.413.42.619.618-.885 1.367.403 3.248.617 5.978.343-3.547-1.813-8.468.618-11.955.026 2.568 1.246 4.638 1.855 5.978-.232 2.853-1.203 5.755-.825 8.04-.507-.189-.584-1.469-1.031-2.269-.181.095-.369.181-.412.413 1.692 2.902 1.443 6.501 3.298 9.275-2.532-.781-3.906-5.221-5.565-7.214zm5.154 3.917c.447-.344.275.378.413 1.031.18.034.197-.078.206-.206.738 1.906 2.8 4.183 4.535 5.771-2.602-.369-4.672-4.097-5.154-6.596zm71.529 11.338c-3.444 1.958-8.039 4.698-11.956 6.183-.292.018-.583.035-.618-.205-2.216 1.357-4.904 2.241-8.039 2.68-.198.009-.164.248-.207.412-8.398 1.537-16.619 2.972-24.942.824-9.473-2.447-16.009-7.944-21.85-14.018 4.621 1.959 8.623 6.906 13.811 7.834.523-.009.249.154.205.412 1.314.559 3.514.035 5.36.824.095.043-.292.207-.395.207 3.547.592 9.671.807 12.97.205-10.152.541-22.168-2.035-27.828-7.627-.524-.626.841.37 1.649 0 .67 1.271 3.298.688 3.298 1.649 1.495-.541 3.35.628 5.36 1.03 1.666.335 3.701 0 4.947 1.031 2.525-.215 5.514.867 9.07.824.455.301-.258.498.206.619.413-1.212 4.002.008 4.948.412-.129-.207-.473-.215-.413-.619.936.293 1.082-.094 1.855.207-.008.197-.249.163-.413.205-.103.387 1.375.241 1.194.069 1.177.378 5.575.249 7.669-.274.146.559-.97-.146-.824.412.344.129 2.104-.086 3.092 0-.128-.49-1.271.034-1.442-.412.42-.404 1.666.326 2.68-.207.309.086-.078.267 0 .619.816-.025 1.434-.095 1.648-.207.104.748-.541.336-.824.413-2.963.781-6.502 1.073-9.688 1.237 5.798.721 12.832-1.461 18.552-2.475-.129.181-.248.369 0 .412.215-.162 1.255-1.005 2.062-.412.31-.085-.077-.266 0-.617 2.955.111 9.638-2.32 11.544-3.505.428.843-1.96 1.444-2.681 1.858zM98.415 38.01c-.481 2.903-2.379 5.282-3.917 7.009.163.18.224.464.206.824-2.963 2.259-5.385 6.158-9.275 6.803 3.796-1.993 7.979-5.66 10.307-10.925-.24-.034-.172-.378-.207-.618-4.509 8.115-12.102 13.424-21.644 16.078-9.233 1.254-17.351 2.672-26.385 1.648-5.084-.575-11.123-1.82-15.048-3.504-4.655-1.993-8.099-6.047-12.368-8.864-.67-1.185-1.435-2.275-2.886-2.68-2.388-3.59-5.832-6.124-7.627-10.307.559-3.015 2.413-5.831 2.886-8.245.292-.085 2.018-2.233 1.236-2.68.052-.258.413-.207.413 0 2.517-4.148 5.806-7.524 9.276-10.719 2.534-.404 3.771-.928 5.565-1.443-.025-.464-.515.267-1.03 0 .189-.438 1.133-.438 1.236-.412h.008c8.727-1.46 17.514-3.453 27.614-2.268V7.09c.069 1.168 5.171.885 7.421 1.237.609.094.695.515 1.236.207.069-.55-1.15.188-.824-.619.164.112.335.215.619.207-.344-.413-.773-.353-1.263-.231l.026.025c-.053.008-.096.008-.146.008.043-.008.077-.025.12-.033-1.169-1.022-2.285-.421-3.479-.181-1.039-1.142-2.972-.386-5.153-1.03.343.626.996-.018 1.236.412-.516.73-2.688-.292-3.504-.618-.301.085.086.266 0 .618-2.98-.043-4.476-.146-7.627 0a1.08 1.08 0 0 1 .541-.318c-3.59.336-7.034 1.28-11.259 1.555.18.602.515-.267 1.031 0-.293.592-1.117.412-1.444 0-2.139 1.228-5.745.636-7.833 2.474-.936.154.318-.567-.618-.413 1.417-1.374 3.642-2.594 5.771-3.916 2.749-1.701 5.025-2.74 9.688-2.886 6.081-.197 12.179.344 15.666.824.284 0 .207-.188.035-.318-.155-.025-.301-.06-.447-.094.138-.061.318 0 .447.094 3.581.757 8.193 1.134 11.097 1.967 1.1-.077 2.603 1.513 4.329 1.444.18.893 1.812 1.821 2.267 3.091-.421.138-2.121-.214-2.267-1.031-.311.49-.311.765-1.031.413.034-.241.379-.172.618-.206-.867-.73-2.388-.008-2.267-.825-.413 0-.258.559-.825.413-.06-.335.197-.352.206-.619-.789-.138-1.15.172-1.777.206 2.842 1.134 5.893 1.46 8.168 2.886v1.236c-.576.275-1.469-.206-1.649.825 1.194.387 2.474.36 3.505 0-.173-.24-.275-.549-.207-1.031-.523-.223-.799.962-.824 0 .352.078.387-.163.412-.412 3.857 1.778 7.283 3.985 10.514 6.391.558.06-.207-1.229-.207-.619-.335-.79 1.193.086.412.619 2.354 1.769 5.103 4.242 6.803 5.978.232.042.112.206 0 .206 1.598 2.104 3.161 6.931 2.68 10.925-.249 2.07-1.872 3.745-1.236 5.772 1.177-2.629 1.881-5.651 1.855-9.071 0-.549-.824-1.837.412-2.061-.499 2.059.901 4.499.412 7.419zM57.806 7.09c.541.214 1.263.249 2.061.206-.034.472-1.821.575-2.061-.206zm4.122.824c.283-.824 1.143.008 1.906.008-.566.147-1.209.328-1.906-.008z"/></svg>