<svg xmlns="http://www.w3.org/2000/svg" width="13.012" height="35.6" xml:space="preserve"><path fill="none" d="m10.41 1.483-4.73-.474a1.821 1.821 0 0 0-1.982 1.597l-.918 9.141h6.863l.524-5.217.993.098-.514 5.119h.526l.832-8.282a1.819 1.819 0 0 0-1.594-1.982zM1.014 29.337c-.126 1.088.4 2.916 1.084 3.77l.646.829c.304.391.727.61 1.168.655a1.7 1.7 0 0 0 1.284-.409l.798-.685c.831-.692 1.697-2.35 1.809-3.44l.003-.027c0-.013 0-.031.006-.055l.448-4.46H1.397l-.383 3.822z"/><radialGradient id="a" cx="6.135" cy="17.8" r="13.493" gradientUnits="userSpaceOnUse"><stop offset="0" style="stop-color:#cfcfcf"/><stop offset=".313" style="stop-color:#cbcbcb"/><stop offset=".554" style="stop-color:#c2c2c2"/><stop offset=".77" style="stop-color:#b1b1b1"/><stop offset=".971" style="stop-color:#9a9a9a"/><stop offset="1" style="stop-color:#969696"/></radialGradient><path fill="url(#a)" d="m1.673 7.534-.995-.098-.433 4.311H1.25z"/><radialGradient id="b" cx="6.506" cy="17.8" r="13.401" gradientUnits="userSpaceOnUse"><stop offset="0" style="stop-color:#cfcfcf"/><stop offset=".313" style="stop-color:#cbcbcb"/><stop offset=".554" style="stop-color:#c2c2c2"/><stop offset=".77" style="stop-color:#b1b1b1"/><stop offset=".971" style="stop-color:#9a9a9a"/><stop offset="1" style="stop-color:#969696"/></radialGradient><path fill="url(#b)" d="M10.489.485h-.007a.074.074 0 0 0-.028-.003l-.008.001L5.78.014a2.818 2.818 0 0 0-3.082 2.555l-.922 9.178-.988 9.833-.396 3.935-.374 3.724c-.128 1.442.414 3.328 1.29 4.482l.645.829a2.7 2.7 0 0 0 1.856 1.036 2.707 2.707 0 0 0 2.036-.643l.8-.687c.967-.85 1.788-2.316 2.073-3.643l.033.004.513-5.104.395-3.935.987-9.833.514-5.119-.993-.096-.524 5.217-.987 9.833-.396 3.935-.448 4.46c-.006.023-.006.042-.006.055l-.003.027c-.111 1.091-.978 2.748-1.809 3.44l-.798.685a1.7 1.7 0 0 1-1.284.409 1.693 1.693 0 0 1-1.168-.655l-.646-.829c-.684-.854-1.21-2.682-1.084-3.77l.384-3.822.395-3.935.987-9.833.918-9.141A1.821 1.821 0 0 1 5.68 1.009l4.73.474a1.821 1.821 0 0 1 1.595 1.982l-.832 8.282h1.003l.821-8.182a2.818 2.818 0 0 0-2.508-3.08z"/></svg>