<svg xmlns="http://www.w3.org/2000/svg" width="548.6" height="1263.5" xml:space="preserve"><path opacity=".5" fill="#422E20" d="m518.6 1237.9-1.2-124L21.8 1097s-.4 118.6-.7 127.4l-.3 11.5c31 8.8 49.2 15.6 79.5 16.3 2.3-6 2.9-10.4 5.4-16.2 13 8.7 32.1 14.7 48.7 12.9 2.9 5.9 5.7 10.1 8.5 14.6.3-13.4 3.6-30.1 3-42.9 5.2 48.5 56.6 34.8 80.3 4.8 3.2-.8 16.9-1.1 21.6-1.1 3.6-23.2 95.9-18.2 99.7-9.7 2.7-6.1 21 13.5 22.9 23.2.9-4.2 4.7-13.6 5.9-21.6 3.9 6.4 9.3 12.5 12.3 20.1 4.3 2.5 5.2-6.9 8.1-4.3 8.8 10.6 10.2 9.7 22.8 9.6 17.2-29.2 26.1-6 31.1 17.9 1.7 0 3.4 0 5.1.1.9-9 9.8-9 12.3.2 18 .4 30.6-21.9 30.6-21.9z"/><path fill="#E7F3F1" d="M548.6 964H9.6v208.6c-.1-.1-.1-.2-.2-.2-2.5 4.7-5.8 6.7-9.4 7.6v11.5c8 3.1 15.1 5.9 21.8 8.5 21 8.1 37.8 13.9 61.8 16.8 2.2-5.7 2.7-10.1 5.3-15.7 13.8 10 33.9 17.7 51.2 17.4 3.1 6.2 6.2 10.6 9.3 15.3 0-13.4 3-13.7 2-26.7 3.7 27.5 38.9 21.6 41.7 17.9-6.1-12.1 53-36.9 42.1-23.7 3.3-.6 17.5-.2 22.4 0 3-21.5 33.6 10.8 38.7-13.3h4.6c14.1 15.6 50.7 18 75.7 9 3.6 8.1 7.4 15.8 8.7 21.3.9-4.2 4.5-13.6 5.5-21.5 4.2 6.4 10 12.6 13.3 20.2 4.5 2.5 5.2-6.9 8.2-4.3 9.3 10.6 10.8 9.7 23.9 9.6 17.1-29.3 26.8-6.2 32.7 17.6h5.3c.7-9.1 1.6-18.2 1.3-26.4 4.9 8.4 8.6 17.2 11.5 26.4h55c1.3-5 3.3-8.4 5.6-10.8l1-265.1zm-382.2 224h6.4c-1.9.6-4 .7-6.4 0z"/><path fill="#BAE2DB" d="M0 0v1188c3.6-.9 7-3 9.4-7.6 4.5 6.1 8.6 5.5 13 6.9 1 .3 2.1.7 3.1 1.4.8-2.6.1-4.9.7-7.6 9.4 2.4 17.5-.6 21.4-11.3 9.8 3.4 38.8 17.5 48.8 13.9 3-1.1 10.1 7.3 13 3.6 6.4-8.5 15.9 7.7 22.1-1 11 12.8 16.8-.1 30.6 7.8 16.4 9.4 21.3-11.6 32.5-23.8-.8 3.3-1.2 7-1.8 10 11.4 1.6 22.6 8.5 32.6 14.7 10-5.4 23.4-9.1 23.9-25.2 13.8 6.6 58.5 15.5 58.7-2 9.3 4.1 20.2 10.8 30.3 10.2 2.5-.1 4.4-.9 6-2-.2-1.9-.4-3.9-.8-6 .4 1.9 1 3.7 1.6 5.4 4.5-3.5 6.7-9.2 14.1-8.7 12.9.9 34.7 34 35.7.3 2.3 4.2 8.8 8.5 11.4 13.4 9-6.4 23.1-14.5 28.5-.2 23.1.5 41.4 20.4 65.5 6.4 0 0 3.8 4.8 4 4.9 1.1-2.6 3.5-6.3 4.6-7.8 11.9 19.2 24.9 22.8 38.6 21V0H0z"/></svg>