<svg xmlns="http://www.w3.org/2000/svg" width="1094.5" height="551.3" xml:space="preserve"><path opacity=".33" fill="#818180" d="M20.9 490.9c31 8.8 49.2 15.6 79.5 16.3 2.3-6 2.9-10.4 5.4-16.2 13 8.7 32.1 14.7 48.7 12.9 2.9 5.9 5.7 10.1 8.5 14.6.3-13.4 3.6-30.1 3-42.9 5.2 48.5 56.6 34.8 80.3 4.8 3.2-.8 16.9-1.1 21.6-1.1 3.6-23.2 36.4 5 38.6-29.8 13.4 31.6 48.2 32.1 45.9-6.5.3-.2.5-.4.8-.6 3.7 11.6 10.5 18.7 14.4 27.2 2.7-6.1 7-12.4 9.2-16.3 2.2 12.9 11.8 29.8 13.7 39.5.9-4.2 4.7-13.6 5.9-21.6 3.9 6.4 9.3 12.5 12.3 20.1 4.3 2.5 5.2-6.9 8.1-4.3 8.8 10.6 10.2 9.7 22.8 9.6 17.2-29.2 26.1-6 31.1 17.9 1.7 0 3.4 0 5.1.1.9-9 2-18.2 1.9-26.4 4.5 8.4 7.9 17.4 10.4 26.6 17.8.4 35.6.9 53.4 1.5 6.4-23.4 26.5-9.5 30.9-32.3 38.9-7.7 9.4 9.5 36.3 4.3 7.6 21.2 15.1 17.2 25.8 26.4.8-4.2-.4-10.3.7-13.9-1.3 2.1 6.6 6 8.6 3.4 0-6.2 1.3-13.9 2-20 4.4 10 15.8 17.7 20.5 25.8 9-9.3 10.3-1.2 18.4-4.3.6-2.2 1.1-4.5 1.7-6.7 9.7 9.7 15.9 11.1 25.3 17.8-3.2.5 2.2 8 4.3 10.6.3 0 .6.1.9.1 1-4 5.4-12.7 5.8-20.1 4.1 9.5 13.5 16 16.8 21.8 4.9-15.2 13.5-32.4 13.4-48.4 16.1 29.4 44.8 13.9 64 34.4 5.6-15.2 11 3.7 9.5-15.2 5.9 23.5 15 19.6 26.2 42.6 7.9 1 15.8 2.1 23.7 3.2 6.4-18.8 21.4-31.6 30.4-49.7.4-.8.9-1.7 1.3-2.5.2.5.5.8.7 1.3 4.7 9.2 14.4 15.1 18 30.1 10.4-8.1 20.2-2 30.2-5.2 1.5 5.3.1 10 1.1 15.4 2.3-4.1 14-9.7 18-22.4 6.4 27.5 23.4 30.3 32.6 5.7 1.9 5.2 2.5 9.4 3.8 15 3.1-3.4 6.9-4.6 10.7-6.6-1.2 3.3-2.5 5.8-3.9 7.8 1.7.3 3.3.4 4.9.4-.4-2.6-.8-5.4-.9-8.3 2.6-1.4 5.3-3.3 7.6-6.7 1.4-2.1 2.8-4.7 4-8.2.1 3 .5 5.8.9 8.6 5 30.6 28.1 41.1 38.9 19.8.2-9.7.5-19.4.7-29.1-5-152.7-10.1-305.4-15.1-458.1C719.6-4.3 372.8-7 32 44.9L21.2 479.3l-.3 11.6zm863 9.7h3.4c-.5 0-1 0-1.6.1-.6 0-1.2-.1-1.8-.1zm-31.5-1.2c.5 0 1-.1 1.6-.1h2c-1.2 0-2.4.1-3.6.1z"/><g fill="#E7F3F1"><path d="M927.8 428.1c7 8.6 16.1 13.7 25.5 8.9.6 2.7 0 5.1.7 7.7 11.8-1.9 27.5-12.5 27.7-29.4 9.2 20 27.1 30 42.4 12.7 4 8.9 14.5 13.7 24.4 13.6-5.8 9.5-13.5 10-18.8 16.8-1.5-5.4-2.2-9.5-4.3-14.3-8.9 26.2-26.6 26.4-33.9 0-3.9 13.5-15.9 21-18.1 25.5-1.1-5.3.1-10.2-1.5-15.3-10.2 4.9-20.6.4-31.2 10.1-4.2-14.4-14.4-18.8-19.4-27.3 2.5-2.3 4.7-5.3 6.5-9zM1066.9 432.1c2 1.7 1.3 4.2 4 5.1 15.2-11.5 18.5-15.5 23.6-13.1v29.2c-10.7 23.5-35 17.5-41-12.1 5.8-1.2 10.9-4.1 13.4-9.1zM395 411.9c2.3 4.2 8.8 8.5 11.4 13.4 9-6.4 23.1-14.5 28.5-.2 23.1.5 41.4 20.4 65.5 6.4 0 0 3.8 4.8 4 4.9 1.1-2.6 3.5-6.3 4.6-7.8 24.8 40 54.5 12.5 85.2 8.1 30-4.3 60.1 10.8 89.4 2.9 4.6-1.2 18.6-14.2 18-14.2 11.1-.3 6.8 7.7 14.7 11.4 8.1 3.8 6.5 9.1 17.1 9.2 3.1.1 9.2-10.9 13.5-12.1 19.2-5.3 67.2 21.3 68.6-16.5 14.1 8 19 25.7 27.7 39.2 13.4-9.6 35.4-7.5 54.1-10.3 8.2-1.2 15.8-3.3 21.8-7.8-8.9 19.5-24 34.4-30.2 54.1h-24.6c-12.2-21.5-21.5-16.4-28.2-39.2 2.1 18.7-4 .4-9.4 16.4-20.5-18.1-49.7.5-67.1-27.2.6 15.9-7.9 34-12.6 49.7-3.6-5.4-13.5-11-18-20.2-.2 7.4-4.5 16.5-5.5 20.6h-1c-2.2-2.4-8-9.4-4.7-10.3-9.9-5.9-16.3-6.8-26.6-15.7-.5 2.3-1.1 4.6-1.6 6.8-8.3 3.8-9.9-4.2-18.9 5.8-5-7.8-17.1-14.6-21.8-24.3-.6 6.2-1.6 13.9-1.5 20.1-2 2.7-10.2-.6-9-2.8-1 3.6.4 9.6-.3 13.9-11.3-8.5-18.9-4.1-27.4-24.8-27.7 6.7 2.3-12-37.7-2.4-4 23-25.1 10-31.1 33.6h-55.3c-2.9-9.2-6.6-18.1-11.5-26.4.3 8.2-.6 17.4-1.3 26.4h-5.3c-5.8-23.8-15.6-46.9-32.7-17.6-13 .1-14.5 1.1-23.9-9.6-3.1-2.7-3.7 6.8-8.2 4.3-3.3-7.6-9-13.7-13.3-20.2-1 7.9-4.7 17.3-5.5 21.5-2.3-9.7-12.6-26.8-15.2-39.7-2.2 3.8-6.5 10.2-9.1 16.2-4.2-8.5-11.5-15.8-15.6-27.5 4.5-3.5 6.7-9.2 14.1-8.7 13.1 1.2 34.9 34.2 35.9.6zM9.4 425.2c5.6 7.5 10.5 4.9 16.1 8.3.8-2.6.1-4.9.7-7.6 9.4 2.4 17.5-.6 21.4-11.3 9.8 3.4 38.8 17.5 48.8 13.9 3-1.1 11.1-16.7 14-20.4 6.4-8.5 14.9-16.3 21.1-25 11 12.8 16.8 47.9 30.6 55.8 16.4 9.4 21.3-11.6 32.5-23.8-.8 3.3-1.2 7-1.8 10 11.4 1.6 22.6 8.5 32.6 14.7 10-5.4 23.4-9.1 23.9-25.2 13.8 6.6 58.5 15.5 58.7-2 9.3 4.1 20.2 10.8 30.3 10.2 2.5-.1 4.4-.9 6-2 3.4 38.8-32.7 37.4-47.5 5.2-1.4 34.7-36.2 5.2-39.3 28.1-4.9-.3-19.2-.7-22.4 0 11-13.2-48.1 11.5-42.1 23.7-2.8 3.8-38-6.4-41.7-33.9 1 12.9-2 29.3-2 42.7-3-4.7-6.1-9.1-9.3-15.3-17.4.4-37.4-7.4-51.2-17.4-2.5 5.6-3 9.9-5.3 15.7C51.9 465.8 32.8 457 0 444.4v-11.5c3.6-.9 7-3 9.4-7.7z"/></g><path fill="#BAE2DB" d="M1094.5 0v424.1c-5.1-2.4-8.4 1.6-23.6 13.1-2.7-.9-2-3.4-4-5.1-2.6 5-7.6 8-13.4 9.1-.5-2.6-1-5.4-1.2-8.4-1.2 3.7-2.5 6.6-4 8.9-9.8 0-20.4-4.7-24.4-13.6-15.3 17.4-33.3 7.3-42.4-12.7-.2 16.9-15.9 27.5-27.7 29.4-.7-2.6-.1-5-.7-7.7-9.4 4.7-18.5-.4-25.5-8.9-1.7 3.7-4 6.7-6.7 9.1-.2-.4-.5-.8-.7-1.2-.4.9-.9 1.8-1.3 2.7-13.6 10.2-35.8 8.2-54.6 10.8-8.1 1.1-15.5 3.1-21.3 7.2-8.7-13.6-13.6-31.3-27.7-39.2-1.4 37.8-49.5 11.2-68.6 16.5-4.3 1.2-10.4 12.1-13.5 12.1-10.6-.2-9-5.4-17.1-9.2-7.9-3.7-3.5-11.7-14.7-11.4.6 0-13.4 13-18 14.2-6.3 1.7-12.6 2.3-18.9 2.3-6.2 0-18.6 9.8-18.6 9.8s-34.6-17.5-51.9-15c-20.3 2.9-56.3 28.1-58.7 25.3 0 5.6-18.1-19.8-26.5-33.4-1.1 1.5-3.5 5.3-4.6 7.8-.2-.1-4-4.9-4-4.9-24.1 14-42.3-5.9-65.5-6.4-5.4-14.2-19.5-6.2-28.5.2-2.5-5-9-9.3-11.4-13.4-1 33.6-22.8.6-35.7-.3-7.4-.5-9.6 5.2-14.1 8.7-.6-1.7-1.1-3.5-1.6-5.4l-.9-4.5c.4 1.6.7 3.1.9 4.5.4 2.1.6 4.1.8 6-1.6 1.1-3.5 1.9-6 2-10.1.6-21-6.1-30.3-10.2-.2 17.5-45 8.6-58.7 2-.4 16.1-13.8 19.8-23.9 25.2-10-6.2-21.1-13.1-32.6-14.7.6-2.9.9-6.7 1.8-10-11.2 12.2-16.2 33.2-32.5 23.8-13.8-7.9-19.6-43.1-30.6-55.8-6.3 8.6-14.7 16.4-21.1 25-2.8 3.8-11 19.4-14 20.4-10 3.5-38.9-10.5-48.8-13.9-3.9 10.7-12.1 13.8-21.4 11.3-.6 2.6.1 5-.7 7.6-5.6-3.4-10.5-.8-16.1-8.3-2.3 4.4-5.7 6.5-9.3 7.4V0h1094.5z"/></svg>