<svg xmlns="http://www.w3.org/2000/svg" width="1094.5" height="551.3" xml:space="preserve"><path opacity=".5" fill="#818180" d="m1073.3 479.3-10.8-434.4C721.8-7 374.9-4.3 34.1 53 29.1 205.7 24 358.4 19 511.1c.2 9.7.5 19.4.7 29.1 10.8 21.3 33.9 10.8 38.9-19.8.5-2.7.8-5.5.9-8.6 1.2 3.4 2.6 6.1 4 8.2 2.4 3.4 5 5.3 7.6 6.7-.1 2.9-.5 5.7-.9 8.3 1.6 0 3.3-.1 4.9-.4-1.4-2-2.7-4.5-3.9-7.8 3.8 2 7.6 3.2 10.7 6.6 1.3-5.6 1.9-9.8 3.8-15 9.2 24.6 26.2 21.7 32.6-5.7 4.1 12.7 15.8 18.4 18 22.4.9-5.4-.4-10.1 1.1-15.4 10 3.3 19.8-2.8 30.2 5.2 3.6-15 13.3-20.8 18-30.1.2-.5.5-.8.7-1.3.4.9.9 1.7 1.3 2.5 9 18.1 24 30.9 30.4 49.7 7.9-1.1 15.8-2.2 23.6-3.2 11.2-23 20.3-19 26.2-42.6-1.6 18.9 3.9 0 9.5 15.2 19.3-20.5 47.9-5 64.1-34.4-.1 16 8.5 33.1 13.4 48.4 3.4-5.8 12.7-12.3 16.8-21.8.4 7.4 4.8 16.1 5.8 20.1.3 0 .6-.1.9-.1 2.1-2.6 7.5-10.1 4.3-10.6 9.4-6.7 15.6-8.2 25.3-17.8.6 2.2 1.1 4.5 1.7 6.7 8.1 3.2 9.4-5 18.4 4.3 4.6-8.2 16.1-15.8 20.5-25.8.7 6.2 1.9 13.8 2 20 2 2.6 9.8-1.3 8.6-3.4 1 3.6-.2 9.7.7 13.9 10.7-9.2 18.2-5.2 25.8-26.4 26.9 5.2-2.6-11.9 36.3-4.3 4.4 22.8 24.5 9 30.9 32.3 17.8-.6 35.6-1.1 53.4-1.5 2.5-9.3 5.9-18.2 10.4-26.6-.1 8.3 1 17.4 1.9 26.4 1.7 0 3.4-.1 5.1-.1 5-23.9 13.9-47.2 31.1-17.9 12.6.1 14.1 1 22.8-9.6 2.9-2.7 3.8 6.8 8.1 4.3 3-7.6 8.4-13.7 12.3-20.1 1.2 7.9 4.9 17.3 5.9 21.6 2-9.7 11.5-26.7 13.7-39.5 2.2 3.9 6.5 10.3 9.2 16.3 3.8-8.5 10.7-15.6 14.4-27.2.3.2.5.4.8.6-2.3 38.7 32.5 38.2 45.9 6.5 2.2 34.7 35 6.6 38.6 29.8 4.7 0 18.4.3 21.6 1.1 23.8 30 75.1 43.7 80.3-4.8-.6 12.9 2.7 29.5 3 42.9 2.8-4.5 5.7-8.7 8.5-14.6 16.7 1.8 35.7-4.2 48.7-12.9 2.6 5.9 3.2 10.3 5.4 16.2 30.3-.8 48.5-7.6 79.5-16.3.1-3.8 0-7.6-.1-11.5zm-864.4 21.4c-.5 0-1-.1-1.6-.1h3.4c-.7 0-1.3.1-1.8.1zm29.6-1.3c.7 0 1.4-.1 2 0 .5 0 1 .1 1.6.1-1.2-.1-2.4-.2-3.6-.1z"/><g fill="#F1DDEA"><path d="M166.8 428.1c-7 8.6-16.1 13.7-25.5 8.9-.6 2.7 0 5.1-.7 7.7-11.8-1.9-27.5-12.5-27.7-29.4-9.2 20-27.1 30-42.4 12.7-4 8.9-14.5 13.7-24.4 13.6 5.8 9.5 13.5 10 18.8 16.8 1.5-5.4 2.2-9.5 4.3-14.3 8.9 26.2 26.6 26.4 33.9 0 3.9 13.5 15.9 21 18.1 25.5 1.1-5.3-.1-10.2 1.5-15.3 10.2 4.9 20.6.4 31.2 10.1 4.2-14.4 14.4-18.8 19.4-27.3-2.6-2.3-4.8-5.3-6.5-9zM27.6 432.1c-2 1.7-1.3 4.2-4 5.1C8.4 425.7 5.1 421.7 0 424.1v29.2c10.7 23.5 35 17.5 41-12.1-5.8-1.2-10.8-4.1-13.4-9.1zM699.5 411.9c-2.3 4.2-8.8 8.5-11.4 13.4-9-6.4-23.1-14.5-28.5-.2-23.1.5-41.4 20.4-65.5 6.4 0 0-3.8 4.8-4 4.9-1.1-2.6-3.5-6.3-4.6-7.8-24.8 40-54.5 12.5-85.2 8.1-30-4.3-60.1 10.8-89.4 2.9-4.6-1.2-18.6-14.2-18-14.2-11.1-.3-6.8 7.7-14.7 11.4-8.1 3.8-6.5 9.1-17.1 9.2-3.1.1-9.2-10.9-13.5-12.1-19.2-5.3-67.2 21.3-68.6-16.5-14.1 8-19 25.7-27.7 39.2-13.4-9.6-35.4-7.5-54.1-10.3-8.2-1.2-15.8-3.3-21.8-7.8 8.9 19.5 24 34.4 30.2 54.1h24.6c12.2-21.5 21.5-16.4 28.2-39.2-2.1 18.7 4 .4 9.4 16.4 20.5-18.1 49.7.5 67.1-27.2-.6 15.9 7.9 34 12.6 49.7 3.6-5.4 13.5-11 18-20.2.2 7.4 4.5 16.5 5.5 20.6h1c2.2-2.4 8-9.4 4.7-10.3 9.9-5.9 16.3-6.8 26.6-15.7.5 2.3 1.1 4.6 1.6 6.8 8.3 3.8 9.9-4.2 18.9 5.8 5-7.8 17.1-14.6 21.8-24.3.6 6.2 1.6 13.9 1.5 20.1 2 2.7 10.2-.6 9-2.8 1 3.6-.4 9.6.3 13.9 11.3-8.5 18.9-4.1 27.4-24.8 27.7 6.7-2.3-12 37.7-2.4 4 23 25.1 10 31.1 33.6h55.3c2.9-9.2 6.6-18.1 11.5-26.4-.3 8.2.6 17.4 1.3 26.4h5.3c5.8-23.8 15.6-46.9 32.7-17.6 13 .1 14.5 1.1 23.9-9.6 3.1-2.7 3.7 6.8 8.2 4.3 3.3-7.6 9-13.7 13.3-20.2 1 7.9 4.7 17.3 5.5 21.5 2.3-9.7 12.6-26.8 15.2-39.7 2.2 3.8 6.5 10.2 9.1 16.2 4.2-8.5 11.5-15.8 15.6-27.5-4.5-3.5-6.7-9.2-14.1-8.7-13.1 1.2-34.9 34.2-35.9.6zM1085.1 425.2c-5.6 7.5-10.5 4.9-16.1 8.3-.8-2.6-.1-4.9-.7-7.6-9.4 2.4-17.5-.6-21.4-11.3-9.8 3.4-38.8 17.5-48.8 13.9-3-1.1-11.1-16.7-14-20.4-6.4-8.5-14.9-16.3-21.1-25-11 12.8-16.8 47.9-30.6 55.8-16.4 9.4-21.3-11.6-32.5-23.8.8 3.3 1.2 7 1.8 10-11.4 1.6-22.6 8.5-32.6 14.7-10-5.4-23.4-9.1-23.9-25.2-13.8 6.6-58.5 15.5-58.7-2-9.3 4.1-20.2 10.8-30.3 10.2-2.5-.1-4.4-.9-6-2-3.4 38.8 32.7 37.4 47.5 5.2 1.4 34.7 36.2 5.2 39.3 28.1 4.9-.3 19.2-.7 22.4 0-11-13.2 48.1 11.5 42.1 23.7 2.8 3.8 38-6.4 41.7-33.9-1 12.9 2 29.3 2 42.7 3-4.7 6.1-9.1 9.3-15.3 17.4.4 37.4-7.4 51.2-17.4 2.5 5.6 3 9.9 5.3 15.7 31.7-3.8 50.9-12.7 83.6-25.3v-11.5c-3.7-.8-7-2.9-9.5-7.6z"/></g><path fill="#ECAFBC" d="M0 0v424.1c5.1-2.4 8.4 1.6 23.6 13.1 2.7-.9 2-3.4 4-5.1 2.6 5 7.6 8 13.4 9.1.5-2.6 1-5.4 1.2-8.4 1.2 3.7 2.5 6.6 4 8.9 9.8 0 20.4-4.7 24.4-13.6 15.3 17.4 33.3 7.3 42.4-12.7.2 16.9 15.9 27.5 27.7 29.4.7-2.6.1-5 .7-7.7 9.4 4.7 18.5-.4 25.5-8.9 1.7 3.7 4 6.7 6.7 9.1.2-.4.5-.8.7-1.2.4.9.9 1.8 1.3 2.7 13.6 10.2 35.8 8.2 54.6 10.8 8.1 1.1 15.5 3.1 21.3 7.2 8.7-13.6 13.6-31.3 27.7-39.2 1.4 37.8 49.5 11.2 68.6 16.5 4.3 1.2 10.4 12.1 13.5 12.1 10.6-.2 9-5.4 17.1-9.2 7.9-3.7 3.5-11.7 14.7-11.4-.6 0 13.4 13 18 14.2 6.3 1.7 12.6 2.3 18.9 2.3 6.2 0 18.6 9.8 18.6 9.8s34.6-17.5 51.9-15c20.3 2.9 56.3 28.1 58.7 25.3 0 5.6 18.1-19.8 26.5-33.4 1.1 1.5 3.5 5.3 4.6 7.8.2-.1 4-4.9 4-4.9 24.1 14 42.3-5.9 65.5-6.4 5.4-14.2 19.5-6.2 28.5.2 2.5-5 9-9.3 11.4-13.4 1 33.6 22.8.6 35.7-.3 7.4-.5 9.6 5.2 14.1 8.7.6-1.7 1.1-3.5 1.6-5.4l.9-4.5c-.4 1.6-.7 3.1-.9 4.5-.4 2.1-.6 4.1-.8 6 1.6 1.1 3.5 1.9 6 2 10.1.6 21-6.1 30.3-10.2.2 17.5 45 8.6 58.7 2 .4 16.1 13.8 19.8 23.9 25.2 10-6.2 21.1-13.1 32.6-14.7-.6-2.9-.9-6.7-1.8-10 11.2 12.2 16.2 33.2 32.5 23.8 13.8-7.9 19.6-43.1 30.6-55.8 6.3 8.6 14.7 16.4 21.1 25 2.8 3.8 11 19.4 14 20.4 10 3.5 38.9-10.5 48.8-13.9 3.9 10.7 12.1 13.8 21.4 11.3.6 2.6-.1 5 .7 7.6 5.6-3.4 10.5-.8 16.1-8.3 2.5 4.7 5.8 6.7 9.4 7.6V0H0z"/></svg>