<svg xmlns="http://www.w3.org/2000/svg" width="14.6" height="9.2" xml:space="preserve"><g opacity=".032" fill="#F9F8F7"><path d="M.1 9.1s0-.1 0 0c-.1 0 0 0 0 0z"/><path d="M.7.3 0 9s0 .1.1.1c0-.1 0-.2.1-.1 0 .1 0 0 0 0 .1 0 .1-.1.1-.1.1.1 0 .1 0 .1-.1 0 0 .1 0 .1 0-.1.1 0 0-.1.1 0 .2-.1.2 0v-.1h.1s0 .1 0 0l.1-.1.1-.1.1-.1.1-.1v.1-.1c.1 0 0-.1 0-.1 0-.1 0-.1.1-.1v.1-.1s0 .1.1 0v-.1s.1.1 0 .1v-.2h.1-.1.1s.1 0 .1.1l.1-.1s0 .1-.1.1l.1.1v.1s0 .1.1 0v-.1.1V8.1v.1V8h.2s0 .1.1.1c0-.1.1 0 .1-.1 0 .1.1 0 .1.1h.1V8v.1c0 .1.1 0 .1.1v-.1s.1.1.1 0c0 0 .1 0 .1-.1l.1.1V8h.1v.1l.1-.1v-.1s0-.1.1-.1c0-.1-.1 0 0-.1H3v.2-.1.2h.1v-.1h.2s0-.1 0 0v-.1h.1v.1h.1v-.1.1-.2H4l.1-.1h.2v-.1h-.1.1v.1h.1v.1-.1h.2c.1 0 0 0 .1-.1 0 0 0 .1 0 0v-.1s0 .1 0 0v-.1.2c.3.6.3.5.3.5v-.1h.1c.1 0 0 0 .1-.1h.1v-.1s0-.1.1 0h.2l.1.1.1-.1c0 .1.1 0 .1.1 0 0 0-.1.1 0v-.1s0 .1-.1 0h.2c-.1-.1-.1-.3 0-.2v.1s0-.1.1-.1h.2c-.1.1 0 0 .1.1v-.1.2c.1 0 .1 0 .1-.1H7.2c.1 0 .1.1.1 0h.2v-.1s0 .1.1 0c0 0 0-.1.1-.1 0 0-.1 0 0 .1H8c.1-.1.2 0 .3 0v.1-.1c0 .1.1 0 .1.1h.4v.1s.1 0 0-.1c0 0 .1-.1.1 0v-.1H9.7s.1-.1.1 0v-.1h.1v-.1H10.2c.1-.1.2-.1.4-.1h.1c.1.1.2-.1.3.1v-.1h1.6v.1s.1 0 .1-.1H13c.1 0 .1 0 .2.1h.1s.1 0 .1.1h.1v.1c.1 0 .2.1.3.1h.2v.1h.1v.1c.1 0 0-.1.1-.1h.4V.9S8 .7 7.9.7C7.4.5.7.3.7.3z"/></g><g opacity=".065" fill="#F2F1EF"><path d="M.1 9.1s0-.1 0 0zM.7.3 0 9s0 .1.1.1c0-.1 0-.2.1-.1 0 .1 0 0 0 0 .1 0 .1-.1.1-.1.1.1 0 .1 0 .1-.1 0 0 .1 0 .1 0-.1.1 0 0-.1.1 0 .2-.1.2 0v-.1h.1s0 .1 0 0v-.1l.1-.1.1-.1.1-.1v.1-.1c.1 0 0-.1 0-.1 0-.1 0-.1.1-.1v.1-.1s0 .1.1.1v-.1s.1.1 0 .1v-.2h.2s.1 0 .1.1l.1-.1s0 .1-.1.1l.1.1v.1s0 .1.1 0v-.1.1V8.2v.1-.2h.2s0 .1.1.1c0-.1.1 0 .1-.1 0 .1.1 0 .1.1h.1v-.1.1c0 .1.1 0 .1.1v-.1s.1.1.1 0c0 0 .1 0 .1-.1l.1.1v-.1h.1l.1-.1v-.1s0-.1.1-.1c0-.1-.1 0 0-.1H3v.1-.1.2h.1v-.1h.2s0-.1 0 0v-.1h.1v.1h.1v-.1.1-.2h.4l.1-.1h.2v-.1h-.1.1v.1h.1v.1-.1h.2c.1 0 0 0 .1-.1 0 0 0 .1 0 0v-.1s0 .1 0 0v-.1c.4.7.4.8.4.8 0 .1 0 0 .1 0v-.2H5.4v-.1s0-.1.1 0h.2l.1.1.1-.1c0 .1.1 0 .1 0s0-.1.1 0v-.1s0 .1-.1 0h.2c-.2-.1-.2-.2-.1-.2v.1s0-.1.1-.1h.2c-.1.1 0 0 .1.1v-.1.2c.1 0 .1 0 .1-.1H7.2c.1 0 .1.1.1 0h.2v-.1s0 .1.1 0c0 0 0-.1.1-.1 0 0-.1 0 0 .1H8c.1-.1.2 0 .3 0v.1-.1c0 .1.1 0 .1.1h.4v.1s.1 0 0-.1c0 0 .1-.1.1 0v-.1H9.7s.1-.1.1 0v-.1h.1v-.1H10.2c-.2-.2-.1-.1 0-.1h.1c.1.1.2-.1.3.1v-.1h1.6v.1s.1 0 .1-.1H12.6c.1 0 .1 0 .2.1h.1s.1 0 .1.1h.1v.1c.1 0 .2.1.3.1h.2v.1h.1c.1 0 0-.1.1 0h.4V.8S7.6.6 7.5.6C7.3.5.7.3.7.3z"/></g><g opacity=".097" fill="#EFEEEA"><path d="M.1 9.1c0-.1 0-.1 0 0 0-.1 0-.1 0 0zM.7.3.1 9s0 .1.1.1c0-.1 0-.2.1-.1 0 .1 0 0 0 0 .1 0 .1-.1.1-.1 0 .1-.1.1 0 .1-.1 0 0 .1 0 .1 0-.1.1 0 0-.1.1 0 .2-.1.2 0v-.1h.1s0 .1 0 0v-.1l.1-.1.1-.1.1-.1v-.1c.1 0 0 0 0-.1s0-.1.1-.1v.1-.1s0 .1.1.1v-.1s.1 0 0 .1v-.2s.1 0 .1.1l.1-.1s0 .1-.1.1l.1.1v.1s0 .1.1 0v-.1.1V8.1v.1V8h.2s0 .1.1.1c0-.1.1 0 .1-.1 0 .1.1 0 .1.1h.1V8v.1s.1 0 .1.1v-.1s.1.1.1 0V8l.1.1V8h.1l.1-.1v-.1l.1-.1s-.1 0 0-.1h.1v.1-.1.2h.1v-.1h.2s0-.1 0 0v-.1h.1v.1h.1v-.1.1-.2h.2s-.1 0 0 0h.1l.1-.1h.2s0-.1 0 0h-.1.1v.2-.1H4l.1-.1v-.1s0 .1 0 0v-.1.2c1 .7.9.5 1 .6v-.2H5.4v-.1s0-.1.1 0h.1l.1-.1.1.1s0-.1.1-.1c0 .1.1 0 .1 0s0-.1.1 0v-.1s0 .1-.1 0h.2c-.2 0-.1-.1 0-.1 0 0 0-.1.1-.1h.2c-.1.1.1 0 .1.1v-.1.2c.1 0 .1 0 .1-.1h.4c.1 0 .1.1.1 0h.2v-.1s0 .1.1 0c0 0 0-.1.1-.1 0 0-.1 0 0 .1H7.9c.1-.1.2 0 .3 0v.1-.1c0 .1.1 0 .1.1h.4v.1s.1 0 0-.1c0 0 .1-.1.1 0v-.1H9.6s.1-.1.1 0h.1v-.1H10.1c-.1-.2 0-.2.2-.1h.1c.1.1.2-.1.3.1v-.1h1.6v.1s.1 0 .1-.1H12.7c.1 0 .1 0 .2.1h.1s.1 0 .1.1h.1v.1c.1 0 .2.1.3.1h.2v.1h.1c.1 0 0-.1.1 0h.4V.8S7.8.6 7.6.6C7.3.5.7.3.7.3z"/></g><g opacity=".129" fill="#EAE8E5"><path d="M.2 9s-.1-.1 0 0c-.1 0-.1 0 0 0z"/><path d="M.7.2.1 8.9s0 .1.1.1c0-.1 0-.2.1-.1 0 .1 0 0 0 0 .1 0 .1-.1.1-.1.1.1 0 .1 0 .1-.1 0 0 .1 0 .1 0-.1.1 0 0-.1.1 0 .2-.1.2 0v-.1h.1s0 .1 0 0v-.1l.1-.1.1-.1.1-.1v-.1c.1 0 0 0 0-.1v-.1.1-.1s0 .1.1.1v-.1s.1 0 0 .1V8s.1 0 .1.1l.1-.1v.1l.1.1v.1s0 .1.1 0v-.1.1V8s0 .1 0 0v-.2h.2s0 .1.1.1c0 0 .1 0 .1-.1 0 .1.1 0 .1.1h.1v-.1.1s.1 0 .1.1v-.1s.1.1.1 0v-.1l.1.1v-.1h.1l.1-.1.1-.1h.1s-.1 0 0-.1h.1v.1-.1.2H3v-.1h.2s0-.1 0 0v-.1h.1v.1h.1v-.1.1-.2H4h-.1.1v.2-.1h.1l.1-.1c.8.6.8.6.8.5h.1v-.1.2s0-.1 0 0v-.2H5.4v-.1s0-.1.1 0h.1l.1-.1.1.1s0-.1.1-.1c0 .1.1 0 .1 0s.1-.1.1 0v-.1s0 .1-.1 0h.2c.1-.1.1-.2.2-.1 0 0 0-.1.1-.1h.2c-.1.1.1 0 .1.1v.2s.1 0 .1-.1h.4c.1 0 .1.1.1 0h.2v-.1h.1l.1-.1s-.1 0 0 .1H8.1c.1-.1.2 0 .3 0v.1-.1c0 .1.1 0 .1.1H8.8v.1s.1 0 0-.1c0 0 .1-.1.1 0 0 0 0-.1 0 0H9.7s.1-.1.1 0v-.1H10.1c0-.4.1-.4.2-.4h.1c.1.1.2-.1.3.1V7H12.2v.1s.1 0 .1-.1H12.6c.1 0 .1 0 .2.1h.1l.1.1h.1v.1c.1 0 .2.1.3.1h.1v.1h.1c.1 0 0-.1.1 0h.4V.7S7.6.5 7.4.5C7.2.4.7.2.7.2z"/></g><g opacity=".161" fill="#E6E4E0"><path d="M.2 9s0-.1 0 0c-.1 0 0 0 0 0z"/><path d="M.7.2.1 8.9s0 .1.1.1c0-.1 0-.2.1-.1 0 .1 0 0 0 0 .1 0 .1-.1.1-.1.1.1 0 .1 0 .1 0 .1.1.1.1.1 0-.1.1 0 0-.1.1 0 .2-.1.2 0v-.1h.1s0 .1 0 0v-.1h.1l.1-.1h.1V8.3v.1-.1s0 .1.1.1v-.1s.1 0 0 .1v-.2s.1 0 .1.1l.1-.1v.1l.1.1v.1s0 .1.1 0v-.1s0 .1 0 0V8.1s0 .1 0 0v-.2h.2s0 .1.1.1c0 0 .1 0 .1-.1 0 .1.1 0 .1.1h.1v-.1s0 .1 0 0c0 0 .1 0 .1.1v-.1h.1v-.1l.1.1v-.1h.1l.1-.1.1-.1h.1s-.1 0 0-.1H3v.2h.1v-.1h.1s0-.1 0 0v-.1h.1v.1h.1v-.1.1-.2H4v.2-.1h.1v-.1h.1v-.1.2c.1 0 .1-.1.1-.1v-.2H4.6v-.1s0-.1.1 0h.1l.1-.1.1.1s0-.1.1-.1c0 .1.1 0 .1 0s.1-.1.1 0v-.1s0 .1 0 0h.1c.1-.1.1-.2.2-.1 0 0 0-.1.1-.1h.2c0 .1.1 0 .1.1v.1h.1V7s.1 0 .1-.1h.4c.1 0 .1.1.1 0h.2v-.1H7l.1-.1s-.1 0 0 .1H7.4c.1-.1.2 0 .3 0v.1-.1c0 .1.1 0 .1.1H8.1V7s.1 0 0-.1c0 0 .1-.1.1 0H9s.1-.1.1 0v-.1H9.4c.7.2.8.2.9.2h.1c.1.1.2-.1.3 0v-.1H12.2V7s.1 0 .1-.1h.2c.1 0 .1 0 .2.1h.1l.1.1.1-.1v.1c.1 0 .2.1.3.1h.1v.1h.1c.1 0 0-.1.1 0h.4V.5S7.6.3 7.3.3C7.2.4.7.2.7.2z"/></g><g opacity=".194" fill="#E1E0DA"><path d="M.2 9c0-.1 0-.1 0 0 0-.1 0-.1 0 0zM.7.2.1 8.9s0 .1.1.1c0-.1 0-.2.1-.1 0 .1 0 0 0 0 .1 0 .1-.1.1-.1.1.1 0 .1 0 .1 0 .1.1.1.1.1 0-.1.1 0 0-.1.1 0 .2-.1.2 0v-.1h.1s0 .1 0 0v-.1h.1l.1-.1h.1V8.3v.1s0 .1.1.1v-.1s.1 0 0 .1v-.2s.1 0 .1.1l.1-.1v.1l.1.1s0 .1.1 0v-.4s0 .1 0 0V8h.2s0 .1.1.1c0 0 .1 0 .1-.1 0 .1.1 0 .1.1h.1V8h.1v-.1h.1v-.1l.1.1v-.1h.1s0-.1.1-.1l.1-.1h.1v-.1H3v.2h.1v-.1h.1s0-.1 0 0v-.1.1h.1v-.2h.6v.2-.1H4v-.1h.1v-.1.1c.1 0 .1-.1.1-.1v-.2H4.5V7s0-.1.1 0h.1l.1-.1.1.1s0-.1.1-.1h.1s.1-.1.1 0v-.1s0 .1 0 0h.1c.1-.1.1-.2.2-.1 0 0 0-.1.1-.1h.2c0 .1.1 0 .1.1H6v.1s.1 0 .1-.1h.4c.1 0 .1.1.1 0h.2v-.1h.1l.1-.1s-.1 0 0 .1H7.6v.1-.1c0 .1.1 0 0 .1H7.9v.1s.1 0 0-.1H8.8s.1-.1.1 0v-.1H9.2c.9.4 1 .4 1.1.4h.1c.1.1.2-.1.3 0v-.1H12.2l.1.1s.1 0 .1-.1h.2c.1 0 .1 0 .2.1h.1l.1.1V7v.1c.1 0 .2.1.3.1h.1v.1h.1c.1 0 0-.1.1 0h.4V.5S7.6.3 7.3.3C7.1.4.7.2.7.2z"/></g><g opacity=".226" fill="#DFDCD6"><path d="M.2 9c0-.1 0-.2 0 0 0-.1 0-.1 0 0zM.7.2.2 8.9s0 .1.1.1c0-.1 0-.2.1-.1 0 .1 0 0 0 0 .1 0 .1-.1.1-.1.1.1 0 .1 0 .1-.1 0 0 .1 0 .1 0-.1.1 0 0-.1.1 0 .2-.1.2 0v-.1h.1s0 .1 0 0v-.1H1.1v-.2.1s0 .1.1.1v-.1s.1 0 0 .1v-.2l.1.1.1-.1v.1l.1.1s0 .1.1 0v-.4s0 .1 0 0v-.1h.2s0 .1.1.1c0 0 .1 0 .1-.1 0 .1.1 0 .1 0h.1v-.1h.1V8h.1v-.1l.1.1v-.1h.1s0-.1.1-.1l.1-.1h.1v-.1H3v.2h.1v-.1h.1s0-.1 0 0v.1h.1v-.1L4 8h.5v.2-.1h.1V8h.1v-.1.1c.1 0 .1-.1.1-.1v-.2H5.1v-.1s0-.1.1 0h.1l.1-.1h.1s0-.1.1-.1h.2v-.1s0 .1 0 0h.1c.1-.1.1-.2.2-.1 0 0 0-.1.1-.1h.2c0 .1.1 0 .1.1h.1v.1s.1 0 .1-.1h.4s.1.1.1 0h.2v-.1h.1s.1 0 .1-.1c0 0-.1 0 0 .1h.1v.1h.5v.1-.1c0 .1.1 0 0 .1H8.5v.1s.1 0 0-.1H9.3s.1-.1.1 0v-.1H9.7c.1-.1.2-.1.3 0h.1c.1.1.2-.1.3 0v-.1H11.9l.1.1s.1 0 .1-.1h.2c.1 0 .1 0 .2.1h.1l.1.1h.1v.1c.1 0 .2.1.3.1h.1v.1h.1c.1 0 0-.1.1 0h.4V.8S7.5.7 7.1.7C7.1.4.7.2.7.2z"/></g><g opacity=".258" fill="#DAD8D1"><path d="M.3 8.9s-.1-.1 0 0c-.1 0-.1 0 0 0z"/><path d="M.7.2.2 8.8s0 .1.1.1c0-.1 0-.2.1-.1v.1c.1 0 .1-.1.1-.1.1.1 0 .1 0 .1-.1 0 0 .1 0 .1 0-.1.1 0 0-.1.1 0 .2-.1.2 0v-.1h.1s0 .1 0 0v-.1H1.1v-.2.1s0 .1.1.1v-.1s.1 0 0 0v-.2l.1.1h.1v.1l.1.1s0 .1.1 0v-.4s0 .1 0 0v-.1h.2s0 .1.1.1c0 0 .1 0 .1-.1 0 .1.1 0 .1 0h.1v-.1h.1V8h.1v-.1l.1.1h.1s0-.1.1-.1l.1-.1h.1v-.1H3v.1h.1v-.1h.1s0-.1 0 0v.1h.1v-.2h.1s-.1 0 0 0v.1h.4v.2-.1h.1v-.1H4v-.1.1c.1 0 .1-.1.1-.1v-.1H4.4v-.1s0-.1.1 0h.1l.1-.1h.1s0-.1.1-.1h.2v-.1s0 .1 0 0h.1c.1 0 .1-.2.2-.1l.1-.1h.2c0 .1.1 0 .1.1h.1v.1S6 7.1 6 7h.4s.1.1.1 0h.2v-.1h.1s.1 0 .1-.1v.1H7V7h.5v.1V7v.1H7.8v.1s.1 0 0 0H8.6s.1-.1.1 0v-.1H9c.1-.1.2-.1.3 0h.1c.1.1.2-.1.3 0V7H11.2l.1.1s.1 0 .1-.1h.2c.1 0 .1 0 .2.1h.1l.1.1h.1v.1c.1 0 .2.1.3.1h.1v.1h.1c.1 0 0-.1.1 0h.4V.7S6.8.6 6.4.6C7 .4.7.2.7.2z"/></g><g opacity=".29" fill="#D6D4CD"><path d="M.3 8.9s-.1-.1 0 0c-.1 0 0 0 0 0z"/><path d="M.7.2.2 8.8s0 .1.1.1c0-.1 0-.2.1-.1 0 .1 0 0 0 0 .1 0 .1-.1.1-.1.1.1 0 .1 0 .1-.1 0 0 .1 0 .1 0-.1.1 0 0-.1.1 0 .2-.1.2 0v-.1h.1s0 .1 0 0v-.1H1.1v-.2.1s0 .1.1.1v-.1s.1 0 0 0v-.2l.1.1v.1l.1.1s0 .1.1 0V8.3s0 .1 0 0v-.1h.1l.1.1s0 .1.1 0c0 0 .1 0 .1-.1 0 .1.1 0 .1 0v-.1h.1V8h.1v-.1l.1.1h.1s0-.1.1-.1l.1-.1h.1v-.1h.1v.1h.1v-.1H3s0-.1 0 0v.1h.1v-.1h.1s-.1 0 0 0v.1H3.5V8v-.1h.1v-.1h.1v-.1.1c.1 0 .1-.1.1-.1v-.1H4.1v-.1s0-.1.1 0h.1l.1-.1h.1s0-.1.1-.1h.2v-.1s0 .1 0 0h.1c.1 0 .1-.1.2-.1l.1-.1h.4c.1 0 0 .1 0 .1s.1 0 .1-.1h.4s0 .1.1 0h.2v-.1h.1s.1 0 .1-.1v.1h.1V7h.4v.1V7c0 .1 0 0 0 0H7.4v.1s.1 0 0 0H8.2s.1-.1.1 0V7H8.6c.1 0 .2-.1.3 0H9c.1.1.2-.1.3 0v-.1H10.8l.1.1s.1 0 .1-.1h.2c.1 0 .1 0 .2.1h.1l.1.1h.1v.1c.1 0 .2.1.3.1h.1v.1h.1s0-.1.1 0h.4V.6S6.5.5 6 .5C7 .4.7.2.7.2z"/></g><g opacity=".323" fill="#D2D0C7"><path d="M.3 8.9c0-.1 0-.1 0 0 0-.1 0-.1 0 0zM.7.2.2 8.8s0 .1.1.1c0-.1 0-.2.1-.1v.1c.1 0 .1-.1.1-.1.1.1 0 .1 0 .1-.1 0 0 .1 0 .1 0-.1.1 0 0-.1.1 0 .2-.1.2 0v-.1h.1s0 .1 0 0v-.1H1.1v-.2.1s0 .1.1.1c0 0 .1 0 0 0h.1V8.4l.1.1v.1l.1.1s0 .1.1 0v-.2s0 .1 0 0v-.1h.1l.1.1s0 .1 0 0c0 0 .1 0 .1-.1 0 .1.1 0 .1 0v-.1h.1v-.1h.1v-.1l.1.1h.1s0-.1.1-.1l.1-.1h.1v-.1s.1 0 .1.1v.1h.1V8H3v.1h.1V8h.1v.1H3.5v.2-.1h.1v-.1h.1V8v.1c.1 0 .1-.1.1 0V8H4.1v-.1s0-.1.1 0h.1l.1-.1h.1v-.1H4.8c.1 0 .1-.1.2-.1l.1-.1h.4c.1 0 0 .1 0 .1s.1 0 .1-.1H6s0 .1.1 0h.2v-.1h.1s.1 0 .1-.1v.1h.1v.1h.1l.1-.1H7v.1-.1c0 .1 0 0 0 0h.2v.1s.1 0 0 0H8s.1-.1.1 0v-.1H8.4c.1 0 .2-.1.3 0h.1c.1.1.2-.1.3 0v-.1H10.9c.1 0 .1 0 .2.1h.1l.1.1h.1v.1c.1 0 .2.1.3.1h.1v.1h.1s0-.1.1 0h.4V1S6.2.9 5.7.9C6.9.4.7.2.7.2z"/></g><g opacity=".355" fill="#CFCDC4"><path d="M.3 8.8s0-.1 0 0zM.7.2.3 8.8s0 .1.1.1c0-.1 0-.2.1-.1 0 .1 0 0 0 0 .1 0 .1-.1.1-.1.1.1 0 .1 0 .1-.1 0 0 .1 0 .1 0-.1.1 0 0-.1.1 0 .2-.1.2 0v-.1h.1s0 .1 0 0v-.1H1.2v-.2.1s0 .1.1.1c0 0 .1 0 0 0h.1V8.3v.2l.1.1s0 .1.1 0v-.2h.1l.1.1s0 .1 0 0h.1c0 .1.1 0 .1 0v-.1h.1v-.1h.1v-.1l.1.1h.2s0-.1.1-.1h.2v-.1s.1 0 .1.1v.1H3v-.1h.1v-.1.1C3.9 8 4 8 4 8v-.1h.1V8H4.4v.2-.1.1h.1v-.1h.1V8v.1c.1 0 .1-.1.1 0l.1-.1H5.1v-.1s0-.1.1 0h.1l.1-.1h.1v-.1H5.8c.1 0 .1-.1.2-.1h.5c.1 0 0 .1 0 .1s.1 0 .1-.1H7s0 .1.1 0h.2v-.1h.2v.1h.1v.1h.1l.1-.1H8v.1-.1c0 .1 0 0 0 0h.2v.1s.1 0 0 0h1.2c.1 0 .2-.1.3 0h.1c.1.1.2-.1.3 0 0 0 0-.1 0 0H11.9c.1 0 .1 0 .2.1h.1l.1.1h.1V8c.1 0 .2.1.3.1h.1v.1H13.4V1.4s-6.1-.1-6.8-.1C6.9.4.7.2.7.2z"/></g><g opacity=".387" fill="#CBC9C0"><path d="M.4 8.8s-.1-.1 0 0c-.1 0-.1 0 0 0z"/><path d="M.7.2.3 8.7s0 .1.1.1c0-.1 0-.2.1-.1 0 .1 0 0 0 0 .1 0 .1-.1.1-.1.1.1 0 .1 0 .1-.1 0 0 .1 0 .1 0-.1.1 0 0-.1.1 0 .2-.1.2 0v-.1h.1s0 .1 0 0v-.1h.2v-.2.1s0 .1.1.1c0 0 .1 0 0 0h.1V8.2v.2h.1s0 .1.1 0v-.2s0 .1.1.1c0 0 0 .1 0 0h.1c0 .1.1 0 .1 0v-.1.1h.1v-.1H2v-.1l.1.1h.2s0-.1.1-.1h.2V8s.1 0 .1.1v.1h.1v-.1h.1V8H3v-.1h.1V8H3.4v.1V8v.1h.1V8h.1v-.1.1c.1 0 .1-.1.1 0l.1-.1H4v-.1s0-.1.1 0h.1l.1-.1h.1v-.1H4.7c.1 0 .1-.1.2-.1h.5v.1s.1 0 .1-.1h.4s0 .1.1 0h.2v-.1h.2v.1h.1v.1h.1l.1-.1h.2v.1-.1c0 .1 0 0 0 0h.2s.1 0 0 0h1.2c.1 0 .2-.1.3 0h.1c.1.1.2-.1.3 0 0 0 0-.1 0 0H10.8c.1 0 .1 0 .2.1h.1v.1h.1v.1c.1 0 .2.1.3.1h.1V8H12.2V1.2s-6.1-.1-6.8-.1C6.8.3.7.2.7.2z"/></g><g opacity=".419" fill="#C8C6BB"><path d="M.4 8.8c0-.1-.1-.1 0 0-.1 0 0 0 0 0z"/><path d="M.7.2.3 8.7s0 .1.1.1c0-.1 0-.2.1-.1v.1c.1 0 .1-.1.1-.1.1.1 0 .1 0 .1-.1 0 0 .1 0 .1 0-.1.1 0 0-.1.1 0 .2-.1.2 0v-.1h.1s0 .1 0 0v-.1h.2v-.2.1s0 .1.1.1c0 0 .1 0 0 0h.1v-.2.2h.1s0 .1.1 0v-.2s0 .1.1.1c0 0 0 .1 0 0h.1c0 .1.1 0 .1 0v-.1.1h.1v-.1H2v-.1s.1.1.1 0h.2s0-.1.1-.1h.2v-.1s.1 0 .1.1v.1h.1v-.1h.1v-.1S3 8.1 3 8v-.1h.1s-.1 0 0 0V8H3.4v.1V8v.1h.1V8h.1v-.1.1c.1 0 .1-.1.1 0l.1-.1H4v-.1h.2l.1-.1h.4c.1 0 .1-.1.2-.1h.6v.1s.1 0 .1-.1H6s0 .1.1 0h.2v-.1h.2v.1h.1v.1h.1v-.1h.2v.1-.1c0 .1 0 0 0 0H8.3c.1 0 .2-.1.3 0h.1c.1.1.2-.1.3 0H10.8c.1 0 .1 0 .2.1h.1v.1h.1v.1c.1 0 .2.1.3.1h.1v.1H12.2V1.3s-6.1-.1-6.8-.1C6.8.3.7.2.7.2z"/></g><g opacity=".452" fill="#C4C2B7"><path d="M.4 8.8c0-.1 0-.2 0 0 0-.1 0-.1 0 0zM.7.2.3 8.7s0 .1.1.1c0-.1 0-.2.1-.1 0 .1 0 0 0 0 .1 0 .1-.1.1-.1.1.1 0 .1 0 .1-.1 0 0 .1 0 .1 0-.1.1 0 0-.1.1 0 .2-.1.2 0v-.1h.1s0 .1 0 0v-.1h.2v-.2.1s0 .1.1.1c0 0 .1 0 0 0h.1v-.2.2h.1s0 .1.1.1v-.2s0 .1.1.1h.2v-.1.1H2v-.1s.1.1.1 0h.2s0-.1.1-.1h.2v-.1s.1 0 .1.1v.1h.1v-.1h.1v-.1s.1 0 .1-.1V8h.1s-.1 0 0 0v.1H3.4v.1-.1.1h.1v-.1h.1s0-.1 0 0v.1c.1 0 .1-.1.1 0l.1-.1H4V8h.2l.1-.1H4.6c.1 0 .1-.1.2-.1h.6v.1s.1 0 .1-.1h.4s0 .1.1 0h.2v-.1h.2v.1h.1v.1h.1v-.1h.2v.1-.1c0 .1 0 0 0 0h1.5c.1 0 .2-.1.3 0h.1c.1 0 .2-.1.3 0H10.8c.1 0 .1 0 .2.1h.1V8h.1v.1c.1 0 .2.1.3.1h.1v.1H12.2V1.5s-6-.1-6.8-.1C6.7.3.7.2.7.2z"/></g><g opacity=".484" fill="#C1BFB3"><path d="M.4 8.7s0-.1 0 0zM.7.2.4 8.6s0 .1.1.1c0-.1 0-.2.1-.1v.1c.1 0 .1-.1.1-.1.1.1 0 .1 0 .1-.1 0 0 .1 0 .1 0-.1.1 0 0-.1.1 0 .2-.1.2 0v-.1H1s0 .1 0 0v-.1h.2v-.2.1s0 .1.1.1c0 0 .1 0 0 0h.1v-.2.2h.1v.1-.2s0 .1.1.1h.2v-.1.1h.1v-.1s.1.1.1 0h.2s0-.1.1-.1h.2v-.1s.1 0 .1.1v.1h.1v-.1h.1v-.1s.1 0 .1-.1V8h.2H3v.1h.2v.1-.1.1h.1v-.1h.1v.1c.1 0 .1-.1.1 0l.1-.1h.2V8H4l.1-.1H4.4c.1 0 .1-.1.2-.1h.6s0 .1.1.1l.1-.1h.4s0 .1.1 0H6.2C7.9 7 8 7 8 7v.1h.1v.1h.1v-.1h.2v.1-.1h1.5c.1 0 .2-.1.3 0h.1c.1 0 .2-.1.3 0H12.5c.1 0 .1 0 .2.1h.1v.1h.1v.1c.1 0 .2.1.3.1h.1v.1H13.9V.8S7.9.7 7.1.7C6.7.3.7.2.7.2z"/></g><g opacity=".516" fill="#BDBBAF"><path d="M.5 8.7s-.1-.1 0 0c-.1 0-.1 0 0 0z"/><path d="M.7.2.4 8.6s0 .1.1.1c0-.1 0-.2.1-.1 0 .1 0 0 0 0 .1 0 .1-.1.1-.1.1.1 0 .1 0 .1-.1 0 0 .1 0 .1 0-.1.1 0 0-.1.1 0 .2-.1.2 0v-.1H1s0 .1 0 0v-.1h.2v-.2.1s.1.1 0 .1c0 0 .1 0 0 0h.1v-.1.2h.1v.1-.2s0 .1.1.1h.2v-.1.1s0-.1 0 0h.1v-.1s.1.1.1 0h.2s0-.1.1-.1h.2v-.1s.1 0 .1.1h.1v-.1h.1v-.1l.1-.1v-.1H3h-.1V8h.2v.1V8v.1h.1V8h.1v.1c.1 0 .1-.1.1 0l.1-.1h.2v-.1h.1v-.1h.1l.1-.1H4.3c.1 0 .1-.1.2-.1h.6l.1.1.1-.1h.4s0 .1 0 0h.2C7.9 7 8 7 8 7c0 .1 0 0 0 0v.1h.1V7h.2v.1V7H9.3c.1 0 0 0 0 0h.5c.1 0 .2-.1.3 0h.1c.1 0 .2-.1.3 0H12.4c.1 0 .1 0 .2.1h.1v.1h.1v.1c.1 0 .2.1.3.1h.1v.1h.1c0 .1 0 0 .1 0h.4V.7S7.9.6 7 .6C6.6.3.7.2.7.2z"/></g><g opacity=".548" fill="#BAB8AB"><path d="M.5 8.7c0-.1-.1-.1 0 0-.1-.1 0-.1 0 0z"/><path d="M.8.2.4 8.6s0 .1.1.1c0-.1 0-.2.1-.1v.1c.1 0 .1-.1.1-.1.1.1 0 .1 0 .1-.1 0 0 .1 0 .1 0-.1.1 0 0-.1.1 0 .2-.1.2 0v-.1H1s0 .1 0 0v-.1h.2v-.2.1s.1 0 0 .1c0 0 .1 0 0 0h.1v-.1.2h.1v.1-.2s0 .1.1.1h.2v-.1.1s0-.1 0 0h.2s.1.1.1 0h.2s0-.1.1-.1h.2v-.1s.1 0 .1.1h.1v-.1h.1v-.1l.1-.1v-.1h.2H3v.1h.2v.1-.1.1h.1v-.1h.1v.1c.1 0 .1-.1.1 0l.1-.1h.2v-.1h.1V8H4l.1-.1s0 .1 0 0H4.4c.1 0 .1-.1.2-.1h.6l.1.1.1-.1h.1s.1 0 .1-.1h.1s0 .1 0 0h.2C7.9 7 8 7 8 7h.1v.1h.1V7h.2v.1V7H9.4c.1 0 0 0 0 0h.5c.1 0 .2-.1.3 0 0 0 .1 0 .1-.1.1 0 .2-.1.3 0H12.5c.1 0 .1 0 .2.1h.1v.1h.1v.1c.1 0 .2.1.3.1h.1v.1h.1c0 .1 0 0 .1 0h.4V.6S8 .5 7.1.5C6.6.3.8.2.8.2z"/></g><g opacity=".581" fill="#B6B4A7"><path d="M.5 8.7c0-.1 0-.2 0 0 0-.1 0-.1 0 0zM.8.1.4 8.6s0 .1.1.1c0-.1 0-.2.1-.1 0 .1 0 0 0 0 .1 0 .1-.1.1-.1.1.1 0 .1 0 .1-.1 0 0 .1 0 .1 0-.1.1 0 0-.1.1 0 .2-.1.2 0v-.1H1s0 .1 0 0v-.1h.1v-.2.1s.1 0 0 .1c0 0 .1 0 0 0h.1v-.1.2h.1v.1-.2s0 .1.1.1h.2v.1s0-.1 0 0h.2s.1.1.1 0h.2s0-.1.1-.1h.2v-.1l.1.1h.1v-.1h.1v-.1l.1-.1v-.1H3h-.1v.1H3.2v.1-.1.1h.1v-.1h.1v.1c.1 0 .1-.1.1 0l.1-.1h.1v-.1h.1V8h.1v-.1s0 .1 0 0H4.2s0 .1 0 0c.1 0 .1-.1.2-.1h.7v-.1h.1s.1 0 .1-.1h.1s0 .1 0 0h.2C8 7 8 7 8.1 7h.1v.1h.1V7c.1 0 .2 0 .2-.1V7v-.1h1.6c.1 0 .2-.1.3 0 0 0 .1 0 .1-.1.1 0 .2-.1.3 0H12.7c.1 0 .1 0 .1.1h.1V7h.1c.1 0 .2.1.3.1h.1v.1h.1c0 .1 0 0 .1 0h.3V.4H7.1C6.5.3.8.1.8.1z"/></g><g opacity=".613" fill="#B4B2A3"><path d="M.5 8.6s0-.1 0 0zM.8.1.5 8.5s0 .1.1.1c0-.1 0-.2.1-.1v.1c.1 0 .1-.1.1-.1.1.1 0 .1 0 .1-.1 0 0 .1 0 .1 0-.1.1 0 0-.1.1 0 .2-.1.2 0v-.1h.1s0 .1 0 0v-.1h.1v-.2.1s.1 0 0 .1c0 0 .1 0 0 0h.1v-.1.2h.1v.1-.2s0 .1.1.1h.2v.1s0-.1 0 0h.5s0-.1.1-.1h.2v-.1s0 .1.1.1h.1v-.1h.1v-.1s0-.1.1-.1c0 0 0-.1.1-.1H3.3h-.1v.1H3.5v.1-.1.1s0-.1.1 0v-.1h.1v.1c.1 0 .1-.1.1 0l.1-.1v-.1H4V8h.1v-.1s0 .1 0 0H4.4s0 .1 0 0c.1 0 .1-.1.2-.1h.7v-.1h.1s.1 0 .1-.1h.1s0 .1 0 0H6v.1h.1v-.1c.1 0 .2 0 .2-.1v.1-.1H8c.1 0 .2-.1.3 0 0 0 .1-.1 0-.1.1 0 .2-.1.3 0H10.5c.1 0 .1 0 .1.1h.1v.1h.1c.1 0 .2.1.3.1h.1v.1c0 .1 0 0 .1 0h.3V1H4.8C6.5.3.8.1.8.1z"/></g><g opacity=".645" fill="#B0AE9F"><path d="M.5 8.6c.1 0 0-.1 0 0z"/><path d="M.8.1.5 8.5s0 .1.1.1c0-.1 0-.2.1-.1v.1c.1 0 .1-.1.1-.1.1.1 0 .1 0 .1-.1 0 0 .1 0 .1 0-.1.1 0 0-.1.1 0 .2-.1.2 0v-.1h.1s0 .1 0 0v-.1h.1v-.2.1s.1 0 0 .1c0 0 .1 0 0-.1h.1v-.1V8.5h.1v.1V8.3s0 .1.1.1h.2v.1s0-.1 0 0h.2c0-.1.1 0 .1 0h.1v.1h.1s0-.1.1-.1h.1l.1.1v-.1s0 .1.1.1h.2v-.1h.1v-.1s0-.1.1-.1c0 0 0-.1.1-.1H3.4h-.1v.1H3.6v.1-.1.1s0-.1.1 0v-.1H4l.1-.1v-.1h.1V8h.1v-.1s0 .1 0 0H4.6V8c.1 0 .1-.1.2-.1h.1C6.9 7 7 7 7 7h.4v-.1h.1s.1 0 .1-.1h.1s0 .1 0 0h.4v.1h.1v-.1c.1 0 .2 0 .2-.1v.1-.1h.8c.1 0 0 0 0 0h.7c.1 0 .2-.1.3 0 0 0 .1-.1 0-.1H12.5c.1 0 .1 0 .1.1h.1v.1h.1c.1 0 .2.1.3.1V7h.1v.1c0 .1 0 0 .1 0h.3V.3H6.8C6.4.3.8.1.8.1z"/></g><g opacity=".677" fill="#ADAB9B"><path d="M.6 8.6c0-.1-.1-.1 0 0-.1-.1 0-.1 0 0z"/><path d="M.8.1.5 8.5s0 .1.1.1c0-.1 0-.2.1-.1 0 .1 0 0 0 0 .1 0 .1-.1.1-.1.1.1 0 .1 0 .1-.1 0 0 .1 0 .1 0-.1.1 0 0-.1.1 0 .2-.1.2 0v-.1h.1s0 .1 0 0v-.1s0-.1.1-.1v-.1.1s.1 0 0 .1c0 0 .1 0 0-.1h.1v-.1V8.4h.1v.1-.2s.1 0 0 0v-.1s0 .1.1.1c0 .1.1 0 .1 0s.1 0 .1-.1v.1s0-.1 0 0h.2C3 8 3 8.1 3 8.1h.1s.1 0 .1.1h.2s0-.1.1-.1h.1l.1.1v-.1s0 .1.1.1H4v-.1h.2V8s0-.1.1-.1c0 0 0-.1.1-.1H4.7h-.1v.1h.1l.1.1h.1v.1V8v.1c.1 0 0-.1.1 0V8h.2v-.1h.1l.1-.1v-.1h.1v-.1h.1v-.1s0 .1 0 0H5.9c-.1 0 0 0 0 0v.1c.1 0 .1-.1.2-.1h.7v-.1h.1l.1-.1h.1s0 .1 0 0h.4v.1h.1v-.1c0 .1 0 0 0 0 .1 0 .2 0 .2-.1h.1v.1-.1H9.4c.1 0 .2-.1.3 0 0 0 .1-.1 0-.1H12c.1 0 .1 0 .1.1h.1v.1h.1c.1 0 .2.1.3.1v.1h.1v.1c0 .1 0 0 .1 0h.3V.8H6.3C6.4.2.8.1.8.1z"/></g><g opacity=".71" fill="#A9A898"><path d="M.6 8.5s0-.1 0 0zM.8.1.5 8.4s0 .1.1.1c0-.1 0-.2.1-.1v.1c.1 0 .1-.1.1-.1.1.1 0 .1 0 .1-.1 0 0 .1 0 .1 0-.1.1 0 0-.1.1 0 .2-.1.2 0v-.1h.1s0 .1 0 0V8.1s0-.1.1-.1v-.1.1s.1 0 0 .1c0 0 .1 0 0-.1h.1v-.1V8.2h.1v.1-.2s.1 0 0 0V8s0 .1.1.1c0 .1.1 0 .1 0s.1 0 .1-.1v.1s0-.1 0 0h.2L3 8s0 .1.1 0h.1s.1 0 .1.1h.2s0-.1.1-.1h.1v.1V8s0 .1.1.1h.1s0-.1 0 0H4V8H4.3v-.1s0-.1.1-.1c0 0 0-.1.1-.1H4.8v-.1h-.1v.1h.1l.1.1H5v.1-.1.1c.1 0 0-.1.1 0v-.1h.2v-.1h.1l.1-.1v-.1h.1v-.1h.1v-.1s0 .1 0 0H6c-.1 0 0 0 0 0v.1c.1 0 .1-.1.2-.1h.1C7 7 7 7 7.1 7h.1s.1.1.1 0h.2v-.1h.1l.1-.1h.1s0 .1 0 0h.4v.1h.1v-.1c0 .1 0 0 0 0 .1 0 .2 0 .2-.1h.1v.1-.1H9c.1 0 0 0 0 0h.4c.1 0 0 0 0 0h.7c.1 0 .2-.1.3 0 0 0 .1-.1 0-.1h1.7l.1.1h.5c.1 0 .1 0 .1.1h.1v.1h.1c.1 0 .2.1.3.1v.1h.1v.1c0 .1.1 0 .1 0h.3V.4H7C6.3.2.8.1.8.1z"/></g><g opacity=".742" fill="#A7A594"><path d="M.6 8.5s0-.1 0 0zM.8.1.6 8.4s0 .1.1.1c0-.1 0-.2.1-.1 0 .1 0 0 0 0 .1 0 .1-.1.1-.1.1.1 0 .1 0 .1-.1 0 0 .1 0 .1 0-.1.1 0 0-.1.1 0 .2-.1.2 0v-.1h.1s0 .1 0 0V8s0-.1.1-.1v-.1s.1 0 0 .1c0 0 .1 0 0-.1h.1v-.1V8h.1v.1V7.8h.1v-.1s0 .1.1.1c0 .1.1 0 .1 0s.1 0 .1-.1v.1-.1h.2L3 8c0-.1.1 0 .1 0h.1s.1 0 .1.1h.2s0-.1.1-.1h.1v.1V8s0 .1.1.1H4s0-.1 0 0h.1V8h.2v-.1h.1v-.1s0-.1.1-.1c0 0 0-.1.1-.1H4.9v-.1h-.1v.1h.1l.1.1h.1v.1-.1.1c.1 0 .1-.1.1 0v-.1h.2v-.1h.1l.1-.1v-.1h.1v-.1h.1v-.1s0 .1 0 0c0 0 0-.1.1 0H6.2c-.1 0 0 0 0 0v.1c.5-.2.5-.3.6-.3h.4s.1.1.1 0h.2v-.1h.1l.1-.1h.1s0 .1 0 0h.4v.1h.1v-.1c0 .1 0 0 0 0 .1 0 .2 0 .2-.1h.1v.1-.1H10.1c.1.1.2-.1.3 0 0 0 .1-.1 0-.1h1.7l.1.1h.5c.1 0 .1 0 .1.1h.1v.1h.2c.1 0 .2.1.3.1v.1h.1v.1c0 .1.1 0 .1 0h.3V.4H7.1C6.3.2.8.1.8.1z"/></g><g opacity=".774" fill="#A3A290"><path d="M.6 8.5c.1-.1 0-.1 0 0 0-.1 0-.1 0 0z"/><path d="M.8.1.6 8.4s0 .1.1.1c0-.1 0-.2.1-.1v.1c.1 0 .1-.1.1-.1.1.1 0 .1 0 .1-.1 0 0 .1 0 .1 0-.1.1 0 0-.1.1 0 .2-.1.2 0v-.1h.1s0 .1 0 0V8.1s0-.1.1-.1v-.2s.1 0 0 .1c0 0 .1 0 0-.1h.1v.1-.1V8.1h.1v.1V7.9h.1v-.1s0 .1.1.1v-.1c0 .1.1 0 .1 0s.1 0 .1-.1v.1-.1H2C2.9 8 3 8 3 8c0-.1.1 0 .1 0v-.1h.1l.1.1.1-.1h.1s0-.1.1-.1h.1v.1-.1.1h.2s0-.1 0 0H4v-.1h.2v-.1h.1v-.1s0-.1.1-.1c0 0 0-.1.1-.1H4.8v-.1h-.1v.1h.1l.1.1H5v.1-.1.1c.1 0 .1-.1.1 0v-.1H5.4v-.1h.2v-.1l.1.1v-.1h.1v-.1s0 .1 0 0c0 0 0-.1.1 0H6.2c-.1 0 0 0 0 0v.1c.5-.2.6-.3.6-.3H7.4s.1.1.1 0h.2v-.1h.1l.1-.1H8s0 .1 0 0h.4v.1h.1v-.1c0 .1.1 0 0 0 .1 0 .2 0 .2-.1h.1v.1-.1h.8v-.1h.6c.1.1.2-.1.3 0 0 0 .1-.1 0-.1h1.7l.1.1h.5c.1 0 .1 0 .1.1h.2v.1h.2c.1 0 .2.1.3.1V7h.1v.1c0 .1.1 0 .1 0h.3V.3H7.2C6.2.2.8.1.8.1z"/></g><g opacity=".806" fill="#A09F8D"><path d="M.7 8.5c0-.1-.1-.2 0 0-.1-.1 0-.1 0 0z"/><path d="M.8.1.6 8.4s0 .1.1.1c0-.1 0-.2.1-.1v.1c.1 0 .1-.1.1-.1.1.1 0 .1 0 .1-.1 0 0 .1 0 .1 0-.1.1 0 0-.1.1 0 .2-.1.2 0v-.1h.1s0 .1 0 0V8.1s0-.1.1-.1v-.1h.1v-.1s.1 0 0 .1c0 0 .1 0 0-.1h.1v.1-.1V8.1h.1V8v.1V7.8h.1v-.2s0 .1.1.1v-.1c0 .1.1 0 .1.1 0 0 .1 0 .1-.1 0 0 0 .1 0 0v.1-.1h.2L3 8c0-.1.1 0 .1 0v-.1h.1l.1.1.1-.1h.1s0-.1.1-.1h.1v.1-.1.1H4s0-.1 0 0h.1v-.1h.2v-.1h.1v-.1s0-.1.1-.1c0 0 0-.1.1-.1H4.9v-.1h-.1v.1h.1l.1.1h.2s0 .1 0 0v-.1.2c.1 0 .1-.1.1 0v-.1H5.6v-.1s0-.1 0 0h.2v-.1l.1.1s0-.1.1-.1h.2v-.1s0 .1 0 0c0 0 .1-.1.1 0H6.6c-.1.1 0 0 0 0v.1c.1-.3.2-.3.2-.3H7.4c.1 0 .1.1.1 0h.2v-.1h.1l.1-.1v.1H8s0 .1 0 0c0 0 .1.1.1 0H8.4V7h.1v-.1c0 .1.1 0 0 .1.1 0 .2 0 .2-.1h.1V7v-.1h.4c.1 0 0 0 0 0h.2s.1-.1.1 0h.1v-.1h.6c.1.1.2-.1.3 0 0 0 .1-.1 0-.1h1.7v.1h.5c.1 0 .1 0 .1.1h.2V7h.2c.1 0 .2.1.3.1v.1h.1v.1c0 .1.1 0 .1 0h.3V.5H7.1C6.2.2.8.1.8.1z"/></g><g opacity=".839" fill="#9C9C89"><path d="M.7 8.4s0-.1 0 0zM.8.1.6 8.3s0 .1.1.1c0-.1 0-.2.1-.1v.1c.1 0 .1-.1.1-.1.1.1 0 .1 0 .1-.1 0 0 .1 0 .1 0-.1.1 0 0-.1.1 0 .2-.1.2 0v-.1h.1s0 .1 0 0v-.2c.1 0 0 0 0-.1 0 0 0-.1.1-.1v-.1h.1v-.1s.1 0 0 .1c0 0 .1 0 0-.1h.1v.1-.1.2h.1v-.1.1V7.6h.1v-.2s0 .1.1.1v-.1c0 .1.1 0 .1.1 0 0 .1 0 .1-.1v.2-.1h.1c.9.5.9.5.9.4V8c0-.1.1 0 .1 0v-.1h.1l.1.1.1-.1h.1s0-.1.1-.1h.1v.1-.1.1H4s0-.1 0 0h.1v-.1h.2v-.1h.1v-.1.1s0-.1.1-.1c0 0 0-.1.1-.1H4.9v-.1h-.1v.1h.1l.1.1h.2s0 .1 0 0v-.1.2c.1 0 .1-.1.1 0v-.2H5.6v-.1s0-.1 0 0h.2v-.1.1s0-.1.1-.1h.2v-.1s0 .1-.1 0c0 0 .1-.1.1 0H6.4c.1-.2.2-.2.3-.2v-.1.1c.1 0 .1 0 .2-.1h.2c.1 0 .1 0 .2-.1h.2c.1 0 .1.1.1 0h.2v-.1h.1l.1-.1v.1h.1s0 .1 0 0c0 0 .1.1.1 0H8.5v.1h.1v-.1c0 .1.1 0 .1.1.1 0 .2 0 .2-.1H9v.1-.1h.4c.1 0 .1 0 .2-.1 0 0 .1-.1.1 0h.1v-.1h.6c.1.1.2-.1.3 0 0 0 .1-.1 0-.1h1.4c.1 0 .2 0 .3.1v.1s.1 0 .1-.1h.5c.1 0 .1 0 .1.1h.2v.1h.2c.1 0 .2.1.3.1v.1h.1V7c0 .1.1 0 .1 0h.3V.2H7.4C6.1.2.8.1.8.1z"/></g><g opacity=".871" fill="#999986"><path d="M.7 8.4s0-.1 0 0zM.8.1.7 8.3s0 .1.1.1c0-.1 0-.2.1-.1v.1c.1 0 .1-.1.1-.1.1.1 0 .1 0 .1-.1 0 0 .1 0 .1 0-.1.1 0 0-.1.1 0 .2-.1.2 0v-.1h.1s0 .1 0 0v-.2c.1 0 0-.1 0-.1s0-.1.1-.1V8v-.1h.1v-.1s.1 0 0 .1c0 0 .1 0 0-.1h.1v.1-.1.2h.1v-.1.1V7.7s0 .1 0 0c0 0 .1 0 .1-.1v-.2s0 .1.1.1v-.1c0 .1.1 0 .1.1 0 0 .1 0 .1-.1v.2-.1h.1s.1 0 .1-.1l.1.1c0-.1.1 0 .1 0v-.1h.1l.1.1.1-.1.1-.1s0-.1.1-.1h.1v.1-.1.1H3.4s0-.1 0 0h.1v-.1h.2v-.1h.1V7v.1V7s0-.1.1-.1h.4v-.1h-.1v.1h.1l.1.1v-.1h.2s0 .1 0 0v-.1.2c.1 0 .1-.1.1 0v-.2H5v-.1s0-.1 0 0h.2v.1s0-.1.1-.1c0 .1.1 0 .1 0h.1v-.1s0 .1-.1 0c0 0 .1-.1.1 0 0 0 0-.1.1 0h.2c.8.4.9.4.9.4v-.1.1c.1 0 .2 0 .2-.1h.2c.1 0 .1 0 .2-.1h.2c.1 0 .1.1.1 0h.2v-.1s0 .1.1 0c0 0 0-.1.1-.1v.1h.1s0 .1 0 0c0 0 .1.1.1 0H8.5v.1h.1v-.1c0 .1.1 0 .1.1.1 0 .2 0 .2-.1H9v.1-.1s.1-.1.1 0H9.4c.1 0 .2 0 .2-.1 0 0 .1-.1.1 0h.1v-.1h.6c.1.1.2-.1.3 0 0 0 .1-.1 0-.1h1.4c.1 0 .2 0 .3.1v.1s.1 0 .1-.1H12.8c.1 0 .1 0 .2.1 0 0 .1 0 .1.1h.2v.1h.2c.1 0 .2.1.3.1V7h.1v.1c0 .1.1 0 .1 0h.3V.3H7.4C6.1.2.8.1.8.1z"/></g><g opacity=".903" fill="#979683"><path d="M.7 8.4c.1-.1 0-.1 0 0 0-.1 0-.1 0 0z"/><path d="M.8.1.7 8.3s0 .1.1.1c0-.1 0-.2.1-.1v.1c.1 0 .1-.1.1-.1.1.1 0 .1 0 .1 0-.1 0 0 0 0 0-.1.1 0 0-.1.1 0 .2-.1.2 0v-.1h.1s0 .1 0 0V8c.1 0 0-.1 0-.1 0-.1 0-.1.1-.1v.1-.1h.1v-.1s.1 0 0 .1c0 0 .1 0 0-.1h.1v.1L2 8v.2h.1v-.1.1V7.9 8s.1 0 .1-.1v-.2h.1s0 .1.1.1v-.2c0 .1.1 0 .1.1 0 0 .1 0 .1-.1v.2-.1h.1s.1 0 .1-.1l.1.1c0-.1.1 0 .1 0v-.1h.1l.1.1.1-.1.1-.1s0-.1.1-.1h.1v.1-.1.1h.1v-.1h.2s0-.1 0 0H4v-.1h.1v.1h.1v-.1h.1v-.1.1-.1s0-.1.1-.1h.2v.1h.2v-.1h-.1v.1h.1l.1.1v-.1h.2s0 .1 0 0v-.1s0 .1 0 0v.2c.1 0 .1-.1.1-.1V7H5.5v-.1s0-.1 0 0h.2V7s0-.1.1-.1c0 .1.1 0 .1.1H6v-.1s0 .1-.1 0c0 0 .1-.1.1 0 0 0 0-.1.1-.1h.2c.3.2.4.1.4.2v-.1.1c.1 0 .1 0 .1-.1H7c.1 0 .1 0 .2-.1h.2c.1 0 .1.1.1 0h.2v-.1s0 .1.1 0c0 0 0-.1.1-.1v.1H8s0 .1 0 0c0 0 .1.1.1 0h.2v.1c0-.1-.1-.1 0-.1 0 .1.1 0 .1.1.1 0 .2 0 .2-.1h.1v.2s.1 0 0-.1c0 0 .1-.1.1 0h.4c.1 0 0 0 0 0 .1 0 .2 0 .2-.1 0 0 .1-.1.1 0h.1v-.1h.6c.1.1.2-.1.3 0v-.1h1.4c.1 0 .2 0 .3.1v.1s.1 0 .1-.1H12.6c.1 0 .1 0 .2.1 0 0 .1 0 .1.1h.2v.1h.2c.1 0 .2.1.3.1v.1h.1v.1c0 .1.1 0 .1 0h.3V.4S8.8.5 7.2.5C6 .2.8.1.8.1z"/></g><g opacity=".935" fill="#94937F"><path d="M.8 8.3s-.1-.1 0 0c-.1 0 0 0 0 0zM.8.1v8.2s0 .1.1.1c0-.1 0-.2.1-.1v.1c-.1-.1 0-.2 0-.2.1.1 0 .1 0 .1-.1 0 0 .1 0 .1 0-.1.1 0 0-.1.1 0 .2-.1.2 0v-.1h.1s0 .1 0 0V8c.1 0 0-.1 0-.1.3.1.4.1.4.1v.1V8h.1v-.1s.1 0 0 .1c0-.1.1 0 0-.1l.1-.1v.1c.1.1.1.1.1 0v.2h.1V8v.1V7.8v.1s.1 0 .1-.1v-.2h.1s0 .1.1.1v-.2c0 .1.1 0 .1.1 0 0 .1 0 .1-.1v.2-.1s.1.1.1 0c0 0 .1 0 .1-.1l.1.1c0-.1.1 0 .1 0v-.1h.1c.1 0 .1.1.1.1l.1-.1s.1 0 .1-.1c0 0 0-.1.1-.1h.1c0 .1.1 0 0 .1v-.1.1h.1v-.1h.2s0-.1 0 0H4v-.1h.1v.1h.1v-.1h.1v-.1.2-.1s0-.1.1-.1h.2s-.1 0 0 .1h.2v-.1h-.1.1v.1h.1v-.1l.1.1v-.1l.1.1h.1s0 .1 0 0v-.1s0 .1 0 0v.2c.1 0 .1-.1.1-.1V7H5.6v-.1s0-.1.1 0h.2V7s0-.1.1-.1c0 .1.1 0 .1.1h.1v-.1s0 .1-.1 0h.1s.1-.1.1 0c0 0 0-.1.1-.1h.2c-.1.1 0 0 .1.1v-.1.1c.1 0 .1 0 .1-.1H7c.1 0 .1 0 .2-.1h.2c.1 0 .1.1.1 0h.2v-.1s0 .1.1 0c0 0 0-.1.1-.1 0 0-.1 0 0 .1H8s0 .1 0 0c0 0 .1.1.1 0h.2v.1c0-.1-.1-.1 0-.1 0 .1.1 0 .1.1.1 0 .2 0 .2-.1h.1v.2s.1 0 0-.1c0 0 .1-.1.1 0 0 0 0-.1 0 0h.5c.1 0 .2 0 .2-.1 0 0 .1-.1.1 0v-.1h.1v-.1h.8c.1.1.2-.1.3.1v-.1h1.4c.1 0 .2 0 .3.1v.1s.1 0 .1-.1H12.9c.1 0 .1 0 .2.1 0 0 .1 0 .1.1h.2v.1h.2c.1 0 .2.1.3.1V7h.1v.1c0 .1.1 0 .1.1h.3V.4S9.1.5 7.5.5C6 .2.8.1.8.1z"/></g><g opacity=".968" fill="#91917D"><path d="M.8 8.3s0-.1 0 0zM.8.1v8.2s0 .1.1.1c0-.1 0-.2.1-.1v.1-.3c.1.1 0 .1 0 .1-.1 0 0 .1 0 .1 0-.1.1 0 0-.1.1 0 .2-.1.2 0v-.1h.1s0 .1 0 0v-.2c.1 0 0-.1 0-.1.3.2.4.2.4.2v.1V8s0 .1.1 0v-.1s.1 0 0 .1c0-.1.1-.1 0-.1l.1-.1v.1l.1-.1V8.1h.1V8v.1V7.8v.1s.1 0 .1-.1v-.2h.1s0 .1.1.1v-.2c0 .1.1 0 .1.1 0 0 .1 0 .1-.1v.1l.1.1v-.1s.1.1.1 0c0 0 .1 0 .1-.1l.1.1c0-.1.1 0 .1 0v-.1h.1c.1 0 .1.1.1.1l.1-.1s.1 0 .1-.1c0 0 0-.1.1-.1h.1c0 .1.1.1 0 .1v-.1.1h.1v-.1H4s0-.1 0 0v-.1h.1v.1h.1v-.1h.1v-.1.2-.1s0-.1.1-.1h.2s-.1 0 0 .1h.2v-.1h-.1.1v.1h.1v-.1l.1.1V7s0 .1.1.1h.1s0 .1 0 0V7s0 .1 0 0v.2c.1 0 .1-.1.1-.1v-.2h.1c.1 0 0 0 .1-.1 0 .1 0 0 .1 0v-.1s0-.1.1 0h.2v.1c.1.5.1.4.1.3 0 .1.1 0 .1.1 0 0 0-.1.1 0v-.1s0 .1-.1 0h.1V7l.1-.1s0-.1.1-.1h.2c-.1.1 0 0 .1.1v-.1.2c.1 0 .1 0 .1-.1H7c.1 0 .1 0 .2-.1h.2c.1 0 .1.1.1 0h.2v-.1s0 .1.1 0c0 0 0-.1.1-.1 0 0-.1 0 0 .1H8s.1.1.1 0h.2v.1c0-.1-.1-.1 0-.1 0 .1.1 0 .1.1.1 0 .2 0 .2-.1h.1v.2s.1 0 0-.1c0 0 .1-.1.1 0v-.1h.6c.1 0 .2 0 .2-.1 0 0 .1-.1.1 0v-.1h.1v-.1h.9c.1.1.2-.1.3.1v-.1h1.4c.1 0 .2 0 .3.1v.1s.1 0 .1-.1H13.1c.1 0 .1 0 .2.1 0 0 .1 0 .1.1h.2s-.1 0 0 .1h.2c.1 0 .2.1.3.1V7h.1v.1c0 .1.1 0 .1.1 0 0 0-.1 0 0h.3V.4S9.4.5 7.7.5C5.9.1.8.1.8.1z"/></g><g fill="#8E8E7A"><path d="M.8 8.3c0-.1 0-.1 0 0zM.8 8.2s0 .1 0 0c.1 0 0-.1.1-.1l-.1.1c.1.1.1 0 .1 0 .1 0 .1-.1.2-.1.1.1 0 .1 0 .1-.1 0 0 .1 0 .1 0-.1.1 0 0-.1.1 0 .2-.1.2 0v-.1h.1s0 .1 0 0V8v.1V8c.1 0 0-.1 0-.1.2.1.3.1.3.1v.1V8s0 .1.1 0v-.1s.1.1 0 .1c0-.1.1-.1 0-.2.1.3.2.2.2.2h-.1.1c0-.1 0-.1 0 0l.1-.1L2 8c.1 0 .1.1 0 .1h.1V8v.1V8c-.1 0 0-.2 0-.2v.1s.1 0 .1-.1v-.2s.1 0 .1.1c0 0 0 .1.1.1 0-.1.1 0 .1-.1 0 .1.1 0 .1.1 0 0 .1 0 .1-.1v.1c0 .1.1 0 .1.1v-.1s.1.1.1 0c0 0 .1 0 .1-.1l.1.1c0-.1.1 0 .1 0v-.1c.1 0 .2.1.2.1l.1-.1c.1 0 .1-.1.2-.2 0-.1-.1 0 0-.1h.1c0 .1.1.1 0 .1v-.1.1h.1v-.1h.2s0-.1 0 0c0-.1.1-.1 0-.1h.1v.1h.1v-.1h.1v-.1s0 .1.1.1v.1c0-.1 0-.2.1-.2h.2v.1h.1s-.1 0 0 .1c.1 0 .1-.1.1-.1h.1v-.1c-.1-.1-.1 0-.1 0 0-.1.1 0 .1-.1 0 .1 0 .1.1.1h.1v-.1c.1 0 0 .2.1.1v-.1h.1c0 .1.1 0 0 .1 0 .1.1 0 .1.1.1 0 0 0 .1-.1 0 0 0 .1 0 0v-.1.1V7h.1v.2c.1 0 .1-.1.1-.1v-.2H6c.1 0 0 0 .1-.1 0 .1 0 0 .1 0v-.1s0-.1.1 0h.2v.1c-.5.4-.5.4-.5.3 0 .1.1 0 .1.1 0 0 0-.1.1 0v-.1c0-.1 0 .1-.1 0h.1c.1 0 .1-.2.3-.2V7s0-.1.1-.1h.2c-.1.1 0 .1.1.1v-.1.2c.1 0 .1 0 .1-.1.2 0 .4-.1.6-.1.1 0 .1.1.1 0h.2v-.1s0 .1.1 0c0 0 0-.1.1-.1 0 0-.1 0 0 .1h.1c.1-.1.1.1.2 0s.2 0 .3 0v.1c0-.1-.1-.1 0-.1 0 .1.1 0 .1.1.1 0 .2-.1.3-.1v.1s.1 0 0-.1c0 0 .1-.1.1 0v-.1h.4c.1 0 .1 0 .2.1.1 0 .2 0 .2-.1 0 0 .1-.1.1 0v-.1h.1v-.1H10.5c.1-.1.3 0 .5-.1.1.1.2-.1.3.1v-.1c.3-.1.6 0 .9-.1.2 0 .5 0 .7.1v.1s.1 0 .1-.1c.2 0 .3-.1.5.1.1 0 .2.2.3.1 0 0-.1 0 0 .1.2-.1.3.1.5.2V7h.1v.1c.1 0 0-.1.1-.1 0 .1.1 0 .1.1 0 0 0-.1 0 0h.1v.1h.4V0S9.9.1 8.2.1C5.9.1.8 0 .8 0v8.2z"/></g><g><linearGradient id="a" gradientUnits="userSpaceOnUse" x1=".792" y1="8.291" x2=".792" y2="8.195"><stop offset="0" style="stop-color:#f8f9f6"/><stop offset=".555" style="stop-color:#eee"/><stop offset="1" style="stop-color:#eaeaea"/></linearGradient><path fill="url(#a)" d="M.8 8.3c0-.1 0-.1 0 0z"/><linearGradient id="b" gradientUnits="userSpaceOnUse" x1="7.646" y1="8.323" x2="7.646" y2="-2.001"><stop offset="0" style="stop-color:#eaeaea"/><stop offset=".057" style="stop-color:#ececec"/><stop offset=".526" style="stop-color:#eee"/><stop offset="1" style="stop-color:#f8f9f6"/></linearGradient><path fill="url(#b)" d="M.8 8.2s0 .1 0 0c.1 0 0-.1.1-.1l-.1.1c.1.1.1 0 .1 0 .1 0 .1-.1.2-.1.1.1 0 .1 0 .1-.1 0 0 .1 0 .1 0-.1.1 0 0-.1.1 0 .2-.1.2 0v-.1h.1s0 .1 0 0V8v.1V8c.1 0 0-.1 0-.1.2.1.3.1.3.1v.1V8s0 .1.1 0v-.1s.1.1 0 .1c0-.1.1-.1 0-.2.1.3.2.2.2.2h-.1.1c0-.1 0-.1 0 0l.1-.1L2 8c.1 0 .1.1 0 .1h.1V8v.1V8c-.1 0 0-.2 0-.2v.1s.1 0 .1-.1v-.2s.1 0 .1.1c0 0 0 .1.1.1 0-.1.1 0 .1-.1 0 .1.1 0 .1.1 0 0 .1 0 .1-.1v.1c0 .1.1 0 .1.1v-.1s.1.1.1 0c0 0 .1 0 .1-.1l.1.1c0-.1.1 0 .1 0v-.1c.1 0 .2.1.2.1l.1-.1c.1 0 .1-.1.2-.2 0-.1-.1 0 0-.1h.1c0 .1.1.1 0 .1v-.1.1h.1v-.1h.2s0-.1 0 0c0-.1.1-.1 0-.1h.1v.1h.1v-.1h.1v-.1s0 .1.1.1v.1c0-.1 0-.2.1-.2h.2v.1h.1s-.1 0 0 .1c.1 0 .1-.1.1-.1h.1v-.1c-.1-.1-.1 0-.1 0 0-.1.1 0 .1-.1 0 .1 0 .1.1.1h.1v-.1c.1 0 0 .2.1.1v-.1h.1c0 .1.1 0 0 .1 0 .1.1 0 .1.1.1 0 0 0 .1-.1 0 0 0 .1 0 0v-.1.1V7h.1v.2c.1 0 .1-.1.1-.1v-.2H6c.1 0 0 0 .1-.1 0 .1 0 0 .1 0v-.1s0-.1.1 0h.2v.1c-.5.4-.5.4-.5.3 0 .1.1 0 .1.1 0 0 0-.1.1 0v-.1c0-.1 0 .1-.1 0h.1c.1 0 .1-.2.3-.2V7s0-.1.1-.1h.2c-.1.1 0 .1.1.1v-.1.2c.1 0 .1 0 .1-.1.2 0 .4-.1.6-.1.1 0 .1.1.1 0h.2v-.1s0 .1.1 0c0 0 0-.1.1-.1 0 0-.1 0 0 .1h.1c.1-.1.1.1.2 0s.2 0 .3 0v.1c0-.1-.1-.1 0-.1 0 .1.1 0 .1.1.1 0 .2-.1.3-.1v.1s.1 0 0-.1c0 0 .1-.1.1 0v-.1h.4c.1 0 .1 0 .2.1.1 0 .2 0 .2-.1 0 0 .1-.1.1 0v-.1h.1v-.1H10.5c.1-.1.3 0 .5-.1.1.1.2-.1.3.1v-.1c.3-.1.6 0 .9-.1.2 0 .5 0 .7.1v.1s.1 0 .1-.1c.2 0 .3-.1.5.1.1 0 .2.2.3.1 0 0-.1 0 0 .1.2-.1.3.1.5.2V7h.1v.1c.1 0 0-.1.1-.1 0 .1.1 0 .1.1 0 0 0-.1 0 0h.1v.1h.4V0s-3.9.1-6.7.1C4.9.1.8 0 .8 0v8.2z"/></g><g fill="#F4F4F4"><path d="M7.8 6.9zM11.6 6.1s-.1-.1 0 0zM9.5 6.4zM9.4 6.6zM6.5 7.1c0 .1 0 0 0 0zM13.5 6.3s-.1 0 0 0zM7.6 6.4c0 .1 0 .1 0 0 0 .1 0 .1 0 0zM13.4 6.3h-.1c0-.1 0-.1.1 0 0-.1 0-.1 0 0zM1.2 8s-.1 0 0 0c-.1 0-.1 0 0 0zM14.3 6.4zM13 6.4c0 .1 0 .1 0 0zM14.3 6.4zM14.3 6.4c.1 0 .1 0 0 0zM14.3 6.4zM4.5 7.4zM10.9 6.5zM10.8 6.5c.1 0 .1 0 0 0l.1-.2-.1.2zM9.5 6.6s-.1 0 0 0c-.1 0-.1 0 0 0zM6.5 7.1zM12.6 6.6zM14.6 6.5zM14.2 6.4c.1 0-.1 0 0 0zM14.3 6.6c.1.1.1.1 0 0zM14.4 6.7zM14.5 6.7zM13.6 6.5c-.1 0-.1 0 0 0zM13.8 6.7c0-.1 0-.1 0 0zM13.6 6.7c0-.1-.1 0 0 0zM12.5 6.4v-.1.1zM11.6 6.5s-.1 0 0 0c0 .1 0 0 0 0 .1 0 0 0 0 0zM11.6 6.5zM.9 8H.8h.1zM.8 8.1zM8.3 6.9s-.1 0 0 0zM7.5 7v-.1zM6.9 7.1s.1 0 0 0z"/><path d="M14.5 6.5s-.1 0-.1-.1H14.1s-.1-.1 0-.1H14s-.1-.1-.1 0h-.2c-.1 0-.3 0-.4-.1h-.2c-.1 0-.2-.1-.2 0 0-.1-.3-.1-.4-.1H12h.1c-.1-.1-.3.1-.4 0h-.2v.1c0-.1-.1 0-.1-.1 0 0-.2 0-.2.1h-.1v-.1l-.1.1c-.1 0-.1-.1 0-.1-.1.1-.1 0-.2.1 0 0-.1.1-.1 0-.1-.1-.4 0-.6 0 0 .1-.1 0-.1 0v-.1c-.1 0-.2 0-.2.1v-.1c-.1 0-.1.1-.1.2h-.1s-.1 0 0-.1c0 0-.2 0-.2.1H9.1c0 .1-.1 0-.1 0h-.2c0 .1-.1 0-.2 0l-.2-.1c-.1 0 0 .1-.1.1 0 0 0-.1-.1-.1 0 0-.2.1-.3.1v.1c-.1 0-.2-.1-.2 0l-.2.1c-.1-.1-.3.1-.3 0H7c-.1 0-.1 0-.2.1-.2 0-.2 0-.3.1 0 0-.2 0-.4.1s-.4 0-.4.1h-.2c.1 0 0 .1.1.1h-.1c0-.1-.2 0-.2-.1-.2.1-.5.1-.8.2v.1h-.1v-.1l-.1.1c-.1 0 0-.1 0-.1s0 .1-.1.1H4h.1s-.1 0 0 .1c-.1-.1-.5 0-.5 0-.1.1-.1.1-.2.1 0 0 .1.1 0 .1 0-.1-.1 0-.2-.1.1 0-.2.1-.1.1H3c-.2.1-.4 0-.5.1v.1l-.2-.1s0 .1-.1.1c-.3 0-.6.3-1 .2.1 0 0 0 0 0V8H1c0 .1-.1 0-.1.1s.1.1.1.2c0-.1.2.1.3-.1l.1-.1c.2-.1.3 0 .5-.1H2s-.1.1-.1 0c.1.1.3 0 .4.1.1 0 0 0 0-.1h.1c.1 0 .2-.1.2 0h-.1c.2-.1.4-.1.6-.2.1-.1.1 0 .3-.1 0 0 .1 0 .1-.1 0 0 .1 0 0 .1.1-.1.1-.1.1-.2 0 0 0-.1.1-.1-.1 0 .1 0 0 .1.2 0 .2-.1.3 0 0-.1-.1 0-.1 0s0-.1.1-.1.1.1.2.1.1-.1.2 0c0-.1.1 0 .1-.1h-.1c.1 0 .1-.1.2-.1l-.1.1h.1c0 .1-.1 0-.2.1 0 0 .1-.1.1 0 0-.1.1 0 .2-.1h.1v.1c.1-.1.1 0 .2 0-.1 0 0 0-.1-.1.1-.1.1 0 .3 0h-.1.1c.1 0 0 0 0-.1.1 0 .1 0 .1-.1.2 0 0-.1.2-.1v.1h.1v.1c.1-.1.1 0 .2 0 0 0 0-.1.1-.1H6s0 .1-.1 0h.2L6 7.1h.1v.1l.1-.1h.1c.1 0 .2-.1.3-.1h.3l.1.1c.1 0-.1-.1 0-.1s0 0 .1.1c-.1-.1 0-.2.1-.1h-.1.1c-.1.1-.2.1-.1.1 0-.1.3-.1.2-.2.1 0 .1-.1.2-.1 0 0 .1 0 0 0h.2l.1-.1h.1s0 .1-.1.1c.1.1.1 0 .2 0v.1c.1.1.1 0 .2.1 0 0-.2-.1-.1-.1h.2V7c.1 0 0-.1.1-.1s.1 0 .1.1c.1 0-.1-.1 0-.1s.1 0 .2-.1c.1 0 0 0 0 .1v-.1s0-.1.1-.1c0-.1.2.1.2 0v.1c.1-.1.1 0 .2-.1h.1c-.1 0 0-.1.1-.1h-.1.1V7h.1c.3-.5.4-.6.5-.6v.1c0-.1-.1 0-.2 0H10.1c0-.1.1-.1.2-.1 0 0 0 .1-.1.1.1.1.1-.1.2-.1h.1c.1 0 .4 0 .4-.1v.1l.1-.2c0 .1.1.2 0 .3h.1v-.1c.1.1.1 0 .1.1v-.1.1l.1-.1v.1h.1c.1 0 .1-.1.3-.1v.1c0-.1.1-.3.3-.3h.1l-.3.3h.1-.1.2c0-.1.1-.1.1-.1l-.2.1c0-.1.1-.2.2-.2v.1h.1-.1c.1 0 .1-.1.2 0l.1.1v-.3s.1.1.2.1c0 .1-.1.1 0 .2v.1c0-.1.1 0 0 0h.1l.1-.1c.1 0 .2.1.3.1 0 0 .1 0 0 .1h.1c.1.1-.1 0 0 .1h.2c0-.1-.1 0-.2 0 0-.1.1-.1.2-.2.1 0 0 .1.1 0 .2 0 .2-.1.3 0 .1.1 0 .1 0 .1-.1 0-.1-.1-.2-.1h.1-.1c0 .1.3.1.4.1h.1s.1 0 0-.1c.2 0 .3-.1.4-.1v.1h-.1s.1 0 .1.1v-.2zm-10.3.7zM8 6.8s.1 0 0 0c.1 0 0 0 0 0zm1.6-.3zm4.4-.1z"/></g></svg>