<svg xmlns="http://www.w3.org/2000/svg" width="14" height="19.4" xml:space="preserve"><path opacity=".032" fill="#FAF9F8" d="M12 1H.1l-.1.8h.5c0-.1.2-.2.3-.2.2 0 .3.1.3.3 0 .2-.1.3-.3.3-.1 0-.3-.1-.3-.2H.1L0 3l.5-.1c0-.1.2-.2.3-.2.2 0 .3.2.3.3s-.1.4-.3.4c-.2 0-.3-.1-.3-.2H0V4l.5.1c0-.1.2-.2.3-.2.2-.1.3.1.3.2 0 .2-.1.3-.3.3-.2 0-.3-.1-.3-.2L0 4.1v1h.5c0-.1.2-.2.3-.2.2 0 .3.1.3.3 0 .2-.1.3-.3.3-.2 0-.3-.1-.3-.2l-.5.1v.9h.5c0-.2.2-.3.3-.3.2 0 .3.2.3.3 0 .2-.1.3-.3.3-.2 0-.3-.1-.3-.2H0v.9l.5.1c0-.1.2-.2.3-.2.2 0 .3.1.3.3 0 .2-.1.3-.3.3-.2 0-.3-.1-.3-.2L0 7.5v.9h.5c0-.1.2-.2.3-.2.2 0 .3.1.3.3 0 .2-.1.3-.3.3-.2 0-.3-.1-.3-.2l-.5.1v.8l.5.1c0-.1.2-.2.3-.2.2 0 .3.1.3.3 0 .1-.1.3-.3.3-.2 0-.3-.1-.3-.2H0v1h.5c0-.1.2-.2.3-.2.2 0 .3.1.3.3s-.1.2-.3.2c-.2 0-.3-.1-.3-.2H0v.9h.5c0-.1.2-.2.3-.2.2 0 .3.1.3.3 0 .2-.1.3-.3.3-.2 0-.3-.1-.3-.2H0v.9l.5.1c0-.1.2-.2.3-.2.2 0 .3.1.3.3 0 .2-.1.3-.3.3-.2 0-.3-.1-.3-.2H.1l-.1.7.5.1c0-.1.2-.2.3-.2.2 0 .3.1.3.3 0 .2-.1.3-.3.3-.2 0-.3-.1-.3-.2H.1v.9h.4c0-.1.2-.2.3-.2.2 0 .3.1.3.3 0 .2-.1.3-.3.3-.2 0-.3-.1-.3-.2H0v.9l.5.1c0-.1.2-.2.3-.2.2 0 .3.1.3.3 0 .2-.1.3-.3.3-.2 0-.3-.1-.3-.2H0l.1.9h.4c0-.1.2-.2.3-.2.2 0 .3.1.3.3 0 .2-.1.3-.3.3-.2 0-.3-.1-.3-.2l-.5-.1v.9h.5c0-.1.2-.2.3-.2.2 0 .3.1.3.3 0 .2-.1.3-.3.3-.2 0-.3-.1-.3-.2H0v.8h1l5.3-.2 5.9-.4c.5 0 .7-.3.7-.8V2c0-.5-.4-1-.9-1z"/><path opacity=".065" fill="#F5F4F3" d="M12 1H.1v.8h.5c0-.1.2-.2.3-.2.2 0 .3.1.3.3 0 .2-.1.3-.3.3-.2 0-.3-.1-.4-.2H.1v.9l.5-.1c0-.1.2-.2.3-.2.1.1.3.2.3.4s-.2.3-.4.3-.3-.1-.3-.2H.1V4h.4c0-.1.2-.2.3-.2.2 0 .3.1.3.3 0 .2-.1.3-.3.3-.2 0-.3-.1-.3-.2l-.4-.1v1h.5c0-.1.2-.2.3-.2.1 0 .3.1.3.3 0 .2-.1.3-.3.3-.2 0-.3-.1-.3-.2l-.5.1v.9h.5c0-.2.1-.3.2-.3.2 0 .4.1.4.3 0 .2-.1.3-.3.3-.2 0-.3-.1-.3-.2H.1v.9l.5.1c0-.1.2-.2.3-.2.2 0 .3.1.3.3 0 .2-.1.3-.3.3-.2 0-.3-.1-.3-.2H.1v.9h.5c0-.1.2-.2.3-.2.2 0 .3.1.3.3 0 .2-.1.3-.3.3-.2 0-.3-.1-.3-.2l-.5-.1v.8l.5.1c0-.1.2-.2.3-.2.2 0 .3.1.3.3 0 .2-.1.3-.3.3-.2 0-.3-.1-.3-.2H.1v1h.5c0-.1.2-.2.3-.2.2 0 .3.1.3.3s-.2.2-.4.2-.3-.1-.3-.2l-.5.1v.9h.5c0-.1.2-.2.3-.2.2 0 .3.1.3.3 0 .2-.1.3-.3.3-.2 0-.3-.1-.3-.2H.1v.9l.5.1c0-.1.2-.2.3-.2.2 0 .3.1.3.3 0 .2-.1.3-.3.3-.2 0-.3-.1-.3-.2H.1l-.1.9.5.1c0-.1.2-.2.3-.2.2 0 .3.1.3.3 0 .2-.1.3-.3.3-.2 0-.3-.1-.3-.2H.1v.9h.4c0-.1.2-.2.3-.2.2 0 .3.1.3.3 0 .2-.1.3-.3.3-.2 0-.3-.1-.3-.2H.1v.9l.5.1c0-.1.2-.2.3-.2.2 0 .3.1.3.3 0 .2-.1.3-.3.3-.2 0-.3-.1-.3-.2H.1l.1.9h.4c0-.1.2-.2.3-.2.2 0 .3.1.3.3 0 .2-.1.3-.3.3-.2 0-.3-.1-.3-.2l-.5.1v.9h.5c0-.1.2-.2.3-.2.2 0 .3.1.3.3 0 .2-.1.3-.3.3-.2 0-.3-.1-.3-.2l-.5.1v.8H1l5.3-.2 5.9-.4c.5 0 .7-.3.7-.8v-16c0-1.1-.4-1.5-.9-1.5z"/><path opacity=".097" fill="#F2F1EF" d="M12.1 1H.2l-.1.8h.5c0-.1.2-.2.3-.2.2 0 .3.1.3.3 0 .2-.1.3-.3.3-.2 0-.3-.1-.3-.2H.2l-.1.9.5-.1c0-.1.2-.2.3-.2.2 0 .3.1.3.3 0 .2-.1.3-.3.3-.2.1-.3 0-.3-.2H.1v.9l.5.1c0-.1.2-.2.3-.2.2 0 .3.1.3.3 0 .2-.1.3-.3.3-.2 0-.3-.1-.3-.2l-.5-.1v1h.5c0-.1.2-.2.3-.2.2 0 .3.1.3.3 0 .2-.1.3-.3.3-.2 0-.3-.1-.3-.2H.1v.9h.5c0-.1.2-.2.3-.2.2 0 .3.1.3.3 0 .2-.1.3-.3.3-.2 0-.3-.1-.3-.2H.1v.9l.5.1c0-.2.1-.4.3-.4.2 0 .3.1.3.3 0 .2-.1.3-.3.3-.2 0-.3-.1-.3-.2H.1v.9h.5c0-.1.2-.2.3-.2.2 0 .3.1.3.3 0 .2-.1.3-.3.3-.2 0-.3-.1-.3-.2l-.5.1v.8l.5.1c0-.1.2-.2.3-.2.2 0 .3.1.3.3 0 .2-.1.3-.3.3-.2 0-.3-.1-.3-.2H.1v1h.5c0-.1.2-.2.3-.2.2 0 .3.1.3.3 0 .2-.1.3-.3.3-.2 0-.3-.1-.3-.2l-.5.1v.9h.5c0-.1.2-.2.3-.2.2 0 .3.1.3.3 0 .2-.1.3-.3.3-.2 0-.3-.1-.3-.2H.1v.9l.5.1c0-.1.2-.2.3-.2.2 0 .3.1.3.3s-.1.3-.3.3c-.2 0-.3-.1-.3-.2H.2l-.1.9.5.1c0-.1.2-.2.3-.2.2 0 .3.1.3.3 0 .2-.1.3-.3.3-.2 0-.3-.1-.3-.2H.2v.9h.4c0-.1.2-.2.3-.2.2 0 .3.1.3.3 0 .2-.1.3-.3.3-.2 0-.3-.1-.3-.2H.1v.4l.5.1c0-.1.2-.2.3-.2.2 0 .3.1.3.3s-.1.3-.3.3c-.2 0-.3-.1-.3-.2H.1l.1.9h.4c0-.1.2-.2.3-.2.2 0 .3.1.3.3 0 .2-.1.3-.3.3-.2 0-.3-.1-.3-.2l-.5.1v.9h.5c0-.1.2-.2.3-.2.2 0 .3.1.3.3s-.1.3-.3.3c-.2 0-.3-.1-.3-.2l-.5.1v.8H1l5.3-.2 5.9-.4c.5 0 .7-.3.7-.8v-16c.1-.7-.3-1.1-.8-1.1z"/><path opacity=".129" fill="#EEEDEB" d="M12.1.9H.2l-.1.8h.5c0-.1.2-.2.3-.2.2 0 .3.1.3.3 0 .2-.1.3-.3.3-.1 0-.3-.1-.3-.2H.2l-.1.9.5-.1c0-.1.2-.2.3-.2.2 0 .3.1.3.3s-.1.4-.3.4C.8 3.2.6 3.1.6 3H.1v.9l.5.1c0-.1.2-.2.3-.2.2 0 .3.1.3.3 0 .2-.1.3-.3.3-.2 0-.3-.1-.3-.2L.1 4v1h.5c0-.1.2-.2.3-.2.2 0 .3.1.3.3 0 .2-.1.3-.3.3-.2 0-.3-.1-.3-.2l-.5.1v.9h.5c0-.1.2-.2.3-.2.2 0 .3.1.3.3 0 .2-.1.3-.3.3-.2 0-.3-.1-.3-.2H.1v.9l.5.1c0-.3.2-.4.3-.4.2 0 .3.1.3.3 0 .2-.1.3-.3.3-.2 0-.3-.1-.3-.2H.1v.9h.5c0-.1.2-.2.3-.2.2 0 .3.1.3.3 0 .2-.1.3-.3.3-.2 0-.3-.1-.3-.2l-.5.1v.8l.5.1c0-.1.2-.2.3-.2.2 0 .3.1.3.3 0 .2-.1.3-.3.3-.2 0-.3-.1-.3-.2H.1v1h.5c0-.1.2-.2.3-.2.2 0 .3.1.3.3s-.1.2-.3.2c-.2 0-.3-.1-.3-.2l-.5.1v.9h.5c0-.1.2-.2.3-.2.2 0 .3.1.3.3 0 .2-.1.3-.3.3-.2 0-.3-.1-.3-.2H.1v.9l.5.1c0-.1.2-.2.3-.2.2 0 .3.1.3.3 0 .2-.1.3-.3.3-.2 0-.3-.1-.3-.2H.2l-.1.9.5.1c0-.1.2-.2.3-.2.2 0 .3.1.3.3 0 .2-.1.3-.3.3-.2 0-.3-.1-.3-.2H.2v.9h.4c0-.1.2-.2.3-.2.2 0 .3.1.3.3 0 .2-.1.3-.3.3-.2 0-.3-.1-.3-.2H.1v.5l.5.1c0-.1.2-.2.3-.2.2 0 .3.1.3.3 0 .2-.1.3-.3.3-.2 0-.3-.1-.3-.2H.1l.1.9h.4c0-.1.2-.2.3-.2.2 0 .3.1.3.3 0 .2-.1.3-.3.3-.2 0-.3-.1-.3-.2l-.5.1v.9h.5c0-.1.2-.2.3-.2.2 0 .3.1.3.3 0 .2-.1.3-.3.3-.2 0-.3-.1-.3-.2l-.5.1v.8H1l5.4-.5 5.9-.3c.5 0 .7-.3.7-.8v-16c0-.5-.4-1-.9-1z"/><path opacity=".161" fill="#EBE9E7" d="M12.1.9H.3l-.1.8h.5c0-.1.2-.2.3-.2.2 0 .3.1.3.3 0 .2-.1.3-.3.3-.2 0-.3-.1-.4-.2H.2v.9l.5-.1c0-.1.2-.2.3-.2.2 0 .3.1.3.3s-.2.4-.4.4C.8 3.2.7 3.1.6 3H.2v.9l.5.1c0-.1.2-.2.3-.2.2 0 .3.1.3.3 0 .2-.1.3-.3.3-.2 0-.3-.1-.3-.2L.2 4v1h.5c0-.1.2-.2.3-.2.2 0 .3.1.3.3 0 .2-.1.3-.3.3-.2 0-.3-.1-.3-.2l-.5.1v.9h.5c0-.1.2-.2.3-.2.2 0 .3.1.3.3 0 .2-.1.3-.3.3-.2 0-.3-.1-.3-.2H.2v.9l.5.1c0-.3.1-.4.2-.4.2 0 .3.1.3.3 0 .2-.1.3-.3.3-.2 0-.3-.1-.3-.2H.1v.9h.5c0-.1.2-.2.3-.2.2 0 .3.1.3.3 0 .2-.1.3-.3.3-.2 0-.3-.1-.3-.2H.2v.8l.5.1c0-.1.2-.2.3-.2.2 0 .3.1.3.3 0 .2-.1.3-.3.3-.2 0-.3-.1-.3-.2H.2v1h.5c0-.1.2-.2.3-.2.2 0 .3.1.3.3s-.1.3-.3.3c-.2 0-.3-.1-.3-.2l-.5.1v.9h.5c0-.1.2-.2.3-.2.2 0 .3.1.3.3 0 .2-.1.3-.3.3-.2 0-.3-.1-.3-.2H.2v.9l.5.1c0-.1.2-.2.3-.2.2 0 .3.1.3.3 0 .2-.1.3-.3.3-.2 0-.3-.1-.3-.2H.3l-.1.9.5.1c0-.1.2-.2.3-.2.2 0 .3.1.3.3 0 .2-.1.3-.3.3-.2 0-.3-.1-.3-.2H.2v.9h.4c0-.1.2-.2.3-.2.2 0 .3.1.3.3 0 .2-.1.3-.3.3-.2 0-.3-.1-.3-.2H.2v.5h.4c0-.1.2-.2.3-.2.2 0 .3.1.3.3 0 .2-.1.3-.3.3-.2 0-.3-.1-.3-.2H.2l.1.9h.4c0-.1.2-.2.3-.2.2 0 .3.1.3.3 0 .2-.1.3-.3.3-.2 0-.3-.1-.3-.2l-.5.1v.9h.5c0-.1.2-.2.3-.2.2 0 .3.1.3.3 0 .2-.1.3-.3.3-.2 0-.3-.1-.3-.2l-.5.1v.8h.9l5.4-.4 5.8-.3c.5 0 .8-.3.8-.8v-16c-.1-.6-.5-1-1-1z"/><path opacity=".194" fill="#E6E5E2" d="M12.2.9H.3l-.1.8h.5c0-.1.2-.2.3-.2.2 0 .3.1.3.3 0 .2-.1.3-.3.3-.2 0-.3-.1-.3-.3H.3l-.1 1 .5-.1c0-.1.2-.2.3-.2.2 0 .3.1.3.3s-.1.4-.3.4C.8 3.2.7 3.1.7 3H.2v.9l.5.1c0-.1.2-.2.3-.2.2 0 .3.1.3.3 0 .2-.1.3-.3.3C.8 4.3.7 4.2.7 4H.2v1h.5c0-.1.2-.2.3-.2.2 0 .3.1.3.3 0 .2-.1.3-.3.3-.2 0-.3-.1-.3-.2H.2v.9h.5c0-.1.2-.2.3-.2.2 0 .3.1.3.3 0 .2-.1.3-.3.3-.2 0-.3-.1-.3-.2H.2v.9l.5.1c0-.3.1-.4.3-.4.2 0 .3.1.3.3 0 .2-.1.3-.3.3-.2 0-.3-.1-.3-.2H.2v.9h.5S.8 8 1 8c.2 0 .3.1.3.3 0 .2-.1.3-.3.3-.2 0-.3-.1-.3-.2l-.5.1v.8l.5.1c0-.1.2-.2.3-.2.2 0 .3.1.3.3 0 .2-.1.3-.3.3-.2 0-.3-.1-.3-.2H.2v1h.5c0-.1.2-.2.3-.2.2 0 .3.1.3.3s-.1.2-.3.2c-.2 0-.3-.1-.3-.2l-.5.1v.9h.5c0-.1.2-.2.3-.2.2 0 .3.1.3.3 0 .1-.1.2-.3.2-.2 0-.3-.1-.3-.2H.2v.9l.5.1c0-.1.2-.2.3-.2.2 0 .3.1.3.3 0 .2-.1.3-.3.3-.2 0-.3-.1-.3-.2H.3l-.1.9.5.1c0-.1.2-.2.3-.2.2 0 .3.1.3.3 0 .2-.1.3-.3.3-.2 0-.3-.1-.3-.2H.3v.9h.4c0-.1.2-.2.3-.2.2 0 .3.1.3.3 0 .2-.1.3-.3.3-.2 0-.3-.1-.3-.2H.2v.9l.5-.2c0-.1.2-.2.3-.2.2 0 .3.1.3.3 0 .2-.1.3-.3.3-.2 0-.3-.1-.3-.2H.2l.1.9h.4c0-.1.2-.2.3-.2.2 0 .3.1.3.3 0 .2-.1.3-.3.3-.2 0-.3-.1-.3-.2l-.5.1v.9h.5c0-.2.1-.3.3-.3.2 0 .3.1.3.3 0 .2-.1.3-.3.3-.2 0-.3-.1-.3-.2l-.5.1v.8h.9l5.4-.3 5.8-.3c.5 0 .8-.3.8-.8v-16c0-.6-.4-1-.9-1z"/><path opacity=".226" fill="#E3E1DE" d="M12.2.8H.3v.8h.5c0-.1.2-.2.3-.2.2 0 .3.1.3.3-.1.2-.2.3-.4.3-.1 0-.3-.1-.3-.2H.3v.9l.5-.1c0-.1.2-.2.3-.2.2 0 .3.1.3.3-.1.3-.2.4-.4.4-.1 0-.3-.1-.3-.2H.3v.9l.5.1c0-.1.2-.2.3-.2.2 0 .3.1.3.3 0 .2-.1.3-.3.3C.9 4.2.7 4.1.7 4l-.4-.1v1h.5c0-.1.2-.2.3-.2.2 0 .3.1.3.3 0 .2-.1.3-.3.3-.2 0-.3-.1-.3-.2l-.5.1v.9h.5c0-.1.2-.2.3-.2.2 0 .3.1.3.3 0 .2-.1.3-.3.3-.2 0-.3-.1-.3-.2H.3v.9l.5.1c-.1-.3.1-.4.2-.4.2 0 .3.1.3.3 0 .2-.1.3-.3.3-.2 0-.3-.1-.3-.2H.2v.9h.5c0-.1.2-.2.3-.2.2 0 .3.1.3.3 0 .2-.1.3-.3.3-.2 0-.3-.1-.3-.2l-.4.1v.8l.5.1c0-.1.2-.2.3-.2.2 0 .3.1.3.3 0 .2-.1.3-.3.3-.2 0-.3-.1-.3-.2H.3v1h.5c0-.1.2-.2.3-.2.2 0 .3.1.3.3 0 .2-.1.3-.3.3-.2 0-.3-.1-.3-.2l-.5.1v.9h.5c0-.1.2-.2.3-.2.2 0 .3.1.3.3-.1-.1-.2.1-.4.1s-.3-.1-.3-.2H.3v.9l.5.1c0-.1.2-.2.3-.2.2 0 .3.1.3.3s-.2.2-.4.2-.3-.1-.3-.2H.3l-.1.9.5.1c0-.1.2-.2.3-.2.2 0 .3.1.3.3 0 .2-.1.3-.3.3-.2 0-.3-.1-.3-.2H.3v.9h.4c0-.1.2-.2.3-.2.2 0 .3.1.3.3 0 .2-.1.3-.3.3-.2 0-.3-.1-.3-.2H.3v.9l.4-.1c0-.1.2-.2.3-.2.2 0 .3.1.3.3s-.1.3-.3.3c-.2 0-.3-.1-.3-.2H.3l.1.9h.4c0-.1.2-.2.3-.2.2 0 .3.1.3.3 0 .2-.1.3-.3.3-.2 0-.3-.1-.3-.2l-.5.1v.9h.5c0-.1.2-.2.3-.2.2 0 .3.1.3.3s-.2.2-.4.2-.3-.1-.3-.2l-.5.1v.8h.9l5.4-.3 5.8-.3c.5 0 .8-.3.8-.8V1.8c0-.6-.4-1-.9-1z"/><path opacity=".258" fill="#E0DEDB" d="M12.2.8H.4l-.1.8h.5c0-.1.2-.2.3-.2.2 0 .3.1.3.3 0 .2-.2.3-.3.3-.2 0-.3-.1-.4-.2H.4l-.1.9.5-.1c0-.1.2-.2.3-.2.2 0 .3.1.3.3 0 .2-.1.3-.3.3-.2.1-.3 0-.4-.1H.3v.9l.5.1c0-.1.2-.2.3-.2.2 0 .3.1.3.3 0 .2-.1.3-.3.3C.9 4.2.8 4.1.7 4l-.4-.1v1h.5c0-.1.2-.2.3-.2.2 0 .3.1.3.3 0 .2-.1.3-.3.3-.2 0-.3-.1-.3-.2H.3V6h.5c0-.1.2-.2.3-.2.2 0 .3.1.3.3 0 .2-.1.3-.3.3-.2 0-.3-.1-.3-.2H.3v.9l.5.1c0-.1.2-.2.3-.2.2 0 .3.1.3.3 0 .2-.1.3-.3.3-.2 0-.3-.1-.3-.2H.3v.9h.5c0-.2.1-.3.3-.3.2 0 .3.1.3.3 0 .2-.1.3-.3.3-.2 0-.3-.1-.3-.2H.3v.8l.5.1c0-.1.2-.2.3-.2.2 0 .3.1.3.3 0 .2-.1.3-.3.3-.2 0-.3-.1-.3-.2H.3v1h.5c0-.1.2-.2.3-.2.2 0 .3.1.3.3 0 .2-.1.3-.3.3-.2 0-.3-.1-.3-.2l-.5.1v.9h.5c0-.1.2-.2.3-.2.2 0 .3.1.3.3 0 .2-.1.3-.3.3-.2 0-.3-.1-.3-.2H.3v.9l.5.1c0-.1.2-.2.3-.2.2 0 .3.1.3.3s-.2 0-.3 0c-.2 0-.3-.1-.3-.2H.4l-.1.9.5.1c0-.1.2-.2.3-.2.2 0 .3.1.3.3 0 .2-.1.3-.3.3-.2 0-.3-.1-.3-.2H.4v.9h.4c0-.1.2-.2.3-.2.2 0 .3.1.3.3 0 .2-.1.3-.3.3-.2 0-.3-.1-.3-.2H.3v.9l.5.1c0-.1.2-.2.3-.2.2 0 .3.1.3.3s-.1.3-.3.3c-.2 0-.3-.1-.3-.2H.3l.1.7h.4c0-.1.2-.2.3-.2.2 0 .3.1.3.3 0 .2-.1.3-.3.3-.2 0-.3-.1-.3-.2l-.5.1v.9h.5c0-.1.2-.2.3-.2.2 0 .3.1.3.3s-.1.3-.3.3c-.2 0-.3-.1-.3-.2l-.5.1v.8h.9l5.4-.2 5.8-.3c.5 0 .8-.3.8-.8V1.7c0-.5-.5-.9-1-.9z"/><path opacity=".29" fill="#DCDAD7" d="M12.3.8H.4l-.1.8h.5c0-.1.2-.2.3-.2.2 0 .3.1.3.3 0 .1-.1.3-.3.3-.2 0-.3-.1-.3-.3H.4l-.1 1 .5-.1c0-.1.2-.2.3-.2.2 0 .3.1.3.3 0 .2-.1.3-.3.3-.2.1-.3 0-.3-.2H.3v.9l.5.1c0-.1.2-.2.3-.2.2 0 .3.1.3.3 0 .2-.1.3-.3.3-.2 0-.3-.1-.3-.2l-.5-.1v1h.5c0-.1.2-.2.3-.2.2 0 .3.1.3.3 0 .2-.1.3-.3.3-.2 0-.3-.1-.3-.3l-.5.1V6h.5c0-.1.2-.2.3-.2.2 0 .3.1.3.3 0 .2-.1.3-.3.3-.2 0-.3-.1-.3-.2H.3V7l.5.1c0-.1.2-.2.3-.2.2 0 .3.1.3.3 0 .2-.1.3-.3.3-.2 0-.3-.1-.3-.2H.3v.9h.5c0-.1.2-.2.3-.2.2 0 .3.1.3.3 0 .2-.1.3-.3.3-.2 0-.3-.1-.3-.2H.3v.8l.5.1c0-.1.1-.3.3-.3.2 0 .3.1.3.3 0 .2-.1.3-.3.3-.2 0-.3-.1-.3-.2H.3v1h.5c0-.1.2-.2.3-.2.2 0 .3.1.3.3 0 .2-.1.3-.3.3-.2 0-.3-.1-.3-.2l-.5.1v.9h.5c0-.1.2-.2.3-.2.2 0 .3.1.3.3 0 .2-.1.3-.3.3-.2 0-.3-.1-.3-.2H.3v.9l.5.1c0-.1.2-.2.3-.2.2 0 .3.1.3.3s-.1.1-.3.1c-.2 0-.3-.1-.3-.2H.4l-.1.9.5.1c0-.1.2-.2.3-.2.2 0 .3.1.3.3 0 .2-.1.3-.3.3-.2 0-.3-.1-.3-.2H.4v.9h.4c0-.1.2-.2.3-.2.2 0 .3.1.3.3 0 .2-.1.3-.3.3-.2 0-.3-.1-.3-.2H.3v.9l.5.1c0-.1.2-.2.3-.2.2 0 .3.1.3.3s-.1.3-.3.3c-.2 0-.3-.1-.3-.2H.3l.1.7h.4c0-.1.2-.2.3-.2.2 0 .3.1.3.3 0 .2-.1.3-.3.3-.2 0-.3-.1-.3-.2l-.5.1v.9h.5c0-.1.2-.2.3-.2.2 0 .3.1.3.3s-.1.3-.3.3c-.2 0-.3-.1-.3-.2l-.5.1v.8h.9l5.4-.2 5.8-.3c.5 0 .8-.3.8-.8V1.7c0-.5-.4-.9-.9-.9z"/><path opacity=".323" fill="#D9D8D4" d="M12.3.7H.4v.8h.5c0-.1.2-.2.3-.2.2 0 .3.1.3.3 0 .2-.1.3-.3.3-.2 0-.3-.1-.4-.2H.4v.9l.5-.1c0-.1.2-.2.3-.2.2 0 .3.1.3.3s-.2.4-.4.4C1 3 .9 2.9.8 2.8H.4v.9l.5.1c0-.1.2-.2.3-.2.2 0 .3.1.3.3 0 .2-.1.3-.3.3C1 4.1.9 4 .8 3.9l-.4-.1v1h.5c0-.1.2-.2.3-.2.2 0 .3.1.3.3 0 .2-.1.3-.3.3C1 5.2.9 5.1.8 5l-.4.1V6h.5c0-.1.2-.2.3-.2.2 0 .3.1.3.3 0 .2-.1.3-.3.3-.2-.1-.3-.2-.4-.3H.4V7h.4c0-.1.2-.2.3-.2.2 0 .3.1.3.3 0 .2-.1.3-.3.3-.1 0-.2 0-.3-.2H.3v.9h.5c.1-.1.2-.2.3-.2.2 0 .3.1.3.3 0 .2-.1.3-.3.3-.1.1-.2-.1-.3-.2l-.4.1v.8l.5.1c0-.2.1-.3.2-.3.2 0 .3.1.3.3 0 .2-.1.3-.3.3-.1.1-.2-.1-.3-.2H.4v1h.5c0-.1.2-.2.3-.2.2 0 .3.1.3.3s-.1.3-.3.3c-.2 0-.3-.1-.3-.2l-.5.1v.9h.5c0-.1.2-.2.3-.2.2 0 .3.1.3.3 0 .2-.1.3-.3.3-.2 0-.3-.1-.3-.2H.4v.9l.5.1c0-.1.2-.2.3-.2.2 0 .3.1.3.3 0 .2-.1.3-.3.3-.2 0-.3-.1-.3-.2H.4l-.1.9.5.1c0-.1.2-.2.3-.2.2 0 .3.1.3.3 0 .2-.1.3-.3.3-.2 0-.3-.1-.3-.2H.4v.9h.4c0-.1.2-.2.3-.2.2 0 .3.1.3.3 0 .2-.1.3-.3.3-.2 0-.3-.1-.3-.2H.4v.9l.5.1c0-.1.2-.2.3-.2.2 0 .3.1.3.3 0 .2-.1.3-.3.3-.2 0-.3-.1-.3-.2H.4v.5h.4c0-.1.2-.2.3-.2.2 0 .3.1.3.3 0 .2-.1.3-.3.3-.2 0-.3-.1-.3-.2l-.5.1v.9h.5c0-.1.2-.2.3-.2.2 0 .3.1.3.3 0 .2-.1.3-.3.3-.2 0-.3-.1-.3-.2l-.5.1v.5h.9l5.4-.2 5.8-.3c.5 0 .8-.3.8-.8v-16c0-.6-.4-1-.9-1z"/><path opacity=".355" fill="#D6D4D0" d="M12.3.7H.5l-.1.8h.5c0-.1.2-.2.3-.2.2 0 .3.1.3.3 0 .2-.1.3-.3.3-.2 0-.3-.1-.3-.2H.5l-.1.9.5-.1c0-.1.2-.2.3-.2.2 0 .3.1.3.3s-.2.4-.3.4C1 3 .9 2.9.9 2.8H.4v.9l.5.1c0-.1.2-.2.3-.2.2 0 .3.1.3.3 0 .2-.1.3-.3.3C1 4.1.9 4 .9 3.9l-.5-.1v1h.5c0-.1.2-.2.3-.2.2 0 .3.1.3.3 0 .2-.1.3-.3.3C1 5.2.9 5.1.9 5H.4v.9h.5c0-.1.2-.2.3-.2.2 0 .3.1.3.3 0 .2-.1.3-.3.3-.2 0-.3-.1-.3-.2H.4V7h.5c0-.1.2-.2.3-.2.2 0 .3.1.3.3 0 .2-.1.3-.3.3-.2 0-.3 0-.3-.2H.4v.9h.5c0-.1.1-.2.3-.2.2 0 .3.1.3.3 0 .2-.1.3-.3.3-.2 0-.3-.1-.3-.2H.4v.8l.5.1c0-.1.1-.2.3-.2.2 0 .3.1.3.3 0 .2-.1.3-.3.3-.2 0-.3-.1-.3-.2H.4v1h.5c0-.1.2-.2.3-.2.2 0 .3.1.3.3s-.1.3-.3.3c-.2 0-.3-.1-.3-.2l-.5.1v.9h.5c0-.1.2-.2.3-.2.2 0 .3.1.3.3 0 .2-.1.3-.3.3-.2 0-.3-.1-.3-.2H.4v.9l.5.1c0-.1.2-.2.3-.2.2 0 .3.1.3.3 0 .2-.1.3-.3.3-.2 0-.3-.1-.3-.2H.5l-.1.9.5.1c0-.1.2-.2.3-.2.2 0 .3.1.3.3 0 .2-.1.3-.3.3-.2 0-.3-.1-.3-.2H.5v.9h.4c0-.1.2-.2.3-.2.2 0 .3.1.3.3 0 .2-.1.3-.3.3-.2 0-.3-.1-.3-.2H.4v.9l.5.1c0-.1.2-.2.3-.2.2 0 .3.1.3.3 0 .2-.1.3-.3.3-.2 0-.3-.1-.3-.2H.4l.1.9h.4c0-.1.2-.2.3-.2.2 0 .3.1.3.3 0 .2-.1.3-.3.3-.2 0-.3-.1-.3-.2l-.5.1v.3h.5c0-.1.2-.2.3-.2.2 0 .3.1.3.3 0 .2-.1.3-.3.3-.2 0-.3-.1-.3-.2l-.5.1v.7h.9l5.4-.2 5.7-.3c.5 0 .8-.3.8-.8V1.6c.1-.5-.3-.9-.9-.9z"/><path opacity=".387" fill="#D3D1CD" d="M12.4.7H.5l-.1.8h.5c0-.1.2-.2.3-.2.2 0 .3.1.3.3 0 .2-.1.3-.3.3-.2 0-.3-.1-.3-.3H.5l-.1 1 .5-.1c0-.1.2-.2.3-.2.2 0 .3.1.3.3 0 .2-.1.4-.3.4-.2 0-.3-.1-.3-.3H.4v.9l.5.1c0-.1.2-.2.3-.2.2 0 .3.1.3.3 0 .2-.1.3-.3.3-.2 0-.3-.1-.3-.3H.4v1h.5c0-.1.2-.2.3-.2.2 0 .3.1.3.3 0 .2-.1.3-.3.3-.2 0-.3-.1-.3-.3L.4 5v.9h.5c0-.1.2-.2.3-.2.2 0 .3.1.3.3 0 .2-.1.3-.3.3C1 6.3.9 6.2.9 6H.4v.9l.5.1c0-.1.2-.2.3-.2.2 0 .3.1.3.3 0 .2-.1.3-.3.3-.2 0-.3-.1-.3-.2H.4v.9h.5c0-.1.2-.2.3-.2.2 0 .3.1.3.3 0 .2-.1.3-.3.3-.2 0-.3-.1-.3-.3l-.5.1v.8l.5.1c0-.2.1-.3.3-.3.2 0 .3.1.3.3 0 .2-.1.3-.3.3-.2.1-.3 0-.3-.2H.4v1h.5c0-.2.1-.3.3-.3.2 0 .3.1.3.3 0 .2-.1.3-.3.3-.2 0-.3-.1-.3-.2l-.5.1v.9h.5c0-.1.2-.2.3-.2.2 0 .3.1.3.3 0 .2-.1.3-.3.3-.2 0-.3-.1-.3-.2H.4v.9l.5.1c0-.1.2-.2.3-.2.2 0 .3.1.3.3 0 .2-.1.3-.3.3-.2 0-.3-.1-.3-.2H.5l-.1.9.5.1c0-.1.2-.2.3-.2.2 0 .3.1.3.3 0 .2-.1.3-.3.3-.2 0-.3-.1-.3-.2H.5v.9h.4c0-.1.2-.2.3-.2.2 0 .3.1.3.3 0 .2-.1.3-.3.3-.2 0-.3-.1-.3-.2H.4v.9l.5.1c0-.1.2-.2.3-.2.2 0 .3.1.3.3 0 .2-.1.3-.3.3-.2 0-.3-.1-.3-.2H.4l.1.9h.4c0-.1.2-.2.3-.2.2 0 .3.1.3.3 0 .2-.1.3-.3.3-.2 0-.3-.1-.3-.2l-.5.1v.5h.5c0-.1.2-.2.3-.2.2 0 .3.1.3.3 0 .2-.1.3-.3.3-.2 0-.3-.1-.3-.2l-.5.1v.7h.9l5.4-.2 5.7-.2c.5 0 .8-.3.8-.9V1.6c.1-.5-.3-.9-.8-.9z"/><path opacity=".419" fill="#D0CEC9" d="M12.4.6H.5v.8H1c0-.1.2-.2.3-.2.2 0 .3.1.3.3 0 .2-.1.3-.3.3-.2 0-.3-.1-.4-.2H.5v.9l.5-.1c0-.1.2-.2.3-.2.2 0 .3.1.3.3 0 .2-.1.3-.3.3-.2.1-.3 0-.4-.1H.5v.9l.5.1c0-.1.2-.2.3-.2.2 0 .3.1.3.3 0 .1-.2.2-.4.2-.1 0-.2-.1-.3-.2l-.4-.1v1H1c0-.1.2-.2.3-.2.2 0 .3.1.3.3 0 .2-.1.3-.3.3-.2 0-.3-.1-.4-.2L.5 5v.9H1c0-.1.2-.2.3-.2.2 0 .3.1.3.3 0 .2-.1.3-.3.3-.2-.1-.3-.2-.4-.3H.5v.9L1 7c0-.1.2-.2.3-.2.2 0 .3.1.3.3 0 .2-.1.3-.3.3-.2-.1-.3-.1-.4-.3H.4V8h.5c0-.1.2-.2.3-.2.2 0 .3.1.3.3 0 .2-.1.3-.3.3-.1 0-.2-.1-.3-.2l-.4.1v.8l.5.1c0-.2.1-.3.2-.3.2 0 .3.1.3.3 0 .2-.1.3-.3.3-.1 0-.2-.1-.3-.2H.5v1H1c0-.2.1-.3.2-.3.2 0 .3.1.3.3 0 .2-.1.3-.3.3-.2 0-.3-.1-.3-.2l-.5.1v.9h.5c0-.1.2-.2.3-.2.2 0 .3.1.3.3 0 .2-.1.3-.3.3-.2 0-.3-.1-.3-.2H.5v.9l.5.1c0-.1.2-.2.3-.2.2 0 .3.1.3.3 0 .2-.1.3-.3.3-.2 0-.3-.1-.3-.2H.5l-.1.9.5.1c0-.1.2-.2.3-.2.2 0 .3.1.3.3 0 .2-.1.3-.3.3-.2 0-.3-.1-.3-.2H.5v.9h.4c0-.1.2-.2.3-.2.2 0 .3.1.3.3 0 .2-.1.3-.3.3-.2 0-.3-.1-.3-.2H.5v.9l.5.1c0-.1.2-.2.3-.2.2 0 .3.1.3.3 0 .2-.1.3-.3.3-.2 0-.3-.1-.3-.2H.5l.1.9H1c0-.1.2-.2.3-.2.2 0 .3.1.3.3 0 .2-.1.3-.3.3-.2 0-.3-.1-.3-.2l-.5.1v.5H1c0-.1.2-.2.3-.2.2 0 .3.1.3.3 0 .2-.1.3-.3.3-.2 0-.3-.1-.3-.2l-.5.1v.8h.9l5.4-.1 5.7-.2c.5 0 .8-.3.8-.9V1.6c0-.6-.4-1-.9-1z"/><path opacity=".452" fill="#CDCBC6" d="M12.5.6H.6l-.1.8H1c0-.1.2-.2.3-.2.2 0 .3.1.3.3 0 .2-.1.3-.3.3-.2 0-.3-.1-.3-.2H.6l-.1.9.5-.1c0-.1.2-.2.3-.2.2 0 .3.1.3.3 0 .2-.1.3-.3.3-.2.1-.3 0-.3-.1H.5v.9H1c0-.1.2-.2.3-.2.2 0 .3.1.3.3 0 .2-.2.3-.3.3-.2 0-.3-.1-.3-.2l-.5-.1v1H1c0-.1.2-.2.3-.2.2 0 .3.1.3.3 0 .2-.1.3-.3.3-.2 0-.3-.1-.3-.2H.5v.9H1c0-.1.2-.2.3-.2.2 0 .3.1.3.3 0 .2-.1.3-.3.3-.2 0-.3-.1-.3-.2H.5v.9H1c0-.1.2-.2.3-.2.2 0 .3.1.3.3 0 .2-.1.3-.3.3-.2 0-.3-.1-.3-.2H.5V8H1c0-.1.2-.2.3-.2.2 0 .3.1.3.3 0 .2-.1.3-.3.3-.2 0-.3-.1-.3-.2H.5V9l.5.1c0-.1.1-.2.3-.2.2 0 .3.1.3.3 0 .2-.1.3-.3.3-.2 0-.3-.1-.3-.2H.5v1H1c0-.2.1-.3.3-.3.2 0 .3.1.3.3 0 .2-.1.3-.3.3-.2 0-.3-.1-.3-.2l-.5.1v.9H1c0-.1.2-.2.3-.2.2 0 .3.1.3.3 0 .2-.1.3-.3.3-.2 0-.3-.1-.3-.2H.5v.9l.5-.1c0-.1.2-.2.3-.2.2 0 .3.1.3.3 0 .2-.1.3-.3.3-.2 0-.3-.1-.3-.2H.6l-.1.9H1c0-.1.2-.2.3-.2.2 0 .3.1.3.3 0 .2-.1.3-.3.3-.2 0-.3-.1-.3-.2H.6v.9H1c0-.1.2-.2.3-.2.2 0 .3.1.3.3 0 .2-.1.3-.3.3-.2 0-.3-.1-.3-.2H.5v.9H1c0-.1.2-.2.3-.2.2 0 .3.1.3.3 0 .2-.1.3-.3.3-.2 0-.3-.1-.3-.2H.5l.1.9H1c0-.1.2-.2.3-.2.2 0 .3.1.3.3 0 .2-.1.3-.3.3-.2 0-.3-.1-.3-.2l-.5.1v.9H1c0-.1.2-.2.3-.2.2 0 .3.1.3.3 0 .2-.1.3-.3.3-.2 0-.3-.1-.3-.2l-.5.1v.8h.9l5.4-.1 5.7-.2c.5 0 .8-.3.8-.9V1.5c.1-.5-.3-.9-.8-.9z"/><path opacity=".484" fill="#CAC8C3" d="M12.5.6H.6l-.1.8H1c0-.1.2-.2.3-.2.2 0 .3.1.3.3 0 .2-.1.3-.3.3-.1 0-.3-.1-.3-.3H.6l-.1 1 .5-.1c0-.1.2-.2.3-.2.2 0 .3.1.3.3 0 .2-.1.3-.3.3-.1.1-.3 0-.3-.2H.5v.9l.5.1c0-.1.2-.2.3-.2.2 0 .3.1.3.3 0 .1-.1.3-.3.3-.1 0-.3-.1-.3-.3H.5v1H1c0-.1.2-.2.3-.2.2 0 .3.1.3.3 0 .2-.1.3-.3.3-.1 0-.3-.1-.3-.3l-.5.1v.9H1c0-.1.2-.2.3-.2.2 0 .3.1.3.3 0 .2-.1.3-.3.3-.1 0-.3-.1-.3-.3H.5v.9l.5.1c0-.1.2-.2.3-.2.2 0 .3.1.3.3 0 .2-.1.3-.3.3-.1 0-.3-.1-.3-.2L.5 7v1H1c0-.1.2-.2.3-.2.2 0 .3.1.3.3 0 .2-.1.3-.3.3-.1 0-.3-.1-.3-.3l-.5.1V9l.5.1c0-.1.2-.2.3-.2.2 0 .3.1.3.3 0 .2-.1.3-.3.3-.1 0-.3-.1-.3-.3H.5v1H1c0-.2.2-.3.3-.3.2 0 .3.1.3.3 0 .2-.1.3-.3.3-.2 0-.3-.1-.3-.2l-.5.1v.9H1c0-.2.2-.3.3-.3.2 0 .3.1.3.3 0 .2-.1.3-.3.3-.2 0-.3-.1-.3-.2H.5v.9l.5.1c0-.1.2-.2.3-.2.2 0 .3.1.3.3 0 .2-.1.3-.3.3-.2 0-.3-.1-.3-.2H.6l-.1.9H1c0-.1.2-.2.3-.2.2 0 .3.1.3.3 0 .2-.1.3-.3.3-.2 0-.3-.1-.3-.2H.6v.9H1c0-.1.2-.2.3-.2.2 0 .3.1.3.3 0 .2-.1.3-.3.3-.1 0-.3-.1-.3-.2H.5v.9H1c0-.1.2-.2.3-.2.2 0 .3.1.3.3 0 .2-.1.3-.3.3-.1 0-.3-.1-.3-.2H.5l.1.9H1c0-.1.2-.2.3-.2.2 0 .3.1.3.3 0 .2-.1.3-.3.3-.1 0-.3-.1-.3-.2H.5v.9H1c0-.1.2-.2.3-.2.2 0 .3.1.3.3 0 .2-.1.3-.3.3-.2 0-.3-.1-.3-.2l-.5.1v.8h.9l5.4-.1 5.7-.2c.5 0 .8-.3.8-.9V1.5c.1-.5-.3-.9-.8-.9z"/><path opacity=".516" fill="#C7C4BF" d="M12.5.5H.7l-.1.8H1c0-.1.2-.2.3-.2.2 0 .3.1.3.3 0 .2-.1.3-.3.3-.1 0-.2-.1-.3-.2H.6v.9H1c0-.1.2-.2.3-.2.2 0 .3.1.3.3 0 .2-.1.3-.3.3-.1 0-.2-.1-.3-.2H.6v.9H1c0-.1.2-.2.3-.2.2 0 .3.1.3.3 0 .2-.1.3-.3.3-.1 0-.2-.1-.3-.2l-.4-.1v1H1c0-.1.2-.2.3-.2.2 0 .3.1.3.3.1.2-.1.3-.3.3-.1 0-.2-.1-.3-.2l-.4.1v.9H1c0-.1.2-.2.3-.2.2 0 .3.1.3.3 0 .2-.1.3-.3.3L1 5.9H.6v.9H1c0-.1.2-.2.3-.2.2 0 .3.1.3.3 0 .2-.1.3-.3.3-.1 0-.2 0-.3-.2H.6v.9H1c0-.1.2-.2.3-.2.2 0 .3.1.3.3 0 .2-.1.3-.3.3-.1 0-.2-.1-.3-.2l-.4.1V9H1c0-.1.2-.2.3-.2.2 0 .3.1.3.3 0 .2-.1.3-.3.3-.1 0-.2-.1-.3-.2H.6v1h.5c0-.1.2-.2.3-.2.2 0 .3.1.3.3 0 .2-.1.3-.3.3-.2 0-.3-.1-.3-.2l-.5.1v.9H1c0-.1.2-.2.3-.2.2 0 .3.1.3.3 0 .2-.1.3-.3.3-.2 0-.3-.1-.3-.2H.6v.9l.4-.1c0-.1.2-.2.3-.2.2 0 .3.1.3.3 0 .2-.1.3-.3.3-.2 0-.3-.1-.3-.2H.7l-.1.9H1c0-.1.2-.2.3-.2.2 0 .3.1.3.3 0 .2-.1.3-.3.3-.2 0-.3-.1-.3-.2H.6v.9H1c0-.1.2-.2.3-.2.2 0 .3.1.3.3 0 .2-.1.3-.3.3-.2 0-.3-.1-.3-.2H.6v.9H1c0-.1.2-.2.3-.2.2 0 .3.1.3.3 0 .2-.1.3-.3.3-.2 0-.3-.1-.3-.2H.6l.1.9H1c0-.1.2-.2.3-.2.2 0 .3.1.3.3 0 .2-.1.3-.3.3-.2 0-.3-.1-.3-.2H.6v.9H1c0-.1.2-.2.3-.2.2 0 .3.1.3.3 0 .2-.1.3-.3.3-.2 0-.3-.1-.3-.2l-.5.1v.8h.9l5.4-.1 5.7-.2c.5 0 .8-.4.8-.9V1.5c.1-.6-.3-1-.8-1z"/><path opacity=".548" fill="#C3C1BC" d="M12.6.5H.7l-.1.8h.5c0-.1.2-.2.3-.2.2 0 .3.1.3.3 0 .2-.1.3-.3.3-.2 0-.3-.1-.3-.2H.7l-.1.9.5-.1c0-.1.2-.2.3-.2.2 0 .3.1.3.3 0 .2-.1.3-.3.3-.2 0-.3-.1-.3-.2H.6v.9l.5.1c0-.1.2-.2.3-.2.2 0 .3.1.3.3 0 .2-.1.3-.3.3-.2 0-.3-.1-.3-.2l-.5-.1v1h.5c0-.1.2-.2.3-.2.2 0 .3.1.3.3 0 .2-.1.3-.3.3-.2 0-.3-.1-.3-.2H.6v.9h.5c0-.1.2-.2.3-.2.2 0 .3.1.3.3 0 .2-.1.3-.3.3-.2 0-.3-.1-.3-.2H.6v.9l.5.1c0-.1.2-.2.3-.2.2 0 .3.1.3.3 0 .2-.1.3-.3.3-.2-.1-.3-.2-.3-.3H.6v.9h.5c0-.1.2-.2.3-.2.2 0 .3.1.3.3 0 .2-.1.3-.3.3-.2 0-.3-.1-.3-.2H.6V9h.5c0-.1.2-.2.3-.2.2 0 .3.1.3.3 0 .2-.1.3-.3.3-.2 0-.3-.1-.3-.2H.6v1h.5c0-.1.2-.2.3-.2.2 0 .3.1.3.3 0 .2-.1.3-.3.3-.2 0-.3-.1-.3-.2l-.5.1v.9h.5c0-.1.2-.2.3-.2.2 0 .3.1.3.3 0 .2-.1.3-.3.3-.2 0-.3-.1-.3-.2H.6v.9l.5.1c0-.1.2-.2.3-.2.2 0 .3.1.3.3 0 .2-.1.3-.3.3-.2 0-.3-.1-.3-.2H.7l-.1.9.5.1c0-.1.2-.2.3-.2.2 0 .3.1.3.3 0 .2-.1.3-.3.3-.2 0-.3-.1-.3-.2H.7v.9h.4c0-.1.2-.2.3-.2.2 0 .3.1.3.3 0 .2-.1.3-.3.3-.2 0-.3-.1-.3-.2H.6v.9l.5.1c0-.1.2-.2.3-.2.2 0 .3.1.3.3 0 .2-.1.3-.3.3-.2 0-.3-.1-.3-.2H.6l.1.9h.4c0-.1.2-.2.3-.2.2 0 .3.1.3.3 0 .2-.1.3-.3.3-.2 0-.3-.1-.3-.2L.6 17v.9h.5c0-.1.2-.2.3-.2.2 0 .3.1.3.3 0 .2-.1.3-.3.3-.2 0-.3-.1-.3-.2L.6 18v.8h.9l5.5-.1 5.7-.2c.5 0 .8-.4.8-.9V1.4c0-.5-.4-.9-.9-.9z"/><path opacity=".581" fill="#C1BFB9" d="M12.6.5H.7l-.1.8h.5c0-.2.2-.3.3-.3.2 0 .3.1.3.3 0 .2-.1.3-.3.3-.2 0-.3-.1-.3-.2H.7l-.1 1 .5-.1c0-.1.2-.2.3-.2.2 0 .3.1.3.3 0 .2-.1.3-.3.3-.2 0-.3-.1-.3-.2H.6v.9l.5.1c0-.1.2-.2.3-.2.2 0 .3.1.3.3 0 .2-.1.3-.3.3-.2 0-.3-.1-.3-.2l-.5-.2v1h.5c0-.1.2-.2.3-.2.2 0 .3.1.3.3 0 .2-.1.4-.3.4-.1 0-.3-.1-.3-.3l-.5.1v.9h.5c0-.1.2-.2.3-.2.2 0 .3.1.3.3 0 .2-.1.3-.3.3-.1 0-.3-.1-.3-.3H.6v.9l.5.1c0-.1.2-.2.3-.2.2 0 .3.1.3.3 0 .2-.1.3-.3.3-.1 0-.3-.1-.3-.2H.6v.9h.5c0-.1.2-.2.3-.2.2 0 .3.1.3.3 0 .2-.1.3-.3.3-.1 0-.3-.1-.3-.3l-.5.1v.8l.5.1c0-.1.2-.2.3-.2.2 0 .3.1.3.3 0 .2-.1.3-.3.3-.2 0-.3-.1-.3-.2H.6v1h.5c0-.1.2-.2.3-.2.2 0 .3.1.3.3 0 .2-.1.3-.3.3-.2 0-.3-.1-.3-.2l-.5.1v.9h.5c0-.1.2-.2.3-.2.2 0 .3.1.3.3 0 .2-.1.3-.3.3-.2 0-.3-.1-.3-.2H.6v.9l.5.1c0-.1.2-.2.3-.2.2 0 .3.1.3.3 0 .2-.1.3-.3.3-.2 0-.3-.1-.3-.2H.7l-.1.9.5.1c0-.1.2-.2.3-.2.2 0 .3.1.3.3 0 .2-.1.3-.3.3-.2 0-.3-.1-.3-.2H.7v.9h.4c0-.1.2-.2.3-.2.2 0 .3.1.3.3 0 .2-.1.3-.3.3-.2 0-.3-.1-.3-.2H.6v.9l.5.1c0-.1.2-.2.3-.2.2 0 .3.1.3.3 0 .2-.1.3-.3.3-.2 0-.3-.1-.3-.2H.6l.1.9h.4c0-.1.2-.2.3-.2.2 0 .3.1.3.3 0 .2-.1.3-.3.3-.2 0-.3-.1-.3-.2l-.5.1v.9h.5c0-.1.2-.2.3-.2.2 0 .3.1.3.3 0 .2-.1.3-.3.3-.2 0-.3-.1-.3-.2L.6 18v.8h.9l5.5-.1 5.6-.2c.5 0 .8-.4.8-.9V1.4c.1-.5-.3-.9-.8-.9z"/><path opacity=".613" fill="#BDBBB6" d="M12.6.4H.8l-.1.8h.5c0-.1.1-.2.3-.2.2 0 .3.1.3.3 0 .2-.1.3-.3.3-.2 0-.3-.1-.3-.2H.7v.9l.5-.1c0-.1.2-.2.3-.2.2 0 .3.1.3.3 0 .2-.1.3-.3.3-.2 0-.3-.1-.3-.2H.7v.9l.5.1c0-.1.2-.2.3-.2.2 0 .3.1.3.3 0 .2-.1.3-.3.3-.2 0-.3-.1-.3-.2l-.5-.1v1h.5c0-.1.2-.2.3-.2.2 0 .3.1.3.3 0 .2-.1.3-.3.3-.2 0-.3-.1-.3-.2l-.5.1v.9h.5c0-.1.2-.2.3-.2.2 0 .3.1.3.3 0 .1-.2.2-.3.2-.2 0-.3-.1-.4-.2H.7v.9l.5.1c0-.1.2-.2.3-.2.2 0 .3.1.3.3 0 .2-.1.3-.3.3-.2 0-.3-.1-.3-.2H.7v.9h.5c0-.1.2-.2.3-.2.2 0 .3.1.3.3 0 .2-.1.3-.3.3-.2-.1-.3-.2-.4-.3H.7v.8l.5.1c0-.1.2-.2.3-.2.2 0 .3.1.3.3 0 .2-.1.3-.3.3-.2 0-.3-.1-.3-.2H.7v1h.5c0-.1.2-.2.3-.2.2 0 .3.1.3.3 0 .2-.1.3-.3.3-.2 0-.3-.1-.3-.2l-.5.1v.9h.5c0-.1.2-.2.3-.2.2 0 .3.1.3.3 0 .2-.1.3-.3.3-.2 0-.3-.1-.3-.2H.7v.9l.5.1c0-.1.2-.2.3-.2.2 0 .3.1.3.3 0 .2-.1.3-.3.3-.2 0-.3-.1-.3-.2H.8l-.1.9.5.1c0-.1.2-.2.3-.2.2 0 .3.1.3.3 0 .2-.1.3-.3.3-.2 0-.3-.1-.3-.2H.8v.9h.4c0-.1.2-.2.3-.2.2 0 .3.1.3.3 0 .2-.1.3-.3.3-.2 0-.3-.1-.3-.2H.7v.9l.5.1c0-.1.2-.2.3-.2.2 0 .3.1.3.3 0 .2-.1.3-.3.3-.2 0-.3-.1-.3-.2H.7l.1.9h.4c0-.1.2-.2.3-.2.2 0 .3.1.3.3 0 .2-.1.3-.3.3-.2 0-.3-.1-.3-.2l-.5.1v.9h.5c0-.1.2-.2.3-.2.2 0 .3.1.3.3 0 .2-.1.3-.3.3-.2 0-.3-.1-.3-.2L.7 18v.8h.9l5.4-.1 5.6-.2c.5 0 .8-.4.8-.9V1.3c.1-.5-.3-.9-.8-.9z"/><path opacity=".645" fill="#BBB8B2" d="M12.7.4H.8l-.1.8h.5c0-.1.2-.2.3-.2.2 0 .3.1.3.3 0 .2-.1.3-.3.3-.2 0-.3-.1-.3-.2H.8l-.1.9.5-.1c0-.1.2-.2.3-.2.2 0 .3.1.3.3 0 .2-.1.3-.3.3-.2 0-.3-.1-.3-.2H.7v.9l.5.1c0-.1.2-.2.3-.2.2 0 .3.1.3.3 0 .2-.1.3-.3.3-.2 0-.3-.1-.3-.2l-.5-.1v1h.5c0-.1.2-.2.3-.2.2 0 .3.1.3.3 0 .2-.1.3-.3.3-.2 0-.3-.1-.3-.2H.7v.9h.5c0-.1.2-.2.3-.2.2 0 .3.1.3.3s-.1.3-.3.3c-.2 0-.3-.1-.3-.2H.7v.9l.5.1c0-.1.2-.2.3-.2.2 0 .3.1.3.3 0 .2-.1.3-.3.3-.2-.1-.3-.2-.3-.3H.7v.9h.5c0-.1.2-.2.3-.2.2 0 .3.1.3.3s-.1.3-.3.3c-.2 0-.3-.1-.3-.2H.7v.8l.5.1c0-.1.2-.2.3-.2.2 0 .3.1.3.3 0 .2-.1.3-.3.3-.2 0-.3-.1-.3-.2H.7v1h.5c0-.1.2-.2.3-.2.2 0 .3.1.3.3 0 .2-.1.3-.3.3-.2 0-.3-.1-.3-.2l-.5.1v.9h.5c0-.1.2-.2.3-.2.2 0 .3.1.3.3s-.1.3-.3.3c-.2 0-.3-.1-.3-.2H.7v.9l.5.1c0-.1.2-.2.3-.2.2 0 .3.1.3.3 0 .2-.1.3-.3.3-.2 0-.3-.1-.3-.2H.8l-.1.9.5.1c0-.1.2-.2.3-.2.2 0 .3.1.3.3s-.1.3-.3.3c-.2 0-.3-.1-.3-.2H.8v.9h.4c0-.1.2-.2.3-.2.2 0 .3.1.3.3 0 .2-.1.3-.3.3-.2 0-.3-.1-.3-.2H.7v.9l.5.1c0-.1.2-.2.3-.2.2 0 .3.1.3.3 0 .2-.1.3-.3.3-.2 0-.3-.1-.3-.2H.7l.1.9h.4c0-.1.2-.2.3-.2.2 0 .3.1.3.3s-.1-.2-.3-.2c-.2 0-.3-.1-.3-.2l-.5.1v.9h.5c0-.1.2-.2.3-.2.2 0 .3.1.3.3 0 .2-.1.3-.3.3-.2 0-.3-.1-.3-.2l-.5.1v.8h.9l5.4-.1 5.6-.1c.5 0 .9-.4.9-.9V1.3c.1-.5-.3-.9-.8-.9z"/><path opacity=".677" fill="#B7B6B0" d="M12.7.4H.8v.8h.5c0-.1.2-.2.3-.2.2 0 .3.1.3.3 0 .2-.1.3-.3.3-.2 0-.3-.1-.3-.2H.8v.9l.5-.1c0-.1.1-.2.2-.2.2 0 .3.1.3.3 0 .2-.1.3-.3.3-.2 0-.3-.1-.3-.2H.8v.9l.5.1c0-.1.2-.2.3-.2.2 0 .3.1.3.3 0 .2-.1.3-.3.3-.2 0-.3-.1-.3-.2l-.5-.2v1h.5c0-.1.2-.2.3-.2.2 0 .3.1.3.3 0 .2-.1.3-.3.3-.2 0-.3-.1-.3-.2l-.5.1v.9h.5c0-.1.2-.2.3-.2.2 0 .3.1.3.3s-.2.3-.4.3c-.1 0-.3-.1-.3-.3H.8v.9l.5.1c0-.1.2-.2.3-.2.2 0 .3.1.3.3 0 .2-.1.3-.3.3-.2 0-.4-.1-.4-.2H.7v.9h.5c0-.1.2-.2.3-.2.2 0 .3.1.3.3s-.1.3-.3.3c-.2 0-.3-.1-.3-.2H.8v.8l.5.1c0-.1.2-.2.3-.2.2 0 .3.1.3.3 0 .2-.1.3-.3.3-.2 0-.4-.1-.4-.3H.8v1h.5c0-.1.2-.2.3-.2.2 0 .3.1.3.3 0 .2-.1.3-.3.3-.2 0-.3-.1-.3-.2l-.5.1v.9h.5c0-.1.2-.2.3-.2.2 0 .3.1.3.3s-.1.3-.3.3c-.2 0-.3-.1-.3-.2H.8v.9l.5.1c0-.1.2-.2.3-.2.2 0 .3.1.3.3 0 .2-.1.3-.3.3-.2 0-.3-.1-.3-.2H.8l-.1.9.5.1c0-.1.2-.2.3-.2.2 0 .3.1.3.3s-.1.3-.3.3c-.2 0-.3-.1-.3-.2H.8v.9h.4c0-.1.2-.2.3-.2.2 0 .3.1.3.3 0 .2-.1.3-.3.3-.2 0-.3-.1-.3-.2H.8v.9l.5.1c0-.1.2-.2.3-.2.2 0 .3.1.3.3 0 .2-.1.3-.3.3-.2 0-.3-.1-.3-.2H.8l.1.9h.4c0-.1.2-.2.3-.2.2 0 .3.1.3.3s-.2-.1-.4-.1-.3-.1-.3-.2l-.5.1v.9h.5c0-.1.2-.2.3-.2.2 0 .3.1.3.3 0 .2-.1.3-.3.3-.2 0-.3-.1-.3-.2l-.5.1v.8h.9l5.4-.1 5.6-.1c.5 0 .9-.4.9-.9V1.3c.1-.5-.3-.9-.8-.9z"/><path opacity=".71" fill="#B5B3AD" d="M12.7.4H.9l-.1.7h.5c0-.1.2-.2.3-.2.2 0 .3.1.3.3s-.2.3-.3.3c-.2 0-.3-.1-.3-.2H.9l-.1.9.5-.1s.1-.1.3-.1c.2 0 .3.1.3.3 0 .2-.1.3-.3.3-.2 0-.3-.1-.3-.2H.8v.9l.5.1c0-.1.2-.2.3-.2.2 0 .3.1.3.3s-.2.2-.3.2c-.2 0-.3-.1-.3-.2l-.5-.1v1h.5c0-.1.2-.2.3-.2.2 0 .3.1.3.3s-.2.3-.3.3c-.2 0-.3-.1-.3-.2l-.5.1v.9h.5c0-.1.2-.2.3-.2.2 0 .3.1.3.3 0 .2-.1.3-.3.3-.2 0-.3-.1-.3-.2H.8v.9l.5.1c0-.1.2-.2.3-.2.2 0 .3.1.3.3s-.2.1-.3.1c-.2 0-.3 0-.3-.2H.8v.9h.5c0-.1.2-.2.3-.2.2 0 .3.1.3.3 0 .2-.1.3-.3.3-.2 0-.3-.1-.3-.2H.8v.8l.5.1c0-.1.2-.2.3-.2.2 0 .3.1.3.3 0 .2-.1.3-.3.3-.2 0-.3-.1-.3-.2H.8v1h.5c0-.1.2-.2.3-.2.2 0 .3.1.3.3 0 .2-.1.3-.3.3-.2 0-.3-.1-.3-.2l-.5.1v.7h.5c0-.1.2-.2.3-.2.2 0 .3.1.3.3 0 .2-.1.3-.3.3-.2 0-.3-.1-.3-.2H.8v.9l.5.1c0-.1.2-.2.3-.2.2 0 .3.1.3.3 0 .2-.1.3-.3.3-.2 0-.3-.1-.3-.2H.9l-.1.9.5.1c0-.1.2-.2.3-.2.2 0 .3.1.3.3 0 .2-.1.3-.3.3-.2 0-.3-.1-.3-.2H.9v.9h.4c0-.1.2-.2.3-.2.2 0 .3.1.3.3 0 .2-.1.3-.3.3-.2 0-.3-.1-.3-.2H.8v.9l.5.1c0-.1.2-.2.3-.2.2 0 .3.1.3.3 0 .2-.1.3-.3.3-.2 0-.3-.1-.3-.2H.8l.1.9h.4c0-.1.2-.2.3-.2.2 0 .3.1.3.3 0 .2-.1.3-.3.3-.2 0-.3-.1-.3-.2l-.5.1v.9h.5c0-.1.2-.2.3-.2.2 0 .3.1.3.3 0 .2-.1.3-.3.3-.2 0-.3-.1-.3-.2l-.5.1v.8h.9l5.5-.1 5.6-.1c.5 0 .9-.4.9-.9V1.2c-.1-.5-.4-.8-1-.8z"/><path opacity=".742" fill="#B2B0AA" d="M12.8.3H.9l-.1.8h.5c0-.1.2-.2.3-.2.2 0 .3.1.3.3s-.1.3-.3.3c-.2 0-.3-.1-.3-.2H.9l-.1.9.5-.1c0-.1.2-.2.3-.2.2 0 .3.1.3.3 0 .2-.1.3-.3.3-.2 0-.3-.1-.3-.2H.8v.9l.5.1c0-.1.2-.2.3-.2.2 0 .3.1.3.3s-.1.3-.3.3c-.2 0-.3-.1-.3-.2l-.5-.1v1h.5c0-.1.2-.2.3-.2.2 0 .3.1.3.3s-.1.3-.3.3c-.2 0-.3-.1-.3-.2H.8v.9h.5c0-.1.2-.2.3-.2.2 0 .3.1.3.3 0 .2-.1.3-.3.3-.2 0-.3-.1-.3-.2H.8v.9l.5.1c0-.1.2-.2.3-.2.2 0 .3.1.3.3s-.1.2-.3.2c-.2 0-.3-.1-.3-.2H.8v.9h.5c0-.1.2-.2.3-.2.2 0 .3.1.3.3 0 .2-.1.3-.3.3-.2 0-.3-.1-.3-.2H.8v.8l.5.1c0-.1.2-.2.3-.2.2 0 .3.1.3.3 0 .2-.1.3-.3.3-.2 0-.3-.1-.3-.2H.8v1h.5c0-.1.2-.2.3-.2.2 0 .3.1.3.3 0 .2-.1.3-.3.3-.2 0-.3-.1-.3-.2l-.5.1v.7h.5c0-.1.2-.2.3-.2.2 0 .3.1.3.3 0 .2-.1.3-.3.3-.2 0-.3-.1-.3-.2H.8v.8l.5.1c0-.1.2-.2.3-.2.2 0 .3.1.3.3 0 .2-.1.3-.3.3-.2 0-.3-.1-.3-.2H.9l-.1.9.5.1c0-.1.2-.2.3-.2.2 0 .3.1.3.3 0 .2-.1.3-.3.3-.2 0-.3-.1-.3-.2H.9v.9h.4c0-.1.2-.2.3-.2.2 0 .3.1.3.3 0 .2-.1.3-.3.3-.2 0-.3-.1-.3-.2H.8v.9l.5.1c0-.1.2-.2.3-.2.2 0 .3.1.3.3 0 .2-.1.3-.3.3-.2 0-.3-.1-.3-.2H.8l.1.9h.4c0-.1.2-.2.3-.2.2 0 .3.1.3.3 0 .2-.1.3-.3.3-.2 0-.3-.1-.3-.2l-.5.1v.9h.5c0-.1.2-.2.3-.2.2 0 .3.1.3.3 0 .2-.1.3-.3.3-.2 0-.3-.1-.3-.2l-.5.1v.8h.9l5.5-.1 5.6-.1c.5 0 .9-.4.9-.9V1.2c0-.5-.4-.9-.9-.9z"/><path opacity=".774" fill="#AFADA7" d="M12.8.3H.9v.8h.5c0-.1.2-.2.3-.2.1-.1.3.1.3.2s-.2.4-.4.4-.3-.1-.3-.2H.9v.9l.5-.1c0-.1.2-.2.3-.2.1 0 .3.2.3.3 0 .2-.1.3-.3.3-.2 0-.3-.1-.3-.2H.9v.9l.5.1c0-.2.1-.3.2-.3.2 0 .4.2.4.3s-.2.4-.4.4-.3-.1-.3-.2l-.4-.2v1h.5c0-.1.2-.2.3-.2.1 0 .3.2.3.3s-.2.4-.4.4-.3-.1-.3-.2H.9v.9h.5c0-.1.2-.2.3-.2.1-.1.3.1.3.2 0 .2-.1.3-.3.3-.2 0-.3-.1-.3-.2H.9v.9l.5.1c0-.1.2-.2.3-.2.1-.1.3.1.3.2s-.2.4-.4.4c-.1 0-.2-.1-.3-.2H.8v.9h.5c0-.1.2-.2.3-.2.2-.1.4.1.4.2 0 .2-.1.3-.3.3-.2.1-.3 0-.4-.2l-.4.1v.8l.5.1c0-.1.2-.2.3-.2.1-.1.3.1.3.2 0 .2-.2.4-.4.4s-.3-.1-.3-.2H.9v1h.5c0-.1.2-.2.3-.2.1-.2.3 0 .3.2s-.1.3-.3.3c-.2 0-.3-.1-.3-.2l-.5.1v.8h.5c0-.1.2-.2.3-.2.2 0 .3.1.3.3 0 .2-.1.3-.3.3-.2 0-.3-.1-.3-.2H.9v.8l.5.1c0-.1.2-.2.3-.2.1-.1.3.1.3.3 0 .2-.1.3-.3.3-.2 0-.3-.1-.3-.2H.9l-.1.9.5.1c0-.1.2-.2.3-.2.2 0 .3.1.3.3 0 .2-.1.3-.3.3-.2 0-.3-.1-.3-.2H.9v.9h.4c0-.1.2-.2.3-.2.2-.2.4 0 .4.2s-.1.3-.3.3c-.2 0-.3-.1-.3-.2H.9v.9l.5.1c0-.1.2-.2.3-.2.2 0 .3.1.3.3 0 .2-.1.3-.3.3-.2 0-.3-.1-.3-.2H.9l.1.9h.4c0-.1.2-.2.3-.2.2 0 .3.1.3.3 0 .2-.1.3-.3.3-.2 0-.3-.1-.3-.2l-.5.1v.9h.5c0-.1.2-.2.3-.2.2 0 .3.1.3.3 0-.1-.2.1-.4.1s-.3-.1-.3-.2l-.5.1v.8h.9l5.5-.1 5.6-.1c.5 0 .9-.4.9-.9V1.2c0-.5-.4-.9-.9-.9z"/><path opacity=".806" fill="#ADABA4" d="M12.8.3H1L.9 1h.5c0-.1.2-.2.3-.2.1 0 .3.1.3.3s-.2.3-.3.3c-.2 0-.3-.1-.3-.2H1l-.1.9.5-.1c0-.1.2-.2.3-.2.1.1.3.2.3.4s-.1.3-.3.3c-.2 0-.3-.1-.3-.2H.9v.9l.5.1c0-.2.1-.3.3-.3.1 0 .3.1.3.3s-.2.3-.3.3c-.2 0-.3-.1-.3-.2l-.5-.1v1h.5c0-.1.2-.2.3-.2.1 0 .3.1.3.3s-.2.3-.3.3c-.2 0-.3-.1-.3-.2l-.5.1v.9h.5c0-.1.2-.2.3-.2.1-.1.3 0 .3.2s-.1.3-.3.3c-.2 0-.3-.1-.3-.2H.9v.9l.5.1c0-.1.2-.2.3-.2.1-.1.3 0 .3.2s-.2.3-.3.3c-.2 0-.3-.1-.3-.2H.9v.9h.5c0-.1.2-.2.3-.2.1 0 .3.1.3.3 0 .2-.2.3-.3.3-.2 0-.3-.1-.3-.2H.9v.8l.5.1c0-.1.2-.2.3-.2.1 0 .3.1.3.3 0 .2-.2.3-.3.3-.2 0-.3-.1-.3-.2H.9v1h.5c0-.1.2-.2.3-.2.1-.1.3 0 .3.2s-.1.3-.3.3c-.2 0-.3-.1-.3-.2l-.5.1v.9h.5c0-.1.2-.2.3-.2.1-.1.3 0 .3.2s-.1.3-.3.3c-.2 0-.3-.1-.3-.2H.9v.9h.5c0-.1.2-.2.3-.2.2 0 .3.1.3.3 0 .2-.1.3-.3.3-.2 0-.3-.1-.3-.2H1l-.1.9.5.1c0-.1.2-.2.3-.2.1-.1.3 0 .3.2s-.1.3-.3.3c-.2 0-.3-.1-.3-.2H1v.9h.4c0-.1.2-.2.3-.2.1 0 .3.1.3.3 0 .2-.1.3-.3.3-.2 0-.3-.1-.3-.2H.9v.9l.5.1c0-.1.2-.2.3-.2.2 0 .3.1.3.3 0 .2-.1.3-.3.3-.2 0-.3-.1-.3-.2H.9l.1.9h.4c0-.1.2-.2.3-.2.2 0 .3.1.3.3 0 .2-.1.3-.3.3-.2 0-.3-.1-.3-.2l-.5.1v.9h.5c0-.1.2-.2.3-.2.2 0 .3.1.3.3 0 0-.2.2-.3.2-.2 0-.3-.1-.3-.2l-.5.1v.8h6.4l5.5-.1c.5 0 .9-.4.9-.9V1.1c0-.5-.3-.8-.9-.8z"/><path opacity=".839" fill="#A8A8A1" d="M12.9.2H1L.9 1h.5c0-.1.2-.2.3-.2.2-.1.3.1.3.3 0 .2-.1.3-.3.3-.2 0-.3-.1-.3-.2H1l-.1.9.5-.1c0-.1.2-.2.3-.2.2 0 .3.2.3.4s-.1.3-.3.3c-.2 0-.3-.1-.3-.2H.9v.9l.5.1c0-.1.2-.2.3-.2.2-.2.3 0 .3.2s-.1.3-.3.3c-.2 0-.3-.1-.3-.2l-.5-.1v1h.5c0-.1.2-.3.3-.3.2 0 .3.2.3.4s-.1.3-.3.3c-.2 0-.3-.1-.3-.2H.9v.9h.5c0-.1.2-.2.3-.2.2 0 .3.1.3.3s-.1.3-.3.3c-.2 0-.3-.1-.3-.2H.9v.9l.5.1c0-.1.2-.2.3-.2.2-.1.3 0 .3.2s-.1.3-.3.3c-.2 0-.3-.1-.3-.2H.9v.9h.5c0-.1.2-.2.3-.2.2 0 .3.1.3.3s-.1.3-.3.3c-.1 0-.3-.1-.3-.2H.9v.8l.5.1c0-.1.2-.2.3-.2.2 0 .3.1.3.3 0 .2-.1.3-.3.3-.1 0-.3-.1-.3-.2H.9v1h.5c0-.1.2-.2.3-.2.2-.1.3 0 .3.2s-.1.3-.3.3c-.2 0-.3-.1-.3-.2H.9v.9h.5c0-.1.2-.2.3-.2.2 0 .3.1.3.3s-.1.3-.3.3c-.2 0-.3-.1-.3-.2H.9v.9h.5c0-.1.2-.2.3-.2.2 0 .3.1.3.3 0 .2-.1.3-.3.3-.2 0-.3-.1-.3-.2H1l-.1.8.5.1c0-.1.2-.2.3-.2.2 0 .3.1.3.3s-.1.3-.3.3c-.2 0-.3-.1-.3-.2H1v.9h.4c0-.1.2-.2.3-.2.2 0 .3.1.3.3 0 .2-.1.3-.3.3-.2 0-.3-.1-.3-.2H.9v.9l.5.1c0-.1.2-.2.3-.2.2 0 .3.1.3.3 0 .2-.1.3-.3.3-.2 0-.3-.1-.3-.2H.9l.1.8h.4c0-.1.2-.2.3-.2.2 0 .3.1.3.3s-.1.3-.3.3c-.2 0-.3-.1-.3-.2l-.5.1v.9h.5c0-.1.2-.2.3-.2.2 0 .3.1.3.3 0 .2-.1.3-.3.3-.2 0-.3-.1-.3-.2l-.5.1v.8h6.4l5.5-.1c.5 0 .9-.4.9-.9V1.1c.1-.5-.3-.9-.8-.9z"/><path opacity=".871" fill="#A6A59E" d="M12.9.2H1.1L1 .9h.5c0-.1.2-.2.3-.2.2 0 .3.1.3.3 0 .2-.1.3-.3.3-.2 0-.3-.1-.3-.2H1v1l.4-.1c0-.1.2-.2.3-.2.2 0 .3.1.3.3 0 .2-.1.3-.3.3-.2 0-.3-.1-.3-.2H1v.9l.5.1c0-.1.2-.2.3-.2.2 0 .3.1.3.3 0 .2-.1.3-.3.3-.2 0-.3-.1-.3-.2L1 3.2v1h.5c0-.1.1-.2.2-.2.2 0 .3.1.3.3 0 .2-.1.3-.3.3-.2 0-.3-.1-.3-.2l-.4.1v.9h.5c0-.1.2-.2.3-.2.2 0 .3.1.3.3s-.2.3-.4.3-.3-.1-.3-.2H1v.9l.5.1c0-.1.2-.2.3-.2.2 0 .3.1.3.3 0 .2-.1.3-.3.3-.2 0-.3-.1-.3-.2L1 6.6v.9h.5c0-.1.2-.2.3-.2.2 0 .3.1.3.3s-.2.4-.4.4c-.1 0-.2-.1-.3-.3l-.4.1v.8l.5.1c0-.1.2-.2.3-.2.2 0 .3.1.3.3 0 .2-.1.3-.3.3-.2 0-.3-.1-.4-.3H1v1h.5c0-.1.2-.2.3-.2.2 0 .3.1.3.3 0 .2-.1.3-.3.3-.2 0-.3-.1-.3-.2H1v.9h.5c0-.1.2-.2.3-.2.2 0 .3.1.3.3s-.1.3-.3.3c-.2 0-.3-.1-.3-.2H1v.9h.4c0-.1.2-.2.3-.2.2 0 .3.1.3.3 0 .2-.1.3-.3.3-.2 0-.3-.1-.3-.2h-.3L1 13l.5.1c0-.1.2-.2.3-.2.2 0 .3.1.3.3s-.1.3-.3.3c-.2 0-.3-.1-.3-.2H1v.9h.4c0-.1.2-.2.3-.2.2 0 .3.1.3.3 0 .2-.1.3-.3.3-.2 0-.3-.1-.3-.2H1v.9l.5.1c0-.1.2-.2.3-.2.2 0 .3.1.3.3 0 .2-.1.3-.3.3-.2 0-.3-.1-.3-.2H1l.1.9h.4c0-.1.2-.2.3-.2.2 0 .3.1.3.3s-.1.3-.3.3c-.2 0-.3-.1-.3-.2l-.5-.1v.9h.5c0-.1.2-.2.3-.2.2 0 .3.1.3.3 0 .2-.1.3-.3.3-.2 0-.3-.1-.3-.2H1v.8h6.4l5.5-.1c.5 0 .9-.4.9-.9V1.1c0-.5-.4-.9-.9-.9z"/><path opacity=".903" fill="#A4A39B" d="M13 .2H1.1L1 .9h.5c0-.1.2-.2.3-.2.2 0 .3.1.3.3s-.1.3-.3.3c-.2 0-.3-.1-.3-.2h-.4L1 2l.5-.1c0-.1.2-.2.3-.2.2 0 .3.1.3.3 0 .2-.1.3-.3.3-.2 0-.3-.1-.3-.2H1V3l.5.1c0-.1.2-.2.3-.2.2 0 .3.1.3.3s-.1.3-.3.3c-.2 0-.3-.1-.3-.2L1 3.2v1h.5c0-.1.1-.2.3-.2.2 0 .3.1.3.3s-.1.3-.3.3c-.2 0-.3-.1-.3-.2l-.5.1v.9h.5c0-.1.2-.2.3-.2.2 0 .3.1.3.3 0 .2-.1.3-.3.3-.2 0-.3-.1-.3-.2H1v.9l.5.1c0-.1.2-.2.3-.2.2 0 .3.1.3.3s-.1.1-.3.1c-.2 0-.3-.1-.3-.2H1v.9h.5c0-.1.2-.2.3-.2.2 0 .3.1.3.3 0 .2-.1.3-.3.3-.2 0-.3-.1-.3-.2H1v.8l.5.1c0-.1.2-.2.3-.2.2 0 .3.1.3.3 0 .2-.1.3-.3.3-.2 0-.3-.1-.3-.2H1v1h.5c0-.1.2-.2.3-.2.2 0 .3.1.3.3 0 .2-.1.3-.3.3-.2 0-.3-.1-.3-.2H1v.9h.5c0-.1.2-.2.3-.2.2 0 .3.1.3.3 0 .2-.1.3-.3.3-.2 0-.3-.1-.3-.2H1v.9l.5.1c0-.1.2-.2.3-.2.2 0 .3.1.3.3 0 .2-.1.3-.3.3-.2 0-.3-.1-.3-.2h-.4L1 13h.5c0-.1.2-.2.3-.2.2 0 .3.1.3.3 0 .2-.1.3-.3.3-.2 0-.3-.1-.3-.2h-.4v.9h.4c0-.1.2-.2.3-.2.2 0 .3.1.3.3 0 .2-.1.3-.3.3-.2 0-.3-.1-.3-.2H1v.9l.5.1c0-.1.2-.2.3-.2.2 0 .3.1.3.3 0 .2-.1.3-.3.3-.2 0-.3-.1-.3-.2H1l.1.9h.4c0-.1.2-.2.3-.2.2 0 .3.1.3.3 0 .2-.1.3-.3.3-.2 0-.3-.1-.3-.2H1v.9h.5c0-.1.2-.2.3-.2.2 0 .3.1.3.3 0 .2-.1.3-.3.3-.2 0-.3-.1-.3-.2H1v.8h11.9c.5 0 .9-.4.9-.9V1c0-.5-.3-.8-.8-.8z"/><path opacity=".935" fill="#A0A098" d="M13 .1H1.1L1 .9h.5c0-.1.2-.2.3-.2.2-.1.3.1.3.3s-.1.3-.3.3c-.1 0-.3-.1-.3-.3h-.4L1 2l.5-.1c0-.1.2-.2.3-.2.2 0 .3.1.3.3 0 .2-.1.3-.3.3-.2 0-.3-.1-.3-.2H1V3l.5.1c0-.1.2-.2.3-.2.2-.1.3.1.3.3s-.1.3-.3.3c-.2 0-.3-.1-.3-.2L1 3.2v1h.5c0-.1.2-.2.3-.2.2 0 .3.1.3.3s-.1.3-.3.3c-.2 0-.3-.1-.3-.2H1v.9h.5c0-.1.2-.3.3-.3.2 0 .3.2.3.4s-.1.3-.3.3c-.2 0-.3-.1-.3-.2H1v.9l.5.1c0-.1.2-.2.3-.2.2 0 .3.1.3.3s-.1.2-.3.2c-.2 0-.3-.1-.3-.2L1 6.5v.9h.5c0-.1.2-.2.3-.2.2 0 .3.1.3.3 0 .2-.1.3-.3.3-.2 0-.3-.1-.3-.2l-.5.1v.8l.5.1c0-.1.2-.2.3-.2.2 0 .3.1.3.3 0 .2-.1.3-.3.3-.1 0-.3-.1-.3-.2H1v1h.5c0-.1.2-.2.3-.2.2 0 .3.1.3.3 0 .2-.1.3-.3.3-.2 0-.3-.1-.3-.2L1 9.9v.9h.5c0-.1.2-.2.3-.2.2 0 .3.1.3.3 0 .2-.1.3-.3.3-.2 0-.3-.1-.3-.2H1v.9l.5.1c0-.1.2-.2.3-.2.2 0 .3.1.3.3 0 .2-.1.3-.3.3-.2 0-.3-.1-.3-.2h-.4l-.1.7.5.1c0-.1.2-.2.3-.2.2 0 .3.1.3.3 0 .2-.1.3-.3.3-.2 0-.3-.1-.3-.2h-.4v.9h.4c0-.1.2-.2.3-.2.2 0 .3.1.3.3 0 .2-.1.3-.3.3-.2 0-.3-.1-.3-.2H1v.9l.5.1c0-.1.2-.2.3-.2.2 0 .3.1.3.3 0 .2-.1.3-.3.3-.2 0-.3-.1-.3-.2H1l.1.9h.4c0-.1.2-.2.3-.2.2 0 .3.1.3.3 0 .2-.1.3-.3.3-.2 0-.3-.1-.3-.2H1v.9h.5c0-.1.2-.2.3-.2.2 0 .3.1.3.3 0 .2-.1.3-.3.3-.2 0-.3-.1-.3-.2l-.5-.1v.8h12c.5 0 .9-.4.9-.9V1c0-.5-.4-.9-.9-.9z"/><path opacity=".968" fill="#9E9D96" d="M13 .1H1.2l-.1.7h.5c0-.1.2-.2.3-.2.2 0 .3.1.3.3s-.2.3-.4.3c-.1 0-.2-.1-.3-.2h-.4v.9l.5-.1c0-.1.2-.2.3-.2.1.1.3.2.3.4s-.1.3-.3.3c-.2 0-.3-.1-.3-.2h-.5V3l.5.1c0-.1.2-.2.3-.2.1-.1.3.1.3.2s-.2.3-.4.3-.3-.1-.3-.2l-.4-.1v1h.5c0-.1.2-.2.3-.2.2 0 .3.1.3.3s-.2.4-.4.4-.3-.1-.3-.2h-.4v.9h.5c0-.2.1-.3.2-.3.2 0 .4.2.4.3 0 .2-.1.3-.3.3-.2 0-.3-.1-.3-.2h-.5v.9l.5.1c0-.1.2-.2.3-.2.2 0 .3.1.3.3s-.2.3-.4.3-.3-.1-.3-.2H1v.9h.5c0-.1.2-.2.3-.2.2 0 .3.1.3.3 0 .2-.1.3-.3.3-.2 0-.3-.1-.3-.2h-.4v.8l.5.1c0-.1.2-.2.3-.2.2 0 .3.1.3.3 0 .1-.2.3-.4.3-.1 0-.2-.1-.3-.3h-.4v1h.5c0-.1.2-.2.3-.2.2 0 .3.1.3.3 0 .2-.1.3-.3.3-.2 0-.3-.1-.3-.2h-.5v.9h.5c0-.1.2-.2.3-.2.2 0 .3.1.3.3 0 .2-.1.3-.3.3-.2 0-.3-.1-.3-.2h-.5v.9l.5.1c0-.1.2-.2.3-.2.2 0 .3.1.3.3 0 .2-.1.3-.3.3-.2 0-.3-.1-.3-.2h-.4l-.1.9.4-.1c0-.1.2-.2.3-.2.2 0 .3.1.3.3 0 .2-.1.3-.3.3-.2 0-.3-.1-.3-.2h-.4v.9h.4c0-.1.2-.2.3-.2.2 0 .3.1.3.3 0 .2-.1.3-.3.3-.2 0-.3-.1-.3-.2h-.4v.9l.5.1c0-.1.2-.2.3-.2.2 0 .3.1.3.3 0 .2-.1.3-.3.3-.2 0-.3-.1-.3-.2h-.5l.1.9h.4c0-.1.2-.2.3-.2.2 0 .3.1.3.3 0 .2-.1.3-.3.3-.2 0-.3-.1-.3-.2l-.5.1v.9h.5c0-.1.2-.2.3-.2.2 0 .3.1.3.3 0 .2-.1.3-.3.3-.2 0-.3-.1-.3-.2l-.5.1v.8H13c.5 0 .9-.4.9-.9V1c0-.5-.4-.9-.9-.9z"/><path fill="#9B9B93" d="M13.1.1H1.2l-.1.7h.5c0-.1.2-.2.3-.2.2 0 .3.1.3.3s-.1.3-.3.3c-.2 0-.3-.1-.3-.2h-.4l-.1.9.5-.1c0-.1.2-.2.3-.2.2 0 .3.1.3.3 0 .2-.1.3-.3.3-.2 0-.3-.1-.3-.2h-.5v1h.5c0-.1.2-.2.3-.2.2 0 .3.1.3.3s-.1.3-.3.3c-.2 0-.3-.1-.3-.2l-.5-.1v1h.5c0-.1.2-.2.3-.2.2 0 .3.1.3.3s-.1.3-.3.3c-.2 0-.3-.1-.3-.2l-.5.1v.9h.5c0-.2.1-.3.3-.3.2 0 .3.1.3.3 0 .2-.1.3-.3.3-.2 0-.3-.1-.3-.2h-.5v.9l.5.1c0-.1.2-.2.3-.2.2 0 .3.1.3.3s-.1.2-.3.2c-.2 0-.3-.1-.3-.2h-.5v.9h.5c0-.1.2-.2.3-.2.2 0 .3.1.3.3 0 .2-.1.3-.3.3-.2 0-.3-.1-.3-.2h-.5v.8l.5.1c0-.1.2-.2.3-.2.2 0 .3.1.3.3 0 .2-.1.3-.3.3-.2 0-.3-.1-.3-.2h-.5v1h.5c0-.1.2-.2.3-.2.2 0 .3.1.3.3 0 .2-.1.3-.3.3-.2 0-.3-.1-.3-.2h-.5v.9h.5c0-.1.2-.2.3-.2.2 0 .3.1.3.3 0 .2-.1.3-.3.3-.2 0-.3-.1-.3-.2h-.5v.9l.5.1c0-.1.2-.2.3-.2.2 0 .3.1.3.3 0 .2-.1.3-.3.3-.2 0-.3-.1-.3-.2h-.4l-.1.9.5.1c0-.1.2-.2.3-.2.2 0 .3.1.3.3 0 .2-.1.3-.3.3-.2 0-.3-.1-.3-.2h-.4v.9h.4c0-.1.2-.2.3-.2.2 0 .3.1.3.3 0 .2-.1.3-.3.3-.2 0-.3-.1-.3-.2h-.5v.9l.5.1c0-.1.2-.2.3-.2.2 0 .3.1.3.3 0 .2-.1.3-.3.3-.2 0-.3-.1-.3-.2h-.5l.1.9h.4c0-.1.2-.2.3-.2.2 0 .3.1.3.3 0 .2-.1.3-.3.3-.2 0-.3-.1-.3-.2l-.5.1v.9h.5c0-.1.2-.2.3-.2.2 0 .3.1.3.3 0 .2-.1.3-.3.3-.2 0-.3-.1-.3-.2l-.5.1v.8H13c.5 0 .9-.4.9-.9V.9c0-.5-.3-.8-.8-.8z"/><linearGradient id="a" gradientUnits="userSpaceOnUse" x1="-.358" y1="16.839" x2="14.965" y2="1.515"><stop offset=".254" style="stop-color:#f2f3f1"/><stop offset="1" style="stop-color:#eaebeb"/></linearGradient><path fill="url(#a)" d="M13.1 0H1.2l-.1.8h.5c0-.1.2-.2.3-.2.2 0 .3.1.3.3s-.1.3-.3.3c-.2 0-.3-.1-.3-.2h-.4l-.1.9.5-.1c0-.1.2-.2.3-.2.2 0 .3.1.3.3 0 .2-.1.3-.3.3-.2 0-.3-.1-.3-.2h-.5v1h.5c0-.1.2-.2.3-.2.2 0 .3.1.3.3s-.1.3-.3.3c-.2 0-.3-.1-.3-.2l-.5-.1v1h.5c0-.1.2-.2.3-.2.2 0 .3.1.3.3s-.1.3-.3.3c-.2 0-.3-.1-.3-.2l-.5.1v.9h.5c0-.2.1-.3.3-.3.2 0 .3.1.3.3 0 .2-.1.3-.3.3-.2 0-.3-.1-.3-.2h-.5v.9l.5.1c0-.1.2-.2.3-.2.2 0 .3.1.3.3s-.1.2-.3.2c-.2 0-.3-.1-.3-.2h-.5v.9h.5c0-.1.2-.2.3-.2.2 0 .3.1.3.3 0 .2-.1.3-.3.3-.2 0-.3-.1-.3-.2h-.5v.8l.5.1c0-.1.2-.2.3-.2.2 0 .3.1.3.3 0 .2-.1.3-.3.3-.2 0-.3-.1-.3-.2h-.5v1h.5c0-.1.2-.2.3-.2.2 0 .3.1.3.3 0 .2-.1.3-.3.3-.2 0-.3-.1-.3-.2h-.5v.9h.5c0-.1.2-.2.3-.2.2 0 .3.1.3.3 0 .2-.1.3-.3.3-.2 0-.3-.1-.3-.2h-.5v.9l.5.1c0-.1.2-.2.3-.2.2 0 .3.1.3.3 0 .2-.1.3-.3.3-.2 0-.3-.1-.3-.2h-.4l-.1.9.5.1c0-.1.2-.2.3-.2.2 0 .3.1.3.3 0 .2-.1.3-.3.3-.2 0-.3-.1-.3-.2h-.4v.9h.4c0-.1.2-.2.3-.2.2 0 .3.1.3.3 0 .2-.1.3-.3.3-.2 0-.3-.1-.3-.2h-.5v.9l.5.1c0-.1.2-.2.3-.2.2 0 .3.1.3.3 0 .2-.1.3-.3.3-.2 0-.3-.1-.3-.2h-.5l.1.9h.4c0-.1.2-.2.3-.2.2 0 .3.1.3.3 0 .2-.1.3-.3.3-.2 0-.3-.1-.3-.2l-.5.1v.9h.5c0-.1.2-.2.3-.2.2 0 .3.1.3.3 0 .2-.1.3-.3.3-.2 0-.3-.1-.3-.2l-.5.1v.8H13c.5 0 .9-.4.9-.9V.9c.1-.5-.3-.9-.8-.9z"/></svg>