<svg xmlns="http://www.w3.org/2000/svg" width="548.6" height="1263.5" xml:space="preserve"><path opacity=".5" fill="#422E20" d="m30 1237.9 1.2-124 495.5-16.9s.4 118.6.7 127.4l.3 11.5c-31 8.8-49.2 15.6-79.5 16.3-2.3-6-2.9-10.4-5.4-16.2-13 8.7-32.1 14.7-48.7 12.9-2.9 5.9-5.7 10.1-8.5 14.6-.3-13.4-59.5-8.2-83.3-38.2-3.2-.8-9.9 17.9-14.6 17.9-3.6-23.2-62.9-21.2-66.7-12.7-2.7-6.1-67.6 24.5-68.8 16.6-3.9 6.4-9.3-18.5-12.3-10.9-4.3 2.5-5.2-6.9-8.1-4.3-8.8 10.6-10.2 9.7-22.8 9.6-17.2-29.2-26.1-6-31.1 17.9-1.7 0-3.4 0-5.1.1-.9-9-9.8-9-12.3.2-17.9.5-30.5-21.8-30.5-21.8z"/><path fill="#FBCEC5" d="M1 1231.1c2.3 2.4 4.3 5.8 5.6 10.8h55.3c2.9-9.2 6.6-18.1 11.5-26.4-.3 8.2.6 17.4 1.3 26.4H80c5.8-23.8 15.6-46.9 32.7-17.6 13 .1 14.5 1.1 23.9-9.6 3.1-2.7 3.7 6.8 8.2 4.3 3.3-7.6 9-13.7 13.3-20.2 1 7.9 4.7 17.3 5.5 21.5 1.3-5.5 5.1-13.3 8.7-21.3 24.9 9.1 61.5 6.6 75.7-9h4.6c5.1 24.1 35.7-8.2 38.7 13.3 4.9-.3 19.2-.7 22.4 0-11-13.2 48.1 11.5 42.1 23.7 2.8 3.8 38 9.6 41.7-17.9-1 12.9 2 13.3 2 26.7 3-4.7 6.1-9.1 9.3-15.3 17.4.4 37.4-7.4 51.2-17.4 2.5 5.6 3 9.9 5.3 15.7 24-2.9 40.8-8.7 61.8-16.8 6.7-2.6 13.9-5.4 21.8-8.5V1182c-3.6-.9-7-3-9.4-7.6-.1.1-.1.2-.2.2V966H0l1 265.1zm374.8-41.1h6.4c-2.4.7-4.5.6-6.4 0z"/><path fill="#E69A91" d="M548.6 0v1188c-3.6-.9-7-3-9.4-7.6-4.5 6.1-8.6 5.5-13 6.9-1 .3-2.1.7-3.1 1.4-.8-2.6-.1-4.9-.7-7.6-9.4 2.4-17.5-.6-21.4-11.3-9.8 3.4-38.8 17.5-48.8 13.9-3-1.1-10.1 7.3-13 3.6-6.4-8.5-15.9 7.7-22.1-1-11 12.8-16.8-.1-30.6 7.8-16.4 9.4-21.3-11.6-32.5-23.8.8 3.3 1.2 7 1.8 10-11.4 1.6-22.6 8.5-32.6 14.7-10-5.4-23.4-9.1-23.9-25.2-13.8 6.6-58.5 15.5-58.7-2-9.3 4.1-20.2 10.8-30.3 10.2-2.5-.1-4.4-.9-6-2 .2-1.9.4-3.9.8-6-.4 1.9-1 3.7-1.6 5.4-4.5-3.5-6.7-9.2-14.1-8.7-12.9.9-44.6 8.8-47.1 13.8-9-6.4-23.1-14.5-28.5-.2-23.1.5-41.4 20.4-65.5 6.4 0 0-3.8 4.8-4 4.9-1.1-2.6-3.5-6.3-4.6-7.8-11.9 19.2-24.9 22.8-38.6 21V0h547.5z"/></svg>