<?xml version="1.0" encoding="utf-8"?>
<!-- Generator: Adobe Illustrator 13.0.0, SVG Export Plug-In . SVG Version: 6.00 Build 14948)  -->
<!DOCTYPE svg PUBLIC "-//W3C//DTD SVG 1.1//EN" "http://www.w3.org/Graphics/SVG/1.1/DTD/svg11.dtd">
<svg version="1.1" xmlns="http://www.w3.org/2000/svg" xmlns:xlink="http://www.w3.org/1999/xlink" x="0px" y="0px" width="150px"
	 height="171px" viewBox="0 -0.111 150 171" enable-background="new 0 -0.111 150 171" xml:space="preserve">
<g id="Layer_1" display="none">
	<path display="inline" fill="#404040" d="M24.396,170.079c-0.267,0-0.481-0.218-0.481-0.481V14.402
		c0-0.266,0.215-0.482,0.481-0.482s0.481,0.216,0.481,0.482v155.194C24.877,169.861,24.662,170.079,24.396,170.079z M148.783,92.042
		c0-0.269-0.215-0.481-0.48-0.481H40.25c-0.266,0-0.481,0.215-0.481,0.481s0.216,0.479,0.481,0.479h108.052
		C148.568,92.521,148.783,92.307,148.783,92.042z M148.783,117.872c0-0.267-0.215-0.479-0.48-0.479H40.25
		c-0.266,0-0.481,0.215-0.481,0.479s0.216,0.479,0.481,0.479h108.052C148.568,118.352,148.783,118.137,148.783,117.872z
		 M148.783,143.704c0-0.269-0.215-0.479-0.48-0.479H40.25c-0.266,0-0.481,0.213-0.481,0.479s0.216,0.481,0.481,0.481h108.052
		C148.568,144.186,148.783,143.969,148.783,143.704z"/>
	<path display="inline" fill="#404040" d="M148.227,54.389c0-0.202,0.076-0.385,0.201-0.51c-0.125-0.135-0.201-0.309-0.201-0.511
		c0-0.395,0.318-0.722,0.724-0.722c0.396,0,0.721,0.328,0.721,0.722c0,0.202-0.086,0.375-0.211,0.511
		c0.125,0.125,0.211,0.308,0.211,0.51c0,0.396-0.325,0.723-0.721,0.723C148.545,55.111,148.227,54.784,148.227,54.389z
		 M145.338,54.389c0-0.404,0.316-0.722,0.721-0.722c0.396,0,0.724,0.317,0.724,0.722c0,0.396-0.326,0.723-0.724,0.723
		C145.654,55.111,145.338,54.784,145.338,54.389z M142.449,54.389c0-0.404,0.318-0.722,0.723-0.722c0.395,0,0.721,0.317,0.721,0.722
		c0,0.396-0.326,0.723-0.721,0.723C142.768,55.111,142.449,54.784,142.449,54.389z M139.559,54.389c0-0.404,0.318-0.722,0.724-0.722
		c0.396,0,0.723,0.317,0.723,0.722c0,0.396-0.327,0.723-0.723,0.723C139.877,55.111,139.559,54.784,139.559,54.389z M136.672,54.389
		c0-0.404,0.316-0.722,0.721-0.722c0.396,0,0.724,0.317,0.724,0.722c0,0.396-0.326,0.723-0.724,0.723
		C136.988,55.111,136.672,54.784,136.672,54.389z M133.781,54.389c0-0.404,0.318-0.722,0.723-0.722c0.395,0,0.723,0.317,0.723,0.722
		c0,0.396-0.328,0.723-0.723,0.723C134.1,55.111,133.781,54.784,133.781,54.389z M130.893,54.389c0-0.404,0.318-0.722,0.724-0.722
		c0.396,0,0.723,0.317,0.723,0.722c0,0.396-0.327,0.723-0.723,0.723C131.211,55.111,130.893,54.784,130.893,54.389z M128.004,54.389
		c0-0.404,0.318-0.722,0.723-0.722c0.396,0,0.724,0.317,0.724,0.722c0,0.396-0.328,0.723-0.724,0.723
		C128.322,55.111,128.004,54.784,128.004,54.389z M125.115,54.389c0-0.404,0.318-0.722,0.723-0.722c0.395,0,0.721,0.317,0.721,0.722
		c0,0.396-0.326,0.723-0.721,0.723C125.434,55.111,125.115,54.784,125.115,54.389z M122.227,54.389c0-0.404,0.318-0.722,0.724-0.722
		c0.396,0,0.723,0.317,0.723,0.722c0,0.396-0.327,0.723-0.723,0.723C122.545,55.111,122.227,54.784,122.227,54.389z M119.338,54.389
		c0-0.404,0.316-0.722,0.721-0.722c0.396,0,0.724,0.317,0.724,0.722c0,0.396-0.326,0.723-0.724,0.723
		C119.654,55.111,119.338,54.784,119.338,54.389z M116.449,54.389c0-0.404,0.316-0.722,0.723-0.722c0.395,0,0.721,0.317,0.721,0.722
		c0,0.396-0.326,0.723-0.721,0.723C116.766,55.111,116.449,54.784,116.449,54.389z M113.561,54.389c0-0.404,0.316-0.722,0.722-0.722
		c0.396,0,0.723,0.317,0.723,0.722c0,0.396-0.325,0.723-0.723,0.723C113.877,55.111,113.561,54.784,113.561,54.389z M110.67,54.389
		c0-0.404,0.318-0.722,0.723-0.722c0.396,0,0.724,0.317,0.724,0.722c0,0.396-0.328,0.723-0.724,0.723
		C110.988,55.111,110.67,54.784,110.67,54.389z M110.373,51.789c0-0.404,0.326-0.722,0.73-0.722c0.396,0,0.713,0.318,0.713,0.722
		c0,0.395-0.316,0.722-0.713,0.722C110.699,52.511,110.373,52.184,110.373,51.789z M148.227,50.479c0-0.395,0.318-0.723,0.724-0.723
		c0.396,0,0.721,0.328,0.721,0.723c0,0.405-0.325,0.722-0.721,0.722C148.545,51.202,148.227,50.884,148.227,50.479z M110.373,48.9
		c0-0.405,0.326-0.722,0.73-0.722c0.396,0,0.713,0.317,0.713,0.722c0,0.395-0.316,0.722-0.713,0.722
		C110.699,49.623,110.373,49.295,110.373,48.9z M148.227,47.59c0-0.394,0.318-0.722,0.724-0.722c0.396,0,0.721,0.328,0.721,0.722
		c0,0.405-0.325,0.723-0.721,0.723C148.545,48.313,148.227,47.995,148.227,47.59z M110.373,46.011c0-0.404,0.326-0.722,0.73-0.722
		c0.396,0,0.713,0.317,0.713,0.722c0,0.395-0.316,0.722-0.713,0.722C110.699,46.733,110.373,46.406,110.373,46.011z M148.227,44.702
		c0-0.395,0.318-0.722,0.724-0.722c0.396,0,0.721,0.327,0.721,0.722s-0.325,0.722-0.721,0.722
		C148.545,45.424,148.227,45.096,148.227,44.702z M110.373,43.123c0-0.404,0.326-0.722,0.73-0.722c0.396,0,0.713,0.318,0.713,0.722
		c0,0.395-0.316,0.722-0.713,0.722C110.699,43.845,110.373,43.517,110.373,43.123z M148.227,41.813c0-0.394,0.318-0.722,0.724-0.722
		c0.396,0,0.721,0.328,0.721,0.722c0,0.405-0.325,0.723-0.721,0.723C148.545,42.535,148.227,42.218,148.227,41.813z M110.373,40.233
		c0-0.404,0.326-0.722,0.73-0.722c0.396,0,0.713,0.317,0.713,0.722c0,0.395-0.316,0.723-0.713,0.723
		C110.699,40.956,110.373,40.628,110.373,40.233z M148.227,38.924c0-0.395,0.318-0.722,0.724-0.722c0.396,0,0.721,0.328,0.721,0.722
		c0,0.405-0.325,0.722-0.721,0.722C148.545,39.646,148.227,39.329,148.227,38.924z M110.373,37.345c0-0.404,0.326-0.722,0.73-0.722
		c0.396,0,0.713,0.317,0.713,0.722c0,0.395-0.316,0.722-0.713,0.722C110.699,38.067,110.373,37.739,110.373,37.345z M148.227,36.035
		c0-0.395,0.318-0.723,0.724-0.723c0.396,0,0.721,0.328,0.721,0.723c0,0.405-0.325,0.722-0.721,0.722
		C148.545,36.757,148.227,36.44,148.227,36.035z M110.373,34.456c0-0.405,0.326-0.722,0.73-0.722c0.396,0,0.713,0.317,0.713,0.722
		c0,0.395-0.316,0.722-0.713,0.722C110.699,35.178,110.373,34.851,110.373,34.456z M148.227,33.146c0-0.395,0.318-0.722,0.724-0.722
		c0.396,0,0.721,0.328,0.721,0.722c0,0.395-0.325,0.723-0.721,0.723C148.545,33.869,148.227,33.541,148.227,33.146z M110.373,31.567
		c0-0.404,0.326-0.722,0.73-0.722c0.396,0,0.713,0.317,0.713,0.722c0,0.395-0.316,0.722-0.713,0.722
		C110.699,32.289,110.373,31.962,110.373,31.567z M148.227,30.257c0-0.395,0.318-0.722,0.724-0.722c0.396,0,0.721,0.327,0.721,0.722
		s-0.325,0.722-0.721,0.722C148.545,30.979,148.227,30.652,148.227,30.257z M110.373,28.678c0-0.404,0.326-0.722,0.73-0.722
		c0.396,0,0.713,0.318,0.713,0.722c0,0.395-0.316,0.722-0.713,0.722C110.699,29.4,110.373,29.073,110.373,28.678z M148.227,27.368
		c0-0.395,0.318-0.722,0.724-0.722c0.396,0,0.721,0.328,0.721,0.722c0,0.405-0.325,0.723-0.721,0.723
		C148.545,28.091,148.227,27.773,148.227,27.368z M110.373,25.789c0-0.404,0.326-0.722,0.73-0.722c0.396,0,0.713,0.318,0.713,0.722
		c0,0.395-0.316,0.723-0.713,0.723C110.699,26.512,110.373,26.184,110.373,25.789z M148.227,24.479c0-0.395,0.318-0.722,0.724-0.722
		c0.396,0,0.721,0.328,0.721,0.722c0,0.405-0.325,0.722-0.721,0.722C148.545,25.201,148.227,24.884,148.227,24.479z M110.373,22.9
		c0-0.404,0.326-0.722,0.73-0.722c0.396,0,0.713,0.318,0.713,0.722c0,0.395-0.316,0.722-0.713,0.722
		C110.699,23.623,110.373,23.295,110.373,22.9z M148.227,21.591c0-0.395,0.318-0.723,0.724-0.723c0.396,0,0.721,0.328,0.721,0.723
		c0,0.405-0.325,0.722-0.721,0.722C148.545,22.313,148.227,21.996,148.227,21.591z M110.373,20.012c0-0.405,0.326-0.723,0.73-0.723
		c0.396,0,0.713,0.318,0.713,0.723c0,0.395-0.316,0.722-0.713,0.722C110.699,20.734,110.373,20.406,110.373,20.012z M148.227,18.702
		c0-0.395,0.318-0.722,0.724-0.722c0.396,0,0.721,0.328,0.721,0.722c0,0.395-0.325,0.722-0.721,0.722
		C148.545,19.424,148.227,19.097,148.227,18.702z M110.373,17.123c0-0.404,0.326-0.722,0.73-0.722c0.396,0,0.713,0.318,0.713,0.722
		c0,0.395-0.316,0.723-0.713,0.723C110.699,17.845,110.373,17.518,110.373,17.123z M148.227,15.813c0-0.395,0.318-0.722,0.724-0.722
		c0.396,0,0.721,0.327,0.721,0.722c0,0.405-0.325,0.722-0.721,0.722C148.545,16.535,148.227,16.218,148.227,15.813z M110.373,14.234
		c0-0.404,0.326-0.722,0.73-0.722c0.396,0,0.713,0.318,0.713,0.722c0,0.395-0.316,0.722-0.713,0.722
		C110.699,14.956,110.373,14.628,110.373,14.234z M148.227,12.924c0-0.395,0.318-0.722,0.724-0.722c0.396,0,0.721,0.328,0.721,0.722
		c0,0.405-0.325,0.722-0.721,0.722C148.545,13.646,148.227,13.329,148.227,12.924z M110.373,11.345c0-0.404,0.326-0.722,0.73-0.722
		c0.396,0,0.713,0.318,0.713,0.722c0,0.395-0.316,0.723-0.713,0.723C110.699,12.067,110.373,11.739,110.373,11.345z M148.227,10.035
		c0-0.395,0.318-0.722,0.724-0.722c0.396,0,0.721,0.328,0.721,0.722c0,0.405-0.325,0.722-0.721,0.722
		C148.545,10.757,148.227,10.44,148.227,10.035z M110.373,8.456c0-0.404,0.326-0.722,0.73-0.722c0.396,0,0.713,0.318,0.713,0.722
		c0,0.395-0.316,0.722-0.713,0.722C110.699,9.178,110.373,8.851,110.373,8.456z M148.227,7.146c0-0.395,0.318-0.723,0.724-0.723
		c0.396,0,0.721,0.328,0.721,0.723c0,0.405-0.325,0.722-0.721,0.722C148.545,7.868,148.227,7.551,148.227,7.146z M110.373,5.567
		c0-0.405,0.326-0.723,0.73-0.723c0.396,0,0.713,0.318,0.713,0.723c0,0.394-0.316,0.722-0.713,0.722
		C110.699,6.29,110.373,5.961,110.373,5.567z M148.227,4.257c0-0.395,0.318-0.722,0.724-0.722c0.396,0,0.721,0.328,0.721,0.722
		c0,0.395-0.325,0.722-0.721,0.722C148.545,4.979,148.227,4.652,148.227,4.257z M145.982,3.612c0-0.394,0.317-0.722,0.723-0.722
		c0.395,0,0.723,0.328,0.723,0.722c0,0.396-0.328,0.723-0.723,0.723C146.301,4.334,145.982,4.007,145.982,3.612z M143.094,3.612
		c0-0.394,0.318-0.722,0.713-0.722c0.404,0,0.73,0.328,0.73,0.722c0,0.396-0.326,0.723-0.73,0.723
		C143.412,4.334,143.094,4.007,143.094,3.612z M140.205,3.612c0-0.394,0.318-0.722,0.723-0.722c0.396,0,0.723,0.328,0.723,0.722
		c0,0.396-0.327,0.723-0.723,0.723C140.523,4.334,140.205,4.007,140.205,3.612z M137.307,3.612c0-0.394,0.326-0.722,0.73-0.722
		c0.396,0,0.723,0.328,0.723,0.722c0,0.396-0.326,0.723-0.723,0.723C137.633,4.334,137.307,4.007,137.307,3.612z M134.428,3.612
		c0-0.394,0.318-0.722,0.723-0.722c0.396,0,0.722,0.328,0.722,0.722c0,0.396-0.326,0.723-0.722,0.723
		C134.746,4.334,134.428,4.007,134.428,3.612z M131.537,3.612c0-0.394,0.318-0.722,0.723-0.722c0.395,0,0.723,0.328,0.723,0.722
		c0,0.396-0.328,0.723-0.723,0.723C131.855,4.334,131.537,4.007,131.537,3.612z M128.65,3.612c0-0.394,0.315-0.722,0.721-0.722
		c0.396,0,0.723,0.328,0.723,0.722c0,0.396-0.326,0.723-0.723,0.723C128.967,4.334,128.65,4.007,128.65,3.612z M125.76,3.612
		c0-0.394,0.318-0.722,0.723-0.722c0.396,0,0.724,0.328,0.724,0.722c0,0.396-0.328,0.723-0.724,0.723
		C126.078,4.334,125.76,4.007,125.76,3.612z M122.871,3.612c0-0.394,0.318-0.722,0.723-0.722c0.395,0,0.723,0.328,0.723,0.722
		c0,0.396-0.328,0.723-0.723,0.723C123.189,4.334,122.871,4.007,122.871,3.612z M119.982,3.612c0-0.394,0.317-0.722,0.723-0.722
		c0.395,0,0.723,0.328,0.723,0.722c0,0.396-0.328,0.723-0.723,0.723C120.301,4.334,119.982,4.007,119.982,3.612z M117.094,3.612
		c0-0.394,0.318-0.722,0.723-0.722c0.396,0,0.722,0.328,0.722,0.722c0,0.396-0.326,0.723-0.722,0.723
		C117.412,4.334,117.094,4.007,117.094,3.612z M114.205,3.612c0-0.394,0.318-0.722,0.723-0.722c0.396,0,0.721,0.328,0.721,0.722
		c0,0.396-0.325,0.723-0.721,0.723C114.523,4.334,114.205,4.007,114.205,3.612z M111.316,3.612c0-0.394,0.317-0.722,0.723-0.722
		c0.395,0,0.721,0.328,0.721,0.722c0,0.396-0.326,0.723-0.721,0.723C111.635,4.334,111.316,4.007,111.316,3.612z"/>
	<path display="inline" fill="#343434" d="M80.77,40.353c-1.66,1.367-3.608,2.5-6.836,2.5c-8.132,0-8.145-7.191-15.889-7.191v-0.657
		c8.132,0,8.144,7.19,15.889,7.19c2.799,0,4.584-0.94,6.113-2.139C80.285,40.155,80.527,40.254,80.77,40.353z M137.113,38.909
		c0.039-0.046,0.066-0.092,0.086-0.137c-7.121-0.17-7.551-6.559-14.566-7.136c0.121,0.104,0.256,0.227,0.424,0.363
		c-0.149,0.026-0.268,0.056-0.381,0.082c0.254,0.092,0.512,0.185,0.768,0.277c-0.012,0.012-0.022,0.026-0.034,0.039
		c2.532,0.433,4.114,1.756,5.653,3.144c0.267,0.077,0.533,0.159,0.775,0.207c-0.09,0.083-0.18,0.167-0.266,0.253
		c1.77,1.594,3.625,3.143,6.947,3.396C136.752,39.252,136.957,39.093,137.113,38.909z M123.303,35.126
		c0.129,0.06,0.248,0.122,0.344,0.202c0.063,0.054-0.131,0.287-0.266,0.48c1.104,0.185,2.029,0.536,2.846,0.991
		c0.172-0.183,0.328-0.352,0.479-0.509C125.756,35.742,124.658,35.321,123.303,35.126z M118.227,36.225
		c0.398-0.269,0.611-0.429,0.646-0.41c0.078,0.044,0.152,0.093,0.229,0.139c0.738-0.184,1.56-0.292,2.496-0.292
		c0.432,0,0.836,0.026,1.223,0.068c-0.28-0.103-0.561-0.207-0.842-0.311c0.144-0.113,0.287-0.227,0.486-0.383
		c-0.279-0.02-0.566-0.032-0.867-0.032c-1.35,0-2.473,0.201-3.447,0.531c-0.018,0.03-0.037,0.058-0.053,0.088
		c-0.016,0.029-0.135,0.041-0.309,0.039c-3.947,1.525-5.381,5.242-9.693,6.265c0.051,0.061,0.104,0.119,0.158,0.17
		c-0.279,0.117-0.557,0.328-0.832,0.335c-1.207,0.031-2.426,0.06-3.617-0.031c-0.615-0.046-1.184-0.347-1.775-0.532
		c0.156-0.057,0.316-0.115,0.48-0.175c-4.756-1.628-5.863-6.69-12.688-6.69c-4.885,0-6.84,2.593-9.301,4.666
		c0.231,0.1,0.463,0.203,0.69,0.308c0.813-0.705,1.576-1.447,2.414-2.114c0.033-0.044,0.052-0.049,0.067-0.053
		c1.529-1.204,3.318-2.15,6.127-2.15c0.771,0,1.464,0.075,2.099,0.203c0.08-0.102,0.164-0.202,0.233-0.299
		c0.525,0.071,0.841,0.114,1.152,0.157c-0.139,0.132-0.272,0.265-0.41,0.397c2.344,0.763,3.81,2.354,5.465,3.799
		c0.045-0.1,0.123-0.251,0.201-0.431c0.308,0.413,0.73,0.731,0.681,0.966c-0.015,0.061-0.021,0.118-0.025,0.173
		c0.377,0.297,0.775,0.579,1.201,0.836c0.028-0.044,0.06-0.09,0.09-0.139c0.158,0.162,0.271,0.275,0.384,0.389
		c1.254,0.688,2.78,1.139,4.817,1.139C112.451,42.853,113.613,37.915,118.227,36.225z M117.045,29.535
		c-0.121-0.058-0.27-0.104-0.432-0.146c-2.078,1.158-3.465,2.913-5.307,4.224c0.145,0.145,0.299,0.325,0.452,0.517
		c1.979-1.424,3.412-3.307,5.677-4.403C117.307,29.663,117.176,29.597,117.045,29.535z M62.354,29.046
		c-0.251-0.114-0.514-0.216-0.786-0.312c-0.011,0.013-0.021,0.027-0.032,0.039C61.807,28.852,62.083,28.984,62.354,29.046z
		 M64.825,30.632c-0.066-0.054-0.134-0.11-0.201-0.164c0.056,0.063,0.11,0.125,0.172,0.196
		C64.807,30.651,64.815,30.644,64.825,30.632z M58.043,31.589v0.658c7.744,0,7.757,7.19,15.889,7.19s8.144-7.19,15.89-7.19
		c4.93,0,6.729,2.914,9.482,5.031c0.194-0.246,0.166-0.516,0.102-0.789c-2.6-2.104-4.514-4.9-9.584-4.9
		c-1.041,0-1.947,0.12-2.756,0.325c-0.275,0.182-0.412,0.267-0.535,0.261c-0.055-0.001-0.115-0.019-0.18-0.046
		c-4.879,1.668-5.97,6.651-12.419,6.651c-1.565,0-2.812-0.297-3.875-0.766c-0.417-0.047-0.834-0.094-1.25-0.141
		c0.174-0.071,0.345-0.145,0.518-0.217C65.673,35.633,64.141,31.589,58.043,31.589z M58.043,24.798
		c0.233,0.132,0.454,0.284,0.692,0.409c0.216,0.113,0.459,0.192,0.69,0.286c6.192,0.761,6.838,6.723,13.81,7.097
		c0.539-0.253,0.996-0.467,1.455-0.664c-0.244,0.016-0.497,0.026-0.759,0.026c-7.745,0-7.758-7.19-15.889-7.19L58.043,24.798
		L58.043,24.798z M89.822,42.492c5.188,0,6.906,3.223,9.918,5.354c0.406,0.008,0.816,0.046,1.203-0.039
		c-2.256-1.308-3.721-3.375-6.041-4.704c-0.027-0.006-0.053-0.02-0.068-0.039c-1.303-0.731-2.875-1.23-5.012-1.23
		c-7.873,0-8.135,6.737-15.17,7.168c-0.158,0.077-0.32,0.153-0.484,0.224c-0.1,0.043-0.322-0.092-0.533-0.21
		c-3.638-0.091-5.531-1.804-7.446-3.537c-0.026,0.032-0.052,0.064-0.073,0.097c-0.102-0.106-0.264-0.204-0.288-0.323
		c-0.006-0.029-0.002-0.059,0.007-0.093c-1.898-1.704-3.928-3.325-7.79-3.325v0.657c7.744,0,7.757,7.19,15.889,7.19
		C82.068,49.682,82.074,42.492,89.822,42.492z M133.58,48.86c-0.176-0.263-0.291-0.556-0.449-0.829
		c-3.834-1.972-5.297-6.197-11.533-6.197c-8.133,0-8.143,7.19-15.889,7.19c-1.438,0-2.607-0.249-3.613-0.652
		c-0.094,0.205-0.209,0.402-0.326,0.595c1.086,0.439,2.357,0.714,3.939,0.714c8.133,0,8.143-7.19,15.889-7.19
		c6.354,0,7.506,4.837,12.203,6.575C133.713,49.005,133.633,48.939,133.58,48.86z M89.793,39.078
		c-0.016-0.201-0.043-0.455,0.076-0.578c0.029-0.028,0.049-0.053,0.066-0.077c-0.037,0-0.074-0.003-0.113-0.003
		c-1.023,0-1.916,0.114-2.713,0.313c0.117,0.063,0.256,0.134,0.43,0.214c-0.797,0.149-1.141,0.269-1.48,0.255
		C86,39.199,85.943,39.17,85.887,39.13c-2.141,0.864-3.541,2.374-5.094,3.721c0.391,0.077,0.832-0.126,1.289-0.232
		c1.707-1.544,3.393-3.075,6.318-3.452c-0.156-0.072-0.281-0.261-0.42-0.392c0.215-0.096,0.43-0.265,0.646-0.265
		c0.188,0,0.375,0.192,0.819,0.447c-0.219,0.058-0.389,0.114-0.524,0.159C89.201,39.093,89.488,39.079,89.793,39.078z
		 M116.654,40.399c-0.086-0.096-0.166-0.233-0.15-0.259c0.104-0.175,0.26-0.342,0.434-0.422c0.054-0.024,0.172,0.125,0.365,0.321
		c1.154-0.582,2.52-0.962,4.295-0.962c7.746,0,7.754,7.19,15.887,7.189v-0.657c-7.586,0-7.758-6.895-15.403-7.176
		c-0.052,0.014-0.101,0.025-0.147,0.029c-0.287,0.023-0.685,0.125-0.894-0.026c-7.576,0.324-7.767,7.174-15.33,7.174
		c-0.551,0-1.063-0.04-1.541-0.108c-4.14-0.602-5.778-3.499-8.594-5.397c-0.072,0.051-0.146,0.101-0.212,0.149
		c-0.131,0.095-0.418,0.018-0.633,0.02c0.119-0.146,0.205-0.357,0.365-0.425c0.018-0.007,0.029-0.015,0.045-0.022
		c-1.133-0.689-2.473-1.202-4.219-1.355c0.006,0.052,0.012,0.101,0.008,0.161c-0.199,0.154-0.391,0.321-0.6,0.459
		c0.512,0.022,0.992,0.074,1.439,0.157c0.043-0.019,0.057-0.004,0.067,0.013c5.808,1.121,6.513,7.006,13.871,7.005
		C111.617,46.267,113.24,42.475,116.654,40.399z M79.828,43.945c-0.078-0.027-0.166-0.07-0.256-0.119
		c-1.426,1.024-3.123,1.784-5.64,1.784c-3.404,0-5.314-1.39-7.077-2.946c-0.064-0.039-0.11-0.078-0.135-0.12
		c-2.193-1.955-4.211-4.124-8.677-4.124v0.658c3.597,0,5.526,1.552,7.375,3.213c0.025,0.021,0.047,0.043,0.073,0.06
		c1.859,1.675,3.655,3.445,7.013,3.837c-0.081-0.086-0.16-0.174-0.243-0.259c0.133-0.104,0.314-0.319,0.391-0.292
		c0.252,0.089,0.465,0.266,0.785,0.466c-0.065,0.048-0.131,0.099-0.192,0.146c0.224,0.012,0.45,0.019,0.688,0.019
		c2.947,0,4.826-0.944,6.394-2.147C80.158,44.061,79.992,44.001,79.828,43.945z M66.323,32.101c-0.333-0.1-0.594-0.07-0.819,0.021
		c2.102,1.894,4.132,3.901,8.429,3.901c8.131,0,8.144-7.191,15.89-7.191c3.459,0,5.375,1.436,7.161,3.024
		c0.06-0.021,0.113-0.033,0.166-0.03c0.369,0.015,0.724,0.167,1.084,0.261c-0.143,0.144-0.291,0.363-0.434,0.504
		c1.297,1.168,2.641,2.313,4.574,2.94c0.145-0.083,0.273-0.143,0.41-0.164c0.191-0.029,0.453,0.271,0.684,0.424
		c0.654,0.152,1.402,0.231,2.24,0.231c2.043,0,3.574-0.454,4.844-1.134c-0.104-0.2-0.342-0.335-0.627-0.445
		c-1.137,0.56-2.48,0.922-4.217,0.922c-1.705,0-3.035-0.35-4.16-0.893c-0.209,0.046-0.418,0.094-0.623,0.144
		c0.119-0.093,0.234-0.188,0.354-0.283c-3.778-1.988-5.264-6.157-11.457-6.157c-0.829,0-1.569,0.078-2.247,0.212
		c0.141,0.994-0.681,0.417-1.05,0.593c-0.104,0.05-0.266,0.07-0.358,0.018c-0.074-0.042-0.146-0.092-0.217-0.139
		c-3.146,1.243-4.691,3.882-7.425,5.39c-0.012,0.024-0.018,0.051-0.03,0.075c-0.188,0.337-1.033,0.709-1.507,0.668
		c-0.063-0.005-0.114-0.018-0.168-0.029c-0.838,0.251-1.78,0.401-2.887,0.401c-3.777,0-5.715-1.71-7.653-3.463
		C66.293,31.969,66.308,32.035,66.323,32.101z M137.484,49.024c-0.767,0-1.455-0.073-2.086-0.2c-0.15,0.27-0.474,0.452-0.793,0.498
		c0.84,0.226,1.783,0.36,2.879,0.36V49.024z M131.043,29.547c-0.379,0.02-0.727-0.129-1.344-0.271
		c0.217-0.161,0.395-0.311,0.537-0.425c-1.246-1.113-2.443-2.286-4.066-3.091c-0.145,0.074-0.256,0.115-0.328,0.083
		c-0.184-0.084-0.32-0.251-0.451-0.428c-1.051-0.405-2.283-0.654-3.793-0.654c-1.836,0-3.254,0.367-4.443,0.934
		c0.068,0.083,0.107,0.129,0.099,0.118c-0.002,0.234-0.002,0.427-0.002,0.595c1.164-0.598,2.545-0.99,4.349-0.99
		c6.35,0,7.502,4.829,12.188,6.571c-0.021-0.168-0.072-0.358-0.179-0.581c0.146-0.002,0.304-0.019,0.466-0.035
		C132.887,30.932,131.93,30.278,131.043,29.547z M109.133,31.671c0.049,0.113,0.055,0.25,0.045,0.398
		c0.471-0.161,0.91-0.351,1.318-0.567c-0.445,0.038-0.893,0.073-1.338,0.11c0.014,0.017,0.027,0.026,0.041,0.043
		C109.176,31.661,109.154,31.666,109.133,31.671z M58.043,28.832c0.957,0,1.797,0.111,2.548,0.304
		c-0.494-0.313-0.963-0.661-1.504-0.914c-0.334-0.028-0.679-0.047-1.044-0.047V28.832z M75.297,32.068
		c-0.195,0.172-0.39,0.344-0.585,0.516c0.919-0.056,1.729-0.209,2.455-0.436c0.021-0.05,0.041-0.101,0.063-0.151
		c0.104-0.246,0.307-0.471,0.496-0.751c0.385,0.088,0.721,0.165,1.032,0.237c3.798-2.023,5.257-6.065,11.064-6.065
		c6.139,0,7.42,4.511,11.731,6.386c0.086-0.027,0.17-0.049,0.258-0.063c0.713-0.11,1.488,0.058,2.238,0.102
		c0.021,0.001,0.043,0.001,0.063,0.003c-6.189-0.912-6.75-7.084-14.291-7.084c-7.736,0-8.13,6.501-14.816,7.136
		C75.1,31.946,75.209,32.023,75.297,32.068z M115.146,26.952c-1.433,1.111-2.611,2.431-4.117,3.437
		c0.283,0.059,0.561,0.124,0.813,0.205c0.02,0.006,0.035,0.016,0.053,0.024c1.142-0.843,2.107-1.832,3.17-2.721
		C115.072,27.583,115.102,27.267,115.146,26.952z M105.709,32.608c0.494,0,0.955-0.027,1.391-0.078
		c-0.113-0.108-0.225-0.216-0.336-0.326c0.791-0.178,1.58-0.356,2.369-0.534c-0.006-0.019-0.012-0.038-0.021-0.055
		c-0.008-0.075-0.065-0.136-0.125-0.193c-0.93,0.328-1.995,0.527-3.276,0.527c-0.062,0-0.117-0.004-0.178-0.005
		c-0.13,0.213-0.25,0.431-0.371,0.647C105.34,32.601,105.52,32.608,105.709,32.608z M128.143,37.271
		c-0.051,0.033-0.102,0.068-0.156,0.099c-0.161,0.094-0.397,0.114-0.704,0.109c2.633,1.907,4.354,4.702,8.602,5.269
		c-0.032-0.02-0.065-0.041-0.102-0.059c0.301-0.098,0.602-0.276,0.896-0.277c0.271-0.001,0.537,0.008,0.807,0.012v-0.229
		C132.639,42.195,130.818,39.378,128.143,37.271z M62.511,29.885c0.206,0.109,0.406,0.222,0.6,0.344
		C62.919,30.111,62.727,29.944,62.511,29.885z M137.244,32.602c0.045-0.05,0.09-0.101,0.139-0.156
		c0.035,0.013,0.066,0.025,0.102,0.038v-0.533c-0.803,0-1.518-0.081-2.172-0.219c0.101,0.212,0.142,0.469,0.158,0.709
		C136.016,32.536,136.605,32.59,137.244,32.602z M136.307,35.302c-0.51-0.054-0.986-0.139-1.43-0.256
		c-0.988-0.157-1.963-0.372-2.939-0.576c1.222,0.786,2.67,1.374,4.627,1.516C136.762,35.666,136.688,35.445,136.307,35.302z
		 M120.912,28.194c-0.158,0.091-0.338,0.192-0.543,0.307c-0.268,0.15-0.75,0.284-0.777,0.449c-0.004,0.024-0.01,0.043-0.014,0.067
		c0.613-0.119,1.281-0.186,2.02-0.186c1.4,0,2.547,0.238,3.535,0.624c0.063-0.028,0.115-0.042,0.166-0.041
		c0.195,0.007,0.492,0.208,0.559,0.362c1.644,0.821,2.853,2.054,4.164,3.21c0.072-0.007,0.146-0.012,0.217-0.005
		c0.271,0.025,0.513,0.272,0.943,0.524c-0.117,0.065-0.223,0.13-0.318,0.19c0.039,0.031,0.078,0.062,0.117,0.092
		c0.111-0.086,0.224-0.145,0.34-0.2c-0.041-0.077-0.069-0.14-0.067-0.197c0-0.088-0.019-0.187-0.03-0.283
		c-2.619-2.108-4.525-4.933-9.623-4.933C121.361,28.175,121.135,28.183,120.912,28.194z M99.711,37.579
		c1.172,0.834,2.537,1.502,4.381,1.75c0.479-0.198,0.92-0.383,1.352-0.557c-2.215-0.049-3.784-0.697-5.104-1.588
		C100.113,37.252,99.908,37.393,99.711,37.579z M105.133,39.422c0.189,0.008,0.379,0.016,0.576,0.016
		c3.352,0,5.322-1.222,7.025-2.658c-0.287-0.059-0.574-0.119-0.861-0.178c-1.381,1.095-2.975,1.979-5.338,2.147
		C106.072,38.977,105.604,39.202,105.133,39.422z M121.598,31.589c-0.09,0-0.176,0.006-0.264,0.008
		c0.156,0.056,0.311,0.112,0.467,0.168c0.02-0.061,0.066-0.113,0.115-0.167C121.809,31.596,121.707,31.589,121.598,31.589z
		 M121.254,31.6c-4.25,0.11-6.223,2.236-8.371,4.148c0.111,0.205,0.221,0.412,0.326,0.621c1.387-1.224,2.662-2.527,4.463-3.334
		c0.191-0.644,0.666-0.909,1.58-0.57c0.104-0.018,0.211-0.026,0.316-0.03c0.535-0.105,1.119-0.165,1.754-0.179
		C121.379,32.122,121.365,31.916,121.254,31.6z"/>
	<path display="inline" fill="#676767" d="M0,0.112h2.506c1.256,0,2.21,0.806,2.21,1.942c0,1.136-0.954,1.941-2.21,1.941h-1.63
		v2.073H0V0.112z M2.385,3.181c0.857,0,1.438-0.424,1.438-1.127c0-0.703-0.58-1.127-1.438-1.127H0.876v2.254H2.385z M5.39,3.086
		c0-1.673,1.422-3.078,3.096-3.078c1.673,0,3.077,1.405,3.077,3.078s-1.404,3.086-3.077,3.086C6.813,6.172,5.39,4.759,5.39,3.086z
		 M10.671,3.086c0-1.231-0.997-2.271-2.185-2.271s-2.194,1.04-2.194,2.271c0,1.24,1.006,2.28,2.194,2.28S10.671,4.326,10.671,3.086z
		 M12.315,5.21l0.53-0.65c0.528,0.503,1.153,0.833,1.958,0.833c0.824,0,1.249-0.434,1.249-0.91c0-0.563-0.495-0.781-1.491-1.006
		c-1.214-0.286-2.02-0.65-2.02-1.725c0-0.997,0.867-1.75,2.063-1.75c0.919,0,1.604,0.338,2.176,0.84l-0.503,0.659
		c-0.502-0.459-1.101-0.728-1.708-0.728c-0.668,0-1.135,0.425-1.135,0.902c0,0.555,0.51,0.746,1.491,0.979
		c1.188,0.278,2.011,0.676,2.011,1.743c0,1.005-0.763,1.768-2.167,1.768C13.772,6.163,12.948,5.816,12.315,5.21z M19.666,0.927
		h-1.95V0.112h4.786v0.815h-1.96v5.141h-0.875L19.666,0.927L19.666,0.927z M23.261,3.086c0-1.673,1.423-3.078,3.096-3.078
		c0.85,0,1.631,0.355,2.193,0.937l-0.616,0.589c-0.398-0.434-0.962-0.719-1.577-0.719c-1.187,0-2.193,1.04-2.193,2.271
		c0,1.24,1.007,2.28,2.193,2.28c0.615,0,1.179-0.287,1.577-0.72l0.616,0.59c-0.563,0.572-1.344,0.936-2.193,0.936
		C24.684,6.172,23.261,4.759,23.261,3.086z M33.603,4.854H30.5l-0.521,1.214h-0.971l2.557-5.956h0.972l2.557,5.956h-0.97
		L33.603,4.854z M33.264,4.065L32.05,1.239l-1.213,2.827L33.264,4.065L33.264,4.065z M39.158,3.909l1.518,2.159H39.67l-1.456-2.073
		h-1.371v2.073h-0.875V0.112h2.507c1.256,0,2.209,0.806,2.209,1.942C40.683,2.973,40.06,3.675,39.158,3.909z M36.842,3.181h1.51
		c0.857,0,1.438-0.424,1.438-1.127c0-0.703-0.581-1.127-1.438-1.127h-1.51V3.181z M41.783,0.112h2.055
		c1.924,0,3.294,1.231,3.294,2.974c0,1.743-1.37,2.982-3.294,2.982h-2.055V0.112z M43.889,5.271c1.379,0,2.341-0.901,2.341-2.185
		c0-1.274-0.962-2.176-2.341-2.176h-1.231v4.36L43.889,5.271L43.889,5.271z"/>
</g>
<g id="Layer_2">
	<g opacity="0">
		<path fill="#333333" d="M149.166,55.25c-0.276,0-0.5-0.224-0.5-0.5l0,0c0-0.223,0.146-0.413,0.349-0.477l0,0
			c0.091-0.123,0.237-0.202,0.402-0.202l0,0c0.275,0,0.498,0.222,0.498,0.498l0,0v0.181c0,0.133-0.052,0.259-0.146,0.353l0,0
			c-0.094,0.096-0.22,0.147-0.353,0.147l0,0H149.166L149.166,55.25z M147.326,55.25c-0.276,0-0.5-0.224-0.5-0.5l0,0
			c0-0.276,0.224-0.5,0.5-0.5l0,0h0.248c0.276,0,0.5,0.224,0.5,0.5l0,0c0,0.276-0.224,0.5-0.5,0.5l0,0H147.326L147.326,55.25z
			 M145.485,55.25c-0.275,0-0.5-0.224-0.5-0.5l0,0c0-0.276,0.225-0.5,0.5-0.5l0,0h0.251c0.274,0,0.5,0.224,0.5,0.5l0,0
			c0,0.276-0.226,0.5-0.5,0.5l0,0H145.485L145.485,55.25z M143.646,55.25c-0.276,0-0.5-0.224-0.5-0.5l0,0c0-0.276,0.224-0.5,0.5-0.5
			l0,0h0.251c0.275,0,0.5,0.224,0.5,0.5l0,0c0,0.276-0.225,0.5-0.5,0.5l0,0H143.646L143.646,55.25z M141.806,55.25
			c-0.276,0-0.5-0.224-0.5-0.5l0,0c0-0.276,0.224-0.5,0.5-0.5l0,0h0.251c0.275,0,0.5,0.224,0.5,0.5l0,0c0,0.276-0.225,0.5-0.5,0.5
			l0,0H141.806L141.806,55.25z M139.967,55.25c-0.277,0-0.5-0.224-0.5-0.5l0,0c0-0.276,0.223-0.5,0.5-0.5l0,0h0.249
			c0.276,0,0.5,0.224,0.5,0.5l0,0c0,0.276-0.224,0.5-0.5,0.5l0,0H139.967L139.967,55.25z M138.127,55.25c-0.276,0-0.5-0.224-0.5-0.5
			l0,0c0-0.276,0.224-0.5,0.5-0.5l0,0h0.249c0.275,0,0.5,0.224,0.5,0.5l0,0c0,0.276-0.225,0.5-0.5,0.5l0,0H138.127L138.127,55.25z
			 M136.285,55.25c-0.276,0-0.5-0.224-0.5-0.5l0,0c0-0.276,0.224-0.5,0.5-0.5l0,0h0.251c0.275,0,0.5,0.224,0.5,0.5l0,0
			c0,0.276-0.225,0.5-0.5,0.5l0,0H136.285L136.285,55.25z M134.446,55.25c-0.277,0-0.5-0.224-0.5-0.5l0,0c0-0.276,0.223-0.5,0.5-0.5
			l0,0h0.249c0.276,0,0.5,0.224,0.5,0.5l0,0c0,0.276-0.224,0.5-0.5,0.5l0,0H134.446L134.446,55.25z M132.606,55.25
			c-0.276,0-0.5-0.224-0.5-0.5l0,0c0-0.276,0.224-0.5,0.5-0.5l0,0h0.249c0.275,0,0.5,0.224,0.5,0.5l0,0c0,0.276-0.225,0.5-0.5,0.5
			l0,0H132.606L132.606,55.25z M130.767,55.25c-0.276,0-0.5-0.224-0.5-0.5l0,0c0-0.276,0.224-0.5,0.5-0.5l0,0h0.249
			c0.275,0,0.5,0.224,0.5,0.5l0,0c0,0.276-0.225,0.5-0.5,0.5l0,0H130.767L130.767,55.25z M128.926,55.25c-0.275,0-0.5-0.224-0.5-0.5
			l0,0c0-0.276,0.225-0.5,0.5-0.5l0,0h0.251c0.274,0,0.5,0.224,0.5,0.5l0,0c0,0.276-0.226,0.5-0.5,0.5l0,0H128.926L128.926,55.25z
			 M127.086,55.25c-0.276,0-0.5-0.224-0.5-0.5l0,0c0-0.276,0.224-0.5,0.5-0.5l0,0h0.251c0.273,0,0.5,0.224,0.5,0.5l0,0
			c0,0.276-0.227,0.5-0.5,0.5l0,0H127.086L127.086,55.25z M125.246,55.25c-0.276,0-0.5-0.224-0.5-0.5l0,0c0-0.276,0.224-0.5,0.5-0.5
			l0,0h0.249c0.275,0,0.5,0.224,0.5,0.5l0,0c0,0.276-0.225,0.5-0.5,0.5l0,0H125.246L125.246,55.25z M123.405,55.25
			c-0.275,0-0.5-0.224-0.5-0.5l0,0c0-0.276,0.225-0.5,0.5-0.5l0,0h0.251c0.274,0,0.5,0.224,0.5,0.5l0,0c0,0.276-0.226,0.5-0.5,0.5
			l0,0H123.405L123.405,55.25z M121.565,55.25c-0.276,0-0.5-0.224-0.5-0.5l0,0c0-0.276,0.224-0.5,0.5-0.5l0,0h0.251
			c0.273,0,0.5,0.224,0.5,0.5l0,0c0,0.276-0.227,0.5-0.5,0.5l0,0H121.565L121.565,55.25z M119.726,55.25c-0.276,0-0.5-0.224-0.5-0.5
			l0,0c0-0.276,0.224-0.5,0.5-0.5l0,0h0.251c0.275,0,0.5,0.224,0.5,0.5l0,0c0,0.276-0.225,0.5-0.5,0.5l0,0H119.726L119.726,55.25z
			 M117.887,55.25c-0.277,0-0.5-0.224-0.5-0.5l0,0c0-0.276,0.223-0.5,0.5-0.5l0,0h0.249c0.276,0,0.5,0.224,0.5,0.5l0,0
			c0,0.276-0.224,0.5-0.5,0.5l0,0H117.887L117.887,55.25z M116.047,55.25c-0.278,0-0.5-0.224-0.5-0.5l0,0c0-0.276,0.222-0.5,0.5-0.5
			l0,0h0.249c0.276,0,0.5,0.224,0.5,0.5l0,0c0,0.276-0.224,0.5-0.5,0.5l0,0H116.047L116.047,55.25z M114.205,55.25
			c-0.276,0-0.5-0.224-0.5-0.5l0,0c0-0.276,0.224-0.5,0.5-0.5l0,0h0.251c0.275,0,0.5,0.224,0.5,0.5l0,0c0,0.276-0.225,0.5-0.5,0.5
			l0,0H114.205L114.205,55.25z M112.366,55.25c-0.277,0-0.5-0.224-0.5-0.5l0,0c0-0.276,0.223-0.5,0.5-0.5l0,0h0.249
			c0.276,0,0.5,0.224,0.5,0.5l0,0c0,0.276-0.224,0.5-0.5,0.5l0,0H112.366L112.366,55.25z M110.665,55.25
			c-0.132,0-0.259-0.052-0.353-0.147l0,0c-0.095-0.093-0.147-0.22-0.147-0.353l0,0l0.003-0.139c0-0.276,0.222-0.5,0.497-0.5l0,0
			c0.191,0,0.357,0.107,0.441,0.265l0,0c0.104,0.092,0.169,0.226,0.169,0.375l0,0c0,0.276-0.224,0.5-0.5,0.5l0,0H110.665
			L110.665,55.25z M110.165,53.02v-0.251c0-0.276,0.225-0.5,0.5-0.5l0,0c0.276,0,0.5,0.224,0.5,0.5l0,0v0.251
			c0,0.276-0.224,0.5-0.5,0.5l0,0C110.39,53.52,110.165,53.295,110.165,53.02L110.165,53.02z M148.917,52.98v-0.251
			c0-0.276,0.224-0.5,0.5-0.5l0,0c0.275,0,0.5,0.224,0.5,0.5l0,0v0.251c0,0.276-0.225,0.5-0.5,0.5l0,0
			C149.141,53.48,148.917,53.256,148.917,52.98L148.917,52.98z M110.165,51.179V50.93c0-0.278,0.225-0.5,0.5-0.5l0,0
			c0.276,0,0.5,0.222,0.5,0.5l0,0v0.249c0,0.276-0.224,0.5-0.5,0.5l0,0C110.39,51.679,110.165,51.455,110.165,51.179L110.165,51.179
			z M148.917,51.14v-0.251c0-0.276,0.224-0.5,0.5-0.5l0,0c0.275,0,0.5,0.224,0.5,0.5l0,0v0.251c0,0.276-0.225,0.5-0.5,0.5l0,0
			C149.141,51.64,148.917,51.416,148.917,51.14L148.917,51.14z M110.165,49.339V49.09c0-0.276,0.225-0.5,0.5-0.5l0,0
			c0.276,0,0.5,0.224,0.5,0.5l0,0v0.249c0,0.276-0.224,0.5-0.5,0.5l0,0C110.39,49.839,110.165,49.615,110.165,49.339L110.165,49.339
			z M148.917,49.3v-0.251c0-0.276,0.224-0.5,0.5-0.5l0,0c0.275,0,0.5,0.224,0.5,0.5l0,0V49.3c0,0.276-0.225,0.5-0.5,0.5l0,0
			C149.141,49.8,148.917,49.576,148.917,49.3L148.917,49.3z M110.165,47.499V47.25c0-0.276,0.225-0.5,0.5-0.5l0,0
			c0.276,0,0.5,0.224,0.5,0.5l0,0v0.249c0,0.276-0.224,0.5-0.5,0.5l0,0C110.39,47.999,110.165,47.775,110.165,47.499L110.165,47.499
			z M148.917,47.459v-0.251c0-0.276,0.224-0.5,0.5-0.5l0,0c0.275,0,0.5,0.224,0.5,0.5l0,0v0.251c0,0.276-0.225,0.5-0.5,0.5l0,0
			C149.141,47.959,148.917,47.735,148.917,47.459L148.917,47.459z M110.165,45.659V45.41c0-0.276,0.225-0.5,0.5-0.5l0,0
			c0.276,0,0.5,0.224,0.5,0.5l0,0v0.249c0,0.276-0.224,0.5-0.5,0.5l0,0C110.39,46.159,110.165,45.935,110.165,45.659L110.165,45.659
			z M148.917,45.619V45.37c0-0.278,0.224-0.5,0.5-0.5l0,0c0.275,0,0.5,0.222,0.5,0.5l0,0v0.249c0,0.276-0.225,0.5-0.5,0.5l0,0
			C149.141,46.119,148.917,45.895,148.917,45.619L148.917,45.619z M110.165,43.821v-0.251c0-0.276,0.225-0.5,0.5-0.5l0,0
			c0.276,0,0.5,0.224,0.5,0.5l0,0v0.251c0,0.273-0.224,0.5-0.5,0.5l0,0C110.39,44.321,110.165,44.094,110.165,43.821L110.165,43.821
			z M148.917,43.779V43.53c0-0.278,0.224-0.5,0.5-0.5l0,0c0.275,0,0.5,0.222,0.5,0.5l0,0v0.249c0,0.276-0.225,0.5-0.5,0.5l0,0
			C149.141,44.279,148.917,44.055,148.917,43.779L148.917,43.779z M110.165,41.98v-0.251c0-0.276,0.225-0.5,0.5-0.5l0,0
			c0.276,0,0.5,0.224,0.5,0.5l0,0v0.251c0,0.276-0.224,0.5-0.5,0.5l0,0C110.39,42.48,110.165,42.256,110.165,41.98L110.165,41.98z
			 M148.917,41.939V41.69c0-0.278,0.224-0.5,0.5-0.5l0,0c0.275,0,0.5,0.222,0.5,0.5l0,0v0.249c0,0.276-0.225,0.5-0.5,0.5l0,0
			C149.141,42.439,148.917,42.215,148.917,41.939L148.917,41.939z M110.165,40.14v-0.251c0-0.276,0.225-0.5,0.5-0.5l0,0
			c0.276,0,0.5,0.224,0.5,0.5l0,0v0.251c0,0.276-0.224,0.5-0.5,0.5l0,0C110.39,40.64,110.165,40.416,110.165,40.14L110.165,40.14z
			 M148.917,40.099V39.85c0-0.276,0.224-0.5,0.5-0.5l0,0c0.275,0,0.5,0.224,0.5,0.5l0,0v0.249c0,0.276-0.225,0.5-0.5,0.5l0,0
			C149.141,40.599,148.917,40.375,148.917,40.099L148.917,40.099z M110.165,38.3v-0.251c0-0.276,0.225-0.5,0.5-0.5l0,0
			c0.276,0,0.5,0.224,0.5,0.5l0,0V38.3c0,0.276-0.224,0.5-0.5,0.5l0,0C110.39,38.8,110.165,38.576,110.165,38.3L110.165,38.3z
			 M148.917,38.259V38.01c0-0.276,0.224-0.5,0.5-0.5l0,0c0.275,0,0.5,0.224,0.5,0.5l0,0v0.249c0,0.276-0.225,0.5-0.5,0.5l0,0
			C149.141,38.759,148.917,38.535,148.917,38.259L148.917,38.259z M110.165,36.46v-0.251c0-0.276,0.225-0.5,0.5-0.5l0,0
			c0.276,0,0.5,0.224,0.5,0.5l0,0v0.251c0,0.276-0.224,0.5-0.5,0.5l0,0C110.39,36.96,110.165,36.736,110.165,36.46L110.165,36.46z
			 M148.917,36.418v-0.249c0-0.276,0.224-0.5,0.5-0.5l0,0c0.275,0,0.5,0.224,0.5,0.5l0,0v0.249c0,0.276-0.225,0.5-0.5,0.5l0,0
			C149.141,36.918,148.917,36.694,148.917,36.418L148.917,36.418z M110.165,34.62v-0.251c0-0.276,0.225-0.5,0.5-0.5l0,0
			c0.276,0,0.5,0.224,0.5,0.5l0,0v0.251c0,0.276-0.224,0.5-0.5,0.5l0,0C110.39,35.12,110.165,34.896,110.165,34.62L110.165,34.62z
			 M148.917,34.581v-0.251c0-0.276,0.224-0.5,0.5-0.5l0,0c0.275,0,0.5,0.224,0.5,0.5l0,0v0.251c0,0.276-0.225,0.5-0.5,0.5l0,0
			C149.141,35.08,148.917,34.856,148.917,34.581L148.917,34.581z M110.165,32.78v-0.251c0-0.276,0.225-0.5,0.5-0.5l0,0
			c0.276,0,0.5,0.224,0.5,0.5l0,0v0.251c0,0.276-0.224,0.5-0.5,0.5l0,0C110.39,33.28,110.165,33.056,110.165,32.78L110.165,32.78z
			 M148.917,32.74v-0.251c0-0.276,0.224-0.5,0.5-0.5l0,0c0.275,0,0.5,0.224,0.5,0.5l0,0v0.251c0,0.276-0.225,0.5-0.5,0.5l0,0
			C149.141,33.24,148.917,33.016,148.917,32.74L148.917,32.74z M110.165,30.939V30.69c0-0.278,0.225-0.5,0.5-0.5l0,0
			c0.276,0,0.5,0.222,0.5,0.5l0,0v0.249c0,0.276-0.224,0.5-0.5,0.5l0,0C110.39,31.439,110.165,31.215,110.165,30.939L110.165,30.939
			z M148.917,30.9v-0.251c0-0.276,0.224-0.5,0.5-0.5l0,0c0.275,0,0.5,0.224,0.5,0.5l0,0V30.9c0,0.276-0.225,0.5-0.5,0.5l0,0
			C149.141,31.4,148.917,31.176,148.917,30.9L148.917,30.9z M110.165,29.099V28.85c0-0.278,0.225-0.5,0.5-0.5l0,0
			c0.276,0,0.5,0.222,0.5,0.5l0,0v0.249c0,0.276-0.224,0.5-0.5,0.5l0,0C110.39,29.599,110.165,29.375,110.165,29.099L110.165,29.099
			z M148.917,29.06v-0.251c0-0.276,0.224-0.5,0.5-0.5l0,0c0.275,0,0.5,0.224,0.5,0.5l0,0v0.251c0,0.276-0.225,0.5-0.5,0.5l0,0
			C149.141,29.56,148.917,29.336,148.917,29.06L148.917,29.06z M110.165,27.259V27.01c0-0.278,0.225-0.5,0.5-0.5l0,0
			c0.276,0,0.5,0.222,0.5,0.5l0,0v0.249c0,0.276-0.224,0.5-0.5,0.5l0,0C110.39,27.759,110.165,27.535,110.165,27.259L110.165,27.259
			z M148.917,27.22v-0.251c0-0.276,0.224-0.5,0.5-0.5l0,0c0.275,0,0.5,0.224,0.5,0.5l0,0v0.251c0,0.276-0.225,0.5-0.5,0.5l0,0
			C149.141,27.72,148.917,27.496,148.917,27.22L148.917,27.22z M110.165,25.419V25.17c0-0.276,0.225-0.5,0.5-0.5l0,0
			c0.276,0,0.5,0.224,0.5,0.5l0,0v0.249c0,0.276-0.224,0.5-0.5,0.5l0,0C110.39,25.919,110.165,25.695,110.165,25.419L110.165,25.419
			z M148.917,25.379V25.13c0-0.278,0.224-0.5,0.5-0.5l0,0c0.275,0,0.5,0.222,0.5,0.5l0,0v0.249c0,0.276-0.225,0.5-0.5,0.5l0,0
			C149.141,25.879,148.917,25.655,148.917,25.379L148.917,25.379z M110.165,23.579V23.33c0-0.276,0.225-0.5,0.5-0.5l0,0
			c0.276,0,0.5,0.224,0.5,0.5l0,0v0.249c0,0.276-0.224,0.5-0.5,0.5l0,0C110.39,24.079,110.165,23.854,110.165,23.579L110.165,23.579
			z M148.917,23.54v-0.251c0-0.276,0.224-0.5,0.5-0.5l0,0c0.275,0,0.5,0.224,0.5,0.5l0,0v0.251c0,0.276-0.225,0.5-0.5,0.5l0,0
			C149.141,24.039,148.917,23.815,148.917,23.54L148.917,23.54z M110.165,21.739V21.49c0-0.276,0.225-0.5,0.5-0.5l0,0
			c0.276,0,0.5,0.224,0.5,0.5l0,0v0.249c0,0.276-0.224,0.5-0.5,0.5l0,0C110.39,22.239,110.165,22.015,110.165,21.739L110.165,21.739
			z M148.917,21.699V21.45c0-0.278,0.224-0.5,0.5-0.5l0,0c0.275,0,0.5,0.222,0.5,0.5l0,0v0.249c0,0.276-0.225,0.5-0.5,0.5l0,0
			C149.141,22.199,148.917,21.975,148.917,21.699L148.917,21.699z M110.165,19.9v-0.251c0-0.276,0.225-0.5,0.5-0.5l0,0
			c0.276,0,0.5,0.224,0.5,0.5l0,0V19.9c0,0.276-0.224,0.5-0.5,0.5l0,0C110.39,20.4,110.165,20.176,110.165,19.9L110.165,19.9z
			 M148.917,19.859V19.61c0-0.276,0.224-0.5,0.5-0.5l0,0c0.275,0,0.5,0.224,0.5,0.5l0,0v0.249c0,0.276-0.225,0.5-0.5,0.5l0,0
			C149.141,20.359,148.917,20.135,148.917,19.859L148.917,19.859z M110.165,18.061v-0.251c0-0.276,0.225-0.5,0.5-0.5l0,0
			c0.276,0,0.5,0.224,0.5,0.5l0,0v0.251c0,0.276-0.224,0.5-0.5,0.5l0,0C110.39,18.56,110.165,18.336,110.165,18.061L110.165,18.061z
			 M148.917,18.019V17.77c0-0.276,0.224-0.5,0.5-0.5l0,0c0.275,0,0.5,0.224,0.5,0.5l0,0v0.249c0,0.276-0.225,0.5-0.5,0.5l0,0
			C149.141,18.519,148.917,18.295,148.917,18.019L148.917,18.019z M110.165,16.22v-0.251c0-0.276,0.225-0.5,0.5-0.5l0,0
			c0.276,0,0.5,0.224,0.5,0.5l0,0v0.251c0,0.276-0.224,0.5-0.5,0.5l0,0C110.39,16.72,110.165,16.496,110.165,16.22L110.165,16.22z
			 M148.917,16.179V15.93c0-0.276,0.224-0.5,0.5-0.5l0,0c0.275,0,0.5,0.224,0.5,0.5l0,0v0.249c0,0.276-0.225,0.5-0.5,0.5l0,0
			C149.141,16.679,148.917,16.455,148.917,16.179L148.917,16.179z M110.165,14.38v-0.251c0-0.276,0.225-0.5,0.5-0.5l0,0
			c0.276,0,0.5,0.224,0.5,0.5l0,0v0.251c0,0.276-0.224,0.5-0.5,0.5l0,0C110.39,14.88,110.165,14.656,110.165,14.38L110.165,14.38z
			 M148.917,14.34v-0.251c0-0.276,0.224-0.5,0.5-0.5l0,0c0.275,0,0.5,0.224,0.5,0.5l0,0v0.251c0,0.276-0.225,0.5-0.5,0.5l0,0
			C149.141,14.84,148.917,14.617,148.917,14.34L148.917,14.34z M110.165,12.54v-0.251c0-0.276,0.225-0.5,0.5-0.5l0,0
			c0.276,0,0.5,0.224,0.5,0.5l0,0v0.251c0,0.276-0.224,0.5-0.5,0.5l0,0C110.39,13.04,110.165,12.816,110.165,12.54L110.165,12.54z
			 M148.917,12.499V12.25c0-0.276,0.224-0.5,0.5-0.5l0,0c0.275,0,0.5,0.224,0.5,0.5l0,0v0.249c0,0.276-0.225,0.5-0.5,0.5l0,0
			C149.141,12.998,148.917,12.774,148.917,12.499L148.917,12.499z M110.165,10.7v-0.251c0-0.276,0.225-0.5,0.5-0.5l0,0
			c0.276,0,0.5,0.224,0.5,0.5l0,0V10.7c0,0.276-0.224,0.5-0.5,0.5l0,0C110.39,11.2,110.165,10.976,110.165,10.7L110.165,10.7z
			 M148.917,10.66v-0.251c0-0.276,0.224-0.5,0.5-0.5l0,0c0.275,0,0.5,0.224,0.5,0.5l0,0v0.251c0,0.276-0.225,0.5-0.5,0.5l0,0
			C149.141,11.16,148.917,10.936,148.917,10.66L148.917,10.66z M110.165,8.859V8.61c0-0.278,0.225-0.5,0.5-0.5l0,0
			c0.276,0,0.5,0.222,0.5,0.5l0,0v0.249c0,0.276-0.224,0.5-0.5,0.5l0,0C110.39,9.359,110.165,9.135,110.165,8.859L110.165,8.859z
			 M148.917,8.82V8.569c0-0.276,0.224-0.5,0.5-0.5l0,0c0.275,0,0.5,0.224,0.5,0.5l0,0V8.82c0,0.276-0.225,0.5-0.5,0.5l0,0
			C149.141,9.32,148.917,9.096,148.917,8.82L148.917,8.82z M110.165,7.02V6.771c0-0.276,0.225-0.5,0.5-0.5l0,0
			c0.276,0,0.5,0.224,0.5,0.5l0,0V7.02c0,0.276-0.224,0.5-0.5,0.5l0,0C110.39,7.519,110.165,7.295,110.165,7.02L110.165,7.02z
			 M148.917,6.98V6.729c0-0.276,0.224-0.5,0.5-0.5l0,0c0.275,0,0.5,0.224,0.5,0.5l0,0V6.98c0,0.276-0.225,0.5-0.5,0.5l0,0
			C149.141,7.48,148.917,7.256,148.917,6.98L148.917,6.98z M110.165,5.179V4.93c0-0.278,0.225-0.5,0.5-0.5l0,0
			c0.276,0,0.5,0.222,0.5,0.5l0,0v0.249c0,0.276-0.224,0.5-0.5,0.5l0,0C110.39,5.679,110.165,5.455,110.165,5.179L110.165,5.179z
			 M148.917,5.14V4.889c0-0.276,0.224-0.5,0.5-0.5l0,0c0.275,0,0.5,0.224,0.5,0.5l0,0V5.14c0,0.276-0.225,0.5-0.5,0.5l0,0
			C149.141,5.64,148.917,5.416,148.917,5.14L148.917,5.14z M110.165,3.339V3.25c0-0.133,0.055-0.262,0.147-0.355l0,0
			c0.094-0.091,0.223-0.145,0.353-0.145l0,0h0.16c0.276,0,0.5,0.224,0.5,0.5l0,0c0,0.22-0.143,0.407-0.341,0.474l0,0
			c-0.086,0.072-0.197,0.115-0.319,0.115l0,0C110.39,3.839,110.165,3.615,110.165,3.339L110.165,3.339z M149.198,3.75
			c-0.268-0.009-0.482-0.229-0.482-0.5l0,0c0-0.276,0.224-0.5,0.5-0.5l0,0h0.201c0.133,0,0.259,0.052,0.353,0.147l0,0
			c0.096,0.093,0.146,0.22,0.146,0.353l0,0l0.002,0.049c0,0.276-0.225,0.5-0.5,0.5l0,0C149.339,3.799,149.265,3.781,149.198,3.75
			L149.198,3.75z M147.376,3.75c-0.276,0-0.5-0.224-0.5-0.5l0,0c0-0.276,0.224-0.5,0.5-0.5l0,0h0.248c0.276,0,0.503,0.224,0.503,0.5
			l0,0c0,0.276-0.227,0.5-0.503,0.5l0,0H147.376L147.376,3.75z M145.535,3.75c-0.275,0-0.5-0.224-0.5-0.5l0,0
			c0-0.276,0.225-0.5,0.5-0.5l0,0h0.251c0.274,0,0.5,0.224,0.5,0.5l0,0c0,0.276-0.226,0.5-0.5,0.5l0,0H145.535L145.535,3.75z
			 M143.695,3.75c-0.276,0-0.5-0.224-0.5-0.5l0,0c0-0.276,0.224-0.5,0.5-0.5l0,0h0.251c0.275,0,0.5,0.224,0.5,0.5l0,0
			c0,0.276-0.225,0.5-0.5,0.5l0,0H143.695L143.695,3.75z M141.855,3.75c-0.276,0-0.5-0.224-0.5-0.5l0,0c0-0.276,0.224-0.5,0.5-0.5
			l0,0h0.251c0.275,0,0.5,0.224,0.5,0.5l0,0c0,0.276-0.225,0.5-0.5,0.5l0,0H141.855L141.855,3.75z M140.017,3.75
			c-0.277,0-0.5-0.224-0.5-0.5l0,0c0-0.276,0.223-0.5,0.5-0.5l0,0h0.249c0.276,0,0.5,0.224,0.5,0.5l0,0c0,0.276-0.224,0.5-0.5,0.5
			l0,0H140.017L140.017,3.75z M138.177,3.75c-0.276,0-0.5-0.224-0.5-0.5l0,0c0-0.276,0.224-0.5,0.5-0.5l0,0h0.249
			c0.275,0,0.5,0.224,0.5,0.5l0,0c0,0.276-0.225,0.5-0.5,0.5l0,0H138.177L138.177,3.75z M136.337,3.75c-0.276,0-0.5-0.224-0.5-0.5
			l0,0c0-0.276,0.224-0.5,0.5-0.5l0,0h0.249c0.275,0,0.5,0.224,0.5,0.5l0,0c0,0.276-0.225,0.5-0.5,0.5l0,0H136.337L136.337,3.75z
			 M134.496,3.75c-0.277,0-0.5-0.224-0.5-0.5l0,0c0-0.276,0.223-0.5,0.5-0.5l0,0h0.249c0.276,0,0.5,0.224,0.5,0.5l0,0
			c0,0.276-0.224,0.5-0.5,0.5l0,0H134.496L134.496,3.75z M132.656,3.75c-0.276,0-0.5-0.224-0.5-0.5l0,0c0-0.276,0.224-0.5,0.5-0.5
			l0,0h0.249c0.275,0,0.5,0.224,0.5,0.5l0,0c0,0.276-0.225,0.5-0.5,0.5l0,0H132.656L132.656,3.75z M130.816,3.75
			c-0.276,0-0.5-0.224-0.5-0.5l0,0c0-0.276,0.224-0.5,0.5-0.5l0,0h0.249c0.275,0,0.5,0.224,0.5,0.5l0,0c0,0.276-0.225,0.5-0.5,0.5
			l0,0H130.816L130.816,3.75z M128.976,3.75c-0.275,0-0.5-0.224-0.5-0.5l0,0c0-0.276,0.225-0.5,0.5-0.5l0,0h0.251
			c0.274,0,0.5,0.224,0.5,0.5l0,0c0,0.276-0.226,0.5-0.5,0.5l0,0H128.976L128.976,3.75z M127.136,3.75c-0.276,0-0.5-0.224-0.5-0.5
			l0,0c0-0.276,0.224-0.5,0.5-0.5l0,0h0.251c0.273,0,0.5,0.224,0.5,0.5l0,0c0,0.276-0.227,0.5-0.5,0.5l0,0H127.136L127.136,3.75z
			 M125.296,3.75c-0.276,0-0.5-0.224-0.5-0.5l0,0c0-0.276,0.224-0.5,0.5-0.5l0,0h0.251c0.275,0,0.5,0.224,0.5,0.5l0,0
			c0,0.276-0.225,0.5-0.5,0.5l0,0H125.296L125.296,3.75z M123.455,3.75c-0.275,0-0.5-0.224-0.5-0.5l0,0c0-0.276,0.225-0.5,0.5-0.5
			l0,0h0.251c0.274,0,0.5,0.224,0.5,0.5l0,0c0,0.276-0.226,0.5-0.5,0.5l0,0H123.455L123.455,3.75z M121.615,3.75
			c-0.276,0-0.5-0.224-0.5-0.5l0,0c0-0.276,0.224-0.5,0.5-0.5l0,0h0.251c0.273,0,0.5,0.224,0.5,0.5l0,0c0,0.276-0.227,0.5-0.5,0.5
			l0,0H121.615L121.615,3.75z M119.775,3.75c-0.276,0-0.5-0.224-0.5-0.5l0,0c0-0.276,0.224-0.5,0.5-0.5l0,0h0.251
			c0.275,0,0.5,0.224,0.5,0.5l0,0c0,0.276-0.225,0.5-0.5,0.5l0,0H119.775L119.775,3.75z M117.937,3.75c-0.277,0-0.5-0.224-0.5-0.5
			l0,0c0-0.276,0.223-0.5,0.5-0.5l0,0h0.249c0.276,0,0.5,0.224,0.5,0.5l0,0c0,0.276-0.224,0.5-0.5,0.5l0,0H117.937L117.937,3.75z
			 M116.097,3.75c-0.278,0-0.5-0.224-0.5-0.5l0,0c0-0.276,0.222-0.5,0.5-0.5l0,0h0.249c0.276,0,0.5,0.224,0.5,0.5l0,0
			c0,0.276-0.224,0.5-0.5,0.5l0,0H116.097L116.097,3.75z M114.257,3.75c-0.276,0-0.5-0.224-0.5-0.5l0,0c0-0.276,0.224-0.5,0.5-0.5
			l0,0h0.249c0.275,0,0.5,0.224,0.5,0.5l0,0c0,0.276-0.225,0.5-0.5,0.5l0,0H114.257L114.257,3.75z M112.416,3.75
			c-0.277,0-0.5-0.224-0.5-0.5l0,0c0-0.276,0.223-0.5,0.5-0.5l0,0h0.249c0.276,0,0.5,0.224,0.5,0.5l0,0c0,0.276-0.224,0.5-0.5,0.5
			l0,0H112.416L112.416,3.75z"/>
	</g>
	
		<line opacity="0.8" fill="none" stroke="#333333" stroke-linecap="round" stroke-linejoin="round" x1="39.75" y1="92" x2="149" y2="92"/>
	
		<line opacity="0.8" fill="none" stroke="#333333" stroke-width="1.4" stroke-linecap="round" stroke-linejoin="round" x1="23.875" y1="15.125" x2="23.875" y2="169.75"/>
	
		<line opacity="0.8" fill="none" stroke="#000000" stroke-linecap="round" stroke-linejoin="round" x1="39.75" y1="117.875" x2="149" y2="117.875"/>
	
		<line opacity="0.8" fill="none" stroke="#000000" stroke-linecap="round" stroke-linejoin="round" x1="39.75" y1="143.75" x2="149" y2="143.75"/>
</g>
<g id="Layer_4" display="none">
	<g display="inline">
		<g>
			<path d="M129.514,31.574c-1.997-1.417-3.803-2.73-7.65-2.741l0,0c-3.849,0.011-5.655,1.324-7.652,2.741l0,0
				c-1.975,1.419-4.14,2.939-8.233,2.927l0,0c-4.096,0.012-6.26-1.508-8.234-2.927l0,0c-1.995-1.417-3.804-2.73-7.65-2.743l0,0
				c-3.848,0.013-5.654,1.326-7.651,2.743l0,0c-1.974,1.419-4.137,2.939-8.23,2.927l0,0c-4.093,0.012-6.256-1.508-8.23-2.927l0,0
				c-1.995-1.417-3.802-2.73-7.646-2.743l0,0v0.002c-0.278,0-0.501-0.226-0.501-0.501l0,0c0-0.276,0.224-0.5,0.501-0.5l0,0
				c4.091-0.012,6.254,1.508,8.229,2.927l0,0c1.995,1.415,3.802,2.729,7.648,2.741l0,0c3.847-0.012,5.653-1.326,7.65-2.741l0,0
				c1.975-1.419,4.138-2.939,8.231-2.927l0,0c4.096-0.012,6.258,1.508,8.232,2.927l0,0c1.997,1.415,3.804,2.729,7.652,2.741l0,0
				c3.848-0.012,5.654-1.326,7.651-2.741l0,0c1.976-1.419,4.141-2.939,8.234-2.927l0,0c4.094-0.012,6.259,1.508,8.233,2.927l0,0
				c1.997,1.415,3.803,2.729,7.652,2.741l0,0c0.275,0,0.501,0.224,0.501,0.501l0,0c0,0.275-0.226,0.5-0.501,0.5l0,0
				c-0.017,0-0.033,0-0.05,0l0,0C133.638,34.501,131.482,32.987,129.514,31.574L129.514,31.574z"/>
		</g>
	</g>
	<g display="inline">
		<g>
			<path d="M129.514,35.158c-1.997-1.417-3.803-2.73-7.65-2.741l0,0c-3.849,0.011-5.655,1.324-7.652,2.741l0,0
				c-1.975,1.419-4.14,2.939-8.233,2.927l0,0c-4.096,0.012-6.26-1.508-8.234-2.927l0,0c-1.995-1.417-3.804-2.73-7.65-2.743l0,0
				c-3.848,0.013-5.654,1.326-7.651,2.743l0,0c-1.974,1.419-4.137,2.939-8.23,2.927l0,0c-4.093,0.012-6.256-1.508-8.23-2.927l0,0
				c-1.995-1.417-3.802-2.73-7.646-2.743l0,0v0.002c-0.278,0-0.501-0.226-0.501-0.501l0,0c0-0.276,0.224-0.5,0.501-0.5l0,0
				c4.091-0.012,6.254,1.508,8.229,2.927l0,0c1.995,1.415,3.802,2.729,7.648,2.741l0,0c3.847-0.012,5.653-1.326,7.65-2.741l0,0
				c1.975-1.419,4.138-2.939,8.231-2.927l0,0c4.096-0.012,6.258,1.508,8.232,2.927l0,0c1.997,1.415,3.804,2.729,7.652,2.741l0,0
				c3.848-0.012,5.654-1.326,7.651-2.741l0,0c1.976-1.419,4.141-2.939,8.234-2.927l0,0c4.094-0.012,6.259,1.508,8.233,2.927l0,0
				c1.997,1.415,3.803,2.729,7.652,2.741l0,0c0.275,0,0.501,0.224,0.501,0.501l0,0c0,0.275-0.226,0.5-0.501,0.5l0,0
				c-0.017,0-0.033,0-0.05,0l0,0C133.638,38.085,131.482,36.571,129.514,35.158L129.514,35.158z"/>
		</g>
	</g>
	<g display="inline">
		<g>
			<path d="M129.514,38.741c-1.997-1.417-3.803-2.73-7.65-2.741l0,0c-3.849,0.011-5.655,1.324-7.652,2.741l0,0
				c-1.975,1.419-4.14,2.939-8.233,2.927l0,0c-4.096,0.012-6.26-1.508-8.234-2.927l0,0c-1.995-1.417-3.804-2.73-7.65-2.743l0,0
				c-3.848,0.013-5.654,1.326-7.651,2.743l0,0c-1.974,1.419-4.137,2.939-8.23,2.927l0,0c-4.093,0.012-6.256-1.508-8.23-2.927l0,0
				c-1.995-1.417-3.802-2.73-7.646-2.743l0,0V36c-0.278,0-0.501-0.226-0.501-0.501l0,0c0-0.276,0.224-0.5,0.501-0.5l0,0
				c4.091-0.012,6.254,1.508,8.229,2.927l0,0c1.995,1.415,3.802,2.729,7.648,2.741l0,0c3.847-0.012,5.653-1.326,7.65-2.741l0,0
				c1.975-1.419,4.138-2.939,8.231-2.927l0,0c4.096-0.012,6.258,1.508,8.232,2.927l0,0c1.997,1.415,3.804,2.729,7.652,2.741l0,0
				c3.848-0.012,5.654-1.326,7.651-2.741l0,0c1.976-1.419,4.141-2.939,8.234-2.927l0,0c4.094-0.012,6.259,1.508,8.233,2.927l0,0
				c1.997,1.415,3.803,2.729,7.652,2.741l0,0c0.275,0,0.501,0.224,0.501,0.501l0,0c0,0.275-0.226,0.5-0.501,0.5l0,0
				c-0.017,0-0.033,0-0.05,0l0,0C133.638,41.668,131.482,40.154,129.514,38.741L129.514,38.741z"/>
		</g>
	</g>
	<g display="inline">
		<g>
			<path d="M129.514,42.324c-1.997-1.417-3.803-2.73-7.65-2.741l0,0c-3.849,0.011-5.655,1.324-7.652,2.741l0,0
				c-1.975,1.419-4.14,2.939-8.233,2.927l0,0c-4.096,0.012-6.26-1.508-8.234-2.927l0,0c-1.995-1.417-3.804-2.73-7.65-2.743l0,0
				c-3.848,0.013-5.654,1.326-7.651,2.743l0,0c-1.974,1.419-4.137,2.939-8.23,2.927l0,0c-4.093,0.012-6.256-1.508-8.23-2.927l0,0
				c-1.995-1.417-3.802-2.73-7.646-2.743l0,0v0.002c-0.278,0-0.501-0.226-0.501-0.501l0,0c0-0.276,0.224-0.5,0.501-0.5l0,0
				c4.091-0.012,6.254,1.508,8.229,2.927l0,0c1.995,1.415,3.802,2.729,7.648,2.741l0,0c3.847-0.012,5.653-1.326,7.65-2.741l0,0
				c1.975-1.419,4.138-2.939,8.231-2.927l0,0c4.096-0.012,6.258,1.508,8.232,2.927l0,0c1.997,1.415,3.804,2.729,7.652,2.741l0,0
				c3.848-0.012,5.654-1.326,7.651-2.741l0,0c1.976-1.419,4.141-2.939,8.234-2.927l0,0c4.094-0.012,6.259,1.508,8.233,2.927l0,0
				c1.997,1.415,3.803,2.729,7.652,2.741l0,0c0.275,0,0.501,0.224,0.501,0.501l0,0c0,0.275-0.226,0.5-0.501,0.5l0,0
				c-0.017,0-0.033,0-0.05,0l0,0C133.638,45.251,131.482,43.737,129.514,42.324L129.514,42.324z"/>
		</g>
	</g>
	<g display="inline">
		<g>
			<path d="M129.514,27.991c-1.997-1.417-3.803-2.73-7.65-2.741l0,0c-3.849,0.011-5.655,1.324-7.652,2.741l0,0
				c-1.975,1.419-4.14,2.939-8.233,2.927l0,0c-4.096,0.012-6.26-1.508-8.234-2.927l0,0c-1.995-1.417-3.804-2.73-7.65-2.743l0,0
				c-3.848,0.013-5.654,1.326-7.651,2.743l0,0c-1.974,1.419-4.137,2.939-8.23,2.927l0,0c-4.093,0.012-6.256-1.508-8.23-2.927l0,0
				c-1.995-1.417-3.802-2.73-7.646-2.743l0,0v0.002c-0.278,0-0.501-0.226-0.501-0.501l0,0c0-0.276,0.224-0.5,0.501-0.5l0,0
				c4.091-0.012,6.254,1.508,8.229,2.927l0,0c1.995,1.415,3.802,2.729,7.648,2.741l0,0c3.847-0.012,5.653-1.326,7.65-2.741l0,0
				c1.975-1.419,4.138-2.939,8.231-2.927l0,0c4.096-0.012,6.258,1.508,8.232,2.927l0,0c1.997,1.415,3.804,2.729,7.652,2.741l0,0
				c3.848-0.012,5.654-1.326,7.651-2.741l0,0c1.976-1.419,4.141-2.939,8.234-2.927l0,0c4.094-0.012,6.259,1.508,8.233,2.927l0,0
				c1.997,1.415,3.803,2.729,7.652,2.741l0,0c0.275,0,0.501,0.224,0.501,0.501l0,0c0,0.275-0.226,0.5-0.501,0.5l0,0
				c-0.017,0-0.033,0-0.05,0l0,0C133.638,30.918,131.482,29.404,129.514,27.991L129.514,27.991z"/>
		</g>
	</g>
	<g display="inline">
		<g>
			<path d="M129.514,45.908c-1.997-1.417-3.803-2.73-7.65-2.741l0,0c-3.849,0.011-5.655,1.324-7.652,2.741l0,0
				c-1.975,1.419-4.14,2.939-8.233,2.927l0,0c-4.096,0.012-6.26-1.508-8.234-2.927l0,0c-1.995-1.417-3.804-2.73-7.65-2.743l0,0
				c-3.848,0.013-5.654,1.326-7.651,2.743l0,0c-1.974,1.419-4.137,2.939-8.23,2.927l0,0c-4.093,0.012-6.256-1.508-8.23-2.927l0,0
				c-1.995-1.417-3.802-2.73-7.646-2.743l0,0v0.002c-0.278,0-0.501-0.226-0.501-0.501l0,0c0-0.276,0.224-0.5,0.501-0.5l0,0
				c4.091-0.012,6.254,1.508,8.229,2.927l0,0c1.995,1.415,3.802,2.729,7.648,2.741l0,0c3.847-0.012,5.653-1.326,7.65-2.741l0,0
				c1.975-1.419,4.138-2.939,8.231-2.927l0,0c4.096-0.012,6.258,1.508,8.232,2.927l0,0c1.997,1.415,3.804,2.729,7.652,2.741l0,0
				c3.848-0.012,5.654-1.326,7.651-2.741l0,0c1.976-1.419,4.141-2.939,8.234-2.927l0,0c4.094-0.012,6.259,1.508,8.233,2.927l0,0
				c1.997,1.415,3.803,2.729,7.652,2.741l0,0c0.275,0,0.501,0.224,0.501,0.501l0,0c0,0.275-0.226,0.5-0.501,0.5l0,0
				c-0.017,0-0.033,0-0.05,0l0,0C133.638,48.835,131.482,47.321,129.514,45.908L129.514,45.908z"/>
		</g>
	</g>
	<g display="inline">
		<g>
			<path d="M129.514,31.574c-1.997-1.417-3.803-2.73-7.65-2.741l0,0c-3.849,0.011-5.655,1.324-7.652,2.741l0,0
				c-1.975,1.419-4.14,2.939-8.233,2.927l0,0c-4.096,0.012-6.26-1.508-8.234-2.927l0,0c-1.995-1.417-3.804-2.73-7.65-2.743l0,0
				c-3.848,0.013-5.654,1.326-7.651,2.743l0,0c-1.974,1.419-4.137,2.939-8.23,2.927l0,0c-4.093,0.012-6.256-1.508-8.23-2.927l0,0
				c-1.995-1.417-3.802-2.73-7.646-2.743l0,0v0.002c-0.278,0-0.501-0.226-0.501-0.501l0,0c0-0.276,0.224-0.5,0.501-0.5l0,0
				c4.091-0.012,6.254,1.508,8.229,2.927l0,0c1.995,1.415,3.802,2.729,7.648,2.741l0,0c3.847-0.012,5.653-1.326,7.65-2.741l0,0
				c1.975-1.419,4.138-2.939,8.231-2.927l0,0c4.096-0.012,6.258,1.508,8.232,2.927l0,0c1.997,1.415,3.804,2.729,7.652,2.741l0,0
				c3.848-0.012,5.654-1.326,7.651-2.741l0,0c1.976-1.419,4.141-2.939,8.234-2.927l0,0c4.094-0.012,6.259,1.508,8.233,2.927l0,0
				c1.997,1.415,3.803,2.729,7.652,2.741l0,0c0.275,0,0.501,0.224,0.501,0.501l0,0c0,0.275-0.226,0.5-0.501,0.5l0,0
				c-0.017,0-0.033,0-0.05,0l0,0C133.638,34.501,131.482,32.987,129.514,31.574L129.514,31.574z"/>
		</g>
	</g>
	<g display="inline">
		<g>
			<path d="M129.514,35.158c-1.997-1.417-3.803-2.73-7.65-2.741l0,0c-3.849,0.011-5.655,1.324-7.652,2.741l0,0
				c-1.975,1.419-4.14,2.939-8.233,2.927l0,0c-4.096,0.012-6.26-1.508-8.234-2.927l0,0c-1.995-1.417-3.804-2.73-7.65-2.743l0,0
				c-3.848,0.013-5.654,1.326-7.651,2.743l0,0c-1.974,1.419-4.137,2.939-8.23,2.927l0,0c-4.093,0.012-6.256-1.508-8.23-2.927l0,0
				c-1.995-1.417-3.802-2.73-7.646-2.743l0,0v0.002c-0.278,0-0.501-0.226-0.501-0.501l0,0c0-0.276,0.224-0.5,0.501-0.5l0,0
				c4.091-0.012,6.254,1.508,8.229,2.927l0,0c1.995,1.415,3.802,2.729,7.648,2.741l0,0c3.847-0.012,5.653-1.326,7.65-2.741l0,0
				c1.975-1.419,4.138-2.939,8.231-2.927l0,0c4.096-0.012,6.258,1.508,8.232,2.927l0,0c1.997,1.415,3.804,2.729,7.652,2.741l0,0
				c3.848-0.012,5.654-1.326,7.651-2.741l0,0c1.976-1.419,4.141-2.939,8.234-2.927l0,0c4.094-0.012,6.259,1.508,8.233,2.927l0,0
				c1.997,1.415,3.803,2.729,7.652,2.741l0,0c0.275,0,0.501,0.224,0.501,0.501l0,0c0,0.275-0.226,0.5-0.501,0.5l0,0
				c-0.017,0-0.033,0-0.05,0l0,0C133.638,38.085,131.482,36.571,129.514,35.158L129.514,35.158z"/>
		</g>
	</g>
	<g display="inline">
		<g>
			<path d="M129.514,38.741c-1.997-1.417-3.803-2.73-7.65-2.741l0,0c-3.849,0.011-5.655,1.324-7.652,2.741l0,0
				c-1.975,1.419-4.14,2.939-8.233,2.927l0,0c-4.096,0.012-6.26-1.508-8.234-2.927l0,0c-1.995-1.417-3.804-2.73-7.65-2.743l0,0
				c-3.848,0.013-5.654,1.326-7.651,2.743l0,0c-1.974,1.419-4.137,2.939-8.23,2.927l0,0c-4.093,0.012-6.256-1.508-8.23-2.927l0,0
				c-1.995-1.417-3.802-2.73-7.646-2.743l0,0V36c-0.278,0-0.501-0.226-0.501-0.501l0,0c0-0.276,0.224-0.5,0.501-0.5l0,0
				c4.091-0.012,6.254,1.508,8.229,2.927l0,0c1.995,1.415,3.802,2.729,7.648,2.741l0,0c3.847-0.012,5.653-1.326,7.65-2.741l0,0
				c1.975-1.419,4.138-2.939,8.231-2.927l0,0c4.096-0.012,6.258,1.508,8.232,2.927l0,0c1.997,1.415,3.804,2.729,7.652,2.741l0,0
				c3.848-0.012,5.654-1.326,7.651-2.741l0,0c1.976-1.419,4.141-2.939,8.234-2.927l0,0c4.094-0.012,6.259,1.508,8.233,2.927l0,0
				c1.997,1.415,3.803,2.729,7.652,2.741l0,0c0.275,0,0.501,0.224,0.501,0.501l0,0c0,0.275-0.226,0.5-0.501,0.5l0,0
				c-0.017,0-0.033,0-0.05,0l0,0C133.638,41.668,131.482,40.154,129.514,38.741L129.514,38.741z"/>
		</g>
	</g>
	<g display="inline">
		<g>
			<path d="M129.514,42.324c-1.997-1.417-3.803-2.73-7.65-2.741l0,0c-3.849,0.011-5.655,1.324-7.652,2.741l0,0
				c-1.975,1.419-4.14,2.939-8.233,2.927l0,0c-4.096,0.012-6.26-1.508-8.234-2.927l0,0c-1.995-1.417-3.804-2.73-7.65-2.743l0,0
				c-3.848,0.013-5.654,1.326-7.651,2.743l0,0c-1.974,1.419-4.137,2.939-8.23,2.927l0,0c-4.093,0.012-6.256-1.508-8.23-2.927l0,0
				c-1.995-1.417-3.802-2.73-7.646-2.743l0,0v0.002c-0.278,0-0.501-0.226-0.501-0.501l0,0c0-0.276,0.224-0.5,0.501-0.5l0,0
				c4.091-0.012,6.254,1.508,8.229,2.927l0,0c1.995,1.415,3.802,2.729,7.648,2.741l0,0c3.847-0.012,5.653-1.326,7.65-2.741l0,0
				c1.975-1.419,4.138-2.939,8.231-2.927l0,0c4.096-0.012,6.258,1.508,8.232,2.927l0,0c1.997,1.415,3.804,2.729,7.652,2.741l0,0
				c3.848-0.012,5.654-1.326,7.651-2.741l0,0c1.976-1.419,4.141-2.939,8.234-2.927l0,0c4.094-0.012,6.259,1.508,8.233,2.927l0,0
				c1.997,1.415,3.803,2.729,7.652,2.741l0,0c0.275,0,0.501,0.224,0.501,0.501l0,0c0,0.275-0.226,0.5-0.501,0.5l0,0
				c-0.017,0-0.033,0-0.05,0l0,0C133.638,45.251,131.482,43.737,129.514,42.324L129.514,42.324z"/>
		</g>
	</g>
	<g display="inline">
		<g>
			<path d="M129.514,27.991c-1.997-1.417-3.803-2.73-7.65-2.741l0,0c-3.849,0.011-5.655,1.324-7.652,2.741l0,0
				c-1.975,1.419-4.14,2.939-8.233,2.927l0,0c-4.096,0.012-6.26-1.508-8.234-2.927l0,0c-1.995-1.417-3.804-2.73-7.65-2.743l0,0
				c-3.848,0.013-5.654,1.326-7.651,2.743l0,0c-1.974,1.419-4.137,2.939-8.23,2.927l0,0c-4.093,0.012-6.256-1.508-8.23-2.927l0,0
				c-1.995-1.417-3.802-2.73-7.646-2.743l0,0v0.002c-0.278,0-0.501-0.226-0.501-0.501l0,0c0-0.276,0.224-0.5,0.501-0.5l0,0
				c4.091-0.012,6.254,1.508,8.229,2.927l0,0c1.995,1.415,3.802,2.729,7.648,2.741l0,0c3.847-0.012,5.653-1.326,7.65-2.741l0,0
				c1.975-1.419,4.138-2.939,8.231-2.927l0,0c4.096-0.012,6.258,1.508,8.232,2.927l0,0c1.997,1.415,3.804,2.729,7.652,2.741l0,0
				c3.848-0.012,5.654-1.326,7.651-2.741l0,0c1.976-1.419,4.141-2.939,8.234-2.927l0,0c4.094-0.012,6.259,1.508,8.233,2.927l0,0
				c1.997,1.415,3.803,2.729,7.652,2.741l0,0c0.275,0,0.501,0.224,0.501,0.501l0,0c0,0.275-0.226,0.5-0.501,0.5l0,0
				c-0.017,0-0.033,0-0.05,0l0,0C133.638,30.918,131.482,29.404,129.514,27.991L129.514,27.991z"/>
		</g>
	</g>
	<g display="inline">
		<g>
			<path d="M129.514,45.908c-1.997-1.417-3.803-2.73-7.65-2.741l0,0c-3.849,0.011-5.655,1.324-7.652,2.741l0,0
				c-1.975,1.419-4.14,2.939-8.233,2.927l0,0c-4.096,0.012-6.26-1.508-8.234-2.927l0,0c-1.995-1.417-3.804-2.73-7.65-2.743l0,0
				c-3.848,0.013-5.654,1.326-7.651,2.743l0,0c-1.974,1.419-4.137,2.939-8.23,2.927l0,0c-4.093,0.012-6.256-1.508-8.23-2.927l0,0
				c-1.995-1.417-3.802-2.73-7.646-2.743l0,0v0.002c-0.278,0-0.501-0.226-0.501-0.501l0,0c0-0.276,0.224-0.5,0.501-0.5l0,0
				c4.091-0.012,6.254,1.508,8.229,2.927l0,0c1.995,1.415,3.802,2.729,7.648,2.741l0,0c3.847-0.012,5.653-1.326,7.65-2.741l0,0
				c1.975-1.419,4.138-2.939,8.231-2.927l0,0c4.096-0.012,6.258,1.508,8.232,2.927l0,0c1.997,1.415,3.804,2.729,7.652,2.741l0,0
				c3.848-0.012,5.654-1.326,7.651-2.741l0,0c1.976-1.419,4.141-2.939,8.234-2.927l0,0c4.094-0.012,6.259,1.508,8.233,2.927l0,0
				c1.997,1.415,3.803,2.729,7.652,2.741l0,0c0.275,0,0.501,0.224,0.501,0.501l0,0c0,0.275-0.226,0.5-0.501,0.5l0,0
				c-0.017,0-0.033,0-0.05,0l0,0C133.638,48.835,131.482,47.321,129.514,45.908L129.514,45.908z"/>
		</g>
	</g>
</g>
<g id="Layer_3">
</g>
</svg>
