<svg xmlns="http://www.w3.org/2000/svg" width="150" height="171" viewBox="0 -0.111 150 171" xml:space="preserve"><path fill="#404040" d="M24.396 170.079a.481.481 0 0 1-.481-.482V14.402a.481.481 0 1 1 .962 0v155.194a.482.482 0 0 1-.481.483zm124.387-78.037a.48.48 0 0 0-.48-.482H40.25a.48.48 0 1 0 0 .962h108.052a.48.48 0 0 0 .481-.48zm0 25.83a.48.48 0 0 0-.48-.48H40.25a.48.48 0 1 0 0 .96h108.052a.48.48 0 0 0 .481-.48zm0 25.832a.478.478 0 0 0-.48-.48H40.25a.482.482 0 0 0 0 .962h108.052a.482.482 0 0 0 .481-.482zM148.227 54.389a.72.72 0 0 1 .201-.51.74.74 0 0 1-.201-.511.721.721 0 1 1 1.233.511.727.727 0 0 1 .211.51.723.723 0 1 1-1.444 0zm-2.889 0c0-.404.316-.722.721-.722a.72.72 0 0 1 .723.722.721.721 0 1 1-1.444 0zm-2.889 0c0-.404.318-.722.723-.722a.72.72 0 0 1 .721.722.726.726 0 0 1-.721.723.723.723 0 0 1-.723-.723zm-2.89 0c0-.404.318-.722.723-.722.395 0 .723.317.723.722a.723.723 0 1 1-1.446 0zm-2.887 0c0-.404.316-.722.721-.722a.72.72 0 0 1 .723.722.721.721 0 1 1-1.444 0zm-2.891 0c0-.404.318-.722.723-.722.395 0 .723.317.723.722a.723.723 0 0 1-1.446 0zm-2.888 0c0-.404.318-.722.723-.722.395 0 .723.317.723.722a.723.723 0 1 1-1.446 0zm-2.889 0c0-.404.318-.722.723-.722.395 0 .723.317.723.722a.723.723 0 1 1-1.446 0zm-2.889 0c0-.404.318-.722.723-.722a.72.72 0 0 1 .721.722.726.726 0 0 1-.721.723.723.723 0 0 1-.723-.723zm-2.888 0c0-.404.318-.722.723-.722.395 0 .723.317.723.722a.723.723 0 1 1-1.446 0zm-2.889 0c0-.404.316-.722.721-.722a.72.72 0 0 1 .723.722.721.721 0 1 1-1.444 0zm-2.889 0c0-.404.316-.722.723-.722a.72.72 0 0 1 .721.722.722.722 0 1 1-1.444 0zm-2.888 0c0-.404.316-.722.721-.722a.72.72 0 0 1 .723.722.721.721 0 1 1-1.444 0zm-2.891 0c0-.404.318-.722.723-.722.395 0 .723.317.723.722a.723.723 0 1 1-1.446 0zm-.297-2.6c0-.404.326-.722.73-.722.396 0 .713.318.713.722a.718.718 0 0 1-.713.722.728.728 0 0 1-.73-.722zm37.854-1.31a.722.722 0 1 1 .723.722.714.714 0 0 1-.723-.722zM110.373 48.9c0-.405.326-.722.73-.722.396 0 .713.317.713.722a.718.718 0 0 1-.713.722.727.727 0 0 1-.73-.722zm37.854-1.31a.722.722 0 1 1 .723.723.716.716 0 0 1-.723-.723zm-37.854-1.579c0-.404.326-.722.73-.722.396 0 .713.317.713.722a.718.718 0 0 1-.713.722.728.728 0 0 1-.73-.722zm37.854-1.309a.721.721 0 1 1 1.442-.002.721.721 0 0 1-1.442.002zm-37.854-1.579c0-.404.326-.722.73-.722.396 0 .713.318.713.722a.718.718 0 0 1-.713.722.729.729 0 0 1-.73-.722zm37.854-1.31a.722.722 0 1 1 .723.723.716.716 0 0 1-.723-.723zm-37.854-1.58c0-.404.326-.722.73-.722.396 0 .713.317.713.722a.719.719 0 0 1-.713.723.729.729 0 0 1-.73-.723zm37.854-1.309a.721.721 0 1 1 1.444 0 .72.72 0 0 1-.721.722.715.715 0 0 1-.723-.722zm-37.854-1.579c0-.404.326-.722.73-.722.396 0 .713.317.713.722a.718.718 0 0 1-.713.722.729.729 0 0 1-.73-.722zm37.854-1.31a.722.722 0 1 1 .723.722.715.715 0 0 1-.723-.722zm-37.854-1.579c0-.405.326-.722.73-.722.396 0 .713.317.713.722a.718.718 0 0 1-.713.722.728.728 0 0 1-.73-.722zm37.854-1.31a.721.721 0 1 1 1.444 0 .722.722 0 1 1-1.444 0zm-37.854-1.579c0-.404.326-.722.73-.722.396 0 .713.317.713.722a.718.718 0 0 1-.713.722.728.728 0 0 1-.73-.722zm37.854-1.31a.721.721 0 1 1 1.442-.002.721.721 0 0 1-1.442.002zm-37.854-1.579c0-.404.326-.722.73-.722.396 0 .713.318.713.722a.718.718 0 0 1-.713.722.728.728 0 0 1-.73-.722zm37.854-1.31a.721.721 0 1 1 1.444 0 .72.72 0 0 1-.721.723.716.716 0 0 1-.723-.723zm-37.854-1.579c0-.404.326-.722.73-.722.396 0 .713.318.713.722a.719.719 0 0 1-.713.723.729.729 0 0 1-.73-.723zm37.854-1.31a.721.721 0 1 1 1.444 0 .72.72 0 0 1-.721.722.715.715 0 0 1-.723-.722zM110.373 22.9c0-.404.326-.722.73-.722.396 0 .713.318.713.722a.718.718 0 0 1-.713.722.727.727 0 0 1-.73-.722zm37.854-1.309a.722.722 0 1 1 .723.722.715.715 0 0 1-.723-.722zm-37.854-1.579c0-.405.326-.723.73-.723.396 0 .713.318.713.723a.718.718 0 0 1-.713.722.729.729 0 0 1-.73-.722zm37.854-1.31a.721.721 0 1 1 1.442-.002.721.721 0 0 1-1.442.002zm-37.854-1.579c0-.404.326-.722.73-.722.396 0 .713.318.713.722a.719.719 0 0 1-.713.723.73.73 0 0 1-.73-.723zm37.854-1.31a.721.721 0 1 1 1.444 0 .72.72 0 0 1-.721.722.715.715 0 0 1-.723-.722zm-37.854-1.579c0-.404.326-.722.73-.722.396 0 .713.318.713.722a.718.718 0 0 1-.713.722.729.729 0 0 1-.73-.722zm37.854-1.31a.721.721 0 1 1 1.444 0 .72.72 0 0 1-.721.722.715.715 0 0 1-.723-.722zm-37.854-1.579c0-.404.326-.722.73-.722.396 0 .713.318.713.722a.719.719 0 0 1-.713.723.73.73 0 0 1-.73-.723zm37.854-1.31a.721.721 0 1 1 1.444 0 .72.72 0 0 1-.721.722.715.715 0 0 1-.723-.722zm-37.854-1.579c0-.404.326-.722.73-.722.396 0 .713.318.713.722a.718.718 0 0 1-.713.722.728.728 0 0 1-.73-.722zm37.854-1.31a.722.722 0 1 1 .723.722.715.715 0 0 1-.723-.722zm-37.854-1.579c0-.405.326-.723.73-.723.396 0 .713.318.713.723a.719.719 0 0 1-.713.722.728.728 0 0 1-.73-.722zm37.854-1.31a.721.721 0 1 1 1.442-.002.721.721 0 0 1-1.442.002zm-2.245-.645a.722.722 0 1 1 1.444 0 .722.722 0 0 1-1.444 0zm-2.888 0a.72.72 0 0 1 .713-.722c.404 0 .73.328.73.722a.72.72 0 1 1-1.443 0zm-2.889 0a.722.722 0 1 1 1.444 0 .722.722 0 0 1-1.444 0zm-2.898 0a.728.728 0 0 1 1.453 0 .727.727 0 0 1-1.453 0zm-2.879 0a.722.722 0 1 1 1.444 0 .722.722 0 0 1-1.444 0zm-2.891 0a.722.722 0 1 1 1.444 0 .722.722 0 0 1-1.444 0zm-2.887 0a.72.72 0 0 1 .721-.722c.396 0 .723.328.723.722a.722.722 0 1 1-1.444 0zm-2.89 0a.722.722 0 1 1 1.444 0 .722.722 0 0 1-1.444 0zm-2.889 0a.722.722 0 1 1 1.444 0 .722.722 0 0 1-1.444 0zm-2.889 0a.722.722 0 1 1 1.444 0 .722.722 0 0 1-1.444 0zm-2.888 0a.722.722 0 1 1 1.444 0 .722.722 0 0 1-1.444 0zm-2.889 0a.722.722 0 1 1 1.444 0 .722.722 0 0 1-1.444 0zm-2.889 0a.722.722 0 1 1 1.444 0 .722.722 0 0 1-1.444 0z"/><path fill="#343434" d="M80.77 40.353c-1.66 1.367-3.609 2.5-6.837 2.5-8.132 0-8.145-7.191-15.889-7.191v-.657c8.132 0 8.144 7.19 15.889 7.19 2.8 0 4.585-.94 6.113-2.139l.724.297zm56.343-1.444a.562.562 0 0 0 .086-.137c-7.121-.17-7.551-6.559-14.566-7.136.121.104.256.227.424.363-.15.026-.268.056-.381.082l.768.277-.035.039c2.533.433 4.115 1.756 5.654 3.144.266.077.533.159.775.207-.09.083-.18.167-.266.253 1.77 1.594 3.625 3.143 6.947 3.396.233-.145.438-.304.594-.488zm-13.81-3.783c.129.06.248.122.344.202.063.054-.131.287-.266.48a8.713 8.713 0 0 1 2.846.991c.172-.183.328-.352.479-.509a9.33 9.33 0 0 0-3.403-1.164zm-5.076 1.099c.398-.269.611-.429.646-.41.078.044.152.093.229.139a10.236 10.236 0 0 1 2.496-.292c.432 0 .836.026 1.223.068l-.842-.311.486-.383c-.279-.02-.566-.032-.867-.032-1.35 0-2.473.201-3.447.531-.018.03-.037.058-.053.088-.016.029-.135.041-.309.039-3.947 1.525-5.381 5.242-9.693 6.265.051.061.104.119.158.17-.279.117-.557.328-.832.335-1.207.031-2.426.06-3.617-.031-.615-.046-1.184-.347-1.775-.532l.48-.175c-4.756-1.628-5.863-6.69-12.688-6.69-4.885 0-6.84 2.593-9.301 4.666.232.1.463.203.691.308.813-.705 1.576-1.447 2.414-2.114.033-.044.051-.049.068-.053 1.529-1.204 3.318-2.15 6.127-2.15.771 0 1.463.075 2.098.203.08-.102.164-.202.234-.299l1.152.157c-.139.132-.273.265-.41.397 2.344.763 3.809 2.354 5.465 3.799.045-.1.123-.251.201-.431.307.413.73.731.68.966a1.127 1.127 0 0 0-.025.173c.377.297.775.579 1.201.836l.09-.139c.158.162.271.275.383.389 1.254.688 2.781 1.139 4.818 1.139 6.743.002 7.905-4.936 12.519-6.626zm-1.182-6.69a2.448 2.448 0 0 0-.432-.146c-2.078 1.158-3.465 2.913-5.307 4.224.145.145.299.325.453.517 1.979-1.424 3.412-3.307 5.676-4.403-.128-.064-.259-.13-.39-.192zm-54.691-.489a9.742 9.742 0 0 0-.786-.312l-.032.039c.271.079.547.211.818.273zm2.471 1.586-.201-.164.172.196.029-.032zm-6.782.957v.658c7.744 0 7.757 7.19 15.889 7.19s8.144-7.19 15.89-7.19c4.93 0 6.729 2.914 9.482 5.031.195-.246.166-.516.102-.789-2.6-2.104-4.514-4.9-9.584-4.9-1.041 0-1.947.12-2.756.325-.275.182-.412.267-.535.261a.509.509 0 0 1-.18-.046c-4.879 1.668-5.969 6.651-12.419 6.651-1.565 0-2.812-.297-3.875-.766l-1.25-.141c.174-.071.345-.145.518-.217-3.652-2.023-5.184-6.067-11.282-6.067zm0-6.791c.233.132.454.284.692.409.216.113.459.192.69.286 6.192.761 6.838 6.723 13.81 7.097a47.99 47.99 0 0 1 1.455-.664c-.244.016-.497.026-.759.026-7.745 0-7.758-7.19-15.889-7.19v.036zm31.779 17.694c5.188 0 6.906 3.223 9.918 5.354.406.008.816.046 1.203-.039-2.256-1.308-3.721-3.375-6.041-4.704a.122.122 0 0 1-.068-.039c-1.303-.731-2.875-1.23-5.012-1.23-7.873 0-8.135 6.737-15.17 7.168-.158.077-.32.153-.484.224-.1.043-.322-.092-.533-.21-3.638-.091-5.531-1.804-7.446-3.537a1.07 1.07 0 0 0-.073.097c-.102-.106-.264-.204-.288-.323a.201.201 0 0 1 .007-.093c-1.898-1.704-3.928-3.325-7.79-3.325v.657c7.744 0 7.757 7.19 15.889 7.19 8.134 0 8.14-7.19 15.888-7.19zm43.758 6.368c-.176-.263-.291-.556-.449-.829-3.834-1.972-5.297-6.197-11.533-6.197-8.133 0-8.143 7.19-15.889 7.19-1.438 0-2.607-.249-3.613-.652a5.92 5.92 0 0 1-.326.595c1.086.439 2.357.714 3.939.714 8.133 0 8.143-7.19 15.889-7.19 6.354 0 7.506 4.837 12.203 6.575a.828.828 0 0 1-.221-.206zm-43.787-9.782c-.016-.201-.043-.455.076-.578a.525.525 0 0 0 .066-.077c-.037 0-.074-.003-.113-.003-1.023 0-1.916.114-2.713.313.117.063.256.134.43.214-.797.149-1.141.269-1.48.255a.334.334 0 0 1-.172-.072c-2.141.864-3.541 2.374-5.094 3.721.391.077.832-.126 1.289-.232 1.707-1.544 3.393-3.075 6.318-3.452-.156-.072-.281-.261-.42-.392.215-.096.43-.265.646-.265.188 0 .375.192.82.447a8.525 8.525 0 0 0-.525.159c.28-.023.567-.037.872-.038zm26.861 1.321c-.086-.096-.166-.233-.15-.259.104-.175.26-.342.434-.422.053-.024.172.125.365.321 1.154-.582 2.52-.962 4.295-.962 7.746 0 7.754 7.19 15.887 7.189v-.657c-7.586 0-7.758-6.895-15.404-7.176a.822.822 0 0 1-.148.029c-.287.023-.684.125-.893-.026-7.576.324-7.766 7.174-15.33 7.174-.551 0-1.063-.04-1.541-.108-4.139-.602-5.779-3.499-8.594-5.397-.072.051-.145.101-.211.149-.131.095-.418.018-.633.02.119-.146.205-.357.365-.425.018-.007.029-.015.045-.022-1.133-.689-2.473-1.202-4.219-1.355.006.052.012.101.008.161-.199.154-.391.321-.6.459.512.022.992.074 1.439.157.043-.019.057-.004.068.013 5.807 1.121 6.512 7.006 13.871 7.005 5.909 0 7.532-3.792 10.946-5.868zm-36.826 3.546a1.782 1.782 0 0 1-.256-.119c-1.426 1.024-3.123 1.784-5.64 1.784-3.404 0-5.314-1.39-7.077-2.946a.387.387 0 0 1-.135-.12c-2.193-1.955-4.211-4.124-8.677-4.124v.658c3.597 0 5.526 1.552 7.375 3.213.025.021.047.043.073.06 1.859 1.675 3.655 3.445 7.013 3.837-.081-.086-.16-.174-.243-.259.133-.104.314-.319.391-.292.252.089.465.266.785.466-.065.048-.131.099-.192.146.224.012.45.019.688.019 2.947 0 4.826-.944 6.394-2.147-.169-.06-.335-.12-.499-.176zM66.323 32.101c-.333-.1-.594-.07-.819.021 2.102 1.894 4.132 3.901 8.429 3.901 8.132 0 8.144-7.191 15.89-7.191 3.459 0 5.375 1.436 7.162 3.024a.424.424 0 0 1 .166-.03c.369.015.723.167 1.084.261-.143.144-.291.363-.434.504 1.297 1.168 2.641 2.313 4.574 2.94.145-.083.273-.143.41-.164.191-.029.453.271.684.424a9.94 9.94 0 0 0 2.24.231c2.043 0 3.574-.454 4.844-1.134-.105-.2-.342-.335-.627-.445-1.137.56-2.48.922-4.217.922-1.705 0-3.035-.35-4.16-.893-.209.046-.418.094-.623.144.119-.093.234-.188.354-.283-3.779-1.988-5.264-6.157-11.457-6.157-.83 0-1.57.078-2.248.212.141.994-.68.417-1.049.593-.105.05-.266.07-.359.018-.074-.042-.146-.092-.217-.139-3.146 1.243-4.691 3.882-7.424 5.39-.012.024-.018.051-.031.075-.188.337-1.033.709-1.506.668-.064-.005-.115-.018-.168-.029a9.94 9.94 0 0 1-2.888.401c-3.777 0-5.715-1.71-7.653-3.463.013.067.028.133.043.199zm71.161 16.923c-.766 0-1.455-.073-2.086-.2-.15.269-.473.452-.793.498.84.226 1.783.36 2.879.36v-.658zm-6.441-19.477c-.379.02-.727-.129-1.344-.271.217-.161.395-.311.537-.425-1.246-1.113-2.443-2.286-4.066-3.091-.145.074-.256.115-.328.083-.184-.084-.32-.251-.451-.428-1.051-.405-2.283-.654-3.793-.654-1.836 0-3.254.367-4.443.934l.098.118c-.002.234-.002.427-.002.595 1.164-.598 2.545-.99 4.348-.99 6.35 0 7.502 4.829 12.189 6.571a1.857 1.857 0 0 0-.178-.581c.145-.002.303-.019.465-.035-1.188-.441-2.145-1.095-3.032-1.826zm-21.91 2.124c.049.113.055.25.045.398a9.11 9.11 0 0 0 1.318-.567c-.445.038-.893.073-1.338.11.014.017.027.026.041.043l-.066.016zm-51.09-2.839c.957 0 1.797.111 2.548.304-.494-.313-.963-.661-1.504-.914a12.397 12.397 0 0 0-1.044-.047v.657zm17.254 3.236-.585.516c.919-.056 1.73-.209 2.455-.436.021-.05.041-.101.063-.151.104-.246.307-.471.496-.751l1.033.237c3.797-2.023 5.256-6.065 11.064-6.065 6.139 0 7.42 4.511 11.732 6.386.086-.027.17-.049.258-.063.713-.11 1.488.058 2.238.102.021.001.043.001.063.003-6.189-.912-6.75-7.084-14.291-7.084-7.736 0-8.129 6.501-14.816 7.136.093.048.202.125.29.17zm39.849-5.116c-1.432 1.111-2.611 2.431-4.117 3.437.283.059.561.124.813.205.02.006.035.016.053.024 1.141-.843 2.107-1.832 3.17-2.721a8.16 8.16 0 0 1 .081-.945zm-9.437 5.656c.494 0 .955-.027 1.391-.078a25.833 25.833 0 0 1-.336-.326l2.369-.534a.33.33 0 0 0-.021-.055c-.008-.075-.066-.136-.125-.193-.93.328-1.996.527-3.277.527-.061 0-.117-.004-.178-.005-.129.213-.25.431-.371.647.179.01.359.017.548.017zm22.434 4.663c-.051.033-.102.068-.156.099-.162.094-.398.114-.705.109 2.633 1.907 4.355 4.702 8.602 5.269-.033-.02-.066-.041-.102-.059.301-.098.602-.276.896-.277.27-.001.537.008.807.012v-.229c-4.846 0-6.667-2.817-9.342-4.924zm-65.632-7.386c.206.109.406.222.6.344-.192-.118-.384-.285-.6-.344zm74.733 2.717.139-.156.102.038v-.533a10.44 10.44 0 0 1-2.172-.219c.1.212.141.469.158.709.545.095 1.134.149 1.773.161zm-.937 2.7a9.559 9.559 0 0 1-1.43-.256c-.988-.157-1.963-.372-2.939-.576 1.221.786 2.67 1.374 4.627 1.516.197-.32.123-.541-.258-.684zm-15.395-7.108a57.68 57.68 0 0 1-.543.307c-.268.15-.75.284-.777.449l-.014.067a10.553 10.553 0 0 1 2.02-.186c1.4 0 2.547.238 3.535.624a.388.388 0 0 1 .166-.041c.195.007.492.208.559.362 1.643.821 2.852 2.054 4.164 3.21.072-.007.146-.012.217-.005.271.025.512.272.943.524-.117.065-.223.13-.318.19l.117.092c.111-.086.223-.145.34-.2-.041-.077-.07-.14-.068-.197 0-.088-.018-.187-.031-.283-2.619-2.108-4.525-4.933-9.623-4.933-.238.001-.464.009-.687.02zm-21.201 9.385c1.172.834 2.537 1.502 4.381 1.75.479-.198.92-.383 1.352-.557-2.215-.049-3.785-.697-5.104-1.588-.227.068-.432.209-.629.395zm5.422 1.843c.189.008.379.016.576.016 3.352 0 5.322-1.222 7.025-2.658l-.861-.178c-1.381 1.095-2.975 1.979-5.338 2.147-.463.228-.931.453-1.402.673zm16.465-7.833c-.09 0-.176.006-.264.008l.467.168a.496.496 0 0 1 .115-.167c-.107-.002-.209-.009-.318-.009zm-.344.011c-4.25.11-6.223 2.236-8.371 4.148.111.205.221.412.326.621 1.387-1.224 2.662-2.527 4.463-3.334.191-.644.666-.909 1.58-.57.104-.018.211-.026.316-.03a10.295 10.295 0 0 1 1.754-.179c.057-.134.043-.34-.068-.656z"/><path fill="#676767" d="M0 .112h2.506c1.256 0 2.21.806 2.21 1.942s-.954 1.941-2.21 1.941H.876v2.073H0V.112zm2.385 3.069c.857 0 1.438-.424 1.438-1.127S3.243.927 2.385.927H.876v2.254h1.509zm3.005-.095C5.39 1.413 6.812.008 8.486.008c1.673 0 3.077 1.405 3.077 3.078 0 1.673-1.404 3.086-3.077 3.086S5.39 4.759 5.39 3.086zm5.281 0c0-1.231-.997-2.271-2.185-2.271-1.188 0-2.194 1.04-2.194 2.271 0 1.24 1.006 2.28 2.194 2.28s2.185-1.04 2.185-2.28zm1.644 2.124.53-.65c.528.503 1.153.833 1.958.833.824 0 1.249-.434 1.249-.91 0-.563-.495-.781-1.491-1.006-1.214-.286-2.02-.65-2.02-1.725 0-.997.867-1.75 2.063-1.75.919 0 1.604.338 2.176.84l-.503.659c-.502-.459-1.101-.728-1.708-.728-.668 0-1.135.425-1.135.902 0 .555.51.746 1.491.979 1.188.278 2.011.676 2.011 1.743 0 1.005-.763 1.768-2.167 1.768-.997-.002-1.821-.349-2.454-.955zM19.666.927h-1.95V.112h4.786v.815h-1.96v5.141h-.875V.927zm3.595 2.159c0-1.673 1.423-3.078 3.096-3.078.85 0 1.631.355 2.193.937l-.616.589c-.398-.434-.962-.719-1.577-.719-1.187 0-2.193 1.04-2.193 2.271 0 1.24 1.007 2.28 2.193 2.28.615 0 1.179-.287 1.577-.72l.616.59a3.088 3.088 0 0 1-2.193.936c-1.673 0-3.096-1.413-3.096-3.086zm10.342 1.768H30.5l-.521 1.214h-.971L31.565.112h.972l2.557 5.956h-.97l-.521-1.214zm-.339-.789L32.05 1.239l-1.213 2.827h2.427zm5.894-.156 1.518 2.159H39.67l-1.456-2.073h-1.371v2.073h-.875V.112h2.507c1.256 0 2.209.806 2.209 1.942-.001.919-.624 1.621-1.526 1.855zm-2.316-.728h1.51c.857 0 1.438-.424 1.438-1.127S39.209.927 38.352.927h-1.51v2.254zM41.783.112h2.055c1.924 0 3.294 1.231 3.294 2.974s-1.37 2.982-3.294 2.982h-2.055V.112zm2.106 5.159c1.379 0 2.341-.901 2.341-2.185 0-1.274-.962-2.176-2.341-2.176h-1.231v4.36h1.231z"/></svg>