<svg xmlns="http://www.w3.org/2000/svg" width="150" height="171" viewBox="0 -0.111 150 171" xml:space="preserve"><path fill="#333" d="M149.166 55.25a.5.5 0 0 1-.151-.977.497.497 0 0 1 .9.296v.181a.497.497 0 0 1-.146.353.49.49 0 0 1-.353.147h-.25zm-1.84 0a.5.5 0 0 1 0-1h.248a.5.5 0 0 1 0 1h-.248zm-1.841 0a.5.5 0 0 1 0-1h.251c.274 0 .5.224.5.5s-.226.5-.5.5h-.251zm-1.839 0a.5.5 0 0 1 0-1h.251a.5.5 0 0 1 0 1h-.251zm-1.84 0a.5.5 0 0 1 0-1h.251a.5.5 0 0 1 0 1h-.251zm-1.839 0a.5.5 0 1 1 0-1h.249a.5.5 0 0 1 0 1h-.249zm-1.84 0a.5.5 0 0 1 0-1h.249a.5.5 0 0 1 0 1h-.249zm-1.842 0a.5.5 0 0 1 0-1h.251a.5.5 0 0 1 0 1h-.251zm-1.839 0a.5.5 0 1 1 0-1h.249a.5.5 0 0 1 0 1h-.249zm-1.84 0a.5.5 0 0 1 0-1h.249a.5.5 0 0 1 0 1h-.249zm-1.839 0a.5.5 0 0 1 0-1h.249a.5.5 0 0 1 0 1h-.249zm-1.841 0a.5.5 0 0 1 0-1h.251c.274 0 .5.224.5.5s-.226.5-.5.5h-.251zm-1.84 0a.5.5 0 0 1 0-1h.251c.273 0 .5.224.5.5s-.227.5-.5.5h-.251zm-1.84 0a.5.5 0 0 1 0-1h.249a.5.5 0 0 1 0 1h-.249zm-1.841 0a.5.5 0 0 1 0-1h.251c.274 0 .5.224.5.5s-.226.5-.5.5h-.251zm-1.84 0a.5.5 0 0 1 0-1h.251c.273 0 .5.224.5.5s-.227.5-.5.5h-.251zm-1.839 0a.5.5 0 0 1 0-1h.251a.5.5 0 0 1 0 1h-.251zm-1.839 0a.5.5 0 1 1 0-1h.249a.5.5 0 0 1 0 1h-.249zm-1.84 0a.499.499 0 1 1 0-1h.249a.5.5 0 0 1 0 1h-.249zm-1.842 0a.5.5 0 0 1 0-1h.251a.5.5 0 0 1 0 1h-.251zm-1.839 0a.5.5 0 1 1 0-1h.249a.5.5 0 0 1 0 1h-.249zm-1.701 0a.496.496 0 0 1-.353-.147.492.492 0 0 1-.147-.353l.003-.139a.499.499 0 0 1 .938-.235.5.5 0 0 1-.331.875h-.11v-.001zm-.5-2.23v-.251a.5.5 0 0 1 1 0v.251a.5.5 0 0 1-.5.5.501.501 0 0 1-.5-.5zm38.752-.04v-.251a.5.5 0 0 1 1 0v.251a.5.5 0 0 1-1 0zm-38.752-1.801v-.249a.499.499 0 1 1 1 0v.249a.5.5 0 0 1-1 0zm38.752-.039v-.251a.5.5 0 0 1 1 0v.251a.5.5 0 0 1-1 0zm-38.752-1.801v-.249a.5.5 0 0 1 1 0v.249a.5.5 0 0 1-1 0zm38.752-.039v-.251a.5.5 0 0 1 1 0v.251a.5.5 0 0 1-1 0zm-38.752-1.801v-.249a.5.5 0 0 1 1 0v.249a.5.5 0 0 1-1 0zm38.752-.04v-.251a.5.5 0 0 1 1 0v.251a.5.5 0 0 1-1 0zm-38.752-1.8v-.249a.5.5 0 0 1 1 0v.249a.5.5 0 0 1-1 0zm38.752-.04v-.249a.5.5 0 1 1 1 0v.249a.5.5 0 0 1-1 0zm-38.752-1.798v-.251a.5.5 0 0 1 1 0v.251c0 .273-.224.5-.5.5a.503.503 0 0 1-.5-.5zm38.752-.042v-.249a.5.5 0 1 1 1 0v.249a.5.5 0 0 1-1 0zm-38.752-1.799v-.251a.5.5 0 0 1 1 0v.251a.5.5 0 0 1-1 0zm38.752-.041v-.249a.5.5 0 1 1 1 0v.249a.5.5 0 0 1-1 0zm-38.752-1.799v-.251a.5.5 0 0 1 1 0v.251a.5.5 0 0 1-1 0zm38.752-.041v-.249a.5.5 0 0 1 1 0v.249a.5.5 0 0 1-1 0zM110.165 38.3v-.251a.5.5 0 0 1 1 0v.251a.5.5 0 0 1-1 0zm38.752-.041v-.249a.5.5 0 0 1 1 0v.249a.5.5 0 0 1-1 0zm-38.752-1.799v-.251a.5.5 0 0 1 1 0v.251a.5.5 0 0 1-1 0zm38.752-.042v-.249a.5.5 0 0 1 1 0v.249a.5.5 0 0 1-1 0zm-38.752-1.798v-.251a.5.5 0 0 1 1 0v.251a.5.5 0 0 1-1 0zm38.752-.039v-.251a.5.5 0 0 1 1 0v.251a.5.5 0 0 1-.5.5.501.501 0 0 1-.5-.5zm-38.752-1.801v-.251a.5.5 0 0 1 1 0v.251a.5.5 0 0 1-1 0zm38.752-.04v-.251a.5.5 0 0 1 1 0v.251a.5.5 0 0 1-1 0zm-38.752-1.801v-.249a.499.499 0 1 1 1 0v.249a.5.5 0 0 1-1 0zm38.752-.039v-.251a.5.5 0 0 1 1 0v.251a.5.5 0 0 1-1 0zm-38.752-1.801v-.249a.499.499 0 1 1 1 0v.249a.5.5 0 0 1-1 0zm38.752-.039v-.251a.5.5 0 0 1 1 0v.251a.5.5 0 0 1-1 0zm-38.752-1.801v-.249a.499.499 0 1 1 1 0v.249a.5.5 0 0 1-1 0zm38.752-.039v-.251a.5.5 0 0 1 1 0v.251a.5.5 0 0 1-1 0zm-38.752-1.801v-.249a.5.5 0 0 1 1 0v.249a.5.5 0 0 1-1 0zm38.752-.04v-.249a.5.5 0 1 1 1 0v.249a.5.5 0 0 1-1 0zm-38.752-1.8v-.249a.5.5 0 0 1 1 0v.249a.5.5 0 0 1-.5.5.501.501 0 0 1-.5-.5zm38.752-.039v-.251a.5.5 0 0 1 1 0v.251a.5.5 0 0 1-.5.5.501.501 0 0 1-.5-.5zm-38.752-1.801v-.249a.5.5 0 0 1 1 0v.249a.5.5 0 0 1-1 0zm38.752-.04v-.249a.5.5 0 1 1 1 0v.249a.5.5 0 0 1-1 0zM110.165 19.9v-.251a.5.5 0 0 1 1 0v.251a.5.5 0 0 1-1 0zm38.752-.041v-.249a.5.5 0 0 1 1 0v.249a.5.5 0 0 1-1 0zm-38.752-1.798v-.251a.5.5 0 0 1 1 0v.251a.5.5 0 0 1-.5.5.502.502 0 0 1-.5-.5zm38.752-.042v-.249a.5.5 0 0 1 1 0v.249a.5.5 0 0 1-1 0zm-38.752-1.799v-.251a.5.5 0 0 1 1 0v.251a.5.5 0 0 1-1 0zm38.752-.041v-.249a.5.5 0 0 1 1 0v.249a.5.5 0 0 1-1 0zm-38.752-1.799v-.251a.5.5 0 0 1 1 0v.251a.5.5 0 0 1-1 0zm38.752-.04v-.251a.5.5 0 0 1 1 0v.251a.5.5 0 1 1-1 0zm-38.752-1.8v-.251a.5.5 0 0 1 1 0v.251a.5.5 0 0 1-1 0zm38.752-.041v-.249a.5.5 0 0 1 1 0v.249a.5.5 0 0 1-.5.5.501.501 0 0 1-.5-.5zM110.165 10.7v-.251a.5.5 0 0 1 1 0v.251a.5.5 0 0 1-1 0zm38.752-.04v-.251a.5.5 0 0 1 1 0v.251a.5.5 0 0 1-1 0zm-38.752-1.801V8.61a.499.499 0 1 1 1 0v.249a.5.5 0 0 1-1 0zm38.752-.039v-.251a.5.5 0 0 1 1 0v.251a.5.5 0 0 1-1 0zm-38.752-1.8v-.249a.5.5 0 0 1 1 0v.249a.5.5 0 0 1-.5.5.502.502 0 0 1-.5-.5zm38.752-.04v-.251a.5.5 0 0 1 1 0v.251a.5.5 0 0 1-1 0zm-38.752-1.801V4.93a.499.499 0 1 1 1 0v.249a.5.5 0 0 1-1 0zm38.752-.039v-.251a.5.5 0 0 1 1 0v.251a.5.5 0 0 1-1 0zm-38.752-1.801V3.25a.51.51 0 0 1 .147-.355.514.514 0 0 1 .353-.145h.16a.501.501 0 0 1 .159.974.5.5 0 0 1-.819-.385zm39.033.411a.5.5 0 0 1 .018-1h.201c.133 0 .259.052.353.147.096.093.146.22.146.353l.002.049a.5.5 0 0 1-.5.5.521.521 0 0 1-.22-.049zm-1.822 0a.5.5 0 0 1 0-1h.248c.276 0 .503.224.503.5s-.227.5-.503.5h-.248zm-1.841 0a.5.5 0 0 1 0-1h.251c.274 0 .5.224.5.5s-.226.5-.5.5h-.251zm-1.84 0a.5.5 0 0 1 0-1h.251a.5.5 0 0 1 0 1h-.251zm-1.84 0a.5.5 0 0 1 0-1h.251a.5.5 0 0 1 0 1h-.251zm-1.838 0a.5.5 0 1 1 0-1h.249a.5.5 0 0 1 0 1h-.249zm-1.84 0a.5.5 0 0 1 0-1h.249a.5.5 0 0 1 0 1h-.249zm-1.84 0a.5.5 0 0 1 0-1h.249a.5.5 0 0 1 0 1h-.249zm-1.841 0a.5.5 0 1 1 0-1h.249a.5.5 0 0 1 0 1h-.249zm-1.84 0a.5.5 0 0 1 0-1h.249a.5.5 0 0 1 0 1h-.249zm-1.84 0a.5.5 0 0 1 0-1h.249a.5.5 0 0 1 0 1h-.249zm-1.84 0a.5.5 0 0 1 0-1h.251c.274 0 .5.224.5.5s-.226.5-.5.5h-.251zm-1.84 0a.5.5 0 0 1 0-1h.251c.273 0 .5.224.5.5s-.227.5-.5.5h-.251zm-1.84 0a.5.5 0 0 1 0-1h.251a.5.5 0 0 1 0 1h-.251zm-1.841 0a.5.5 0 0 1 0-1h.251c.274 0 .5.224.5.5s-.226.5-.5.5h-.251zm-1.84 0a.5.5 0 0 1 0-1h.251c.273 0 .5.224.5.5s-.227.5-.5.5h-.251zm-1.84 0a.5.5 0 0 1 0-1h.251a.5.5 0 0 1 0 1h-.251zm-1.838 0a.5.5 0 1 1 0-1h.249a.5.5 0 0 1 0 1h-.249zm-1.84 0a.499.499 0 1 1 0-1h.249a.5.5 0 0 1 0 1h-.249zm-1.84 0a.5.5 0 0 1 0-1h.249a.5.5 0 0 1 0 1h-.249zm-1.841 0a.5.5 0 1 1 0-1h.249a.5.5 0 0 1 0 1h-.249z"/><path fill="none" stroke="#333" stroke-linecap="round" stroke-linejoin="round" d="M39.75 92H149"/><path fill="none" stroke="#333" stroke-width="1.4" stroke-linecap="round" stroke-linejoin="round" d="M23.875 15.125V169.75"/><path fill="none" stroke="#000" stroke-linecap="round" stroke-linejoin="round" d="M39.75 117.875H149M39.75 143.75H149"/><g><path d="M111.58 27.126c.334.324.391.619.788 1.029 2.847.125 4.345 1.072 5.922 2.19 0 0-.082.039-.048.067 1.589 1.14 3.334 2.383 6.48 2.489a60.757 60.757 0 0 1-.016-1.032c-2.905-.109-4.324-1.087-5.92-2.218l-.099.137c-1.664-1.196-3.448-2.641-6.899-2.63l.001-.041c-.073-.001-.137.008-.209.009zm4.061 3.777a10.25 10.25 0 0 0-.158-.061c.014.038.025.077.037.117.074.058.142.12.204.186a2.852 2.852 0 0 0-.083-.242zm.15 1.047c.086.04.168.08.25.121a2.06 2.06 0 0 0 .038-.302 1.556 1.556 0 0 0-.355-.625c.067.238.099.508.067.806zm1.158.626a7.824 7.824 0 0 0-.333-1.223 9.715 9.715 0 0 0-.613-.304c.059.213.092.455.076.72.033.109.06.227.076.356.274.143.54.292.794.451zm1.794.158c-.616-.443-1.257-.905-1.994-1.313.285.353.438.759.382 1.274.371.241.732.494 1.1.755 0 0-.027.026-.021.03 1.61 1.156 3.408 2.351 6.639 2.422-.02-.343-.038-.685-.055-1.022-2.961-.096-4.356-1.121-5.968-2.263l-.083.117zm-.001 3.021c-.991-.712-2.053-1.46-3.471-1.951-.101.09-.202.182-.313.277a8.636 8.636 0 0 1-.413.459c1.554.36 2.646 1.02 3.767 1.815 0 0-.183.136-.133.176 1.645 1.18 3.504 2.327 6.866 2.349-.024-.323-.048-.646-.07-.967-3.097-.051-4.593-.985-6.238-2.151l.005-.007zm-3.722-2.04a7.365 7.365 0 0 1-.643.79l.063.013c.18-.148.355-.295.52-.437a6.24 6.24 0 0 0 .24-.304c-.061-.021-.119-.043-.18-.062zm-2.888 2.788c-.111-.002-.212-.012-.327-.012-.41.277-.763.497-.993.61.174-.015.36-.021.545-.027.177-.124.45-.321.775-.571zm6.681 2.176c-1.587-1.141-3.41-2.093-6.564-2.172-.339.247-.627.441-.828.564.126-.004.237-.018.368-.018v.018c3.243.009 4.756 1.228 6.439 2.423 0 0-.061.073-.055.078 1.66 1.191 3.542 2.245 6.966 2.245v.178c.014 0 .028-.163.042-.163v.061c.034 0 .063-.008.092-.015l-.071-.933c-.007 0-.014-.006-.021-.006v.208c-3.246-.01-4.777-1.146-6.462-2.339l.094-.129zm-7.024-13.681v.087c3.243.009 4.775 1.103 6.459 2.297 0 0-.017.01-.01.015 1.592 1.142 3.345 2.224 6.504 2.311.01-.192.024-.375.037-.562-2.953-.124-4.346-1.428-5.955-2.568l-.189.265c-1.665-1.196-3.395-2.588-6.846-2.578v-.061c-2.198-.007-3.743.517-5.006 1.206.482.079.979.183 1.486.307.925-.424 2.026-.715 3.52-.719zm-1.549 12.176c.175-.025.345-.055.531-.071.204-.114.572-.353 1.019-.674l-.001-.165a11.226 11.226 0 0 0-1.996.173 25.02 25.02 0 0 0-.896 1.027 8.86 8.86 0 0 1 1.138-.262c.457-.47.784-.753.87-.763a16.01 16.01 0 0 0-.665.735zm-3.777 3.7c-.203.46-.396.934-.577 1.414.181-.128.362-.254.544-.377.323-.551.68-1.094 1.05-1.615-.361.18-.699.374-1.017.578zm-1.53 1.062-.002-.002c-.909.644-1.806 1.176-2.94 1.537.061.176.147.436.255.75 1.213-.47 2.158-1.125 3.056-1.77l.12.168.036-.026c.269-.561.583-1.121.92-1.666-.51.33-.982.677-1.445 1.009zm20.521 2.361a.769.769 0 0 0-.272-.047l-.001.029c-3.245-.01-4.753-1.291-6.437-2.484l.029-.042c-1.664-1.196-3.533-2.474-6.984-2.463v.048c-1.563-.005-2.764.29-3.777.716-.314.457-.62.935-.906 1.423 1.165-.698 2.522-1.22 4.684-1.226v-.155c3.243.009 4.82 1.133 6.504 2.328 0 0-.192.176-.155.205 1.659 1.191 3.578 2.215 7.002 2.215v.04c.014 0 .028.17.042.17v-.173a.741.741 0 0 0 .309-.068c-.014-.172-.025-.344-.038-.516zM73.819 29.548c-.46.029-1.052.081-1.605.125a6.274 6.274 0 0 0-.548.513c.479-.085.974-.171 1.423-.254.272-.131.548-.261.823-.389a1.574 1.574 0 0 0-.093.005zm-13.542 2.009a19.717 19.717 0 0 0 .672-.126 1.49 1.49 0 0 1-.031-.265c-.162.003-.352.01-.551.019-.012.039-.021.079-.032.118-.021.084-.045.168-.058.254zm.698-.015c.008-.032.014-.063.024-.095l.01-.029-.059.013.001.005c.007.035.014.072.024.106zm-2.745-3.271-.035-.166.034.129c1.645.005 2.838.271 3.837.686.173-.196.362-.394.564-.589-1.133-.539-2.503-.921-4.4-.916v-.011c-.234 0-.341.047-.341.279h-.173c-.001.233.28.588.514.588zm4.202.818c.126.06.254.117.375.182a.669.669 0 0 1 .213-.086c.039-.001.006.06-.068.168.326.18.64.374.947.58a9.36 9.36 0 0 1 .625-.475 13.491 13.491 0 0 0-1.741-1.054c-.132.239-.25.47-.351.685zm4.818 2.065a11.805 11.805 0 0 1-1.078-.625c-.179.33-.222.604-.192.814.223.138.453.273.694.402.177-.11.33-.311.576-.591zm-2.568-1.582-.104-.074a7.511 7.511 0 0 0-.579.501l.118.081c.196-.184.387-.355.565-.508zm-3.402 1.261c-.103-.029-.212-.053-.319-.08a1.721 1.721 0 0 0-.042.412l.186-.001a3.2 3.2 0 0 1 .175-.331zm-1.61.384c.243-.012.478-.024.698-.033.056-.183.124-.36.205-.527-.09-.018-.19-.029-.283-.045l-1.296.203c-.154.111-.305.221-.451.331.399.008.775.032 1.127.071zm2.182.482c.184.065.361.135.533.209.065-.157.144-.345.267-.562a9.102 9.102 0 0 0-.699-.29 1.838 1.838 0 0 0-.101.643zm2.901 1.631-.042.06c1.644 1.182 3.416 2.621 6.786 2.645.042 0 .076.006.118.006v-.161c.503.002.965-.028 1.406-.072 2.585-.261 4.185-1.245 5.606-2.267l-.013-.017c1.684-1.195 3.146-2.482 6.39-2.493l-.001.223c1.233.004 2.223.141 3.068.373.145-.291.29-.59.438-.897-.971-.344-2.102-.572-3.506-.567v.001c-3.451-.011-5.264 1.406-6.929 2.603l-.071-.1c-1.59 1.127-3.003 2.257-5.885 2.389-.169.008-.325.025-.504.025v.016a11.33 11.33 0 0 1-2.217-.21c-1.544-.31-2.629-.932-3.67-1.645-.343.006-.661.054-.974.088zm-6.524-2.89v-.24a.343.343 0 0 0-.152.042l.139.701c.238-.042.497-.085.776-.129.151-.109.304-.217.456-.322a13.339 13.339 0 0 0-1.219-.052zm13.386 8.551v-.178c2.906.008 4.689-.771 6.175-1.73a43.113 43.113 0 0 1-1.573-.137c-1.157.645-2.519 1.108-4.602 1.115v.136c-3.243-.01-4.688-1.341-6.37-2.534l-.15.211c-.697-.5-1.416-1.042-2.261-1.508a6.359 6.359 0 0 1-1.217-.563c-.824-.308-1.786-.513-2.938-.556l.171.864c2.823.136 4.351 1.104 5.919 2.218l-.087.123c1.664 1.196 3.482 2.549 6.933 2.539zm.754-9.956c.033-.022.062-.043.097-.065l-.116.066a14.99 14.99 0 0 0-.614.373l.136-.025c.149-.113.315-.229.497-.349zm-1.134.704c.161-.113.329-.223.5-.33-.587.107-1.02.204-1.107.273-.09.069.178.077.607.057zm-1.371.154c.422-.374.901-.729 1.305-1.013-.147-.006-.296-.01-.437-.021-.462.265-.979.592-1.451.945.184.038.388.06.583.089zm1.282.112c.086-.088.183-.181.294-.278l-.205.011c-.122.084-.24.169-.353.255.088.006.175.009.264.012zM58.229 25.13l-.153-.047.153.047c2.691.008 4.14.825 5.517 1.785.241-.308.478-.555.689-.693-1.491-1.007-3.244-1.893-6.206-1.884v-.112c-.234 0-.372.205-.372.438h-.058c0 .231.197.466.43.466zm6.364 2.384-.007.009c.438.315.898.638 1.396.944.434.267.899.521 1.412.743.463.2.975.366 1.526.501.399-.271.884-.563 1.475-.875a8.625 8.625 0 0 1-1.981-.434 8.208 8.208 0 0 1-1.295-.579c-.656-.366-1.244-.793-1.865-1.234l-.096.136c-.137-.099-.279-.197-.419-.295-.165.172-.422.4-.73.666l.584.418zm33.803 5.491v-.226c3.451.01 5.25-1.202 6.914-2.398l.001.001c1.56-1.106 3.021-2.117 5.805-2.268-.294-.343-.386-.611-.759-.91-2.568.303-4.164 1.41-5.582 2.429l.16.224c-1.684 1.193-3.296 2.123-6.539 2.133v.106a10.097 10.097 0 0 1-2.386-.276l-.095.252-.152.61c.767.198 1.625.326 2.633.323zm-28.993-1.093a8.948 8.948 0 0 1-1.606-.496c-.165.275-.221.528-.202.756a9.923 9.923 0 0 0 2.04.565c.601.1 1.248.166 1.979.164v-.042c3.451.01 5.239-1.295 6.903-2.491l.039.056c1.684-1.195 3.203-2.262 6.447-2.273v-.063c1.898.006 3.203.399 4.301.959.123-.269.246-.541.369-.815-1.209-.559-2.675-.951-4.67-.945v-.15c-3.451-.01-5.19 1.517-6.855 2.713l-.014-.018c-1.684 1.193-3.277 2.21-6.52 2.22v.079c-.177 0-.331-.017-.498-.023.237.365.646.591.784.645-.189-.035-.702-.314-1.217-.665-.458-.04-.888-.095-1.28-.176zm28.993 3.981h.021c.053-.028.105-.059.153-.076-.035.002-.079.03-.127.074 3.42 0 5.311-1.159 6.967-2.35l-.078-.111c1.684-1.194 3.212-2.276 6.457-2.285v.006c1.633.005 2.827.286 3.825.715a2.145 2.145 0 0 0-.095-.907 2.656 2.656 0 0 0-.372-.244c-.935-.314-2.024-.516-3.358-.512v.014c-3.451-.01-5.324 1.271-6.99 2.467l-.018-.024c-1.684 1.193-3.142 2.348-6.385 2.358v.01c-1.283-.004-2.297-.169-3.166-.436-.095-.029-.183-.063-.274-.094-1.05-.363-1.891-.879-2.722-1.457-.154.275-.306.535-.454.787.826.561 1.741 1.056 2.874 1.404.111.034.22.071.336.103.953.256 2.059.41 3.405.406l.001.152zm-6.925-3.553c-.653-.461-1.358-.92-2.186-1.299-.156.285-.311.559-.465.829.865.325 1.587.763 2.306 1.257.113-.253.228-.517.345-.787zm6.925 6.462a13.4 13.4 0 0 0 1.253-.054c.267-.396.495-.683.667-.821-.569.109-1.195.178-1.92.181v-.05c-.179 0-.347-.008-.514-.016-.123.222-.247.455-.37.7.286.018.569.038.883.037l.001.023zm-1.468-.11.131-.295-.201.286.07.009zm7.901-2.943-.039-.055c-1.271.9-2.421 1.81-4.303 2.207a22.76 22.76 0 0 0-.836.848c2.659-.24 4.226-1.261 5.675-2.303l.044.061c1.684-1.195 3.174-2.216 6.419-2.225v-.035a12.86 12.86 0 0 1 2.336.205c.256-.265.481-.532.669-.795a10.66 10.66 0 0 0-3.005-.399v-.034c-3.451-.012-5.294 1.329-6.96 2.525zm-7.481 2.254-.104-.009-.186.402c.098-.134.194-.266.29-.393zm-3.156-.938a.726.726 0 0 1-.195.184c-.112.086-.108-.027-.021-.297-.688-.394-1.297-.851-1.941-1.308l-.104.146c-.308-.221-.623-.449-.949-.676-.191.291-.37.551-.534.774.317.208.63.424.949.651l.123-.172c1.255.901 2.563 1.819 4.608 2.212.153-.236.306-.464.455-.677a7.828 7.828 0 0 1-2.391-.837zm-7.027-2.561c1.154.22 2.029.617 2.832 1.1l.402-.876a9.752 9.752 0 0 0-2.589-1.191c-.226.353-.44.673-.645.967zm-2.162-.192c.608.002 1.138.05 1.634.118.17-.318.355-.673.554-1.056a10.348 10.348 0 0 0-2.188-.22l.001.173c-3.451-.01-5.226 1.318-6.89 2.514l-.069-.096c-.435.308-.857.609-1.3.888.515.067 1.007.119 1.479.16.126-.088.255-.174.379-.264l-.003-.004c1.684-1.195 3.16-2.519 6.403-2.53v.317zm12.512 6.795a9.98 9.98 0 0 1-1.019-.127c-.115.278-.228.559-.337.841.206.041.43.068.65.098.238-.276.473-.547.706-.812zm-3.018.218c.145-.264.29-.524.437-.781-1.155-.451-2.05-1.095-2.984-1.757l-.083.115c-1.665-1.196-3.409-2.71-6.862-2.7v.21c-1.553-.005-2.783.216-3.832.561.798.04 1.593.085 2.432.17a9.621 9.621 0 0 1 1.399-.111v.288l.095.017c3.176.028 4.737.896 6.402 2.078l-.076.108c.892.642 1.85 1.314 3.072 1.802zm.567.214c.211.069.441.125.669.18.053-.098.113-.198.16-.295.016-.107.073-.296.153-.534a8.796 8.796 0 0 1-.522-.137 41.7 41.7 0 0 0-.46.786zm3.332.285c3.451.01 5.207-1.243 6.872-2.439l.038.053c.923-.655 1.811-1.301 2.958-1.756.467-.605.94-1.039 1.4-1.225-2.151.405-3.546 1.397-4.831 2.32l.021.028c-1.685 1.193-3.215 2.224-6.458 2.234v.113c-.052 0-.094-.006-.145-.007-.147.279-.297.566-.445.859.196.009.381.027.59.027v-.207zm0-11.962c3.451.01 5.228-1.336 6.893-2.533l.145.203c.713-.506 1.388-1.031 2.167-1.476a19.628 19.628 0 0 0-1.394-.312 24.57 24.57 0 0 0-1.38.937l-.024-.034c-1.684 1.193-3.164 2.236-6.407 2.247l.001.103c-.504-.002-.95-.04-1.374-.094a52.05 52.05 0 0 1-.291.894c.517.066 1.061.112 1.665.11v-.045zm-24.466-.328c2.066-.343 3.441-1.149 4.689-2.047l-.054-.075c1.684-1.194 3.195-2.157 6.439-2.168l-.001-.269c2.534.008 4.05.708 5.395 1.583.111-.264.22-.529.327-.793-1.401-.806-3.119-1.401-5.722-1.393v-.167c-3.451-.01-5.264 1.325-6.928 2.521l.048.068c-1.392.986-2.729 1.88-4.979 2.169-.121.085-.244.174-.365.265 1.104-.183 2.353-.376 3.074-.53-.467.177-1.174.489-1.923.836zm17.435-2.014c.502.361 1.034.718 1.617 1.046.372.21.765.41 1.194.584.661.269 1.413.475 2.263.605.064-.304.127-.609.188-.915a7.987 7.987 0 0 1-2.048-.625 9.943 9.943 0 0 1-1.235-.7c-.446-.293-.875-.606-1.318-.92l-.009.012c-.154-.111-.315-.22-.476-.328-.109.277-.221.553-.339.828l.305.213-.142.2zm1.104 14.661a2.088 2.088 0 0 1-.378.671l.167.114a2.69 2.69 0 0 0 .448-.622c-.079-.054-.159-.108-.237-.163zm2.323 2.158c.143.053.293.102.444.149.072-.239.148-.481.229-.728l-.162-.051-.511.63zm3.604-.162a11.097 11.097 0 0 1-1.587-.114c-.113.245-.224.488-.329.728.578.097 1.211.151 1.916.149v-.054c1.259.004 2.292-.163 3.184-.431-.025-.357.021-.666.153-.908-.912.259-1.976.415-3.338.419l.001.211zm-4.606-.281c.104.053.209.105.317.156.169-.205.335-.41.492-.614a8.084 8.084 0 0 1-.458-.219c-.12.227-.236.452-.351.677zm-.986-1.19c.152.025.013.187-.302.424.257.173.527.341.807.503.11-.229.224-.458.34-.687-.274-.161-.541-.33-.799-.505-.009.083-.022.17-.046.265zm-.857-.894.048-.066a25.41 25.41 0 0 0-1.312-.896c-.441-.159-.886-.365-1.272-.684-1.156-.533-2.549-.912-4.407-.906v.019c-3.451-.01-5.222 1.415-6.886 2.611l-.041-.057c-1.684 1.193-3.22 2.344-6.462 2.354v-.104c-3.243-.01-4.727-1.13-6.409-2.323l-.101.14c-1.397-1.004-2.877-2.231-5.354-2.597a10.098 10.098 0 0 0-1.522-.117v.323c-.234 0-.369.027-.369.259h.087c0 .232.046.297.28.297l-.026.124.027-.034c.614.002 1.149.057 1.651.135 2.148.333 3.406 1.279 4.77 2.248l-.035.048c1.665 1.196 3.549 2.553 7 2.543v-.117c3.451.01 5.353-1.205 7.017-2.401l-.041-.057c1.684-1.194 3.169-2.341 6.413-2.352v-.073c3.243.011 4.798 1.136 6.479 2.331l.021-.028c.141.101.283.203.427.304.19-.246.306-.472.364-.678l-.347-.246zM93.056 31.5c.75.468 1.602.884 2.634 1.161l.227-.589.063-.261a8.54 8.54 0 0 1-2.532-1.091c-.35-.218-.688-.447-1.021-.683l-.465-.33.051-.071a17.243 17.243 0 0 0-1.507-.981c-.134.282-.269.561-.406.835.465.29.906.603 1.357.923l.005-.006c.208.15.419.303.635.456.302.217.625.43.959.637zm-34.794 5.668-.032-.165c.42.001.808.028 1.172.073 2.442.3 3.718 1.494 5.182 2.534l.052-.075c1.665 1.196 3.527 2.352 6.979 2.342v.236c3.451.01 5.203-1.537 6.867-2.733l.163.229c1.178-.835 2.245-1.748 3.882-2.23a44.734 44.734 0 0 0-2.052-.148c-.957.398-1.76.9-2.503 1.434l.014.017c-1.684 1.193-3.128 2.465-6.371 2.476v.09c-3.243-.01-4.824-1.179-6.506-2.372l.02-.028c-1.488-1.069-3.082-2.304-5.866-2.548-.33-.029-.668-.052-1.033-.051v.201c-.234 0-.464.066-.464.298h-.099c0 .232.327.285.562.285l.033.135z" opacity=".6"/></g></svg>