<svg xmlns="http://www.w3.org/2000/svg" width="473.1" height="502" xml:space="preserve"><path opacity=".1" fill="#231F20" d="M466.1 238.9c-.9-28.4-10.9-54.8-28.2-74.4-9.7-11-21.5-19.7-34.8-25.6-13.8-6.2-29.1-9.3-45.3-9.3h-1.9c-9.1.1-18.1 1.2-26.8 3.2-10.1-17.3-23.6-32-38.2-41.1-12.8-8-27-12.9-41.3-14.3-2.4-.2-4.9-.3-7.3-.3-17.9 0-38.8 6.3-54.6 16.5-15.2 9.8-26.4 23.8-33.1 33.7-8.4 12.4-15.1 26.5-18.9 39.6-1.4 4.6-2.6 9.5-3.5 14.5-9.1-3.1-18.3-4.9-27.7-5.5-2.1-.1-4.2-.2-6.3-.2-13.1 0-25.5 2.5-37 7.3-13.5 5.7-25.8 15-35.7 26.8-11.7 14.1-20.3 33.7-23.6 53.8-1 5.5-1.5 11.2-1.8 17.8v.4c-.3 11.4.8 23.1 3.3 34.7 2.1 9.9 5.3 20 9.8 30.9 8 19.3 18.1 35 28.7 50.7l.4.6.4.5c4.9 6.7 10.8 14.6 17.6 22.5 20.1 23.1 39.3 40.1 64.3 56.8l.1.1.1.1c7.4 4.8 15.8 9.7 24.9 14.6l1.8 1 14.6 7.7 15.6-5.6 1.8-.7c27.5-9.9 56.7-26.4 76.1-43.3 17-14.7 31.3-30.1 42.7-46.1 31.8-7.3 62.5-20.8 89.6-39.3.7-.4 2.9-2 2.9-2 9.8-6.7 18.9-14.1 27-22.1l.1-.1.1-.1c9.3-9.2 16.8-18.4 23.1-28 14.3-22.1 21.8-49.1 21-75.8z"/><path fill="#FFF" d="M466.1 210.6c-.9-28.4-10.9-54.8-28.2-74.4-9.7-11-21.5-19.7-34.8-25.6-13.8-6.2-29.1-9.3-45.3-9.3h-1.9c-9.1.1-18.1 1.2-26.8 3.2-9.9-17.2-23.5-31.9-38.1-41.1-12.8-8-27-12.9-41.3-14.3-2.4-.2-4.9-.3-7.3-.3-17.9 0-38.8 6.3-54.6 16.5-15.2 9.8-26.4 23.8-33.1 33.7-8.4 12.4-15.1 26.5-18.9 39.6-1.4 4.6-2.6 9.5-3.5 14.5-9.1-3.1-18.3-4.9-27.7-5.5-2.1-.1-4.2-.2-6.3-.2-13.1 0-25.5 2.5-37 7.3-13.5 5.7-25.8 15-35.7 26.8-11.9 14.2-20.5 33.8-23.8 53.8-1 5.5-1.5 11.2-1.8 17.8v.4c-.3 11.4.8 23.1 3.3 34.7 2.1 9.9 5.3 20 9.8 30.9 8 19.3 18.1 35 28.7 50.7l.4.6.4.5c4.9 6.7 10.8 14.6 17.6 22.5 20.1 23.1 39.3 40.1 64.3 56.8l.1.1.1.1c7.4 4.8 15.8 9.7 24.9 14.6l1.8 1 14.5 7.7 15.6-5.6 1.8-.7c27.5-9.9 56.7-26.4 76.1-43.3 17-14.7 31.3-30.1 42.7-46.1 31.8-7.3 62.5-20.8 89.6-39.3.7-.4 2.9-2 2.9-2 9.8-6.7 18.9-14.1 27-22.1l.1-.1.1-.1c9.3-9.2 16.8-18.4 23.1-28 14.5-22.1 22-49.1 21.2-75.8z"/><path fill="#FFF" d="M285 0c107.5 0 191.7 85.2 188 190.4-3.6 102.8-82.3 183.7-177.2 183.7-2.1 0-4.3 0-6.4-.1-97.7-3.8-181.9-89-188-190.4C95.3 82.2 177.5 0 285 0"/><path fill="#676767" d="M285.7 66.4c69.3 0 123.6 55 121.3 122.8-2.3 66.3-53.1 118.5-114.3 118.5-1.4 0-2.8 0-4.1-.1-63-2.4-117.3-57.4-121.3-122.8-3.9-65.4 49.1-118.4 118.4-118.4m0-15.3c-19.7 0-38.5 3.8-55.9 11.2-17 7.2-31.9 17.6-44.3 30.7-23.7 25.2-35.6 58.1-33.5 92.7 2.1 35.3 17.3 69 42.9 94.9 25.7 26 58.7 41 93.1 42.3 1.6.1 3.2.1 4.7.1 33.8 0 65.9-13.9 90.2-39 24.1-25 38.1-58.4 39.4-94.2 1.3-36.5-11.9-71-37.1-97.1-12.6-13-27.5-23.3-44.3-30.4-17.3-7.5-35.9-11.2-55.2-11.2z"/><path fill="#CDCCCC" d="M412.3 190.3c-2.5 70.8-57.8 126.2-123.7 123.7-65.8-2.5-122.5-60-126.7-128.3-4-68.3 51.4-123.7 123.8-123.7s129.1 57.5 126.6 128.3z"/><path fill="#989898" d="M304.4 63.4c41.4 21.3 68.6 64.4 66.9 113.9-2.5 70.8-57.8 126.2-123.7 123.7-3.7-.1-7.3-.5-10.9-.9 16 8.3 33.6 13.2 51.9 13.9 65.8 2.5 121.2-52.8 123.7-123.7 2.3-64.6-44.7-118-107.9-126.9z"/><path fill="#676767" d="M320.3 221.3c-7.6 7.5-23.8 10.4-40.1 7.4s-30.3-11.6-34.7-21.3c-1.5-3.2-5.2-4.6-8.4-3.1-3.2 1.5-4.6 5.2-3.1 8.4 6.2 13.5 23.4 24.7 43.9 28.6 20.5 3.8 40.7-.4 51.3-10.8 2.5-2.5 2.6-6.5.1-9a6.34 6.34 0 0 0-9-.2zM253.2 143.3c6.7 1.2 7.5 2.9 7.5 2.9 2.8 5.5 6.6 7.8 8.4 5.1l.6-3.1c1.7-9.1-4.3-17.8-13.4-19.5-9.1-1.7-17.8 4.3-19.5 13.4l-.5 2.7c.5 2.8 4.8 2 9.6-1.9 0 0 .9-.7 7.3.4zM338.7 144.1c-9.1-1.7-17.8 4.3-19.5 13.4l-.5 2.9c.6 3 4.8 2 9.2-2.3 0 0 1.8-1.8 8.9-.5 6.6 1.2 7.3 2.6 7.3 2.6 2.9 5.4 6.3 8 7.6 5.8l.5-2.4c1.6-9.1-4.4-17.8-13.5-19.5z"/><path fill="#FFF" d="M251.1 86.3c3.2-2 7.5-1.8 10.5.5s4.4 6.4 3.3 10c-1.1 3.7-4.6 6.5-8.4 6.7s-7.6-2.2-9.1-5.7c-1.6-4.1 0-9.2 3.7-11.5zm-11.5 15.5c-.3-3.7-3.6-6.7-7.2-7.4-3.6-.7-7.4.4-10.7 2.2-6.7 3.6-12.3 9.3-15.7 16-1.4 2.8-2.3 6.7.1 8.8 1.2 1.1 3 1.3 4.6 1 1.6-.3 3.1-1 4.5-1.8 3.7-1.9 10.8-4.3 16.4-7.8 4.7-2.7 8.3-6.3 8-11zM169.2 427.7c-41.1-21.2-76.9-54.9-102.6-96.6-12.5-20.3-22.8-43.2-24.4-67.8-1.6-24.6 7.1-51.1 25.6-64.4 15.1-10.9 34.9-11.7 52.1-5.4 17.1 6.3 31.8 19 44.4 33.4 10.6-30.1 45-51.5 73.9-49.8 28.9 1.7 55.7 25.6 63.4 56.7 7.4 29.8-1.7 61.9-15.7 88.6-25.6 48.7-68.2 88.9-116.7 105.3z"/><path fill="#CDCCCC" d="M238.2 177.1c-4-.2-8.1 0-12.3.6 46.7 42.7 39.9 127.7 2 174.4-24.3 29.9-62.4 46.8-100.7 48.1 13.2 10.7 27.3 19.9 42.1 27.6 48.5-16.4 91.1-56.6 116.7-105.4 14-26.7 23.1-58.8 15.7-88.6-7.9-31.1-34.6-55.1-63.5-56.7z"/><path fill="#676767" d="M309.8 253.4c-.1-4.8-.6-9.6-1.4-14.6-.2-1.2-.5-2.3-.7-3.4l-.4-1.7-.2-.8v-.2l-.1-.3v-.1l-.1-.4-1-3.5c-.3-1.2-.7-2.4-1.2-3.5-.9-2.3-1.7-4.6-2.8-6.8l-1.6-3.3-1.8-3.2c-9.4-16.7-23.9-31.4-42.2-38.1-20-7.3-40.8-1.1-58.9 9-8.4 4.7-16 10.9-22.5 18.1-4.8 5.4-9 11.4-12.1 18-4.2-4.4-8.6-8.7-13.3-12.6-13.7-11.5-29.5-19.6-47.5-20.7-8.9-.5-18 .7-26.4 4.2-8.3 3.5-15.7 9.4-21.4 16.3-2.9 3.5-5.2 7.3-7.3 11.2-2 3.9-3.7 8-5.1 12.2-1.3 4.2-2.4 8.4-3.1 12.7-.8 4.3-1.1 8.6-1.3 13-.2 8.7.7 17.4 2.5 25.8 1.8 8.4 4.5 16.6 7.8 24.5 3.3 7.9 7.1 15.4 11.4 22.8 1.1 1.9 2.1 3.6 3.2 5.4l3.4 5.4c2.2 3.6 4.7 7 7.1 10.5 5 6.8 10 13.6 15.6 19.9 5.5 6.4 11.2 12.6 17.3 18.5 3 3 6.1 5.8 9.3 8.6 1.6 1.4 3.2 2.7 4.8 4.1s3.2 2.7 4.9 4c6.5 5.4 13.5 10.2 20.5 14.9 7 4.6 14.6 8.9 21.8 12.7l1.8 1 1.8-.7c4.4-1.6 8.9-2.9 13.2-4.9 2.2-.9 4.4-1.8 6.5-2.8l6.3-3.1c31.7-15.4 57.3-41.2 77.9-69.4 6.6-9.9 12.7-19.7 18-30.1 4.2-8.4 7.9-17.1 10.7-26.2 2.8-9 5-18.3 6-27.9.5-4.9.8-9.7.6-14.5zM298 266.6c-.9 8.6-2.9 17.2-5.6 25.6-2.7 8.4-6.1 16.6-10.1 24.5l-1.5 3c-16.6 29.9-36.2 55.6-63.8 76.3l-2.7 2c-7.1 5.4-14.7 10-22.4 14.4-7.2 4-14.8 7.3-22.4 10.3-6.7-3.6-13-7.2-19.3-11.3-6.8-4.5-13.4-9.2-19.7-14.4-1.6-1.2-3.2-2.6-4.7-3.9s-3.1-2.6-4.6-4c-3-2.8-6.1-5.4-8.9-8.3-5.9-5.6-11.4-11.6-16.7-17.8-5.3-6.2-10.3-12.7-15.1-19.3-2.3-3.4-4.7-6.7-6.8-10.2l-3.3-5.1c-1.1-1.8-2.2-3.6-3.1-5.3-4.1-7-7.7-14.3-10.9-21.7-3.1-7.4-5.6-15.1-7.3-22.9-1.7-7.8-2.5-15.7-2.3-23.6.2-3.9.5-7.9 1.2-11.7.6-3.9 1.6-7.7 2.8-11.4 1.2-3.7 2.7-7.3 4.5-10.8 9-16.3 19.6-24.5 38.9-26 18.4-1.4 35.7 6.2 49.7 17.9 5.6 4.6 10.7 9.8 15.6 15.3-4.6 12.3-7.1 25.2-7.4 38.4 0 2.4 1.9 4.4 4.3 4.4h.1c2.4 0 4.3-1.9 4.3-4.3.2-10.6 2-21.1 5.3-31.1l.1.1 2.7-7.3c2.9-7.9 7.6-15.2 13.4-21.5 5.8-6.3 12.7-11.7 20.3-15.8 33.7-18.2 68.3-7.2 86.6 25.8l1.5 2.8 1.3 2.9c4.2 8.4 6.4 21.7 6.8 31-.1 4.4-.4 8.7-.8 13z"/><path fill="#CDCCCC" d="M97.2 205.1c3.8.2 7.6 3.3 7.8 7.3.1 2.9-1.6 5.6-3.9 7.2-2.3 1.6-5 2.4-7.6 3-2.1.5-4.3 1-6.4.6-2.1-.4-4.3-1.6-5.1-3.7-1.6-3.8 1.6-8 4.8-10.4 3-2.2 6.6-4.2 10.4-4zm-21.3 62.7c1.6-6.8 3.2-13.5 4.8-20.3.8-3.4 1.5-7.2-.3-10.2-2.4-4-8.2-4-11.7-1.2-3.4 2.8-5 7.5-6 12-1.3 5.5-2 11.1-2.2 16.7-.1 2.9-.1 5.9 1.1 8.6 1.1 2.7 3.6 5 6.3 4.9 2.3 0 4.4-1.7 5.6-3.7 1.3-2.1 1.9-4.5 2.4-6.8z"/></svg>