<?xml version="1.0" encoding="utf-8"?>
<!-- Generator: Adobe Illustrator 13.0.0, SVG Export Plug-In . SVG Version: 6.00 Build 14948)  -->
<!DOCTYPE svg PUBLIC "-//W3C//DTD SVG 1.1//EN" "http://www.w3.org/Graphics/SVG/1.1/DTD/svg11.dtd">
<svg version="1.1" id="Layer_1" xmlns="http://www.w3.org/2000/svg" xmlns:xlink="http://www.w3.org/1999/xlink" x="0px" y="0px"
	 width="466.2px" height="453.3px" viewBox="0 0 466.2 453.3" enable-background="new 0 0 466.2 453.3" xml:space="preserve">
<path opacity="0.1" fill="#231F20" enable-background="new    " d="M466.2,190.2c-0.9-28.4-10.9-54.8-28.2-74.4
	c-9.7-11-21.5-19.7-34.8-25.6c-13.8-6.2-29.1-9.3-45.3-9.3c-0.6,0-1.3,0-1.9,0c-9.1,0.1-18.1,1.2-26.8,3.2
	C319.1,66.8,305.6,52.1,291,43c-12.8-8-27-12.9-41.3-14.3c-2.4-0.2-4.9-0.3-7.3-0.3c0,0,0,0,0,0c-17.9,0-38.8,6.3-54.6,16.5
	c-15.2,9.8-26.4,23.8-33.1,33.7c-8.4,12.4-15.1,26.5-18.9,39.6c-1.4,4.6-2.6,9.5-3.5,14.5c-9.1-3.1-18.3-4.9-27.7-5.5
	c-2.1-0.1-4.2-0.2-6.3-0.2c-13.1,0-25.5,2.5-37,7.3c-13.5,5.7-25.8,15-35.7,26.8c-11.7,14.1-20.3,33.7-23.6,53.8
	c-1,5.5-1.5,11.2-1.8,17.8l0,0.2l0,0.2c-0.3,11.4,0.8,23.1,3.3,34.7c2.1,9.9,5.3,20,9.8,30.9c8,19.3,18.1,35,28.7,50.7l0.4,0.6
	l0.4,0.5c4.9,6.7,10.8,14.6,17.6,22.5c20.1,23.1,39.3,40.1,64.3,56.8l0.1,0.1l0.1,0.1c7.4,4.8,15.8,9.7,24.9,14.6l1.8,1l14.6,7.7
	l15.6-5.6l1.8-0.7c27.5-9.9,56.7-26.4,76.1-43.3c17-14.7,31.3-30.1,42.7-46.1c31.8-7.3,62.5-20.8,89.6-39.3c0.7-0.4,2.9-2,2.9-2
	c9.8-6.7,18.9-14.1,27-22.1l0.1-0.1l0.1-0.1c9.3-9.2,16.8-18.4,23.1-28C459.5,243.9,467,216.9,466.2,190.2z"/>
<path fill="#FFFFFF" d="M466.2,161.9c-0.9-28.4-10.9-54.8-28.2-74.4c-9.7-11-21.5-19.7-34.8-25.6c-13.8-6.2-29.1-9.3-45.3-9.3
	c-0.6,0-1.3,0-1.9,0c-9.1,0.1-18.1,1.2-26.8,3.2c-9.9-17.2-23.5-31.9-38.1-41.1c-12.8-8-27-12.9-41.3-14.3c-2.4-0.2-4.9-0.3-7.3-0.3
	c0,0,0,0,0,0c-17.9,0-38.8,6.3-54.6,16.5c-15.2,9.8-26.4,23.8-33.1,33.7c-8.4,12.4-15.1,26.5-18.9,39.6c-1.4,4.6-2.6,9.5-3.5,14.5
	c-9.1-3.1-18.3-4.9-27.7-5.5c-2.1-0.1-4.2-0.2-6.3-0.2c-13.1,0-25.5,2.5-37,7.3c-13.5,5.7-25.8,15-35.7,26.8
	C13.8,147,5.2,166.6,1.9,186.6c-1,5.5-1.5,11.2-1.8,17.8l0,0.2l0,0.2c-0.3,11.4,0.8,23.1,3.3,34.7c2.1,9.9,5.3,20,9.8,30.9
	c8,19.3,18.1,35,28.7,50.7l0.4,0.6l0.4,0.5c4.9,6.7,10.8,14.6,17.6,22.5c20.1,23.1,39.3,40.1,64.3,56.8l0.1,0.1l0.1,0.1
	c7.4,4.8,15.8,9.7,24.9,14.6l1.8,1L166,425l15.6-5.6l1.8-0.7c27.5-9.9,56.7-26.4,76.1-43.3c17-14.7,31.3-30.1,42.7-46.1
	c31.8-7.3,62.5-20.8,89.6-39.3c0.7-0.4,2.9-2,2.9-2c9.8-6.7,18.9-14.1,27-22.1l0.1-0.1l0.1-0.1c9.3-9.2,16.8-18.4,23.1-28
	C459.5,215.6,467,188.6,466.2,161.9z"/>
<g>
	<g>
		<path fill="#DD3940" d="M214.6,291.4c-26-38.2-41.4-85-44.1-133.8c-1.3-23.8,0.5-48.9,10.9-71.3c10.3-22.4,30.6-41.5,53.2-44.4
			c18.5-2.3,36.3,6.4,48.4,20s19,31.8,23.1,50.5c23.6-21.4,64.1-23.8,88.7-8.6c24.6,15.2,36.7,49.1,28.7,80.1
			c-7.7,29.7-31,53.6-56,70.4C321.7,285,265.1,300,214.6,291.4z"/>
		<path fill="#BC3641" d="M423.5,184c5.8-22.3,1.1-46.1-11.1-63.4c3.5,22.8,1.1,46.5-7.4,67.9c-9.8,24.4-34.8,48.1-59.5,39.1
			c-20.1-7.4-27.3-31.5-40.1-48.7c-25.6-34.4-80.7-39.4-115-13.6c-6.6,5-12.4,10.9-17.3,17.5c5.8,39.6,20.1,76.9,41.5,108.5
			c50.4,8.6,107.1-6.3,152.8-37C392.5,237.6,415.8,213.7,423.5,184z"/>
		<path fill="#77303E" d="M428.6,163c-1.2-38.4-25.9-73.6-72.2-72.9c-9.6,0.1-19.1,1.8-28.2,4.9c-7,2.4-13.7,5.9-19.8,10.3
			c-1.6-6.1-3.5-12.2-5.9-18.1c-6-15-17.7-31.9-31.6-40.6c-7.5-4.7-16-7.9-25-8.8c-12.2-1.2-27.9,3.8-37.9,10.3
			c-3.6,2.5-7,5.2-10.2,8.2c-3.1,3-6.1,6.2-8.7,9.6c-2.7,3.4-5.1,7-7.3,10.8c-4.3,7.5-7.6,15.5-10,23.8c-2.4,8.2-3.9,16.7-4.8,25.1
			c-2.8,26.5-0.4,49.9,5.2,75.5c1.8,8.2,3.8,16.4,6.4,24.4c1.2,4,2.6,8,4,12c0.7,2,1.5,3.9,2.3,5.9c0.7,2,1.5,3.9,2.4,5.9
			c3.2,7.8,6.9,15.4,10.9,22.8c4,7.4,8.5,14.8,13.1,21.6l1,1.5l1.7,0.3c9.2,1.6,18.5,2.7,27.9,2.9c46,0.7,91.2-13.5,128.8-39.2
			c0,0,2.9-2,2.9-2c7.8-5.3,15.1-11.3,21.9-17.9c6.7-6.7,12.9-13.9,18.1-21.9C424.3,200.9,429.2,181.6,428.6,163z M420.5,169.5
			c-0.9,11.2-3.8,22.2-8.5,30.8c-0.5,1-1,1.9-1.6,2.9l-1.7,2.8c-1.1,1.9-2.4,3.6-3.6,5.4c-5.1,7.1-11.1,13.6-17.5,19.6
			c-3.2,3-6.6,5.9-10,8.7c-16,13.3-34.7,18.7-52.7,28.1c-10.4,5.4-18.7,10.6-30.2,13.8l-3.2,0.9l-3.3,0.8l-6.5,1.5l-6.6,1.2
			c-1.1,0.2-2.2,0.4-3.3,0.6l-3.3,0.5c-8.8,1.4-17.7,1.9-26.6,2.1l-6.7-0.1c-2.2,0-4.4-0.3-6.7-0.4c-3.9-0.2-7.7-0.7-11.6-1.2
			c-4.2-6.4-8.1-12.7-11.7-19.4c-3.8-7.2-7.5-14.5-10.5-22.1c-0.8-1.9-1.6-3.8-2.3-5.7c-0.7-1.9-1.5-3.8-2.2-5.7
			c-1.3-3.9-2.7-7.7-3.9-11.6c-2.5-7.8-4.5-15.7-6.2-23.7c-5.2-23.6-7.7-48.9-5.1-72.9c0.9-8,2.2-16,4.5-23.7
			c2.2-7.7,5.3-15.1,9.3-22c2-3.4,4.2-6.7,6.7-9.8c2.4-3.1,5.1-6,7.9-8.8c2.8-2.7,5.9-5.2,9.1-7.4c3.3-2.1,6.6-4.1,10.2-5.5
			c3.6-1.4,7.2-2.6,11-3.1l1.3-0.2l1.5-0.1l1.6-0.1c0.5,0,0.9,0,1.4,0c1.8-0.1,3.7,0,5.6,0.2c24.7,2.3,41.2,22.7,49.9,44.3
			c2.6,6.6,4.7,13.5,6.4,20.5c-8.9,7.9-16.2,19.4-17.2,27.6c-0.3,2.4,1.4,4.6,3.8,4.9c0.2,0,0.4,0,0.5,0c2.2,0,4-1.6,4.3-3.8
			c0.8-6.6,7.9-17.1,15.9-23.5c0.4-0.4,0.8-0.8,1.1-1.3c6.1-5.2,13.4-9.2,21.1-11.9c8.2-2.8,16.9-4.4,25.6-4.4
			c25.9-0.1,46.3,8.7,57.4,33.8c0.5,1,1,1.9,1.4,2.9c0,0,1.2,3,1.2,3C420.1,146.9,421.4,158.3,420.5,169.5z"/>
		<path fill="#F8B4BA" d="M240,55.8c4.1,0.2,8.2,3.3,8.3,7.3c0.1,2.9-1.7,5.6-4.2,7.3s-5.3,2.4-8.2,3c-2.3,0.5-4.6,1-6.9,0.6
			s-4.6-1.6-5.5-3.7c-1.7-3.8,1.7-8,5.1-10.4C232.1,57.5,235.9,55.6,240,55.8z M207.3,111.6c3-6.4,6.1-12.7,9.1-19.1
			c1.5-3.2,3.1-6.8,1.8-10.1c-1.7-4.3-7.8-5.5-12-3.4s-6.7,6.4-8.7,10.6c-2.4,5.1-4.3,10.5-5.7,16.1c-0.7,2.8-1.3,5.8-0.6,8.7
			c0.6,2.9,2.8,5.6,5.6,6.1c2.4,0.4,4.9-0.8,6.6-2.6C205.2,116.1,206.3,113.8,207.3,111.6z"/>
	</g>
	<g>
		<path fill="#F16779" d="M169.3,379c-41.1-21.2-76.9-54.9-102.6-96.6c-12.5-20.3-22.8-43.2-24.4-67.8c-1.6-24.6,7.1-51.1,25.6-64.4
			c15.1-10.9,34.9-11.7,52.1-5.4c17.1,6.3,31.8,19,44.4,33.4c10.6-30.1,45-51.5,73.9-49.8c28.9,1.7,55.7,25.6,63.4,56.7
			c7.4,29.8-1.7,61.9-15.7,88.6C260.4,322.4,217.8,362.6,169.3,379z"/>
		<path fill="#DB4A63" d="M238.3,128.4c-4-0.2-8.1,0-12.3,0.6c46.7,42.7,39.9,127.7,2,174.4c-24.3,29.9-62.4,46.8-100.7,48.1
			c13.2,10.7,27.3,19.9,42.1,27.6c48.5-16.4,91.1-56.6,116.7-105.4c14-26.7,23.1-58.8,15.7-88.6C293.9,154,267.2,130,238.3,128.4z"
			/>
		<path fill="#77303E" d="M309.9,204.7c-0.1-4.8-0.6-9.6-1.4-14.6c-0.2-1.2-0.5-2.3-0.7-3.4l-0.4-1.7l-0.2-0.8l0-0.2l-0.1-0.3l0-0.1
			l-0.1-0.4l-1-3.5c-0.3-1.2-0.7-2.4-1.2-3.5c-0.9-2.3-1.7-4.6-2.8-6.8l-1.6-3.3c0,0-1.8-3.2-1.8-3.2c-9.4-16.7-23.9-31.4-42.2-38.1
			c-20-7.3-40.8-1.1-58.9,9c-8.4,4.7-16,10.9-22.5,18.1c-4.8,5.4-9,11.4-12.1,18c-4.2-4.4-8.6-8.7-13.3-12.6
			c-13.7-11.5-29.5-19.6-47.5-20.7c-8.9-0.5-18,0.7-26.4,4.2c-8.3,3.5-15.7,9.4-21.4,16.3c-2.9,3.5-5.2,7.3-7.3,11.2
			c-2,3.9-3.7,8-5.1,12.2c-1.3,4.2-2.4,8.4-3.1,12.7c-0.8,4.3-1.1,8.6-1.3,13c-0.2,8.7,0.7,17.4,2.5,25.8c1.8,8.4,4.5,16.6,7.8,24.5
			c3.3,7.9,7.1,15.4,11.4,22.8c1.1,1.9,2.1,3.6,3.2,5.4l3.4,5.4c2.2,3.6,4.7,7,7.1,10.5c5,6.8,10,13.6,15.6,19.9
			c5.5,6.4,11.2,12.6,17.3,18.5c3,3,6.1,5.8,9.3,8.6c1.6,1.4,3.2,2.7,4.8,4.1c1.6,1.4,3.2,2.7,4.9,4c6.5,5.4,13.5,10.2,20.5,14.9
			c7,4.6,14.6,8.9,21.8,12.7l1.8,1l1.8-0.7c4.4-1.6,8.9-2.9,13.2-4.9c2.2-0.9,4.4-1.8,6.5-2.8l6.3-3.1
			c31.7-15.4,57.3-41.2,77.9-69.4c6.6-9.9,12.7-19.7,18-30.1c4.2-8.4,7.9-17.1,10.7-26.2c2.8-9,5-18.3,6-27.9
			C309.8,214.3,310.1,209.5,309.9,204.7z M298.1,217.9c-0.9,8.6-2.9,17.2-5.6,25.6c-2.7,8.4-6.1,16.6-10.1,24.5c0,0-1.5,3-1.5,3
			c-16.6,29.9-36.2,55.6-63.8,76.3l-2.7,2c-7.1,5.4-14.7,10-22.4,14.4c-7.2,4-14.8,7.3-22.4,10.3c-6.7-3.6-13-7.2-19.3-11.3
			c-6.8-4.5-13.4-9.2-19.7-14.4c-1.6-1.2-3.2-2.6-4.7-3.9c-1.5-1.3-3.1-2.6-4.6-4c-3-2.8-6.1-5.4-8.9-8.3
			c-5.9-5.6-11.4-11.6-16.7-17.8c-5.3-6.2-10.3-12.7-15.1-19.3c-2.3-3.4-4.7-6.7-6.8-10.2l-3.3-5.1c-1.1-1.8-2.2-3.6-3.1-5.3
			c-4.1-7-7.7-14.3-10.9-21.7c-3.1-7.4-5.6-15.1-7.3-22.9c-1.7-7.8-2.5-15.7-2.3-23.6c0.2-3.9,0.5-7.9,1.2-11.7
			c0.6-3.9,1.6-7.7,2.8-11.4c1.2-3.7,2.7-7.3,4.5-10.8c9-16.3,19.6-24.5,38.9-26c18.4-1.4,35.7,6.2,49.7,17.9
			c5.6,4.6,10.7,9.8,15.6,15.3c-4.6,12.3-7.1,25.2-7.4,38.4c0,2.4,1.9,4.4,4.3,4.4c0,0,0.1,0,0.1,0c2.4,0,4.3-1.9,4.3-4.3
			c0.2-10.6,2-21.1,5.3-31.1l0.1,0.1l2.7-7.3c2.9-7.9,7.6-15.2,13.4-21.5c5.8-6.3,12.7-11.7,20.3-15.8c33.7-18.2,68.3-7.2,86.6,25.8
			c0,0,1.5,2.8,1.5,2.8s1.3,2.9,1.3,2.9c4.2,8.4,6.4,21.7,6.8,31C298.8,209.3,298.5,213.6,298.1,217.9z"/>
		<path fill="#F8B4BA" d="M97.3,156.4c3.8,0.2,7.6,3.3,7.8,7.3c0.1,2.9-1.6,5.6-3.9,7.2c-2.3,1.6-5,2.4-7.6,3
			c-2.1,0.5-4.3,1-6.4,0.6s-4.3-1.6-5.1-3.7c-1.6-3.8,1.6-8,4.8-10.4C89.9,158.2,93.5,156.2,97.3,156.4z M76,219.1
			c1.6-6.8,3.2-13.5,4.8-20.3c0.8-3.4,1.5-7.2-0.3-10.2c-2.4-4-8.2-4-11.7-1.2c-3.4,2.8-5,7.5-6,12c-1.3,5.5-2,11.1-2.2,16.7
			c-0.1,2.9-0.1,5.9,1.1,8.6c1.1,2.7,3.6,5,6.3,4.9c2.3,0,4.4-1.7,5.6-3.7C74.9,223.8,75.5,221.4,76,219.1z"/>
	</g>
</g>
</svg>
