<svg xmlns="http://www.w3.org/2000/svg" width="356.739" height="382.648" xml:space="preserve"><path fill="#231F20" d="M344.901 212.282c-3.396 97.51-79.619 173.734-170.255 170.252C84.016 379.053 5.955 300.004.295 205.975-5.363 111.948 70.86 35.723 170.548 35.723c99.685 0 177.745 79.048 174.353 176.559z" opacity=".1"/><path fill="#FFF" d="M178.006 52c72.415 0 129.12 57.422 126.655 128.256-2.412 69.273-55.427 123.76-119.344 123.76a112.3 112.3 0 0 1-4.334-.083c-65.837-2.529-122.542-59.952-126.652-128.256C50.22 107.372 105.591 52 178.006 52m0-52c-25.398 0-49.798 4.907-72.523 14.584-22.343 9.515-41.964 23.146-58.32 40.517-15.391 16.344-27.105 35.197-34.818 56.036-7.986 21.574-11.323 44.34-9.919 67.662 2.745 45.614 22.308 89.016 55.085 122.207 33.241 33.661 76.382 53.154 121.478 54.888 2.096.08 4.227.121 6.33.121 22.936 0 45.244-4.725 66.307-14.04 20.105-8.894 38.211-21.581 53.811-37.715 31.4-32.474 49.582-75.868 51.195-122.194.842-24.196-3.145-47.754-11.85-70.019-8.416-21.527-20.865-40.914-37-57.622-16.518-17.101-36.045-30.526-58.043-39.905C227.138 4.885 203.004 0 178.006 0z"/><path fill="#77303E" d="M178.006 52c72.415 0 129.12 57.422 126.655 128.256-2.412 69.273-55.428 123.76-119.345 123.76-1.438 0-2.882-.027-4.333-.083-65.837-2.529-122.542-59.952-126.652-128.256C50.22 107.372 105.591 52 178.006 52m0-16c-20.523 0-40.178 3.938-58.418 11.706-17.74 7.556-33.289 18.347-46.216 32.075-24.755 26.29-37.188 60.688-35.012 96.856 2.221 36.904 18.119 72.091 44.765 99.073 26.789 27.129 61.324 42.829 97.245 44.209 1.644.063 3.309.096 4.946.096 35.343 0 68.81-14.482 94.238-40.779 25.198-26.06 39.792-61.013 41.097-98.423 1.326-38.116-12.441-74.12-38.768-101.378-13.153-13.62-28.721-24.318-46.266-31.799C217.508 39.915 198.124 36 178.006 36z"/><path fill="#F89F20" d="M304.661 180.256c-2.467 70.834-57.839 126.205-123.678 123.677-65.837-2.529-122.542-59.952-126.652-128.256C50.22 107.372 105.591 52 178.006 52c72.414 0 129.119 57.422 126.655 128.256z"/><path fill="#DF8C26" d="M196.754 53.317c41.357 21.344 68.633 64.353 66.906 113.938-2.468 70.834-57.839 126.205-123.678 123.677a119.196 119.196 0 0 1-10.94-.939c15.98 8.27 33.605 13.234 51.94 13.939 65.839 2.528 121.211-52.843 123.678-123.677 2.249-64.589-44.706-118.02-107.906-126.938z"/><path fill="#77303E" d="M212.575 211.27c-7.648 7.467-23.758 10.438-40.083 7.395-16.322-3.043-30.274-11.619-34.715-21.34a6.356 6.356 0 0 0-8.425-3.139 6.354 6.354 0 0 0-3.137 8.424c6.177 13.52 23.43 24.727 43.946 28.552 20.524 3.826 40.66-.41 51.293-10.795a6.356 6.356 0 0 0 .106-8.99 6.351 6.351 0 0 0-8.985-.107z"/><path fill="#77303E" stroke="#77303E" stroke-width="6" d="M145.493 133.295c6.677 1.245 7.521 2.888 7.521 2.888 2.818 5.481 6.614 7.768 8.436 5.079l.572-3.07c1.693-9.083-4.297-17.818-13.381-19.512-9.082-1.693-17.817 4.297-19.51 13.379l-.506 2.716c.516 2.836 4.845 1.968 9.62-1.929.001-.001.9-.735 7.248.449z"/><g><path fill="#77303E" stroke="#77303E" stroke-width="6" d="M231.032 134.04c-9.082-1.693-17.816 4.296-19.511 13.379l-.546 2.93c.639 3.037 4.783 2.014 9.211-2.274 0 0 1.845-1.788 8.857-.48 6.558 1.223 7.311 2.632 7.311 2.632 2.902 5.437 6.322 8.033 7.602 5.77l.455-2.443c1.694-9.085-4.297-17.821-13.379-19.514z"/></g><path fill="#FED9B0" d="M143.405 76.29c3.164-1.983 7.546-1.791 10.523.464 2.977 2.254 4.352 6.42 3.301 10.003-1.073 3.659-4.609 6.453-8.418 6.651-3.808.198-7.615-2.214-9.061-5.743-1.642-4.004-.012-9.077 3.655-11.375zm-11.472 15.461c-.253-3.695-3.607-6.659-7.244-7.368-3.636-.709-7.407.439-10.672 2.19-6.685 3.587-12.297 9.253-15.683 16.045-1.417 2.843-2.268 6.733.111 8.839 1.21 1.071 2.974 1.324 4.565 1.047 1.592-.277 3.058-1.021 4.496-1.755 3.697-1.887 10.765-4.304 16.354-7.75 4.725-2.913 8.394-6.562 8.073-11.248z"/></svg>