<svg xmlns="http://www.w3.org/2000/svg" width="386.163" height="233.019" xml:space="preserve"><path fill="#231F20" d="M296.729 78.371c-49.816 0-71.833 10.781-81.566 27.729h-43.351c-9.215-17.958-31.004-29.486-82.525-29.486C0 76.613 0 111.232 0 153.936c0 42.703 39.976 79.083 89.286 79.083s101.465-10.448 101.465-53.151c0-10.687-12.184-46.798-13.581-56.058h31.959c-1.682 9.722-18.653 45.498-18.653 56.866 0 42.707 56.943 52.343 106.253 52.343 49.311 0 89.283-34.617 89.283-77.324 0-42.705 0-77.324-89.283-77.324z" opacity=".1"/><path fill="#FFF" d="M118.604 47.122c37.493 0 53.076 9.148 59.473 23.398h32.09c7.158-13.448 23.165-22.003 59.455-22.003 65.039 0 67.511 27.471 70.559 61.357 3.049 33.888-26.229 61.357-65.395 61.357-39.164 0-70.754-27.469-70.558-61.357.052-9.02.103-17.586 1.403-25.301h-23.898c.889 7.348.717 15.425.536 23.905-.721 33.885-33.083 62.752-72.248 62.752-39.166 0-67.539-28.867-63.573-62.752 3.966-33.886 7.18-61.356 72.156-61.356M121.862 0c-26.735 0-65.33 3.702-92.345 35.71C8.54 59.706 4.344 87.895 1.28 108.478c-2.293 15.407-1.159 30.374 3.468 44.486 4.406 13.087 11.684 24.775 21.662 34.74 20.234 19.764 48.934 30.647 80.354 30.647s61.626-18.885 84.593-38.648l.428-.375c.58.521 1.164 1.039 1.758 1.551 22.27 19.007 51.981 37.473 83.228 37.473s60.078-10.466 80.747-29.473c10.453-9.813 18.203-21.402 23.065-34.444 5.115-14.058 6.7-29.051 4.813-44.562-2.507-20.583-5.941-48.772-26.285-72.768-26.173-32.008-64.709-35.71-91.471-35.71-21.907 0-39.473 2.915-53.792 8.913-6.775 2.818-12.951 6.338-18.512 10.54-5.444-4.459-11.563-8.207-18.339-11.224C162.556 3.148 144.557 0 121.862 0z"/><path fill="#77303E" d="M96.848 35.396c45.115 0 64.194 10.095 72.264 25.82h37.959c8.523-14.84 27.802-24.281 71.425-24.281 78.18 0 78.18 30.314 78.18 67.709 0 37.396-35.001 67.708-78.18 67.708s-78.18-30.313-78.18-67.708c0-9.954 0-19.407 1.473-27.92h-27.985c1.224 8.108 1.224 17.022 1.224 26.38 0 37.393-35.001 69.249-78.18 69.249-43.179 0-78.183-31.855-78.183-69.249 0-37.394 0-67.708 78.183-67.708m0-16c-20.564 0-36.906 1.978-49.96 6.045-13.575 4.23-23.701 10.71-30.959 19.809C2.665 61.88 2.665 82.837 2.665 103.104c0 11.567 2.597 22.843 7.719 33.517 4.866 10.14 11.77 19.245 20.522 27.062 17.809 15.908 41.228 24.669 65.942 24.669 24.714 0 48.132-8.761 65.941-24.669 8.751-7.817 15.655-16.922 20.521-27.062a79.972 79.972 0 0 0 4.13-10.396c4.292 14.467 12.917 27.667 25.299 38.391 17.674 15.307 41.027 23.736 65.757 23.736s48.083-8.43 65.757-23.736c18.328-15.874 28.423-37.172 28.423-59.972 0-20.267 0-41.224-13.264-57.854-7.258-9.099-17.384-15.579-30.958-19.81-13.053-4.068-29.395-6.045-49.958-6.045-22.923 0-40.734 2.479-54.45 7.578-10.445 3.883-18.863 9.483-25.137 16.703h-21.19c-6.124-7.637-14.493-13.569-24.992-17.697-13.902-5.466-32.18-8.123-55.879-8.123z"/><path fill="#1A1A1A" d="M278.496 36.935c-43.623 0-62.901 9.441-71.425 24.281h-37.959c-8.07-15.725-27.149-25.82-72.264-25.82-78.183 0-78.183 30.314-78.183 67.708 0 37.393 35.004 69.249 78.183 69.249 43.178 0 78.18-31.855 78.18-69.249 0-9.358 0-18.272-1.224-26.38h27.985c-1.473 8.513-1.473 17.966-1.473 27.92 0 37.396 35.001 67.708 78.18 67.708s78.18-30.313 78.18-67.708c0-37.395 0-67.709-78.18-67.709z"/><path fill="none" d="M174.456 76.724h-.652c.115.763.209 1.54.304 2.316.109-.777.216-1.555.348-2.316z"/><path d="M278.496 36.935c-4.83 0-9.346.123-13.598.348 64.444 3.461 64.444 32.299 64.444 67.361 0 33.356-27.854 61.056-64.514 66.656a90.464 90.464 0 0 0 13.667 1.052c43.179 0 78.18-30.313 78.18-67.708.001-37.395.001-67.709-78.179-67.709zM175.183 104.644c0-8.407-.003-16.454-.892-23.881-.059-.576-.113-1.155-.183-1.723-.095-.776-.189-1.553-.304-2.316h-.097c-.974-5.623-4.595-15.508-4.595-15.508-8.07-15.725-27.149-25.82-72.264-25.82-4.877 0-9.451.118-13.739.349 2.923.155 5.701.368 8.366.625 1.469.256 3.027.491 4.858.542 26.358 3.361 39.206 12.145 45.446 24.304h.447c2.351 4.72 4.246 15.508 4.246 15.508 1.224 8.108 1.224 17.022 1.224 26.38 0 33.353-27.855 62.28-64.513 68.145.082.013.166.022.249.035l-.094.016a92.74 92.74 0 0 0 6.283.735c.118.01.235.024.354.034.487.039.979.06 1.469.091.691.044 1.38.095 2.076.123.086.003.174.002.26.005 1.019.038 2.042.064 3.071.064l.076-.001.079.001c.809 0 1.609-.032 2.412-.053.355-.011.713-.009 1.066-.023 41.56-1.577 74.699-31.247 74.699-67.632z"/><path fill="#E6E6E6" d="M79.466 47.772c3.164-1.984 7.546-1.791 10.523.464 2.977 2.254 4.352 6.42 3.301 10.003-1.073 3.659-4.609 6.453-8.418 6.651-3.808.198-7.615-2.214-9.061-5.743-1.642-4.003-.012-9.076 3.655-11.375zM67.993 63.234c-.253-3.696-3.607-6.659-7.244-7.368-3.636-.709-7.407.439-10.672 2.19-6.685 3.587-12.297 9.253-15.683 16.045-1.417 2.843-2.268 6.733.111 8.839 1.21 1.071 2.974 1.324 4.565 1.047 1.592-.278 3.058-1.021 4.496-1.755 3.697-1.887 10.765-4.304 16.354-7.75 4.726-2.913 8.394-6.562 8.073-11.248z"/></svg>