<svg xmlns="http://www.w3.org/2000/svg" width="360.479" height="386.425" xml:space="preserve"><g opacity=".1"><path fill="none" stroke="#77303E" stroke-width="60" d="m226.752 124.354 84.976-10.127c9.778-1.166 16.646 9.389 11.625 17.858l-43.65 73.607a11.89 11.89 0 0 0-.566 11.044l35.894 77.688c4.131 8.938-3.786 18.732-13.392 16.571l-83.496-18.765a11.878 11.878 0 0 0-10.678 2.875l-62.791 58.14c-7.227 6.69-18.986 2.19-19.901-7.612l-7.954-85.207a11.89 11.89 0 0 0-6.032-9.268l-74.7-41.754c-8.597-4.806-7.952-17.379 1.091-21.28l78.578-33.895a11.874 11.874 0 0 0 6.95-8.601l16.627-83.946c1.913-9.66 14.074-12.933 20.576-5.538l56.515 64.258a11.878 11.878 0 0 0 10.328 3.952z"/><path fill="#231F20" d="m226.752 124.354 84.976-10.127c9.778-1.166 16.646 9.389 11.625 17.858l-43.65 73.607a11.89 11.89 0 0 0-.566 11.044l35.894 77.688c4.131 8.938-3.786 18.732-13.392 16.571l-83.496-18.765a11.878 11.878 0 0 0-10.678 2.875l-62.791 58.14c-7.227 6.69-18.986 2.19-19.901-7.612l-7.954-85.207a11.89 11.89 0 0 0-6.032-9.268l-74.7-41.754c-8.597-4.806-7.952-17.379 1.091-21.28l78.578-33.895a11.874 11.874 0 0 0 6.95-8.601l16.627-83.946c1.913-9.66 14.074-12.933 20.576-5.538l56.515 64.258a11.878 11.878 0 0 0 10.328 3.952z"/></g><path fill="#FFF" d="M164.233 50c2.682 0 5.399 1.07 7.448 3.401l47.516 54.025a9.995 9.995 0 0 0 8.685 3.323l71.444-8.515c.422-.05.837-.075 1.244-.075 7.544 0 12.534 8.333 8.529 15.089L272.4 179.134a9.996 9.996 0 0 0-.476 9.285l30.178 65.316c3.142 6.8-2.009 14.188-8.998 14.188-.736 0-1.491-.082-2.261-.255l-70.201-15.777a9.983 9.983 0 0 0-8.977 2.418l-52.792 48.881c-1.987 1.84-4.383 2.673-6.733 2.673-4.836 0-9.482-3.526-10-9.073l-6.688-71.639a9.994 9.994 0 0 0-5.071-7.791l-62.805-35.104c-7.228-4.041-6.686-14.613.917-17.892l66.066-28.497a9.987 9.987 0 0 0 5.843-7.231l13.979-70.579c1.007-5.078 5.38-8.057 9.852-8.057m0-50h-.002c-13.288 0-26.382 4.481-36.87 12.617-11.392 8.837-19.214 21.525-22.027 35.726l-9.892 49.943-46.752 20.166c-21.12 9.11-34.972 29.038-36.151 52.009-1.179 22.971 10.562 44.213 30.639 55.438l44.446 24.843 4.732 50.695c1.453 15.558 8.752 29.718 20.554 39.871a60.175 60.175 0 0 0 39.229 14.555c15.112 0 29.566-5.675 40.699-15.98l37.363-34.596 49.678 11.165a60.365 60.365 0 0 0 13.225 1.472c20.518 0 39.39-10.356 50.484-27.703 11.069-17.31 12.528-38.789 3.903-57.457l-21.355-46.22 25.97-43.792c10.971-18.506 11.174-41.602.533-60.281-10.651-18.697-30.604-30.312-52.069-30.312-2.383 0-4.795.144-7.169.427L242.85 58.61l-33.624-38.23C197.839 7.43 181.439 0 164.233 0z"/><path fill="#77303E" d="M164.233 50c2.682 0 5.399 1.071 7.448 3.401l47.516 54.025a9.993 9.993 0 0 0 8.685 3.323l71.444-8.515c.422-.05.837-.075 1.244-.075 7.544 0 12.534 8.333 8.529 15.089L272.4 179.134a9.996 9.996 0 0 0-.476 9.285l30.178 65.316c3.142 6.8-2.009 14.188-8.998 14.188-.736 0-1.491-.082-2.261-.255l-70.201-15.777a9.983 9.983 0 0 0-8.977 2.418l-52.792 48.881c-1.987 1.84-4.383 2.673-6.733 2.673-4.836 0-9.481-3.526-10-9.073l-6.688-71.639a9.994 9.994 0 0 0-5.071-7.791l-62.805-35.104c-7.228-4.041-6.686-14.613.917-17.892l66.066-28.497a9.987 9.987 0 0 0 5.843-7.231l13.979-70.579c1.007-5.078 5.38-8.057 9.852-8.057m0-14c-11.447 0-21.366 8.132-23.584 19.336l-13.57 68.51-64.13 27.662c-8.446 3.643-13.985 11.612-14.457 20.797-.471 9.186 4.224 17.681 12.253 22.169l60.964 34.076 6.492 69.54c1.159 12.412 11.451 21.771 23.939 21.771 6.018 0 11.786-2.272 16.244-6.399l51.247-47.45 68.143 15.314c1.756.396 3.551.596 5.331.596 8.176 0 15.711-4.149 20.156-11.1 4.421-6.912 5-15.496 1.551-22.961l-29.294-63.402 35.624-60.072c4.454-7.513 4.534-16.521.218-24.099-4.264-7.483-12.229-12.131-20.789-12.131-.962 0-1.938.058-2.901.173l-69.352 8.266-46.123-52.442C177.637 38.973 171.09 36 164.233 36z"/><path fill="#FEDE4D" d="m227.881 110.748 71.444-8.515c8.222-.98 13.995 7.894 9.773 15.015L272.4 179.134a9.996 9.996 0 0 0-.476 9.285l30.178 65.316c3.473 7.516-3.184 15.75-11.259 13.934l-70.201-15.777a9.986 9.986 0 0 0-8.978 2.418l-52.792 48.881c-6.076 5.625-15.963 1.842-16.732-6.4l-6.688-71.639a9.994 9.994 0 0 0-5.071-7.791l-62.805-35.104c-7.228-4.041-6.686-14.613.917-17.892l66.066-28.497a9.987 9.987 0 0 0 5.843-7.231l13.979-70.579c1.608-8.122 11.832-10.873 17.299-4.655l47.516 54.025a10 10 0 0 0 8.685 3.32z"/><path fill="#FEF8BB" d="M75.041 170.047c1.429-3.451 5.11-5.834 8.844-5.723 3.731.111 7.268 2.708 8.489 6.237 1.246 3.604-.015 7.93-3.004 10.299-2.987 2.369-7.488 2.611-10.711.574-3.66-2.309-5.274-7.388-3.618-11.387zM161.041 72.047c1.429-3.451 5.11-5.834 8.844-5.723 3.731.111 7.268 2.708 8.489 6.237 1.246 3.604-.015 7.93-3.004 10.299-2.987 2.369-7.488 2.611-10.711.574-3.66-2.309-5.274-7.388-3.618-11.387zM171.45 98.334c-2.349-2.865-6.8-3.334-10.174-1.804-3.373 1.53-5.781 4.652-7.426 7.972-3.366 6.798-4.654 14.668-3.476 22.166.494 3.138 2.056 6.801 5.216 7.137 1.605.171 3.189-.645 4.326-1.793 1.136-1.149 1.899-2.605 2.646-4.037 1.919-3.681 6.276-9.748 8.832-15.795 2.16-5.114 3.034-10.214.056-13.846z"/><g><path fill="#E7B559" d="m183.676 254.309-41.882 38.779.346 3.701c.77 8.242 10.656 12.025 16.732 6.4l51.179-47.388-17.397-3.91a9.99 9.99 0 0 0-8.978 2.418zm125.423-137.061c4.222-7.121-1.552-15.995-9.773-15.015l-20.211 2.409c3.357 2.981 4.645 8.138 1.996 12.606l-36.699 61.886a9.996 9.996 0 0 0-.476 9.285l30.178 65.316c1.635 3.538 1.024 7.233-.921 9.966l17.65 3.967c8.075 1.816 14.731-6.418 11.259-13.934l-30.178-65.316a9.995 9.995 0 0 1 .476-9.285l36.699-61.885z"/></g></svg>