<svg xmlns="http://www.w3.org/2000/svg" width="209.4" height="138.9" xml:space="preserve"><linearGradient id="a" gradientUnits="userSpaceOnUse" x1="-280.685" y1="-381.287" x2="-141.799" y2="-381.287" gradientTransform="rotate(90 -278.634 2.05)"><stop offset=".164" style="stop-color:#f3f3f3"/><stop offset="1" style="stop-color:#fff"/></linearGradient><path fill="url(#a)" d="m189.7 84.4 2-.5h1.1l1.1-.2 1.6-1.1.9-.5 2-1.6 1.6-1.4.7-.9.9-1.4 1.6-.9.9-1.6.5-1.1.2-1.1.9-1.4 1.4-.9.7-1.1.5-1.6c.2-1.4.7-2 .7-2.7s.5-2 .5-2l-.5-2-.2-.9-.7-.9-.7-.9-.5-.9-.2-1.1v-1.1l.2-2 .7-2.9v-1.4l-.5-2.3-.5-1.1-.5-1.6-.2-1.4.2-1.8-.2-1.6v-1.1l-.2-1.6-.7-1.1-1.1-.9s0-.9-.7-1.4l-.7-.5-.5-1.4s.7-1.6-.2-1.6c-.9 0 .2.2-.9 0s-.7.9-1.1-.2c-.5-1.1-.5-2.9-.5-2.9s0-.9-.7-1.1c-.7-.2.5.5-.7-.2-1.1-.7-1.6-1.6-1.6-1.6l-.5-1.8.5-1.4.9-1.6s.9-.7.2-1.1c-.7-.4-1.6-1.6-1.6-1.6l-.7-1.8-.2-1.6v-.9s.2-.9-.5-1.1c-.4-.2-.4-1.1-.4-1.1l-.2-1.1s.5-.2.2-1.1l-.2-.9s-.7-1.1-1.4-1.1h-.7l-1.7-.8-1.1-.2-.9-1.4-.2-1.4s0-.7-1.1-.5c-1.1.2.5.2-1.1.2h-2.7c-.7 0-1.8.5-3.2.7-1.4.2-1.8.2-2.5.2s-.5-.2-1.8-.2c-1.4 0-2.5-.9-2.5-.9-1.9-.1-2.6-.4-3.5-.4-.9 0-.9-.2-1.8.5s-2.3 1.4-3.2 2c-.9.7-1.6.9-2.7 1.1s.7.2-1.1.2-.2-.2-1.8 0-.5-.2-1.6.2c-1.1.5-2.3.7-2.3.7h-1.1c-.7 0-2.9-1.4-2.9-1.4s-1.6 1.1-3.8 1.4c-2.3.2-1.8-1.1-3.2 0-1.4 1.1-3.8 3.2-4.5 3.2-.7 0-3.8 1.1-3.8 1.1h-2l-1.1-.7-1.4-.9s-.2-.2-.9-.2-2 .2-2.9.2c-.9 0-1.4.4-2.5 1.6-1.1 1.1-1.6 1.8-2.3 1.8-.7 0 .5-.2-.7 0-1.1.2-1.4.5-2 .2l-.7-.2c-1.4-.4-4.3-.9-5.2-1.1-.9-.2-2.5-.5-2.5-.5s0-.5-1.4-.5.2-.2-1.4 0c-1.6.2-.7.5-1.6.2-.9-.2-3.6-1.4-3.6-1.4s-.7-.5-1.4-.5-1.8-.7-1.8-.7-2.5-.9-3.4-.7c-.9.2-1.8 0-1.8 0l-2.3-.2h-1.8c-1.6 0-2.5-1.1-3.2-1.1H85l-2 .4s-.2.5-1.4.5c-1.1 0 0 .2-1.1 0s-1.8-.6-2.5-.4c-.7.2.5-.2-.7.2-1.1.5-2 .2-2 .2l-1.8.7s-.9-.5-1.8-.2c-.9.2 1.1.2-.9.2h-2s0-.7-.9 0-1.9.9-1.9.9-.2.7-1.4.7h-1.1l-2.3.2s-.9.2-1.4 1.4c-.5 1.1-.5-1.6-.5 1.1s-.3 4.3-.3 4.3l-.9 1.8s-.5.2-1.4.9c-.9.7-.7.2-1.8.5-1.1.2-3.2.7-3.2.7s-.7.2-2 .2h-2.3s-.9-.2-1.8 0-1.6.5-2.3.7c-.7.2-2.3 1.1-3.2 1.6-.9.5-1.8 1.8-1.8 1.8l-1.1 1.1-1.1.7-1.6.2-1.1.5s-.2-.7-1.4.5l-1 1s-1.4.2-2.3.5c-.9.2.5 0-.9.2s-1.8.9-2.5 1.1l-.7.2-1.1 1.6c-.9.5-1.4.9-2 1.4-.7.5-1.6.5-1.6.5l-1.1.2H17l-1.1.2c-1.6.9-.7.2-1.6.9l-.9.7s-.7-.2-.9.5c-.2.7-1.6 2.9-1.6 2.9s.2.2-.5.9-.2 1.4-.9 2c-.7.7-.5-.9-.7.7-.2 1.6 0 .4-.2 1.6l-.2 1.1-.9.9-.5 1.6s-.2-.7-.2 1.6v2.3l-.7 1.6s-.2-.2-.7.9c-.4 1.1-.2 1.7-.4 2.4l-.2.7.5 2 .2.9s.5.7.2 1.4c-.2.7-1.1-.9-.2.7l.9 1.6v3.2s-1.1.7-1.6 1.4 0-.7-.5.7-.7 2.5-.9 3.2l-.2.7s-.9.7-.9 1.4V76l.5 2v1.4l-.2.9s-.5.7-.9 1.4c-.5.7-.5 1.6-.7 2.3-.2.7-.2-.7-.2.7s-.2 3.6-.2 3.6-.2.2 0 1.1c.2.9.2 2 .2 2l.2 1.1s-.2 1.4-.2 2v.7s-.5.7-.5 1.4-.2 2.3-.2 2.3l.2.9 1.8.7.9 2-.7 1.1-.5 1.4s-.5 0-.5.9v2.3c0 1.1.2 0 0 1.1s-.9 4.3-.9 5c0 .7-.2-.7 0 .7s1.1 1.8 1.1 2.7v.9l1.1 2s.2.2.9 1.1c.7.9 1.8 1.6 1.8 1.6l1.4.5h4.1s.7 0 1.6.5c.9.5-.2 0 .9.5s3.8 1.1 3.8 1.1l2.3.7h3.4l2.5 1.4 2.3.5 1.1.5.9.5 1.6 1.1.5 1.1 1.1 1.1 1.6 1.4 1.6.8 2 .2 1.1.2h2.7l2.5-.9 2-.7h1.6s-1.6-1.4 1.4 0c2.9 1.4 3.8 1.4 3.8 1.4l1.8.4 1.4.2 2.5.5 1.6-.2h5.2l1.8.2 1.1.2h1.8s.9 0 1.8-.2 2-.9 2-.9l2-.5 1.1-.2 1.6-.2 1.4-.7s.9-.7 1.6-.7h.7l.9-.9.9-1.8.9-.7h1.1l1.8 1.6c1.8 1.6 2.7 1.6 2.7 1.6h1.8c.9 0 2.5-.2 2.5-.2l.9-1.4 2.5-.5h1.1l2 .5 1.4.5 1.6.2 1.8-.5.9-.4 1.4-.5 1.6-.2 2.5-.2 1.4.5 1.4.7.9.7 1.1 1.4 1.4.2.9.5s.9-.2.9.9 1.8 2 1.8 2l1.8.2 2.5 1.4 1.8.2.9-.4.2-1.1 2.9-1.1 2.3-1.1s2.3-1.4 2.9-1.4c.7 0 2.5-.5 2.5-.5s.7-1.8 1.4-1.6c.7.2 2-.2 2.7 0 .7.2 3.2-1.4 3.2-1.4l1.6-1.1 1.1-1.4s.2-1.1.9-1.4c.7-.2 2.5-1.1 2.5-1.1l1.1-.5 1.8-2.5 3.4.7 2.7.2h1.6c.7 0 2.7-1.8 2.7-1.8l1.1-.7s1.4-1.8 3.2-2l1.8-.2s1.1-.9 1.6-1.8 1.6-2.9 1.6-2.9l1.1-1.4 2.9-.9 2.5-.5 1.1-.2 1.4-.2s.7.2 1.4-.2c.7-.5 1.4-1.4 1.4-1.4l.7-1.4v-1.1l.2-1.1.5-2.9s.2-.5.2-1.4c0-.9.7-3.4.7-3.4l1.1-1.6.7-1.1 1.1-1.6 1.4-2 .9-1.6s.2-.9-.5-.9h-1.6l-.5-1.4-.9-.9-1.4-.2-1.1-2z"/></svg>