<svg xmlns="http://www.w3.org/2000/svg" width="31" height="49" viewBox="-0.062 -0.966 31 49" xml:space="preserve"><path fill="#818180" d="M.329 4.284v1.601c1.038 0 1.038 1.57 0 1.571v1.601c1.038.001 1.038 1.571 0 1.572v1.601c1.04 0 1.037 1.57 0 1.57v1.598c1.036.001 1.041 1.571 0 1.571v1.601c1.036.001 1.041 1.57 0 1.572v1.6c1.038.001 1.038 1.571 0 1.571v1.601c1.04 0 1.037 1.57 0 1.57v1.6c1.034.001 1.043 1.57 0 1.57v1.601c1.038.001 1.038 1.571 0 1.572v1.601c1.038.002 1.038 1.571 0 1.571V37.6c1.04.002 1.037 1.571 0 1.572v1.598c1.036 0 1.041 1.57 0 1.571v1.601c1.038.002 1.038 1.572 0 1.572v1.6c.423 0 .785.345.785.787h1.415c0-1.045 1.571-1.041 1.571 0h1.411c0-1.039 1.571-1.045 1.571 0h1.415c0-1.043 1.57-1.041 1.57 0h1.413c0-1.039 1.572-1.045 1.572 0h1.413c0-1.041 1.571-1.039 1.571 0h1.412c0-1.041 1.571-1.043 1.571 0h1.414c0-1.043 1.571-1.041 1.571 0h1.411c0-1.041 1.572-1.043 1.572 0h1.414c0-1.043 1.572-1.041 1.572 0h1.41c0-.436.355-.787.786-.787V45.51c-1.041 0-1.04-1.57 0-1.57v-1.602c-1.05 0-1.032-1.57 0-1.57v-1.599c-1.04 0-1.045-1.571 0-1.571v-1.602c-1.04 0-1.04-1.571 0-1.571v-1.601c-1.041 0-1.04-1.572 0-1.572v-1.6c-1.05 0-1.032-1.571 0-1.571v-1.599c-1.04 0-1.041-1.57 0-1.57v-1.601c-1.04 0-1.041-1.571 0-1.571v-1.6c-1.041 0-1.04-1.572 0-1.572V16.97c-1.032 0-1.05-1.571 0-1.571v-1.601c-1.039 0-1.042-1.57 0-1.57v-1.601c-1.04 0-1.041-1.572 0-1.572V7.456c-1.04 0-1.04-1.571 0-1.571V4.287c-1.036 0-1.049-1.574 0-1.574V1.115a.787.787 0 0 1-.786-.786h-1.41c0 1.039-1.572 1.041-1.572 0h-1.414c0 1.04-1.572 1.041-1.572 0h-1.411c0 1.039-1.571 1.041-1.571 0H19.02c0 1.04-1.571 1.041-1.571 0h-1.412c0 1.041-1.571 1.044-1.571 0h-1.414c0 1.042-1.571 1.039-1.571 0h-1.413c0 1.039-1.57 1.042-1.57 0H7.083c0 1.044-1.571 1.042-1.571 0H4.101c0 1.039-1.571 1.042-1.571 0H1.114a.786.786 0 0 1-.785.786v1.598c1.036 0 1.041 1.571 0 1.571z"/><path fill="#FFF" d="M0 3.956v1.601c1.039.001 1.039 1.57 0 1.572v1.6c1.039 0 1.039 1.571 0 1.572v1.6c1.041.001 1.036 1.57 0 1.572v1.598c1.036 0 1.041 1.57 0 1.572v1.6c1.036 0 1.041 1.57 0 1.572v1.601c1.039 0 1.039 1.57 0 1.571v1.6c1.041.001 1.036 1.571 0 1.572v1.598c1.035 0 1.044 1.57 0 1.571v1.602c1.039 0 1.039 1.57 0 1.57v1.602c1.039 0 1.039 1.57 0 1.57v1.602c1.041 0 1.036 1.57 0 1.572v1.598c1.036 0 1.041 1.57 0 1.57v1.6c1.039.002 1.039 1.572 0 1.572v1.601c.425 0 .786.344.786.786h1.415c0-1.045 1.57-1.041 1.57 0h1.412c0-1.038 1.571-1.045 1.571 0H8.17c0-1.041 1.57-1.041 1.57 0h1.412c0-1.038 1.569-1.045 1.569 0h1.415c0-1.041 1.572-1.039 1.572 0h1.412c0-1.041 1.571-1.043 1.571 0h1.414c0-1.041 1.571-1.041 1.571 0h1.412c0-1.041 1.57-1.043 1.57 0h1.414c0-1.041 1.571-1.041 1.571 0h1.412c0-.436.354-.786.786-.786v-1.601c-1.042 0-1.04-1.572 0-1.572v-1.6c-1.05 0-1.032-1.57 0-1.57v-1.598c-1.041 0-1.044-1.572 0-1.572v-1.602c-1.041 0-1.041-1.57 0-1.57V32.5c-1.042 0-1.04-1.57 0-1.57v-1.601c-1.05 0-1.032-1.572 0-1.572v-1.598c-1.04 0-1.042-1.572 0-1.572v-1.6c-1.041 0-1.042-1.571 0-1.571v-1.601c-1.042 0-1.04-1.572 0-1.572v-1.598c-1.032 0-1.05-1.571 0-1.571v-1.6c-1.038 0-1.043-1.572 0-1.572v-1.6c-1.041 0-1.042-1.572 0-1.572v-1.6c-1.041 0-1.04-1.572 0-1.572v-1.6c-1.034 0-1.048-1.574 0-1.574V.787A.787.787 0 0 1 29.055 0h-1.412c0 1.04-1.571 1.042-1.571 0h-1.414c0 1.041-1.57 1.041-1.57 0H21.68c0 1.04-1.57 1.042-1.57 0h-1.416c0 1.041-1.57 1.041-1.57 0H15.71c0 1.041-1.572 1.044-1.572 0h-1.415c0 1.042-1.569 1.04-1.569 0H9.741c0 1.04-1.57 1.042-1.57 0H6.755c0 1.044-1.571 1.042-1.571 0H3.771c0 1.04-1.57 1.042-1.57 0H.785A.787.787 0 0 1 0 .787v1.598c1.036.001 1.041 1.57 0 1.571z"/><path fill="#FFF" d="M7.685 46.197s-.012.005-.018.011c.016.013.023.007.018-.011zm21.294-8.235c-.045.007-.043.034-.021.042.047-.027.028-.033.021-.042zm.037 6.033c-.015-.015-.035-.017-.035-.017s-.001.017.035.017zm.386-39.768c0-.035-.01-.036-.049-.005a.157.157 0 0 1-.037.021c.047.043.06.042.078.05.026.011.037.01.051-.002.022-.019.014-.036-.02-.035-.016 0-.023-.007-.023-.029zm.133 6.563c.013-.021.053-.005.044.017.05-.025.034-.051-.002-.06-.036-.008-.076.021-.042.043zm.244 32.209a.14.14 0 0 0 .041-.015c.025-.02.016-.066.002-.067-.014 0-.021.013-.021.034-.019-.01-.022-.016-.034-.021.045-.004.084-.037.053-.066-.016-.014-.02-.022-.014-.035.008-.02-.002-.021-.035-.014-.071.147-.078.152-.117.158-.022.002-.047.014-.047.014.067-.002.103-.004.078.004-.02.008.056.013.094.008zM29.145 30.4c.047-.01.041-.043.025-.047-.02-.003-.051.018-.025.047zM25.889.324c.014-.005.01-.016.01-.016-.014.007-.01.016-.01.016zm-.002.279c0-.036-.044-.064-.054-.035-.022.055-.097.076-.104.03-.055.017-.055.018-.014.041.03.017.045.02.049.01.004-.008.027-.013.063-.012.058.002.062 0 .06-.034zM1.285 13.417c.01.02.018.02.061.001.044-.019.04-.039-.012-.044-.046-.005-.064.012-.049.043zm.022 25.379c.012.026.094.022.121 0-.007-.013-.049-.017-.088-.019-.009.018-.023.028-.033.019zM.803 28.594c0-.009-.007-.017-.007-.017-.009.019-.005.025.007.017zm.284-3.427c.011-.045.001-.06-.019-.067-.003.028.005.043.019.067zm-.254.088c-.05 0-.063.022-.01.041.037-.046.01-.052.01-.041zm-.659 8.331c-.028-.023-.06.006-.048.045.081.02.14.014.15.01.045.006.063.004.08-.004H.313c-.103.002-.139 0-.142-.012.018-.016.044-.029.073-.05-.045.029-.051.029-.07.011zM.185 16.75c-.001.021.018.021.075-.025-.035-.014-.074-.001-.075.025zm.52 24.13c.029.02.043.022.104.02.041 0 .086-.004.099-.004.014-.002.04 0 .06.002.04.008.036.008.076-.008.029-.012.029-.012.008-.063-.015-.031-.056-.037-.197-.027l-.18.016c.012.021.021.043.03.064zm12.418 6.532c-.029-.023-.043-.021-.032-.008 0 0 .017.008.032.008zM15.643.369c-.031.019-.04.037-.018.034.039.036.1.013.112-.021.016-.038-.039-.046-.094-.013zm-2.368 46.509c.006-.034-.014-.032-.056.002.039.024.052.016.056-.002zm-2.759.538c-.008-.053-.04-.064-.04-.046.001.023.032.058.04.046zM9.842 2.328c-.008.003.018.026.033.026.008-.031-.023-.033-.033-.026zm-.806 43.917c-.025-.018-.036-.011-.025.019 0 0 .017-.01.025-.019zM22.249 1.214c-.015.02-.001.028.011.031.011-.02.002-.029-.011-.031zM20.248.525c.027.022.036.022.057.008-.015-.017-.034-.033-.046-.051-.034-.001-.044.018-.011.043zm-2.245 46.082c-.011.035-.007.037.037.021.03-.011.036-.035.013-.057-.022-.014-.039-.001-.05.036z"/></svg>