<svg xmlns="http://www.w3.org/2000/svg" width="85.04" height="133.59" xml:space="preserve"><path fill="#818180" d="M85.04 131.203v-4.696c-3.155 0-3.157-4.775 0-4.775v-4.697c-3.155 0-3.157-4.774 0-4.774v-4.697c-3.165 0-3.157-4.774 0-4.774v-4.697c-3.159 0-3.15-4.775 0-4.775v-4.697c-3.155 0-3.168-4.767 0-4.767v-4.697c-3.147 0-3.163-4.774 0-4.774v-4.697c-3.147 0-3.163-4.775 0-4.775V60.21c-3.155 0-3.157-4.774 0-4.774v-4.697c-3.163 0-3.161-4.775 0-4.775v-4.698c-3.155 0-3.157-4.775 0-4.775v-4.697c-3.165 0-3.157-4.775 0-4.775V22.33c-3.147 0-3.163-4.775 0-4.775v-4.697c-3.147 0-3.163-4.775 0-4.775V3.386A2.403 2.403 0 0 1 82.647.997h-4.561c0 3.175-4.776 3.162-4.776 0h-4.56c0 3.161-4.775 3.165-4.775 0h-4.561c0 3.161-4.776 3.165-4.776 0h-4.562c0 3.159-4.775 3.164-4.775 0H40.74c0 3.157-4.776 3.166-4.776 0h-4.561c0 3.157-4.776 3.166-4.776 0h-4.57c0 3.165-4.775 3.158-4.775 0h-4.56c0 3.165-4.776 3.158-4.776 0H3.385A2.39 2.39 0 0 1 .998 3.386v4.696c3.162.002 3.149 4.774 0 4.776v4.688c3.148.002 3.163 4.782 0 4.784v4.688c3.149.002 3.163 4.774 0 4.776v4.696c3.149.002 3.163 4.773 0 4.775v4.697c3.156.002 3.157 4.774 0 4.775v4.697c3.156.001 3.157 4.773 0 4.775v4.696c3.162.002 3.149 4.773 0 4.775v4.696c3.162.002 3.149 4.774 0 4.776v4.695c3.162.002 3.149 4.773 0 4.775v4.689c3.149.002 3.163 4.773 0 4.775v4.696c3.156.002 3.156 4.774 0 4.775v4.696c3.156.002 3.157 4.774 0 4.776v4.696c3.156.002 3.157 4.773 0 4.775v4.696a2.388 2.388 0 0 1 2.387 2.386h4.562c.001-3.148 4.773-3.162 4.775 0h4.56c.002-3.148 4.774-3.162 4.775 0h4.57c.001-3.161 4.773-3.148 4.775 0h4.561c.003-3.16 4.773-3.148 4.776 0H45.3c.002-3.155 4.773-3.156 4.775 0h4.562c.003-3.155 4.773-3.156 4.776 0h4.561c.002-3.155 4.773-3.156 4.775 0h4.561c.003-3.16 4.781-3.148 4.784 0h4.553a2.393 2.393 0 0 1 2.393-2.379z"/><path fill="#FFF" d="M84.042 130.206v-4.697c-3.154 0-3.157-4.775 0-4.775v-4.696c-3.154 0-3.157-4.774 0-4.774v-4.697c-3.165 0-3.157-4.775 0-4.775v-4.697c-3.159 0-3.15-4.775 0-4.775v-4.696c-3.155 0-3.167-4.768 0-4.768V78.16c-3.147 0-3.163-4.775 0-4.775v-4.697c-3.147 0-3.163-4.775 0-4.775v-4.697c-3.155 0-3.156-4.775 0-4.775v-4.697c-3.163 0-3.16-4.775 0-4.775v-4.697c-3.155 0-3.156-4.775 0-4.775V30.8c-3.165 0-3.157-4.775 0-4.775v-4.689c-3.147 0-3.163-4.775 0-4.775V11.86c-3.147 0-3.163-4.775 0-4.775V2.389A2.404 2.404 0 0 1 81.649 0h-4.56c0 3.175-4.776 3.162-4.776 0h-4.562c0 3.162-4.775 3.164-4.775 0h-4.561c0 3.162-4.776 3.164-4.776 0h-4.561c0 3.159-4.776 3.163-4.776 0h-4.561c0 3.157-4.775 3.166-4.775 0h-4.562c0 3.158-4.776 3.166-4.776 0h-4.569c0 3.165-4.776 3.158-4.776 0h-4.561c0 3.165-4.776 3.158-4.776 0H2.387A2.392 2.392 0 0 1 0 2.389v4.696c3.162.002 3.15 4.774 0 4.776v4.688c3.148.002 3.163 4.782 0 4.783v4.688c3.149.002 3.163 4.774 0 4.776v4.696c3.149.002 3.163 4.773 0 4.775v4.697c3.157.002 3.157 4.774 0 4.775v4.697c3.157.002 3.157 4.773 0 4.775v4.696c3.162.002 3.15 4.773 0 4.775v4.697c3.162.001 3.15 4.773 0 4.775v4.695c3.162.002 3.15 4.774 0 4.775v4.689c3.149.002 3.163 4.773 0 4.775v4.696c3.157.002 3.157 4.774 0 4.776v4.696c3.157.002 3.157 4.773 0 4.776v4.695c3.157.002 3.157 4.773 0 4.775v4.697a2.387 2.387 0 0 1 2.387 2.386h4.562c.002-3.149 4.773-3.163 4.775 0h4.561c.002-3.148 4.773-3.163 4.776 0h4.569c.002-3.161 4.773-3.149 4.776 0h4.562c.002-3.161 4.773-3.149 4.775 0h4.561c.002-3.155 4.773-3.156 4.775 0h4.562c.003-3.155 4.773-3.156 4.776 0h4.561c.002-3.155 4.773-3.156 4.775 0h4.562c.003-3.16 4.78-3.149 4.782 0h4.554a2.39 2.39 0 0 1 2.391-2.379z"/><path fill="#CFE1EC" d="M7.96 7.959h68.122v116.672H7.96z"/><path fill="#DFECF5" d="M7.96 7.959h68.122V30.23H7.96zM7.96 110.858h68.122v13.773H7.96zM7.96 107.675h68.122v1.592H7.96zM7.96 80.821h68.122v5.604H7.96zM7.96 31.823h68.122v1.592H7.96zM7.96 88.018h68.122v1.592H7.96z"/><path fill="#978DC4" d="M36.18 54.44h26.244v70.192H36.18z"/><path fill="#978DC4" d="M64.275 63.501v35.844H34.329V63.501h29.946zM42.492 32.836h13.621v5.671H42.492z"/><path fill="#432355" d="m49.303 12.336 6.81 20.5H42.492z"/><path fill="#622E81" d="M59.234 67.35v19.864H39.37V67.35h19.864zm1.592-1.593H37.778v23.048h23.048V65.757z"/><path fill="#FFF" d="M40.931 77.282c0-4.621 3.757-8.378 8.377-8.378s8.366 3.757 8.366 8.378c0 4.619-3.746 8.365-8.366 8.365s-8.377-3.746-8.377-8.365z"/><path fill="#432355" d="m49.871 77.845-1.359-.563v-6.686h1.592v4.764l1.876-1.877 1.125 1.125z"/><g fill="#622E81"><path d="M37.768 94.429h1.592v2.951h-1.592zM41.348 94.429h1.592v2.951h-1.592zM44.927 94.429h1.592v2.951h-1.592zM48.507 94.429h1.591v2.951h-1.591zM52.085 94.429h1.593v2.951h-1.593zM55.664 94.429h1.593v2.951h-1.593zM59.244 94.429h1.592v2.951h-1.592z"/></g><g fill="#622E81"><path d="M37.768 57.131h1.592v2.951h-1.592zM41.348 57.131h1.592v2.951h-1.592zM44.927 57.131h1.592v2.951h-1.592zM48.507 57.131h1.591v2.951h-1.591zM52.085 57.131h1.593v2.951h-1.593zM55.664 57.131h1.593v2.951h-1.593zM59.244 57.131h1.592v2.951h-1.592z"/></g><g fill="#622E81"><path d="M39.357 103.062h1.592v18.15h-1.592zM43.018 103.062h1.592v18.15h-1.592zM46.677 103.062h1.592v18.15h-1.592zM50.336 103.062h1.592v18.15h-1.592zM53.996 103.062h1.592v18.15h-1.592zM57.654 103.062h1.592v18.15h-1.592z"/></g><path fill="#432355" d="m42.492 38.507-8.121 16.785h29.188l-7.446-16.785zM36.18 99.345h26.244v1.593H36.18z"/><path fill="#622E81" d="M34.33 91.202h29.946v1.592H34.33z"/><path fill="#FFF" d="M4.788 18.223h14.858v1.592H4.788zM24.155 18.223h4.511v1.592h-4.511zM58.451 13.842H69.26v1.592H58.451zM67.669 44.041h10.878v1.591H67.669zM13.278 55.257H27.34v1.592H13.278zM23.493 60.223h6.766v1.592h-6.766zM13.278 101.751h11.409v1.592H13.278zM20.309 115.476h6.566v1.593h-6.566zM67.669 94.558h4.644v1.593h-4.644z"/><path fill="#432355" d="M36.18 61.909h26.244v1.592H36.18z"/><path fill="#FFF" d="M63.079 73.153c-.112-.004-.12-.027-.12-.027.02-.02.127.006.12.027zm17.817-47.275c.119-.033.181-.053.266-.049.105.005.118-.011.111-.081-.035-.015-.07-.03-.1-.052a.51.51 0 0 0-.156-.063c-.083.009-.152.007-.18-.011-.04-.025-.086-.023-.188.111.129-.017.275.069.247.145zm-.542-14.668c.168.12.264.049.166.005-.041-.018-.063-.019-.166-.005zm.375 18.173c.092.042.159.024.155-.042-.004-.062-.085-.144-.14-.141-.056.003-.069.158-.015.183zM63.162 81.417c-.039-.016-.105.016-.083.039.023.025.116.019.083-.039zm-26.411 18.939s.023-.022-.014-.07c-.036.029-.029.07.014.07zm-.264-95.915c-.053.06-.046.091.03.144.175-.112.056-.241-.03-.144zm-.168 54.981c.048.093.264.134.33.062.056-.061.013-.115-.119-.154-.199-.059-.273-.027-.211.092zm-2.048 37.247c.086.1.144.016.066-.097-.094.032-.092.068-.066.097zm3.079-68.41c-.002.05.088.062.203.028.15-.045.148-.043.096-.108-.046-.057-.343-.069-.499-.032-.026-.043-.202-.055-.204-.014-.003.106.093.156.247.127.087-.016.157-.001.157-.001zm-.212 67.884c.021-.021-.017-.062-.055-.062-.035.053.034.082.055.062zm1.505-6.38c.156.054.146.015.1-.057-.087-.022-.116 0-.1.057zm-12.944-39.74c.119.098.191-.038.11-.147-.125.037-.112.102-.11.147zm7.03 31.687c.08.045.135.031.157-.04.028-.095-.018-.183-.096-.181-.083.002-.133.178-.061.221zm.727-54.374c.134-.022.224.042.206.15-.012.071.032.112.114.133a.319.319 0 0 1-.042-.121c-.01-.073-.171-.225-.23-.217-.201.052-.165.076-.048.055zm-2.807-6.782c.012-.02-.012-.054-.055-.076.005.088.041.098.055.076zm-4.487 45.694c.041-.063.003-.089-.033-.096-.041.061-.004.088.033.096zm4.682 35.473c.124.063.185.083.246.045-.014-.126-.223-.164-.246-.045zm19.927-8.439c.036-.053-.039-.131-.146-.154.085.199.111.207.146.154zM33.567 23.571c-.015.02-.015.03.001.048.019-.063.014-.068-.001-.048zm-2.446 52.804c-.143.007-.182.077-.057.106a.762.762 0 0 0 .188-.005c-.01-.096-.041-.105-.131-.101zm6.063-12.079c-.002-.112-.13-.194-.165-.105-.063.166-.289.23-.312.089-.164.049-.163.053-.038.124.089.05.133.06.144.03.01-.026.084-.041.195-.037.172.006.178.002.176-.101zm11.377 28.149c-.015.071.01.075.124.024-.068-.091-.117-.057-.124-.024zm.382-54.402s.078-.02.244-.044c-.003-.027-.188-.035-.213-.009-.107-.009-.185-.016-.246-.014a2.415 2.415 0 0 1-.211-.003c.008.146.076.145.123.135.047-.01.129-.025.18-.033.053-.007.123-.032.123-.032zM47.869 75.31c-.002-.107-.027-.109-.148-.016a.345.345 0 0 1-.111.062c.145.132.181.129.24.153.076.031.109.03.152-.006.068-.056.039-.109-.059-.106-.051 0-.072-.023-.074-.087zm-.544-27.581c-.095.135.04.131.099.081.082-.07.002-.136-.099-.081zM49.84 8.378c-.045.006-.064.069-.051.167.131-.141.118-.175.051-.167zm.975 20.004c-.015-.021-.052-.039-.052-.039.019.056.044.074.052.039zm-.415-5.208c.064-.023.064-.025-.078-.106-.17.116-.059.157.078.106zM50 33.193c-.004-.067-.049-.062-.074-.04-.062.053-.027.072.074.04zm-7.701 21.53c-.029-.058-.084-.076-.115-.04-.043.052-.124.068-.151.031-.044.296-.003.307.06.327.056-.149.089-.21.125-.196.037.015.101-.082.081-.122zm4.937-3.344s-.037-.037-.083-.038c.042.082.081.083.083.038zm-5.223 58.563c.103-.002.165.048.167.104.07-.013.035-.037-.038-.075 0 0-.039-.031-.129-.029zm-.401-66.924c-.076-.002-.225.109-.228.169 0 0 .065.054.144.077.081.023.155.058.167.078.025.043.047.042.156-.004.113-.049.117-.167.006-.17a.172.172 0 0 1-.128-.075.16.16 0 0 0-.117-.075zm.909-.613c-.056.142-.176.229-.218.188-.023-.257-.115-.176-.127-.017-.012.149-.012.149.12.148a.3.3 0 0 0 .206-.071c.089-.083.102-.248.019-.248zm4.276-12.139c.047-.088.012-.124-.026-.13-.048.088-.011.123.026.13zM40.795 5.148c.2.017.223.026.219.077-.004.061.063.085.111.039.024-.164-.284-.187-.33-.116zm2.385 45.39c-.185-.047-.291-.043-.291.007 0 .045.285.118.402.103.098-.013.165-.088.137-.157-.02-.049-.033-.046-.133.026-.079.057-.087.059-.115.021zM26.335 11.249c-.029.02-.063.018-.124-.007a.338.338 0 0 0-.149-.027c-.268-.027-.39 0-.443.056.251.12.432.159.465.12a.35.35 0 0 1 .134-.061c.173.024.179-.01.117-.081zM14.308 120.37c.061.006.065 0-.02-.152-.256.151-.438.13-.44.075-.009-.173-.01-.175-.065-.175-.073.001-.141.053-.141.107-.104.107-.107.127-.072.247a.24.24 0 0 0 .208.159c.211.151.202.234.109.234a.805.805 0 0 1-.314.084c-.153.008-.163.014-.123.076.036.055.196.086.265.051.478-.109.514-.174.482-.262-.019-.053-.016-.08.017-.127a.748.748 0 0 1 .007-.225c.018-.09.027-.098.087-.092zm.227-10.552c-.008-.024-.042-.051-.076-.058-.017.11.096.125.076.058zM14.683 9.36c-.22-.05-.345-.01-.339.038.003.022.115.01.339-.038zm-1.662 63.723c-.044-.028-.107-.004-.169.041.11-.008.186-.014.169-.041zm2.619-19.362c0-.049-.244-.08-.426-.053-.189.027-.208.061-.072.121.151.065.498.019.498-.068zm1.597-22.513c.025-.071-.009-.134-.072-.134-.025-.001-.032.025.072.134zm-2.475 42.24a.19.19 0 0 0 .125-.072c.045-.063.058-.064.123-.018.114-.003.076-.045.016-.076a.392.392 0 0 1-.109-.09c-.001-.068-.192-.162-.248-.123-.05.158-.201.271-.246.215-.151.002-.237.264-.203.307.224.063.283.041.363-.037.058-.056.137-.104.179-.106zm1.292-41.829c-.02-.03-.167-.003-.18.034.086.076.206.006.18-.034zm-4.132 37.433c.002.108.129.104.139-.021-.156-.065-.189-.034-.139.021zm-5.775 7.345c-.064-.082-.135-.066-.188-.072.042.131.104.168.104.168.188-.037.24-.056.253-.094.02-.056-.109-.058-.169-.002zm-.436-31.035c.012-.057-.005-.066-.107-.066-.004.056.036.052.107.066zm.343 18.222c-.095.058-.124.112-.054.103.12.108.306.04.346-.063.045-.117-.127-.14-.292-.04zm6.206 39.114c.034-.053.002-.074-.07-.048-.012.098.04.095.07.048zm5.45-74.147c-.003-.044-.104-.072-.167-.046.023.089.17.085.167.046zm-5.467 98.327c.118-.002.118-.002.112-.089-.006-.077-.015-.089-.08-.099-.045.068-.091.059-.252-.014.06.182.092.204.22.202zm.362-114.841c-.208.098-.283.159-.252.189.036.035.192-.021.252-.189zm12.046 57.55c-.058.039.02.068.199.004-.037-.032-.151-.033-.199-.004zm-1.158 56.139c-.017-.027-.157.126-.098.189.058-.001.129-.141.098-.189zm.23-31.41c-.07-.083-.083-.114-.074-.188-.111.128 0 .254.074.188zm.217-90.75c-.037.079-.021.112 0 .124.038-.091 0-.124 0-.124zm.097 29.204c-.048-.124-.107.08-.107.181-.001.199.053.235.327.094a.491.491 0 0 1-.22-.275zm-.353 80.071c.182-.068.294-.118.384-.104.067-.078.016-.098-.026-.088-.041.009-.117-.019-.173-.061-.261.21-.283.208-.341.153-.088.047-.064.084-.034.117.049-.005.119-.012.19-.017zm1.254-90.972c-.034-.043-.145.033-.144.099.128.046.182-.05.144-.099zm-6.964 18.083c.139-.085.128-.169.059-.143-.103.022-.09.124-.059.143zm7.255-29.863c.007-.137.007-.137-.172-.138-.155-.001-.184.011-.219.091-.06.136-.044.282.029.258.032-.01.096.007.141.04.105.075.209-.043.221-.251zm-1.855 94.961c.203.076.253.069.283.023-.122-.16-.206-.186-.338-.19s-.116.081.055.167zm-2.646-66.112c-.025.021.001.06.04.062.032-.078-.004-.09-.04-.062zm.141 21.792s-.016-.012-.061.009c.012.022.059.016.061-.009zm3.592 31.193c.027-.024-.153-.037-.208-.016.06.069.165.053.208.016zm-6.346-55.874c.105-.175.104-.179.042-.172-.076.091-.062.141-.042.172zm6.129 75.962c.047-.023.027-.037-.044-.031 0-.001.02.017.044.031zm-3.071-51.13c.034.013.065.061.071.107.01.085.174.149.177.068.002-.077-.217-.326-.29-.328-.109-.003-.079.106.042.153zm-.342 30.917c-.009-.036-.135-.059-.177.002.07.031.185.03.177-.002zm52.421-62.34c.002.057-.045.168-.069.168-.071-.206-.128-.137-.115-.098.019.051-.028.137-.011.182.064-.008.145-.016.178-.016h.129c.08.001.08.002.096-.093-.086-.177-.029-.248.024-.293-.165-.014-.235.078-.232.15zm6.099-9.437c.049-.052.063-.459.019-.492-.058-.041-.253.012-.307.084-.139.005-.17.02-.213.068-.07.079-.127.085-.119.012.007-.064-.103-.085-.195-.038-.104-.042-.152.009-.226.149-.031.06-.048.07-.116.063-.078.065.067.1.138.079.024-.008.076.002.115.021.09.045.153.045.171 0 .135-.132.238-.146.266-.104.204.207.222.23.319.296.085.057.105.051.105-.036 0-.031.02-.077.043-.102zm-.15 96.352s.016.044.096.022c-.014-.06-.078-.076-.096-.022zm-1.004-69.96c.018-.037-.048-.054-.072-.021-.027.036.071.114.072.021zm.36-36.122c-.078-.027-.104.005.008.166.07-.002.064-.142-.008-.166zm2.004 107.661c-.007.08.057.049.104-.049.035-.076.035-.102-.004-.124-.046-.027-.091.05-.1.173zm.921-85.708c-.039-.099-.104-.004-.088.133.09-.028.102-.099.088-.133zm-2.236-20.266c-.017-.121-.1-.193-.105-.094-.006.07.056.195.105.094zm2.05 26.801c.075.087.179.067.172-.033-.003-.047-.013-.079-.081-.092-.071-.057-.153.055-.091.125zM77.418 6.127a.19.19 0 0 0-.135-.003c-.048.02-.016.037.109.059.147.027.189.023.213-.05a.368.368 0 0 1-.187-.006zm-.983 8.633c.009-.068-.025-.07-.048-.04-.025.032 0 .053.048.04zm1.549 29.101c-.021-.019-.061-.047-.061-.047.002.038.019.062.061.047zm-3.891 24.707c-.06.007-.103.033-.103.064 0 .068.1.088.103-.064zm.35 53.468c.037-.055-.01-.091-.059-.047.016.074.046.067.059.047zm2.55-113.332a1.739 1.739 0 0 1-.146-.039c-.021.165.036.176.146.039zm.612 96.477c-.02-.031-.055-.032-.05.037.047.016.074-.002.05-.037zm3.783-74.88c-.06-.04-.167-.039-.231-.015a.55.55 0 0 1-.322.169c-.078.021-.129.044-.16.077-.049.045-.105.065-.157.053-.081-.019-.202.042-.2.1.002.037.104.039.145.003 0 0 .101-.024.189-.022.088.002.235-.024.326-.059.146-.055.35-.094.794-.155.131-.018.332-.16.294-.208-.357.056-.65.093-.678.057zm.472 8.605c.002-.06-.097-.105-.129-.059.033.124.126.116.129.059zm-76.791 66.73c-.141.004-.15.021-.091.16.128.083.26-.032.258-.078.06-.051.072-.096.063-.149-.008-.058-.036-.097-.07-.097-.029.152-.044.162-.16.164zm47.939-37.028c-.001-.041-.033-.041-.149.002.096.034.149-.002.149-.002zm7.125-30.15c.07.214.158.219.133.109-.022-.1-.071-.116-.133-.109zm13.191 9.927c-.021-.057-.094-.001-.094-.001.002.033.086.034.094.001zm-13.61 22.992c.026.021.085.036.176.047.126-.079.126-.087.065-.144-.079-.073-.263 0-.241.097zm-.599 14.366c.043.014.178-.13.148-.158-.033-.031-.21.07-.148.158zm1.178-53.619c.035-.021.023-.081-.017-.08-.035.046.017.08.017.08zm.462 50.039c-.112-.025-.081-.065.062-.082.071-.008.146-.029.146-.029.072-.056.303.053.294.139-.007.074-.026.078-.167.04-.029.083-.066.141-.132.14-.03-.002-.071.029-.071.029-.027.059-.064-.008-.063-.115.002-.091-.01-.109-.069-.122zm.149-.012s.02.039.045.04.047-.037.047-.037-.019-.038-.045-.039c-.024-.001-.047.036-.047.036zm.082-23.233c-.113-.091-.152-.09-.193-.036-.139-.069-.166-.128-.166-.128-.08.194-.08.194.15.209.163.01.236.007.209-.045zm1.342-36.142c.165-.002.227-.027.307-.038.268-.038.283-.183.024-.231-.049.132-.567.146-.668.049-.069-.066-.071-.066-.122.016-.045.071-.041.09.018.125.039.022.07.066.071.098.002.088.112.067.202-.038.088-.103.201-.089.168.019zm-1.184 36.575c.01-.055-.146-.076-.365-.052.048.124.132.16.168.188.036.028.085.048.11.045.123.007.238-.053.234-.082 0 0-.037-.031-.147-.099zm-3.381-14.257c-.057-.034-.064-.018-.056.012.014.051.056.041.056-.012zM51.605 4.982c.054-.065-.018-.104-.125-.067-.055.108.09.109.125.067zm.464 83.792c-.111.112-.11.129-.038.193.111-.045.137-.055.213-.115-.061 0-.148-.069-.107-.086-.006-.078-.068.008-.068.008zm-.279-75.25c0-.04.033-.112.073-.162.064-.079.067-.095.02-.134-.056.07-.087.112-.126.125-.105.03-.12.109.033.171zm3.765 54.808c-.002-.055-.055-.06-.143-.013-.004.082.143.047.143.013zm-4.766-27.785c-.035.003-.063.047-.057.091.099-.002.11-.095.057-.091zm4.264 47.831s.02.051.067.092c.104.088.142.094.144.022.002-.054-.173-.147-.211-.114zm4.981-66.143c0-.042-.053-.034-.038.037l.038-.037zm8.364 44.613c.094.053.098-.044.057-.07-.045-.029-.078.012-.057.07zm1.296 33.349c-.025-.005-.062-.009-.12-.016 0 .001.049.025.12.016zm-.362-93.633c.029-.028-.004-.084-.051-.084-.035.109.008.124.051.084zm1.483-2.007-.121.067c.158.038.198.005.121-.067zm-8.856 46.925s.062-.006.121.006c.131.029.16.019.182-.061.02-.076-.021-.128-.098-.128-.157-.003-.214.001-.307-.006-.132-.011-.146-.008-.182.044-.045.065-.029.126.033.126.128.094.204.08.251.019zm11.004 33.216c.002-.023-.041-.016-.036.043.018-.015.036-.043.036-.043zm-.072-14.461c-.031-.025-.113.02-.111.062.089.031.142-.037.111-.062zm-1.342-37.344c.01.084.031.103.123.109.062.004.164.018.229.03.082.016.125.008.148-.03.018-.029.064-.059.087-.175-.117.013-.159.011-.401-.015-.198-.021-.198-.021-.186.081zm-1.77 25.479c.004-.098-.045-.103-.133-.015-.066.064-.074.088-.047.127.067.093.176.026.18-.112zm-6.972-25.204c.057.075.034.201.029.271.071-.228.033-.3-.029-.271zm3.083-2.198c.088.096.159.115.202.053.023-.035-.145-.21-.207-.215-.071-.005-.069.084.005.162zm2.348 11.165c.028.011.072-.001.045-.105a.263.263 0 0 0-.123.005c-.01.076.049.089.078.1zm-6.757-14.293c.081.025.066.026.153-.017.126-.063.168-.253.094-.422-.036-.083-.043-.183-.043-.183-.165.073-.191.111-.171.149.072.134.075.212.006.213-.107.217-.076.249-.039.26zm6.508-6.637c.075.045.083.036 0-.124-.038.077-.038.102 0 .124zm-1.551 105.128c.064-.021.117-.019.147.006.06.047.29-.01.358-.086.066-.072.025-.064-.002-.049-.066.035-.461.026-.811-.004.225.147.275.143.308.133zm.156-122.526c.02.081.05.081.08.038.014-.021-.022-.036-.08-.038zM2.864 45.993a.144.144 0 0 0 .005.057c.026.024.04-.011-.005-.057zm-.406 53.042a.137.137 0 0 1 .039-.106c-.011-.083-.038-.072-.068-.072-.052-.003-.055.006.029.178zm1.885 17.554c-.027-.033-.08-.049-.133-.012.032.018.081.015.133.012zM3.865.585c-.154 0-.211.056-.184.184.018.086.009.102-.057.102-.059 0-.079-.022-.079-.089 0-.122-.06-.112-.131.02-.074.136-.122.121-.229-.073-.047-.086-.106-.15-.106-.15-.079.178.005.487.111.527.03.01.092-.006.139-.037.119-.079.138-.072.199.069.06.138.057.137.238.078.158-.052.256-.214.192-.314-.037-.056-.026-.069.078-.095.236-.059.111-.222-.171-.222zm-.844 24.991.035.04c.02-.071-.032-.082-.035-.04zm1.827 50.897c.101-.197.065-.228-.086-.196.019.089.058.124.086.196zM29.98 23.861c-.069.001-.217.142-.188.179.041.053.234.036.26-.022.029-.066-.013-.157-.072-.157zm9.422 86.478c.058-.019.023.227-.043.294-.026.026-.052.037-.075.029 0 0-.056-.011-.082-.009-.031.002-.047-.027-.047-.027-.001-.024-.01-.028-.038-.016-.054.023-.249.029-.269.008 0 0-.012-.047-.007-.082.009-.07.075-.096.119-.047.016.018.03.013.059-.023.021-.024.074-.047.074-.047l.052-.037c.012-.031.021-.032.061-.013.025.012.064.007.064.007s.04-.019.065-.023.067-.014.067-.014zm-.465.23c-.03 0-.054.021-.054.021.001.023.009.022.054-.021zm24.447-12.514c-.104.107-.182.083-.155-.05.014-.066-.01-.117-.086-.191-.143-.137-.195-.127-.279.051-.039.084-.082.17-.082.17-.02.037.307.025.361.035-.086.052.002.105.211.13.184.021.188.019.248-.095.076-.148.078-.143-.034-.143-.054 0-.132.04-.184.093zM30.129 87.548c.001-.025-.206-.022-.282.002.151.068.28.045.282-.002zm46.428 5.233c.033-.091.01-.122-.072-.095-.036.17.04.18.072.095zm.713-19.033c-.104-.097-.308-.091-.491.014a.817.817 0 0 1-.306.101c-.178.005-.314.079-.327.178-.015.111.192.104.364-.015.1-.067.194-.093.414-.111.312-.027.435-.086.346-.167zm-14.151 26.566c-.041.063-.003.089.033.096.04-.061.004-.089-.033-.096zM26.391 54.15c-.022.022.049.161.083.161.09-.097-.036-.208-.083-.161zM7.868 10.756c.014.155.23.069.298-.058.028-.054.072-.097.097-.138a.567.567 0 0 1-.128.013c.024.106-.186.167-.326.119-.174-.061-.212-.03-.246.008.039.041.019.116-.032.114-.18-.242-.32-.338-.432-.341-.098-.002-.112.006-.152.1-.035.315.077.353.197.312.063-.021.098-.019.172.013.133.059.163.054.258-.043.053-.054.111-.085.152-.083a.65.65 0 0 0 .142-.016zm-.589 3.632c.013-.051.001-.053-.122-.018-.004.092.045.108.074.127.057.036.091.017.048-.109zm75.084 30.667c.08-.003.081 0 .017.113-.036.064-.06.148-.052.187-.134-.065-.289-.079-.332-.009-.029.047-.054.052-.117.024a.46.46 0 0 0-.216-.014c-.117.02-.138.012-.142-.051-.005-.086-.038-.089-.148-.014-.226.157-.75.034-.609-.143.069-.086.104-.079.109.023.008.108.076.109.17.002.055-.062.062-.101.027-.165-.103-.191.092-.182.203.009.076.129.101.136.215.059.064-.042.068-.062.023-.096-.071-.054-.073-.097-.005-.1.063-.002.186.19.18.282-.005.074.28.078.309.004.163.058.237.044.263-.037.012-.039.06-.072.105-.074zm-1.131.048c-.035.001-.063.026-.061.055.004.054.055.066.1.025.048-.043.028-.083-.039-.08zM26.88 56.124c.071.039.083.032.122-.065-.045-.004-.101-.01-.122.065zm-.471 69.007c-.014.099.002.39.002.39a.476.476 0 0 1 .214-.07c.083-.059-.212-.347-.216-.32zm.543-76.76c-.087 0-.14.127-.075.178.141-.174.14-.178.075-.178zm55.874 23.616c.099-.098.057-.139 0-.084-.033.034-.033.053 0 .084zm.338 57.388c-.174-.032-.246-.039-.277-.05-.299.086-.375.102-.422.078-.172.014-.258.09-.232.15.68.043 1.217.055 1.252.065 0 0 .084.014.17.021-.02-.066-.02-.156.017-.188.079-.073-.051-.121-.306-.106a1.121 1.121 0 0 0-.202.03zM.116 12.423c.115.069.148.066.233.002-.042-.106-.262-.127-.35-.11v.072c.036.03.081.05.117.036zm44.835 108.299c.065-.009.124-.032.254-.122-.121-.001-.262.067-.254.122zm9.138-80.542c.042-.103-.089-.194-.156-.108-.068.088-.05.141.053.155.047.007.088-.011.103-.047zm-5.68 55.126c.149-.077.105-.156-.011-.182-.11-.024-.229.063-.124.129.039-.062.161-.016.135.053zm.704-30.589c-.084.099-.061.11.078.131.092-.092.028-.143-.078-.131zM45.6 87.642s.09.046.107.006c-.021-.024-.105-.028-.107-.006zm-7.261 21.837c.025-.059-.038-.163-.099-.165-.015.205.063.249.099.165zm6.017-93.938c.097-.074.041-.09-.031-.07-.085.024-.3-.019-.36-.072-.067-.059-.085-.059-.131-.005-.039.046-.012.064.101.067.09.002.135.097.06.125.089-.004.196-.048.361-.045zm13.558 98.434c.061.061.17.126.335.19.103 0 .189-.082.161-.15-.016-.039-.104-.076-.246-.102-.227-.041-.243-.045-.25.062zM37.215 63.4c-.035.019-.023.049-.023.049.036-.018.023-.049.023-.049zm21.297 48.739c.132-.155.052-.167-.023-.128-.168-.051-.164.12-.131.15.039.035.101.026.154-.022zm5.334-35.411c-.111-.084-.189-.076-.201-.032.083.065.175.098.201.032zm-7.794 36.837c-.116-.047-.125-.041-.139.091-.013.114.097.163.185.085.075-.068.058-.135-.046-.176zm.555-86.64c.028.028.193.045.219.022.043-.04.025-.108-.035-.132-.059-.023-.219.074-.184.11zm7.469-19.401c0 .069.125.067.186-.001-.016-.114-.186-.052-.186.001zm-7.543 27.232c.047.145.08.154.125.109.055-.053-.006-.106-.125-.109zm-2.22 27.022c-.005.103.055.101.09.053.036-.052-.008-.08-.09-.053zM16.624 49.203c.139.055.203.063.233.075.057-.079.005-.096-.042-.122-.101-.054-.191-.031-.191.047zm1.911 37.1c.058.14.166.159.231.027-.006-.048-.076-.04-.231-.027zm-8.37-17.907c-.042.035.071.172.152.185.104.016.199-.034.132-.155.006-.082-.196-.105-.284-.03zm7.036-22.056c.056-.003.053-.035.018-.129.005-.081-.055-.088-.119-.016-.032.035-.08.063-.105.061.149.017.18.025.206.084zm-.798-14.589c0-.102-.057-.119-.107-.032.013.158.107.11.107.032zM1.347 72.022c.034-.084-.045-.144-.116-.087.04.16.088.157.116.087zm8.191-4.906c-.025-.107.097-.15.329-.116.16.023.199.018.145-.098-.131-.075-.215-.082-.246-.01-.028.063-.162.066-.182.003-.009-.028-.084-.047-.201-.051-.137-.004-.183.006-.17.04.009.025-.005.069.029.116.026-.024.064.002.117.075.091.128.206.154.179.041zm-9.2 43.059c-.054-.032-.222-.009-.338.037v.123l.573-.012c-.138-.105-.196-.125-.235-.148zm19.709-46.116c.1.078.11.079.204.011.086-.063.05-.106-.115-.14-.155-.031-.203.04-.089.129zm5.69 11.059c.073-.104.044-.109-.084-.094-.086.012-.261.033-.387.049-.26.033-.322.071-.216.13.04.022.116.083.169.135.089.087.104.091.211.047a.401.401 0 0 0 .175-.156c.036-.068.088-.111.132-.111zm9.549-69.035c.118-.093.131-.219.02-.19-.04.011-.126.03-.19.044-.085.017-.117.046-.116.101.003.147.132.167.286.045zM21.365 112.237c-.063-.113-.124-.138-.188-.073-.023.023-.083.007-.174-.05-.199-.124-.584-.035-.581.133.003.105.54.187.902.135.12-.016.117-.006.041-.145zM19.067 45.02c.034-.049.015-.065-.092-.08-.06-.008-.094.008-.104.05-.018.069.15.095.196.03zm17.255-7.378c-.008-.024-.054-.052-.142-.016.056.069.161.081.142.016zM19.106 91.917c-.033.025-.029.135.005.135.056.002.099-.092-.005-.135zm.241-60.988c.078.133.141.126.196.064.102-.112-.055-.162-.196-.064zm18.315 16.926c.205.129.75.113.685-.02-.587-.171-1.172-.118-1.267-.054.056.038.087.03.13.059.05.033.083.033.144 0 .226-.009.279-.004.308.015zm35.932 41.937c.053-.014.064-.057.053-.176a.524.524 0 0 1 .015-.176c-.101-.078-.11-.057-.106.096.002.09.002.09-.4.131a.506.506 0 0 1-.216-.039c-.147-.069-.336-.094-.366-.05-.166.042-.289.147-.249.177.03.022.183.029.694.028.19-.001.383.006.427.013a.406.406 0 0 0 .148-.004zm2.117-65.215c.174.191.198.179.246.088.035-.068.034-.07-.1-.091-.02-.031-.127-.029-.146.003zm-.359 74.709c-.02-.05-.034-.047-.133.025-.079.059-.088.06-.116.021-.183-.047-.29-.043-.29.008 0 .045.285.117.401.102.099-.011.165-.088.138-.156zM72.281 7.792c-.04.062-.004.089.033.097.041-.062.003-.089-.033-.097zm-4.889 11.625c-.115.051-.142.151-.029.117.161.12.269.038.222-.081-.037-.093-.058-.097-.193-.036zm-.33 80.707c-.04 0-.135.139-.135.198 0 .033.098.015.141-.026.059-.058.056-.172-.006-.172zm.223-37.537c-.002.049.075.025.063-.095a.527.527 0 0 0-.063.095zm-2.208 17.871c.026.064.055.066.153.012-.026-.028-.093-.026-.153-.012z"/></svg>