<svg xmlns="http://www.w3.org/2000/svg" width="81.52" height="47.9" xml:space="preserve"><path fill="#828180" d="M81.52 2.713V1.115a.787.787 0 0 1-.786-.786h-1.41c0 1.039-1.572 1.041-1.572 0h-1.414c0 1.04-1.572 1.041-1.572 0h-1.411c0 1.039-1.571 1.041-1.571 0H70.37c0 1.04-1.571 1.041-1.571 0h-1.412c0 1.041-1.571 1.044-1.571 0H64.4c0 1.042-1.57 1.039-1.57 0h-1.414c0 1.039-1.569 1.042-1.569 0h-1.414c0 1.044-1.571 1.042-1.571 0h-1.41c0 1.039-1.572 1.042-1.572 0h-1.416c0 .433-.35.786-.784.786v1.598c1.036 0 1.041 1.571 0 1.571v1.601c1.038 0 1.038 1.57 0 1.571v1.601c1.038.001 1.038 1.571 0 1.572v1.601c1.04 0 1.037 1.57 0 1.57v1.598c1.036.001 1.041 1.571 0 1.571v1.601c1.036.001 1.041 1.57 0 1.572v1.6c1.038.001 1.038 1.571 0 1.571v1.601c1.04 0 1.037 1.57 0 1.57v1.6c1.034.001 1.043 1.57 0 1.57v1.601c1.038.001 1.038 1.571 0 1.572v1.601c1.038.002 1.038 1.571 0 1.571V37.6c1.04.002 1.037 1.571 0 1.572v1.598c1.036 0 1.041 1.57 0 1.571v1.601c1.038.002 1.038 1.572 0 1.572v1.6c.423 0 .784.345.784.787h1.416c0-1.045 1.57-1.041 1.57 0h1.412c0-1.039 1.57-1.045 1.57 0h1.415c0-1.043 1.569-1.041 1.569 0h1.414c0-1.039 1.571-1.045 1.571 0h1.413c0-1.041 1.571-1.039 1.571 0h1.412c0-1.041 1.571-1.043 1.571 0h1.414c0-1.043 1.571-1.041 1.571 0h1.411c0-1.041 1.572-1.043 1.572 0h1.414c0-1.043 1.572-1.041 1.572 0h1.41c0-.436.355-.787.786-.787V45.51c-1.041 0-1.04-1.57 0-1.57v-1.602c-1.05 0-1.032-1.57 0-1.57v-1.599c-1.04 0-1.045-1.571 0-1.571v-1.602c-1.04 0-1.04-1.571 0-1.571v-1.601c-1.041 0-1.04-1.572 0-1.572v-1.6c-1.05 0-1.032-1.571 0-1.571v-1.599c-1.04 0-1.041-1.57 0-1.57v-1.601c-1.04 0-1.041-1.571 0-1.571v-1.6c-1.041 0-1.04-1.572 0-1.572V16.97c-1.032 0-1.05-1.571 0-1.571v-1.601c-1.039 0-1.042-1.57 0-1.57v-1.601c-1.04 0-1.041-1.572 0-1.572V7.456c-1.04 0-1.04-1.571 0-1.571V4.287c-1.034 0-1.047-1.574.002-1.574zm-2.024 42.503H53.382V2.186h26.113v43.03z"/><path fill="#FFF" d="M81.442 2.384V.787A.787.787 0 0 1 80.656 0h-1.412c0 1.04-1.571 1.042-1.571 0h-1.414c0 1.041-1.57 1.041-1.57 0H73.28c0 1.04-1.57 1.042-1.57 0h-1.416c0 1.041-1.57 1.041-1.57 0h-1.413c0 1.041-1.571 1.044-1.571 0h-1.416c0 1.042-1.568 1.04-1.568 0H61.34c0 1.04-1.57 1.042-1.57 0h-1.416c0 1.044-1.571 1.042-1.571 0h-1.412c0 1.04-1.57 1.042-1.57 0h-1.416a.788.788 0 0 1-.785.787v1.598c1.036.001 1.041 1.57 0 1.571v1.601c1.039.001 1.039 1.57 0 1.572v1.6c1.039 0 1.039 1.571 0 1.572v1.6c1.041.001 1.036 1.57 0 1.572v1.598c1.036 0 1.041 1.57 0 1.572v1.6c1.036 0 1.041 1.57 0 1.572v1.601c1.039 0 1.039 1.57 0 1.571v1.6c1.041.001 1.036 1.571 0 1.572v1.598c1.035 0 1.044 1.57 0 1.571v1.602c1.039 0 1.039 1.57 0 1.57v1.602c1.039 0 1.039 1.57 0 1.57v1.602c1.041 0 1.036 1.57 0 1.572v1.598c1.036 0 1.041 1.57 0 1.57v1.6c1.039.002 1.039 1.572 0 1.572v1.601c.425 0 .786.344.786.786H53.8c0-1.045 1.57-1.041 1.57 0h1.412c0-1.038 1.57-1.045 1.57 0h1.416c0-1.041 1.57-1.041 1.57 0h1.412c0-1.038 1.568-1.045 1.568 0h1.416c0-1.041 1.571-1.039 1.571 0h1.412c0-1.041 1.571-1.043 1.571 0h1.414c0-1.041 1.571-1.041 1.571 0h1.412c0-1.041 1.57-1.043 1.57 0h1.414c0-1.041 1.571-1.041 1.571 0h1.412c0-.436.354-.786.786-.786v-1.601c-1.042 0-1.04-1.572 0-1.572v-1.6c-1.05 0-1.032-1.57 0-1.57v-1.598c-1.041 0-1.044-1.572 0-1.572v-1.602c-1.041 0-1.041-1.57 0-1.57V32.5c-1.042 0-1.04-1.57 0-1.57v-1.601c-1.05 0-1.032-1.572 0-1.572v-1.598c-1.04 0-1.042-1.572 0-1.572v-1.6c-1.041 0-1.042-1.571 0-1.571v-1.601c-1.042 0-1.04-1.572 0-1.572v-1.598c-1.032 0-1.05-1.571 0-1.571v-1.6c-1.038 0-1.043-1.572 0-1.572v-1.6c-1.041 0-1.042-1.572 0-1.572v-1.6c-1.041 0-1.04-1.572 0-1.572v-1.6c-1.03 0-1.044-1.574.004-1.574zm-2.696 41.832H54.632V3.186h24.113v41.03z"/><path fill="#010101" d="M53.914 24.501c.334.323.391.618.787 1.028 2.848.125 4.346 1.072 5.922 2.191 0 0-.082.039-.047.066 1.588 1.141 3.334 2.383 6.48 2.488a60.641 60.641 0 0 1-.016-1.031c-2.906-.109-4.324-1.088-5.92-2.219l-.1.137c-1.664-1.195-3.447-2.641-6.898-2.63v-.041c-.074.001-.136.01-.208.011zm4.06 3.776a10.25 10.25 0 0 1-.158-.061c.014.038.025.078.037.117.074.058.141.119.203.186a2.862 2.862 0 0 0-.082-.242zm.151 1.048c.086.04.168.08.25.121.02-.104.033-.204.037-.302a1.533 1.533 0 0 0-.355-.625c.068.239.099.508.068.806zm1.158.626a7.752 7.752 0 0 0-.334-1.223 9.72 9.72 0 0 0-.613-.305c.059.213.092.455.076.721.033.109.061.227.076.356.273.143.541.291.795.451zm1.793.158c-.615-.443-1.256-.905-1.994-1.313.285.352.438.758.383 1.273.371.24.732.494 1.1.755 0 0-.027.026-.021.03 1.609 1.155 3.408 2.35 6.639 2.422a97.78 97.78 0 0 1-.055-1.021c-2.961-.096-4.357-1.121-5.969-2.264l-.083.118zm0 3.021c-.992-.712-2.053-1.46-3.471-1.951-.102.091-.203.182-.313.276a9.596 9.596 0 0 1-.414.46c1.555.36 2.646 1.021 3.768 1.815 0 0-.184.136-.133.176 1.645 1.18 3.504 2.326 6.865 2.35l-.07-.967c-3.096-.052-4.592-.986-6.238-2.152l.006-.007zm-3.723-2.04a7.61 7.61 0 0 1-.643.789l.063.014c.18-.148.355-.295.52-.438.084-.102.166-.203.24-.304-.061-.02-.119-.042-.18-.061zm-2.889 2.789c-.111-.002-.211-.012-.326-.012-.41.277-.764.496-.994.609.174-.016.361-.021.545-.027.178-.124.451-.321.775-.57zm6.682 2.175c-1.586-1.141-3.41-2.093-6.564-2.172-.338.247-.627.44-.828.564.127-.004.238-.018.369-.019v.018c3.242.01 4.756 1.229 6.439 2.424 0 0-.061.072-.055.077 1.66 1.191 3.541 2.245 6.965 2.245v.178c.014 0 .029-.162.043-.162v.061c.033 0 .063-.009.092-.016l-.072-.933c-.006-.001-.014-.007-.02-.007v.209c-3.246-.01-4.777-1.146-6.463-2.339l.094-.128zm-7.023-13.681v.087c3.242.009 4.775 1.103 6.459 2.297 0 0-.018.01-.01.015 1.592 1.143 3.344 2.225 6.504 2.311.01-.191.023-.375.037-.562-2.953-.124-4.346-1.429-5.955-2.568l-.189.265c-1.666-1.195-3.395-2.588-6.846-2.578v-.061c-2.199-.007-3.744.517-5.006 1.205.482.079.979.184 1.486.308.924-.424 2.025-.715 3.52-.719zm-1.018 12.106c.203-.115.572-.354 1.018-.675v-.165c-.74-.002-1.391.066-1.996.173-.113.117-.445.485-.896 1.027.354-.107.73-.195 1.139-.262.457-.47.783-.753.869-.763-.018.012-.275.285-.664.734.173-.024.342-.054.53-.069zm-4.309 3.769c-.203.461-.396.935-.578 1.414a35.6 35.6 0 0 1 .545-.377c.322-.551.68-1.094 1.049-1.615-.359.181-.697.375-1.016.578zm-1.531 1.063-.002-.002c-.908.644-1.805 1.176-2.939 1.537.061.176.146.436.254.75 1.213-.471 2.158-1.125 3.057-1.77l.119.168a.245.245 0 0 1 .037-.026c.268-.561.582-1.121.92-1.666-.51.33-.983.677-1.446 1.009zm20.522 2.361a.76.76 0 0 0-.271-.047l-.002.029c-3.244-.01-4.752-1.291-6.436-2.484l.029-.041c-1.664-1.196-3.533-2.474-6.984-2.463v.049c-1.564-.006-2.764.289-3.777.715-.314.457-.621.936-.906 1.424 1.164-.699 2.521-1.221 4.684-1.227v-.154c3.242.008 4.82 1.133 6.504 2.327 0 0-.193.176-.156.205 1.66 1.191 3.578 2.216 7.002 2.216v.039c.014 0 .029.17.043.17v-.173a.745.745 0 0 0 .309-.068c-.016-.173-.026-.345-.039-.517zM16.152 26.923c-.46.029-1.052.081-1.604.124l-.018.016a6.279 6.279 0 0 0-.53.498c.479-.086.974-.172 1.423-.254.272-.132.549-.262.823-.389-.032.001-.06.002-.094.005zM2.61 28.932c.245-.042.468-.084.661-.123.003-.002.007-.002.011-.003a1.502 1.502 0 0 1-.031-.265c-.162.002-.352.01-.551.018-.012.039-.021.079-.032.119-.021.084-.045.168-.058.254zm.698-.015c.008-.032.014-.063.024-.095l.01-.029-.059.013.001.005c.007.035.014.072.024.106zM.563 25.646l-.035-.166.034.129c1.645.006 2.838.271 3.837.686.173-.196.362-.394.564-.589-1.133-.538-2.503-.921-4.4-.915v-.012c-.234 0-.341.047-.341.279H.048c0 .233.281.588.515.588zm4.202.819c.126.059.254.117.375.182a.646.646 0 0 1 .213-.086c.039-.002.006.06-.068.168.326.18.64.374.947.58a9.36 9.36 0 0 1 .625-.475 13.383 13.383 0 0 0-1.741-1.055c-.132.239-.25.469-.351.686zm4.818 2.064a11.812 11.812 0 0 1-1.078-.626c-.179.33-.222.604-.192.814.223.138.453.273.694.401.177-.108.33-.309.576-.589zm-2.568-1.582-.104-.074a7.319 7.319 0 0 0-.579.502l.118.08c.196-.184.387-.355.565-.508zm-3.402 1.262c-.103-.029-.212-.054-.319-.08a1.721 1.721 0 0 0-.042.412c.069-.002.126-.002.186-.002.05-.111.109-.221.175-.33zm-1.61.383.698-.033c.056-.182.124-.359.205-.527-.09-.018-.19-.029-.283-.045l-1.296.203c-.154.11-.305.221-.451.33.399.009.775.033 1.127.072zm2.182.482c.184.064.361.135.533.209a4.81 4.81 0 0 1 .267-.563 9.102 9.102 0 0 0-.699-.29 1.847 1.847 0 0 0-.101.644zm2.901 1.631-.042.06c1.644 1.182 3.416 2.62 6.786 2.646.042 0 .076.006.118.006v-.16c.503.002.965-.028 1.406-.072 2.585-.262 4.185-1.246 5.605-2.268l-.013-.018c1.684-1.194 3.146-2.481 6.39-2.492l-.001.223c1.233.004 2.223.141 3.068.373.145-.291.29-.59.438-.896-.971-.344-2.102-.572-3.506-.567v.001c-3.451-.011-5.264 1.406-6.929 2.603l-.071-.1c-1.59 1.127-3.003 2.257-5.885 2.389-.17.008-.325.024-.504.025v.017a11.316 11.316 0 0 1-2.217-.211c-1.544-.31-2.629-.932-3.67-1.645-.342.004-.66.052-.973.086zm-6.523-2.89v-.24a.343.343 0 0 0-.152.042l.139.701c.238-.043.497-.086.776-.129.151-.109.304-.218.456-.322a13.02 13.02 0 0 0-1.219-.052zm13.385 8.55v-.178c2.906.008 4.689-.771 6.175-1.73a40.994 40.994 0 0 1-1.573-.137c-1.156.645-2.52 1.108-4.602 1.115l-.001.136c-3.243-.011-4.688-1.341-6.37-2.534l-.15.212c-.697-.501-1.416-1.042-2.261-1.508a6.425 6.425 0 0 1-1.217-.563c-.824-.308-1.786-.513-2.938-.556l.171.864c2.823.136 4.351 1.104 5.919 2.217l-.087.123c1.665 1.197 3.483 2.55 6.934 2.539zm.754-9.955c.033-.021.063-.043.097-.064l-.116.065a16.17 16.17 0 0 0-.614.372l.136-.024c.149-.113.315-.229.497-.349zm-1.134.703c.161-.112.329-.223.5-.33-.587.107-1.02.204-1.107.273-.09.071.178.078.607.057zm-1.371.155c.422-.373.901-.729 1.305-1.012-.147-.006-.296-.011-.437-.021a15.01 15.01 0 0 0-1.451.945c.184.037.388.059.583.088zm1.282.113c.086-.089.183-.182.294-.278-.073.005-.14.008-.205.011-.122.085-.24.17-.353.256l.264.011zM.563 22.506l-.153-.047.153.045c2.691.01 4.14.826 5.517 1.786.241-.308.478-.555.689-.693-1.491-1.007-3.244-1.893-6.206-1.884v-.112c-.234 0-.372.205-.372.438H.132c0 .231.197.467.431.467zm6.363 2.383-.007.009c.438.315.898.638 1.396.944.434.267.899.52 1.412.742.463.199.975.365 1.526.502.399-.271.884-.563 1.475-.875a8.57 8.57 0 0 1-1.981-.435 8.208 8.208 0 0 1-1.295-.579c-.656-.365-1.244-.793-1.865-1.233l-.098.136c-.137-.1-.279-.198-.419-.295-.165.172-.422.4-.73.666l.586.418zm33.803 5.491v-.226c3.452.01 5.25-1.203 6.915-2.398 1.561-1.105 3.021-2.116 5.805-2.268-.293-.343-.385-.611-.758-.91-2.568.304-4.164 1.41-5.582 2.43l.16.224c-1.684 1.192-3.297 2.122-6.54 2.133v.106a10.15 10.15 0 0 1-2.386-.276l-.095.253-.152.609c.767.198 1.625.326 2.633.323zm-28.993-1.093a9.357 9.357 0 0 1-.747-.189 8.316 8.316 0 0 1-.859-.308c-.165.275-.221.528-.202.756a9.37 9.37 0 0 0 1.387.435 11.696 11.696 0 0 0 2.633.295v-.043c3.451.011 5.238-1.295 6.902-2.49l.039.055c1.684-1.194 3.203-2.262 6.447-2.272v-.063c1.898.006 3.203.399 4.301.959l.369-.815c-1.209-.559-2.675-.951-4.67-.945v-.152c-3.451-.011-5.19 1.516-6.855 2.713l-.014-.019c-1.684 1.192-3.277 2.21-6.52 2.22l-.001.079c-.177-.001-.331-.017-.498-.023.237.365.646.591.784.645-.189-.035-.702-.314-1.217-.665a10.611 10.611 0 0 1-1.279-.173zm28.993 3.981h.021c.053-.029.105-.06.153-.076-.035.002-.079.03-.127.074 3.42 0 5.311-1.159 6.967-2.35l-.078-.111c1.684-1.194 3.211-2.276 6.457-2.285v.006c1.633.005 2.826.285 3.824.715a2.123 2.123 0 0 0-.094-.906 2.581 2.581 0 0 0-.373-.244c-.934-.314-2.023-.516-3.357-.512v.014c-3.451-.01-5.324 1.271-6.99 2.468l-.018-.024c-1.684 1.193-3.143 2.349-6.385 2.359v.01c-1.283-.005-2.297-.17-3.166-.437-.095-.029-.183-.063-.274-.095-1.05-.362-1.891-.879-2.722-1.457-.154.275-.306.535-.454.787.826.561 1.741 1.057 2.874 1.404.111.034.22.071.336.103.953.257 2.059.409 3.405.405l.001.152zm-6.925-3.553c-.653-.461-1.358-.92-2.186-1.299-.156.284-.311.559-.465.828.865.325 1.587.764 2.306 1.257.113-.253.228-.516.345-.786zm6.925 6.462c.444.001.859-.019 1.252-.054.268-.396.496-.683.668-.821-.57.108-1.196.179-1.92.181v-.05c-.179-.001-.347-.009-.514-.016-.123.222-.247.455-.37.7.286.018.569.037.883.037l.001.023zm-1.468-.111.131-.295-.201.285a.513.513 0 0 0 .07.01zm7.901-2.943-.039-.055c-1.271.9-2.42 1.811-4.303 2.207-.207.195-.492.484-.836.848 2.66-.24 4.227-1.262 5.676-2.303l.043.061c1.684-1.195 3.174-2.217 6.42-2.226v-.034c.895.002 1.654.078 2.336.204a7.08 7.08 0 0 0 .668-.795 10.647 10.647 0 0 0-3.004-.399v-.033c-3.452-.011-5.295 1.33-6.961 2.525zm-7.481 2.256-.104-.01-.186.402c.098-.134.194-.266.29-.392zm-3.156-.939a.748.748 0 0 1-.195.185c-.112.086-.108-.027-.021-.297-.688-.395-1.297-.852-1.941-1.309l-.104.146c-.308-.221-.623-.449-.949-.677-.191.29-.37.551-.534.774.317.208.63.424.949.65l.123-.172c1.255.9 2.563 1.818 4.608 2.212.153-.235.306-.464.455-.677a7.802 7.802 0 0 1-2.391-.835zm-7.027-2.561a8.329 8.329 0 0 1 2.832 1.1l.402-.876a9.752 9.752 0 0 0-2.589-1.191c-.226.353-.44.673-.645.967zm-2.162-.192c.608.002 1.138.05 1.634.118.17-.318.355-.674.554-1.057a10.351 10.351 0 0 0-2.188-.219l.001.173c-3.451-.011-5.226 1.317-6.89 2.515l-.069-.097c-.435.308-.857.608-1.3.888.515.066 1.007.119 1.479.16.126-.088.255-.174.379-.264l-.003-.004c1.684-1.195 3.16-2.52 6.403-2.53v.317zm12.512 6.795a9.98 9.98 0 0 1-1.019-.127c-.115.277-.228.559-.337.842.206.041.43.068.65.098.238-.277.473-.548.706-.813zm-3.018.218c.145-.265.29-.524.437-.78-1.155-.451-2.05-1.096-2.984-1.758l-.083.115c-1.665-1.197-3.409-2.711-6.862-2.701v.211c-1.553-.005-2.783.216-3.832.561.798.04 1.593.086 2.432.17a9.764 9.764 0 0 1 1.399-.111v.289c.031.004.064.012.095.017 3.176.028 4.737.896 6.402 2.078l-.076.108c.892.641 1.85 1.313 3.072 1.801zm.567.214c.211.068.441.124.669.18.053-.098.113-.197.16-.295.016-.107.073-.297.153-.534a8.083 8.083 0 0 1-.522-.138c-.155.259-.308.521-.46.787zm3.332.285c3.452.01 5.208-1.244 6.872-2.439l.039.053c.922-.655 1.811-1.302 2.957-1.756.467-.605.941-1.039 1.4-1.226-2.15.405-3.545 1.397-4.83 2.319l.02.028c-1.684 1.192-3.215 2.224-6.458 2.233v.113c-.052 0-.094-.006-.145-.007-.147.278-.297.565-.445.859.196.009.381.027.59.026v-.203zm0-11.963c3.452.011 5.227-1.336 6.893-2.532l.145.203c.713-.507 1.387-1.031 2.166-1.476a20.194 20.194 0 0 0-1.393-.313c-.49.303-.943.623-1.381.938l-.023-.034c-1.684 1.192-3.164 2.236-6.408 2.247l.001.102a10.83 10.83 0 0 1-1.374-.094 52.05 52.05 0 0 1-.291.894c.517.065 1.061.112 1.665.11v-.045zm-24.466-.327c2.066-.343 3.441-1.149 4.689-2.047l-.054-.075c1.684-1.193 3.195-2.156 6.439-2.168l-.001-.269c2.534.008 4.05.708 5.395 1.583.111-.264.22-.529.327-.793-1.401-.806-3.119-1.401-5.722-1.394v-.166c-3.451-.01-5.264 1.325-6.928 2.522l.048.067c-1.392.986-2.729 1.88-4.979 2.169a15.96 15.96 0 0 0-.365.266c1.104-.184 2.354-.377 3.074-.531-.466.177-1.173.489-1.923.836zm17.435-2.014c.502.361 1.034.719 1.617 1.047.372.21.765.41 1.194.584.661.269 1.413.475 2.263.605.064-.305.127-.609.188-.915a7.947 7.947 0 0 1-2.048-.626 9.813 9.813 0 0 1-1.235-.699c-.446-.293-.875-.606-1.318-.92l-.009.012c-.154-.111-.315-.22-.476-.328-.109.277-.221.553-.339.828.102.07.203.141.305.213l-.142.199zm1.104 14.661a2.088 2.088 0 0 1-.378.671l.167.114a2.69 2.69 0 0 0 .448-.622c-.079-.055-.159-.108-.237-.163zm2.323 2.159c.143.053.293.102.444.148.072-.239.148-.481.229-.728l-.162-.051c-.173.212-.343.422-.511.631zm3.604-.163a11.097 11.097 0 0 1-1.587-.114 40.73 40.73 0 0 0-.329.729 11.24 11.24 0 0 0 1.916.148v-.054c1.258.004 2.292-.163 3.184-.431-.025-.357.021-.666.152-.908-.912.26-1.975.415-3.337.42l.001.21zm-4.606-.281c.104.053.209.104.317.155.169-.205.335-.409.492-.614a7.452 7.452 0 0 1-.458-.219c-.12.227-.236.454-.351.678zm-.986-1.19c.152.025.013.187-.302.424.257.173.527.341.807.503.11-.229.224-.457.34-.687-.274-.161-.541-.33-.799-.505-.009.083-.022.17-.046.265zm-.857-.894.048-.065c-.417-.3-.848-.605-1.312-.896-.441-.159-.886-.365-1.272-.684-1.156-.533-2.549-.912-4.407-.906v.019c-3.451-.011-5.222 1.415-6.886 2.611l-.041-.058c-1.684 1.193-3.22 2.344-6.462 2.354v-.104c-3.244-.01-4.728-1.129-6.41-2.322l-.101.141c-1.397-1.005-2.877-2.232-5.354-2.598a10.366 10.366 0 0 0-1.522-.117v.323c-.234 0-.369.026-.369.259h.087c0 .232.046.297.28.297l-.026.125.027-.034c.614.002 1.149.058 1.651.135 2.148.333 3.406 1.279 4.77 2.247l-.035.049c1.665 1.196 3.549 2.553 7 2.543v-.117c3.451.01 5.353-1.205 7.017-2.401l-.041-.057c1.684-1.194 3.169-2.341 6.413-2.352v-.073c3.243.011 4.798 1.137 6.479 2.331l.021-.028c.141.102.283.203.427.305.19-.246.306-.473.364-.678-.113-.085-.229-.166-.346-.249zm1.109-10.312c.75.468 1.602.884 2.634 1.161l.227-.589.063-.262a8.54 8.54 0 0 1-2.532-1.09c-.35-.219-.688-.447-1.021-.684l-.465-.33.051-.07c-.472-.34-.968-.673-1.507-.98-.134.281-.269.561-.406.835.465.29.906.603 1.357.923l.005-.006c.208.15.419.303.635.456.302.216.625.429.959.636zM.595 34.543l-.032-.164c.42.001.808.027 1.172.072 2.442.3 3.718 1.494 5.182 2.533l.052-.074c1.665 1.196 3.527 2.352 6.979 2.342l-.001.236c3.45.01 5.203-1.537 6.867-2.733l.163.229c1.178-.836 2.245-1.748 3.882-2.23a44.734 44.734 0 0 0-2.052-.148c-.957.398-1.76.9-2.503 1.434l.014.018c-1.684 1.193-3.128 2.465-6.37 2.476l-.001.091c-3.243-.011-4.824-1.18-6.506-2.373l.02-.027c-1.488-1.07-3.082-2.305-5.866-2.549-.33-.029-.668-.052-1.033-.051v.201c-.234 0-.464.065-.464.298H0c0 .231.327.284.562.284.001-.002.033.135.033.135z" opacity=".6"/></svg>