<?xml version="1.0" encoding="utf-8"?>
<!-- Generator: Adobe Illustrator 13.0.0, SVG Export Plug-In . SVG Version: 6.00 Build 14948)  -->
<!DOCTYPE svg PUBLIC "-//W3C//DTD SVG 1.1//EN" "http://www.w3.org/Graphics/SVG/1.1/DTD/svg11.dtd">
<svg version="1.1" id="Layer_1" xmlns="http://www.w3.org/2000/svg" xmlns:xlink="http://www.w3.org/1999/xlink" x="0px" y="0px"
	 width="31px" height="49px" viewBox="-0.062 -0.966 31 49" enable-background="new -0.062 -0.966 31 49" xml:space="preserve">
<path fill="#818180" d="M0.329,4.284v1.601c1.038,0,1.038,1.57,0,1.571v1.601c1.038,0.001,1.038,1.571,0,1.572v1.601
	c1.04,0,1.037,1.57,0,1.57v1.598c1.036,0.001,1.041,1.571,0,1.571v1.601c1.036,0.001,1.041,1.57,0,1.572v1.6
	c1.038,0.001,1.038,1.571,0,1.571v1.601c1.04,0,1.037,1.57,0,1.57v1.6c1.034,0.001,1.043,1.57,0,1.57v1.601
	c1.038,0.001,1.038,1.571,0,1.572v1.601c1.038,0.002,1.038,1.571,0,1.571V37.6c1.04,0.002,1.037,1.571,0,1.572v1.598
	c1.036,0,1.041,1.57,0,1.571v1.601c1.038,0.002,1.038,1.572,0,1.572v1.6c0.423,0,0.785,0.345,0.785,0.787h1.415
	c0-1.045,1.571-1.041,1.571,0h1.411c0-1.039,1.571-1.045,1.571,0h1.415c0-1.043,1.57-1.041,1.57,0h1.413
	c0-1.039,1.572-1.045,1.572,0h1.413c0-1.041,1.571-1.039,1.571,0h1.412c0-1.041,1.571-1.043,1.571,0h1.414
	c0-1.043,1.571-1.041,1.571,0h1.411c0-1.041,1.572-1.043,1.572,0h1.414c0-1.043,1.572-1.041,1.572,0h1.41
	c0-0.436,0.355-0.787,0.786-0.787V45.51c-1.041,0-1.04-1.57,0-1.57v-1.602c-1.05,0-1.032-1.57,0-1.57v-1.599
	c-1.04,0-1.045-1.571,0-1.571v-1.602c-1.04,0-1.04-1.571,0-1.571v-1.601c-1.041,0-1.04-1.572,0-1.572v-1.6
	c-1.05,0-1.032-1.571,0-1.571v-1.599c-1.04,0-1.041-1.57,0-1.57v-1.601c-1.04,0-1.041-1.571,0-1.571v-1.6
	c-1.041,0-1.04-1.572,0-1.572V16.97c-1.032,0-1.05-1.571,0-1.571v-1.601c-1.039,0-1.042-1.57,0-1.57v-1.601
	c-1.04,0-1.041-1.572,0-1.572V7.456c-1.04,0-1.04-1.571,0-1.571V4.287c-1.036,0-1.049-1.574,0-1.574V1.115
	c-0.433,0-0.786-0.353-0.786-0.786h-1.41c0,1.039-1.572,1.041-1.572,0h-1.414c0,1.04-1.572,1.041-1.572,0h-1.411
	c0,1.039-1.571,1.041-1.571,0H19.02c0,1.04-1.571,1.041-1.571,0h-1.412c0,1.041-1.571,1.044-1.571,0h-1.414
	c0,1.042-1.571,1.039-1.571,0h-1.413c0,1.039-1.57,1.042-1.57,0H7.083c0,1.044-1.571,1.042-1.571,0H4.101
	c0,1.039-1.571,1.042-1.571,0H1.114c0,0.433-0.351,0.786-0.785,0.786v1.598C1.365,2.713,1.37,4.284,0.329,4.284z"/>
<path fill="#FFFFFF" d="M0,3.956v1.601c1.039,0.001,1.039,1.57,0,1.572v1.6c1.039,0,1.039,1.571,0,1.572v1.6
	c1.041,0.001,1.036,1.57,0,1.572v1.598c1.036,0,1.041,1.57,0,1.572v1.6c1.036,0,1.041,1.57,0,1.572v1.601
	c1.039,0,1.039,1.57,0,1.571v1.6c1.041,0.001,1.036,1.571,0,1.572v1.598c1.035,0,1.044,1.57,0,1.571v1.602
	c1.039,0,1.039,1.57,0,1.57v1.602c1.039,0,1.039,1.57,0,1.57v1.602c1.041,0,1.036,1.57,0,1.572v1.598c1.036,0,1.041,1.57,0,1.57v1.6
	c1.039,0.002,1.039,1.572,0,1.572v1.601c0.425,0,0.786,0.344,0.786,0.786h1.415c0-1.045,1.57-1.041,1.57,0h1.412
	c0-1.038,1.571-1.045,1.571,0H8.17c0-1.041,1.57-1.041,1.57,0h1.412c0-1.038,1.569-1.045,1.569,0h1.415c0-1.041,1.572-1.039,1.572,0
	h1.412c0-1.041,1.571-1.043,1.571,0h1.414c0-1.041,1.571-1.041,1.571,0h1.412c0-1.041,1.57-1.043,1.57,0h1.414
	c0-1.041,1.571-1.041,1.571,0h1.412c0-0.436,0.354-0.786,0.786-0.786v-1.601c-1.042,0-1.04-1.572,0-1.572v-1.6
	c-1.05,0-1.032-1.57,0-1.57v-1.598c-1.041,0-1.044-1.572,0-1.572v-1.602c-1.041,0-1.041-1.57,0-1.57V32.5c-1.042,0-1.04-1.57,0-1.57
	v-1.601c-1.05,0-1.032-1.572,0-1.572v-1.598c-1.04,0-1.042-1.572,0-1.572v-1.6c-1.041,0-1.042-1.571,0-1.571v-1.601
	c-1.042,0-1.04-1.572,0-1.572v-1.598c-1.032,0-1.05-1.571,0-1.571v-1.6c-1.038,0-1.043-1.572,0-1.572v-1.6
	c-1.041,0-1.042-1.572,0-1.572v-1.6c-1.041,0-1.04-1.572,0-1.572v-1.6c-1.034,0-1.048-1.574,0-1.574V0.787
	c-0.434,0-0.786-0.353-0.786-0.787h-1.412c0,1.04-1.571,1.042-1.571,0h-1.414c0,1.041-1.57,1.041-1.57,0H21.68
	c0,1.04-1.57,1.042-1.57,0h-1.416c0,1.041-1.57,1.041-1.57,0H15.71c0,1.041-1.572,1.044-1.572,0h-1.415c0,1.042-1.569,1.04-1.569,0
	H9.741c0,1.04-1.57,1.042-1.57,0H6.755c0,1.044-1.571,1.042-1.571,0H3.771c0,1.04-1.57,1.042-1.57,0H0.785
	c0,0.433-0.351,0.786-0.785,0.787v1.598C1.036,2.386,1.041,3.955,0,3.956z"/>
<path fill="#FFFFFF" d="M7.685,46.197c0,0-0.012,0.005-0.018,0.011C7.683,46.221,7.69,46.215,7.685,46.197z M28.979,37.962
	c-0.045,0.007-0.043,0.034-0.021,0.042C29.005,37.977,28.986,37.971,28.979,37.962z M29.016,43.995
	c-0.015-0.015-0.035-0.017-0.035-0.017S28.98,43.995,29.016,43.995z M29.402,4.227c0-0.035-0.01-0.036-0.049-0.005
	c-0.013,0.009-0.025,0.017-0.037,0.021c0.047,0.043,0.06,0.042,0.078,0.05c0.026,0.011,0.037,0.01,0.051-0.002
	c0.022-0.019,0.014-0.036-0.02-0.035C29.409,4.256,29.402,4.249,29.402,4.227z M29.535,10.79c0.013-0.021,0.053-0.005,0.044,0.017
	c0.05-0.025,0.034-0.051-0.002-0.06C29.541,10.739,29.501,10.768,29.535,10.79z M29.779,42.999c0.02-0.003,0.041-0.015,0.041-0.015
	c0.025-0.02,0.016-0.066,0.002-0.067c-0.014,0-0.021,0.013-0.021,0.034c-0.019-0.01-0.022-0.016-0.034-0.021
	c0.045-0.004,0.084-0.037,0.053-0.066c-0.016-0.014-0.02-0.022-0.014-0.035c0.008-0.02-0.002-0.021-0.035-0.014
	c-0.071,0.147-0.078,0.152-0.117,0.158c-0.022,0.002-0.047,0.014-0.047,0.014c0.067-0.002,0.103-0.004,0.078,0.004
	C29.665,42.999,29.741,43.004,29.779,42.999z M29.145,30.4c0.047-0.01,0.041-0.043,0.025-0.047
	C29.15,30.35,29.119,30.371,29.145,30.4z M25.889,0.324c0.014-0.005,0.01-0.016,0.01-0.016C25.885,0.315,25.889,0.324,25.889,0.324z
	 M25.887,0.603c0-0.036-0.044-0.064-0.054-0.035c-0.022,0.055-0.097,0.076-0.104,0.03c-0.055,0.017-0.055,0.018-0.014,0.041
	c0.03,0.017,0.045,0.02,0.049,0.01c0.004-0.008,0.027-0.013,0.063-0.012C25.885,0.639,25.889,0.637,25.887,0.603z M1.285,13.417
	c0.01,0.02,0.018,0.02,0.061,0.001c0.044-0.019,0.04-0.039-0.012-0.044C1.288,13.369,1.27,13.386,1.285,13.417z M1.307,38.796
	c0.012,0.026,0.094,0.022,0.121,0c-0.007-0.013-0.049-0.017-0.088-0.019C1.331,38.795,1.317,38.805,1.307,38.796z M0.803,28.594
	c0-0.009-0.007-0.017-0.007-0.017C0.787,28.596,0.791,28.602,0.803,28.594z M1.087,25.167c0.011-0.045,0.001-0.06-0.019-0.067
	C1.065,25.128,1.073,25.143,1.087,25.167z M0.833,25.255c-0.05,0-0.063,0.022-0.01,0.041C0.86,25.25,0.833,25.244,0.833,25.255z
	 M0.174,33.586c-0.028-0.023-0.06,0.006-0.048,0.045c0.081,0.02,0.14,0.014,0.15,0.01c0.045,0.006,0.063,0.004,0.08-0.004
	c-0.014,0-0.026,0-0.043,0c-0.103,0.002-0.139,0-0.142-0.012c0.018-0.016,0.044-0.029,0.073-0.05
	C0.199,33.604,0.193,33.604,0.174,33.586z M0.185,16.75c-0.001,0.021,0.018,0.021,0.075-0.025
	C0.225,16.711,0.186,16.724,0.185,16.75z M0.705,40.88C0.734,40.9,0.748,40.902,0.809,40.9c0.041,0,0.086-0.004,0.099-0.004
	c0.014-0.002,0.04,0,0.06,0.002c0.04,0.008,0.036,0.008,0.076-0.008c0.029-0.012,0.029-0.012,0.008-0.063
	c-0.015-0.031-0.056-0.037-0.197-0.027c-0.078,0.006-0.136,0.012-0.18,0.016C0.687,40.837,0.696,40.859,0.705,40.88z M13.123,47.412
	c-0.029-0.023-0.043-0.021-0.032-0.008C13.091,47.404,13.108,47.412,13.123,47.412z M15.643,0.369
	c-0.031,0.019-0.04,0.037-0.018,0.034c0.039,0.036,0.1,0.013,0.112-0.021C15.753,0.344,15.698,0.336,15.643,0.369z M13.275,46.878
	c0.006-0.034-0.014-0.032-0.056,0.002C13.258,46.904,13.271,46.896,13.275,46.878z M10.516,47.416
	c-0.008-0.053-0.04-0.064-0.04-0.046C10.477,47.393,10.508,47.428,10.516,47.416z M9.842,2.328C9.834,2.331,9.86,2.354,9.875,2.354
	C9.883,2.323,9.852,2.321,9.842,2.328z M9.036,46.245C9.011,46.227,9,46.234,9.011,46.264C9.011,46.264,9.028,46.254,9.036,46.245z
	 M22.249,1.214c-0.015,0.02-0.001,0.028,0.011,0.031C22.271,1.225,22.262,1.216,22.249,1.214z M20.248,0.525
	c0.027,0.022,0.036,0.022,0.057,0.008C20.29,0.516,20.271,0.5,20.259,0.482C20.225,0.481,20.215,0.5,20.248,0.525z M18.003,46.607
	c-0.011,0.035-0.007,0.037,0.037,0.021c0.03-0.011,0.036-0.035,0.013-0.057C18.031,46.557,18.014,46.57,18.003,46.607z"/>
</svg>
