<svg xmlns="http://www.w3.org/2000/svg" width="247.099" height="240.174" xml:space="preserve"><g opacity=".2"><path opacity=".4" fill="#FFF" d="M230.223.627C157.068.453 107.646 21.973 34.53 21.804 39.931 98.818 13.529 153.158.717 220.918c87.733 5.623 154.219 26.451 243.021 16.689C256.139 175.447 230.223.627 230.223.627z"/><path opacity=".4" fill="#E3DDDB" d="M230.373.639C157.155.471 106.983 21.315 33.805 21.152 39.204 98.317 13.492 153.491.663 221.385c87.651 5.616 153.524 25.238 242.147 15.479C255.226 174.581 230.373.639 230.373.639z"/><path opacity=".4" fill="#CEC4C1" d="M230.523.651C157.241.49 106.321 20.658 33.079 20.501 38.476 97.816 13.453 153.826.607 221.854c87.569 5.609 152.829 24.024 241.273 14.267C254.313 173.714 230.523.651 230.523.651z"/><path opacity=".4" fill="#BBAEAA" d="M230.674.664C157.328.508 105.659 20 32.354 19.85 37.749 97.316 13.416 154.16.553 222.322c87.488 5.603 152.134 22.812 240.399 13.057C253.399 172.848 230.674.664 230.674.664z"/><path opacity=".4" fill="#A89995" d="M230.824.675C157.414.526 104.997 19.343 31.627 19.198 37.021 96.814 13.377 154.493.497 222.79c87.406 5.595 151.44 21.598 239.524 11.845 12.465-62.653-9.197-233.96-9.197-233.96z"/><path opacity=".4" fill="#988681" d="M230.975.688C157.501.544 104.335 18.686 30.902 18.547 36.293 96.314 13.339 154.828.442 223.258c87.324 5.589 150.746 20.385 238.651 10.634C251.573 171.116 230.975.688 230.975.688z"/><path opacity=".4" fill="#87746F" d="M231.125.7C157.587.563 103.673 18.028 30.176 17.896 35.565 95.814 13.301 155.162.386 223.727c87.242 5.582 150.051 19.172 237.776 9.423C250.66 170.25 231.125.7 231.125.7z"/><path opacity=".4" fill="#78635D" d="M231.275.712C157.674.581 103.011 17.371 29.451 17.245c5.387 78.068-16.188 138.251-29.12 206.95 87.161 5.574 149.356 17.959 236.902 8.212C249.747 169.384 231.275.712 231.275.712z"/><path opacity=".4" fill="#6A544E" d="M231.426.724C157.76.599 102.349 16.713 28.725 16.593 34.11 94.812 13.225 155.829.276 224.662c87.079 5.567 148.662 16.746 236.028 7.001C248.834 168.518 231.426.724 231.426.724z"/><path opacity=".4" fill="#5D4640" d="M231.576.736C157.847.617 101.687 16.055 28 15.942 33.383 94.312 13.187 156.164.221 225.13c86.997 5.562 147.967 15.533 235.154 5.79C247.921 167.652 231.576.736 231.576.736z"/><path opacity=".4" fill="#513934" d="M231.727.748C157.933.636 101.026 15.398 27.274 15.29 32.655 93.81 13.15 156.497.166 225.599c86.915 5.554 147.273 14.319 234.28 4.578C247.008 166.786 231.727.748 231.727.748z"/><path opacity=".4" fill="#452D28" d="M231.877.76C158.02.654 100.363 14.74 26.548 14.639 31.927 93.31 13.111 156.832.11 226.067c86.833 5.547 146.578 13.106 233.405 3.368C246.095 165.919 231.877.76 231.877.76z"/><path opacity=".4" fill="#39211C" d="M232.027.772C158.105.672 99.701 14.083 25.822 13.987 31.199 92.808 13.073 157.165.055 226.535c86.751 5.54 145.883 11.893 232.532 2.156 12.595-63.638-.56-227.919-.56-227.919z"/><path opacity=".4" fill="#2E130D" d="M232.178.785C158.192.69 99.039 13.425 25.097 13.336 30.472 92.309 13.035 157.5 0 227.003c86.669 5.533 145.188 10.68 231.657.945 12.612-63.761.521-227.163.521-227.163z"/></g><linearGradient id="a" gradientUnits="userSpaceOnUse" x1="591.981" y1="252.641" x2="752.638" y2="13.355" gradientTransform="matrix(-1.0142 -.0816 -.0802 .9968 810.46 33.417)"><stop offset=".004" style="stop-color:#faeb8a"/><stop offset=".217" style="stop-color:#faec7c"/><stop offset=".563" style="stop-color:#f9e774"/><stop offset=".868" style="stop-color:#fccb55"/></linearGradient><path fill="url(#a)" d="M237.541 1.216C161.63.967 85.722.718 9.854.474 15.533 79.47 13.229 154.468 0 223.955c88.936 5.719 138.451 7.625 227.15-1.93 12.806-63.746 13.977-139.772 10.391-220.809z"/><path fill-rule="evenodd" clip-rule="evenodd" fill="#FBF098" d="m9.892 0 227.693 1.219a1786.128 1786.128 0 0 1 1.331 35.029L12.014 34.103C11.497 22.807 10.773 11.45 9.892 0z"/></svg>