<svg xmlns="http://www.w3.org/2000/svg" xmlns:xlink="http://www.w3.org/1999/xlink" width="175.3" height="176" xml:space="preserve"><radialGradient id="a" cx="-135.073" cy="5080.414" r=".852" gradientTransform="matrix(200.9242 172.3209 104.2203 -121.5197 -502304.5 640675.063)" gradientUnits="userSpaceOnUse"><stop offset="0" style="stop-color:#feec86"/><stop offset="1" style="stop-color:#fff1a4"/></radialGradient><path fill="url(#a)" d="M7.2 8h168.1v168.1H7.2z"/><defs><path id="b" d="M7.2 8h168.1v25.7H7.2z"/></defs><clipPath id="c"><use xlink:href="#b" overflow="visible"/></clipPath><path clip-path="url(#c)" fill="#F2E18A" d="M7.2 8h168.1v25.7H7.2z"/><path clip-path="url(#c)" fill="#F2E18A" d="M156.5 34.6H6.2V7H152V2.6c1.1 2 2.2 4 3.2 6 4.1 8 7.4 15.9 10 23.7.6 2 1.2 3.9 1.8 5.8v-3.5h-10.5z"/><path clip-path="url(#c)" fill="#F2E189" d="M153.8 34.6H6.2V7h143.2V2.8c1.1 1.9 2.1 3.9 3.1 5.8 4 7.8 7.3 15.5 9.8 23.2.6 1.9 1.2 3.8 1.7 5.7v-2.9h-10.2z"/><path clip-path="url(#c)" fill="#F2E188" d="M151 34.6H6.2V7h140.6V3c1.1 1.9 2.1 3.8 3.1 5.7 3.9 7.6 7.1 15.2 9.5 22.6.6 1.9 1.2 3.7 1.7 5.6v-2.2H151z"/><path clip-path="url(#c)" fill="#F2E187" d="M148.3 34.6H6.2V7h137.9V3.2c1 1.9 2 3.7 3 5.6 3.8 7.4 6.9 14.8 9.3 22.1 1.2 3.6 2.2 7.2 3 10.8v-7h-11.1z"/><path clip-path="url(#c)" fill="#F2E086" d="M145.5 34.6H6.2V7h135.3V3.4c1 1.8 2 3.6 2.9 5.4 3.7 7.2 6.7 14.4 9.1 21.5 1.2 3.5 2.2 7.1 3 10.5v-6.2h-11z"/><path clip-path="url(#c)" fill="#F2E085" d="M142.8 34.6H6.2V7h132.6V3.6c1 1.8 1.9 3.5 2.8 5.3 3.6 7 6.6 14.1 8.8 21 1.1 3.5 2.1 6.9 2.9 10.3v-5.5h-10.5z"/><path clip-path="url(#c)" fill="#F2E084" d="M140 34.6H6.2V7h130V3.8c1 1.7 1.9 3.4 2.8 5.1 3.5 6.8 6.4 13.7 8.6 20.4 1.1 3.4 2 6.7 2.8 10v-4.7H140z"/><path clip-path="url(#c)" fill="#F2E083" d="M137.3 34.6H6.2V7h127.3V4c.9 1.7 1.8 3.3 2.7 5 3.4 6.7 6.2 13.3 8.4 19.9 1.1 3.3 2 6.5 2.7 9.7v-3.9h-10z"/><path clip-path="url(#c)" fill="#F2E082" d="M134.5 34.6H6.2V7h124.7V4.2c.9 1.6 1.8 3.2 2.6 4.9 3.3 6.5 6 12.9 8.1 19.3 1 3.2 1.9 6.3 2.7 9.5v-3.2h-9.8z"/><path clip-path="url(#c)" fill="#F1E081" d="M131.8 34.6H6.2V7h122.1V4.4c.9 1.6 1.7 3.1 2.5 4.7 3.2 6.3 5.9 12.6 7.9 18.8 1 3.1 1.9 6.2 2.6 9.2v-2.4h-9.5z"/><path clip-path="url(#c)" fill="#F2E080" d="M129 34.6H6.2V7H123V0c1.8 3 3.6 6.1 5.1 9.2 3.1 6.1 5.7 12.2 7.7 18.2 1 3 1.8 6 2.5 8.9v-1.7H129z"/><path clip-path="url(#c)" fill="#F2DF7F" d="M126.3 34.6H6.2V7h114.2V.3c1.8 3 3.4 5.9 5 8.9 3 5.9 5.5 11.8 7.4 17.7 1 2.9 1.8 5.8 2.4 8.6v-.9h-8.9z"/><path clip-path="url(#c)" fill="#F1DF7E" d="M123.5 34.6H6.2V7h111.6V.7c1.7 2.9 3.3 5.7 4.8 8.6 2.9 5.7 5.4 11.5 7.2 17.1.9 2.8 1.7 5.6 2.4 8.4v-.1h-8.7z"/><path clip-path="url(#c)" fill="#F2DF7D" d="M120.8 34.6H6.2V7h109.1V1c1.7 2.8 3.2 5.5 4.7 8.3 2.8 5.6 5.2 11.1 7 16.6.9 2.7 1.7 5.4 2.3 8.1.3 1.3.6 2.7.8 4v-3.4h-9.3z"/><path clip-path="url(#c)" fill="#F2DF7C" d="M118 34.6H6.2V7h106.5V1.4c1.6 2.7 3.1 5.4 4.5 8 2.8 5.4 5 10.7 6.7 16 1.7 5.3 2.9 10.5 3.6 15.5v-6.3H118z"/><path clip-path="url(#c)" fill="#F2DF7B" d="M115.3 34.6H6.2V7h103.9V1.7c1.6 2.6 3 5.2 4.3 7.8 2.7 5.2 4.8 10.4 6.5 15.4 1.7 5.1 2.8 10.1 3.5 14.9v-5.2h-9.1z"/><path clip-path="url(#c)" fill="#F2DF7B" d="M112.5 34.6H6.2V7h101.4V2c1.5 2.5 2.9 5 4.2 7.5 2.6 5 4.7 10 6.3 14.9 1.6 4.9 2.7 9.7 3.4 14.4v-4.2h-9z"/><path clip-path="url(#c)" fill="#F2DF7A" d="M109.8 34.6H6.2V7H105V2.4c1.5 2.4 2.8 4.8 4 7.2 2.5 4.8 4.5 9.6 6 14.3 1.6 4.7 2.6 9.4 3.2 13.9v-3.2h-8.4z"/><path clip-path="url(#c)" fill="#F2DE7A" d="M107 34.6H6.2V7h96.3V2.7c1.4 2.3 2.7 4.6 3.9 6.9 2.4 4.6 4.3 9.2 5.8 13.8 1.5 4.5 2.5 9 3.1 13.3v-2.2H107z"/><path clip-path="url(#c)" fill="#F2DE78" d="M104.3 34.6H6.2V7h93.7V3c1.3 2.2 2.6 4.4 3.7 6.7 2.3 4.4 4.1 8.9 5.6 13.2 1.4 4.4 2.4 8.7 3 12.8v-1.1h-7.9z"/><path clip-path="url(#c)" fill="#F2DE77" d="M101.6 34.6H6.2V7h91.1V3.4c1.3 2.1 2.5 4.3 3.6 6.4 2.2 4.3 4 8.5 5.4 12.7s2.3 8.3 2.9 12.3v-.1h-7.6z"/><path clip-path="url(#c)" fill="#F2DE76" d="M98.8 34.6H6.2V7h88.6V3.7c1.2 2 2.4 4.1 3.4 6.1 2.1 4.1 3.8 8.1 5.1 12.1 1.3 4 2.2 7.9 2.7 11.7.3 1.9.4 3.8.4 5.6v-4.7h-7.6z"/><path clip-path="url(#c)" fill="#F2DF74" d="M96.1 34.6H6.2V7h86V4.1C93.4 6 94.5 8 95.5 9.9c2 3.9 3.6 7.8 4.9 11.6 1.3 3.8 2.1 7.6 2.6 11.2.2 1.8.4 3.6.4 5.4v-3.4h-7.3z"/><path clip-path="url(#c)" fill="#F2DE73" d="M93.3 34.6H6.2V7h83.4V4.4c1.1 1.8 2.2 3.7 3.1 5.6 1.9 3.7 3.5 7.4 4.7 11 1.2 3.6 2 7.2 2.5 10.7.2 1.7.4 3.4.4 5.1v-2.1h-7z"/><path clip-path="url(#c)" fill="#F2DE72" d="M90.6 34.6H6.2V7h80.9V4.7c1.1 1.8 2 3.5 2.9 5.3 1.8 3.5 3.3 7 4.4 10.5 2.3 6.9 3.2 13.6 2.6 19.6v-5.5h-6.4z"/><path clip-path="url(#c)" fill="#F2DD71" d="M87.8 34.6H12.7V41c-3.4-2.9-6.6-6-9.4-9.2h2.9V7h75.1V.1c4.6 6.6 8.1 13.3 10.2 19.9 2.2 6.5 3 12.9 2.4 18.6v-4h-6.1z"/><path clip-path="url(#c)" fill="#F2DD70" d="M85.1 34.6h-71v4.8c-3.2-2.8-6.2-5.7-8.9-8.6h1V7h72.7V.7c4.4 6.2 7.6 12.6 9.7 18.8s2.8 12.2 2.3 17.6v-2.4h-5.8z"/><path clip-path="url(#c)" fill="#F2DE6F" d="M82.3 34.6H15.6v3.1C9.5 32.5 4.3 26.8.2 21h5.9V7h70.3V1.3c4.1 5.9 7.2 11.9 9.1 17.7s2.7 11.4 2.2 16.5v-.9h-5.4z"/><path clip-path="url(#c)" fill="#F2DE6E" d="M79.6 34.6H17v1.5C11.3 31.2 6.5 25.9 2.6 20.4h3.6V7h67.9V2c3.8 5.5 6.7 11.1 8.5 16.6 1.8 5.5 2.5 10.7 2 15.5-.2 2.4-.8 4.6-1.6 6.7v-6.1h-3.4z"/><path clip-path="url(#c)" fill="#F2DE6D" d="M76.8 34.6H26.6v6c-2.8-1.8-5.5-3.9-8.2-6.2-5.3-4.5-9.8-9.5-13.4-14.7h1.2V7h65.5V2.6c3.6 5.1 6.3 10.4 8 15.5 1.7 5.1 2.3 10 1.9 14.5-.2 2.2-.7 4.3-1.5 6.3v-4.2h-3.3z"/><path clip-path="url(#c)" fill="#F2DD6C" d="M74.1 34.6H27.4v3.9c-2.6-1.7-5.1-3.6-7.6-5.7C10 24.3 3.1 14.2 0 4.8L6.2 7h63.2V3.2c3.3 4.8 5.8 9.6 7.4 14.4S79 26.9 78.6 31c-.2 2.1-.7 4-1.4 5.8v-2.2h-3.1z"/><path clip-path="url(#c)" fill="#F1DD6B" d="M71.3 34.6H35.4v5.9c-4.8-2.4-9.6-5.5-14.2-9.4C12.2 23.3 5.8 14 3 5.3L6.2 7H67V3.8c3.1 4.4 5.4 8.9 6.8 13.3 2.9 8.7 2.3 16.9-2.4 22.4v-4.9z"/><path clip-path="url(#c)" fill="#F2DC6A" d="M68.6 34.6h-33v3.5c-4.4-2.2-8.8-5.1-13-8.7C14.3 22.3 8.5 13.7 5.9 5.7L6.2 7h58.4V4.4c2.8 4 4.9 8.2 6.2 12.2 2.6 8 2.1 15.5-2.2 20.5v-2.5z"/><path clip-path="url(#c)" fill="#F2DD69" d="M65.8 34.6H47.7v4.9c-7.6-1.3-16-5.3-23.6-11.8S11.2 13.5 8.9 6.2V7h53.3V5c2.6 3.7 4.5 7.4 5.7 11.1 2.4 7.2 1.9 14-2.1 18.5z"/><path clip-path="url(#c)" fill="#F2DD68" d="M63.1 32.4c-7.1 8.3-23.9 5.5-37.6-6.3C18.7 20.3 14 13.3 11.8 6.7V7h48V5.6c2.3 3.3 4 6.7 5.1 9.9 2.2 6.6 1.7 12.7-1.8 16.9z"/><path clip-path="url(#c)" fill="#F2DD67" d="M60.3 30C54 37.3 39.1 34.9 27 24.4 20.9 19.2 16.7 13 14.8 7.2c-.5-1.5-.8-2.9-1-4.3v4h43.7v-.7c2.1 2.9 3.6 5.9 4.5 8.8 1.9 5.9 1.5 11.3-1.7 15z"/><path clip-path="url(#c)" fill="#F2DD66" d="M57.6 27.6C52.1 34 39 31.8 28.4 22.7c-5.3-4.6-9-10-10.7-15.1-.8-2.5-1.2-5-1-7.2V7H55v-.1c1.8 2.6 3.1 5.2 4 7.7 1.7 5.1 1.3 9.8-1.4 13z"/><path clip-path="url(#c)" fill="#F2DD65" d="M54.8 25.3c-4.7 5.5-15.9 3.6-25-4.2-4.6-3.9-7.7-8.6-9.2-12.9-.7-2.2-1-4.3-.8-6.2v5h27.1V1.2C56 9 59.6 19.8 54.8 25.3z"/><path clip-path="url(#c)" fill="#F1DC64" d="M52.1 22.9c-3.9 4.6-13.3 3-20.9-3.5-3.8-3.3-6.4-7.1-7.6-10.8-.6-1.8-.8-3.6-.7-5.2V7h22.6V2.8c7.6 6.6 10.5 15.5 6.6 20.1z"/><path clip-path="url(#c)" fill="#F2DC62" d="M49.3 20.6c-3.1 3.7-10.6 2.4-16.7-2.8-6.1-5.2-8.4-12.4-5.3-16.1V7H44V4.5c6.1 5.2 8.5 12.4 5.3 16.1z"/><path clip-path="url(#c)" fill="#F2DC61" d="M46.6 18.2c-2.4 2.8-8 1.8-12.5-2.1-4.6-3.9-6.3-9.3-4-12.1v3h12.5v-.8c4.6 3.9 6.4 9.3 4 12z"/><ellipse transform="rotate(40.615 38.359 11.154)" clip-path="url(#c)" fill="#F2DC60" cx="38.4" cy="11.2" rx="7.2" ry="4.4"/><ellipse transform="rotate(40.615 38.357 11.153)" clip-path="url(#c)" fill="#F2DC5F" cx="38.4" cy="11.2" rx="3.6" ry="2.2"/></svg>