<svg xmlns="http://www.w3.org/2000/svg" width="100.583" height="8.502" xml:space="preserve"><path fill="#2f4858" d="M100.234 4.323c.291.642.586 2.011.055 2.506-1.646 1.443-2.703.394-4.253.068-12.58-2.683-39.244-.331-50.796.881C31.379 9.233 14.136 8.591.941 4.98.234 4.924-.452 2.591.386 1.588c1.686-.955 3.402.34 5.049.65 3.786.716 8.625.177 13.22-.076 9.482-.52 15.322-.999 24.613-1.654 2.053-.147 4.111-.273 6.063-.314 2.778-.061 5.091-.095 7.516-.16 3.974-.115 9.105.092 12.397.194 1.812.055 3.527.676 5.281.714 2.184.055 20.54.28 25.709 3.381zM51.158 1.696c-.673-.009.465-1.043-.208-1.052-.119.506-1.049 1.317-.679 1.554.079-.549.737-.076.887-.502z"/></svg>