<?xml version="1.0" encoding="utf-8"?>
<!-- Generator: Adobe Illustrator 13.0.0, SVG Export Plug-In . SVG Version: 6.00 Build 14948)  -->
<!DOCTYPE svg PUBLIC "-//W3C//DTD SVG 1.1//EN" "http://www.w3.org/Graphics/SVG/1.1/DTD/svg11.dtd">
<svg version="1.1" id="Layer_1" xmlns="http://www.w3.org/2000/svg" xmlns:xlink="http://www.w3.org/1999/xlink" x="0px" y="0px"
	 width="100.583px" height="8.502px" viewBox="0 0 100.583 8.502" enable-background="new 0 0 100.583 8.502" xml:space="preserve">

<path fill="#2f4858" d="M100.234,4.323c0.291,0.642,0.586,2.011,0.055,2.506c-1.646,1.443-2.703,0.394-4.253,0.068
	C83.456,4.214,56.792,6.566,45.24,7.778C31.379,9.233,14.136,8.591,0.941,4.98C0.234,4.924-0.452,2.591,0.386,1.588
	c1.686-0.955,3.402,0.34,5.049,0.65c3.786,0.716,8.625,0.177,13.22-0.076c9.482-0.52,15.322-0.999,24.613-1.654
	c2.053-0.147,4.111-0.273,6.063-0.314c2.778-0.061,5.091-0.095,7.516-0.16c3.974-0.115,9.105,0.092,12.397,0.194
	c1.812,0.055,3.527,0.676,5.281,0.714C76.709,0.997,95.065,1.222,100.234,4.323z M51.158,1.696
	c-0.673-0.009,0.465-1.043-0.208-1.052c-0.119,0.506-1.049,1.317-0.679,1.554C50.35,1.649,51.008,2.122,51.158,1.696z"/>
</svg>
