<?xml version="1.0" encoding="utf-8"?>
<!-- Generator: Adobe Illustrator 13.0.0, SVG Export Plug-In . SVG Version: 6.00 Build 14948)  -->
<!DOCTYPE svg PUBLIC "-//W3C//DTD SVG 1.1//EN" "http://www.w3.org/Graphics/SVG/1.1/DTD/svg11.dtd">
<svg version="1.1" id="Layer_1" xmlns="http://www.w3.org/2000/svg" xmlns:xlink="http://www.w3.org/1999/xlink" x="0px" y="0px"
	 width="96.988px" height="58.258px" viewBox="0 0 96.988 58.258" enable-background="new 0 0 96.988 58.258" xml:space="preserve">
<g opacity="0.5">
	<path fill="#E4E3DE" d="M89.95,0c0.647,3.802-0.499,6.03,0.144,9.869c0.255,1.328,2.804,4.488,3.088,5.815
		c0.253,1.149-0.823,3.303-0.605,4.452c0.429,2.152,1.936,3.658,2.401,5.741c0.431,1.867-1.004,4.809-0.719,6.678
		c0.467,2.834,2.228,5.023,2.73,7.967L7.185,56.17c-0.251-1.363-1.435-2.154-1.578-3.411c-0.396-3.588,0.43-7.394-0.359-11.021
		c-0.287-1.18-2.332-2.76-2.512-3.944c-0.431-3.267,0.789-7.144,0.106-10.445c-0.251-1.365-2.514-2.765-2.729-4.164
		c-0.395-2.224,0.396-5.312,0-7.537L89.95,0L89.95,0z"/>
</g>
<polygon opacity="0.5" fill="#B5B4B0" points="7.184,56.17 7.858,58.258 96.989,40.521 "/>
</svg>
