<svg xmlns="http://www.w3.org/2000/svg" width="96.988" height="58.258" xml:space="preserve"><path fill="#E4E3DE" d="M89.95 0c.647 3.802-.499 6.03.144 9.869.255 1.328 2.804 4.488 3.088 5.815.253 1.149-.823 3.303-.605 4.452.429 2.152 1.936 3.658 2.401 5.741.431 1.867-1.004 4.809-.719 6.678.467 2.834 2.228 5.023 2.73 7.967L7.185 56.17c-.251-1.363-1.435-2.154-1.578-3.411-.396-3.588.43-7.394-.359-11.021-.287-1.18-2.332-2.76-2.512-3.944-.431-3.267.789-7.144.106-10.445-.251-1.365-2.514-2.765-2.729-4.164-.395-2.224.396-5.312 0-7.537L89.95 0z" opacity=".5"/><path opacity=".5" fill="#B5B4B0" d="m7.184 56.17.674 2.088 89.131-17.737z"/></svg>