<?xml version="1.0" encoding="utf-8"?>
<!-- Generator: Adobe Illustrator 13.0.0, SVG Export Plug-In . SVG Version: 6.00 Build 14948)  -->
<!DOCTYPE svg PUBLIC "-//W3C//DTD SVG 1.1//EN" "http://www.w3.org/Graphics/SVG/1.1/DTD/svg11.dtd">
<svg version="1.1" id="Layer_1" xmlns="http://www.w3.org/2000/svg" xmlns:xlink="http://www.w3.org/1999/xlink" x="0px" y="0px"
	 width="92.4px" height="89.5px" viewBox="0 0 92.4 89.5" enable-background="new 0 0 92.4 89.5" xml:space="preserve">

<path fill="#003C40" d="M39.7,89.5c-1.6-0.1-2.8-0.9-3.6-2.1C27.9,75.4,17.2,66.5,4.8,59c-6.2-3.7-6-5.3-1.9-11c2.7-3.7,6.1-7,8.3-11.1
	c1.5-2.7,3.6-1.5,5.3-0.4c5.9,3.8,11.9,7.5,17.6,11.6c2.2,1.6,3.1,2.1,5.1-0.6C49.6,34.1,58.4,19.7,64.9,4c1.5-3.6,3.9-4.6,7.6-3.6
	c5.6,1.4,11,3.4,16.3,5.6c3.9,1.6,4.5,3.9,2.2,7.5c-3.8,5.9-8.2,11.4-12.6,16.9c-9.4,11.8-16,25.3-23.5,38.3
	c-3.4,5.9-7,11.8-11,17.4C42.9,87.6,41.8,89.1,39.7,89.5z"/>
</svg>
