<?xml version="1.0" encoding="utf-8"?>
<!-- Generator: Adobe Illustrator 13.0.0, SVG Export Plug-In . SVG Version: 6.00 Build 14948)  -->
<!DOCTYPE svg PUBLIC "-//W3C//DTD SVG 1.1//EN" "http://www.w3.org/Graphics/SVG/1.1/DTD/svg11.dtd">
<svg version="1.1" id="Layer_1" xmlns="http://www.w3.org/2000/svg" xmlns:xlink="http://www.w3.org/1999/xlink" x="0px" y="0px"
	 width="207.1px" height="209.7px" viewBox="0 0 207.1 209.7" enable-background="new 0 0 207.1 209.7" xml:space="preserve">

<path fill="#2f4858" d="M131.2,67.3c-9.7-16.5-28.5-19.6-45.9-17.9c-38.8,3.8-60.7,38.5-46.8,74.3c10.4,26.8,51.1,56.3,74.1,25.6
	c2-2.7-1.4-7.3-4.6-6c-21.4,9-39.6,4.8-52.8-14.8c-13.2-19.6-12-43.1,7.5-57.9c18.7-14.2,48.3-14,61.1,7.2c6.4,10.7,4.8,24.5-0.5,35
	c-8.3,4.4-13.7,5.6-16.2,3.7c1.2-9.9,0-21.1-1-27.6c-0.4-2.6-2.4-3.7-4.5-3.6c-0.5-1.7-1.7-3.1-3.8-3.5c-29.4-5.7-52.7,15.7-31.4,43
	c8.5,11,20.3,17.9,32.9,8.9c1.4-1,2.6-2.4,3.7-4c0.9,0.7,1.9,1.3,3,1.9c12.7,6.4,24.4-8.6,29.3-17.9
	C143.1,99.1,139.2,80.9,131.2,67.3z M78.6,120c-7.6-7.1-7.9-15.7-0.8-25.8c5.2-2.1,12.6-1,18.2-0.9c-0.3,4.7-0.8,9.8-1,14.7
	C93.5,119.6,89.4,130.6,78.6,120z"/>
<path fill="#2f4858" d="M206.4,42.6c-1.3-18.9-17.8-24-34.7-21.6c0-0.1,0-0.1,0-0.2c-1-6-10.1-3.4-9.1,2.5
	c2.4,14.5,3.1,28.2,2.1,42.2c-1.1,0.9-1.1,2.4-0.3,3.3c-0.5,5.7-1.3,11.4-2.4,17.2c-1.2,6.3-3.6,12.8-0.8,19.1
	c5,11.1,5.2,25.2,3.6,39.9c-2.8,1.8-3.2,6-1.1,8.4c-2.1,14.2-5.4,28.5-7.4,40.6c-32.7,1.1-65.3,2.1-98,3.2
	c-24.6,0.8-41.6-11.4-43-36.3c-1.1-20.7-0.6-41.6,0-62.4c0.5-17.3,1.9-34.6,3.5-51.9c2.2-23.6,4.6-33.4,29.3-30.9
	c34.4,3.5,71.4,11.1,105.9,8.4c5-0.4,6.3-7.4,1.2-8.9c-22-6.4-45.8-7-68.6-9.4c-18.9-2-44.3-9.5-62.9-4.4C12.9,4.7,9.5,14.4,8,24.4
	C4.3,48.9,3.4,74,2.5,98.7c-0.9,24-11.3,90.1,18.3,104.3c15.5,7.4,30.7,6.8,47.7,6.3c31-1,62.1-2,93.1-2.9c3.7-0.1,5.7-2.7,6.2-6.2
	c1.8-14,5.1-29.4,7.5-44.8c6.1,0,12.3,0,18.4,0c2.3,0,5.1-1.7,5.4-4.1C204.2,115.1,208.9,79.2,206.4,42.6z M196.4,42.6
	c0.5,6.1,0.6,12.2,0.5,18.3c-6.2-3.1-14.8-2.2-22.1,0.1c0.5-11.2-0.5-22.5-2.2-33.6C182.9,28.6,195.4,30.8,196.4,42.6z M174.2,69
	c0-0.3,0-0.6,0.1-0.9c4.1-0.5,8.3-0.5,12.4,0.1c3.4,0.5,6.6,1.6,9.9,1.9c-0.1,3.8-0.3,7.7-0.5,11.5c-0.4,9.4-1.4,18.9-2.5,28.3
	c-2.4-0.4-5-0.2-7.6,0c-3.1,0.2-6.2,0.6-9.3,1c0-0.1,0-0.1,0-0.2c-0.9-5.8-5-8.9-5.8-15.6C171,95.2,173.9,72.2,174.2,69z
	 M176.8,144.2c1-8.6,1.4-17.1,0.9-25.3c2.8,0.4,5.6,0.7,8.4,0.9c2.2,0.1,4.3,0.3,6.3,0.1c-0.4,3-0.8,6-1.2,9
	C189.4,142.2,185.5,144,176.8,144.2z"/>
</svg>
