<svg xmlns="http://www.w3.org/2000/svg" width="81.3" height="90.3" xml:space="preserve"><path fill="#003C40" d="M6.7 74.9c1.9 1.2 2.6-.2 3.4-1.1 6.8-8.1 13.4-16.3 19.1-25.2 1.4-2.2 1.1-3.4-.6-5.2C21.7 36 13 31.3 4.7 25.8c-5.6-3.7-5.9-4.3-2.2-9.7C4.8 12.5 6 8.3 10.3 6c2.3-1.2 3.8-1.2 5.5.4 7.9 7.4 17.4 12.4 25.9 19 2 1.6 3.2 1.1 4.1-.8 1.6-3.4 6.9-4.9 5.1-10.1-.2-.7 1.3-1.1 2.2-1.5 4.3-2 7.6-4.9 7.9-10.1.2-3.5 3.2-1.8 4.8-2.6 1.8-.9 2.6.1 2.4 2-.2 1.7 1.2 2.3 2.2 2.8 3.2 1.4 5.3 4.1 7.6 6.5 4.3 4.5 4.4 7.2.1 11.9-4.7 5-9.6 9.9-14.6 14.6-2.4 2.3-3.3 3.9-.5 6.9 5 5.4 9.5 11.2 14.1 16.9 1.5 1.8 2.2 3 .1 5.5-2.8 3.5-4.1 8.2-6.4 12.3-2.6 4.8-5.1 4.9-7.8.1-3.9-6.9-10.4-11.1-15.8-16.4-2.1-2.1-3.4-1.5-4.7.9-4.3 7.7-8.7 15.3-14 22.3-3.1 4.2-6.7 4.8-11 1.7-1.3-.9-2.6-1.9-3.7-3-2.9-3-5.8-5.3-9-.4-.5.8-1.4 1.4-2.4.4-.8-.8-.1-1.5.3-2.1C4.2 81.3 5.5 79.8 4 77c-.9-1.9 1.1-2.6 2.7-2.1z"/></svg>