<?xml version="1.0" encoding="utf-8"?>
<!-- Generator: Adobe Illustrator 13.0.0, SVG Export Plug-In . SVG Version: 6.00 Build 14948)  -->
<!DOCTYPE svg PUBLIC "-//W3C//DTD SVG 1.1//EN" "http://www.w3.org/Graphics/SVG/1.1/DTD/svg11.dtd">
<svg version="1.1" id="Layer_1" xmlns="http://www.w3.org/2000/svg" xmlns:xlink="http://www.w3.org/1999/xlink" x="0px" y="0px"
	 width="360.91px" height="337.17px" viewBox="0 0 360.91 337.17" enable-background="new 0 0 360.91 337.17" xml:space="preserve">

<g id="_x37_1_1_">
	<path fill="#010101" d="M208.552,152.496c7.08-2.55,11.009-11.482,8.257-18.488c-5.379-13.695-24.098-11.149-25.802,2.885
		C189.73,147.402,197.937,156.32,208.552,152.496z"/>
	<path fill="#010101" d="M114.632,130.266h16.7c2.335,0,4.229-1.895,4.229-4.229s-1.895-4.229-4.229-4.229h-16.7
		c-2.335,0-4.229,1.895-4.229,4.229S112.297,130.266,114.632,130.266z"/>
	<path fill="#010101" d="M103.789,264.539h53.198c2.335,0,4.229-1.895,4.229-4.229s-1.895-4.229-4.229-4.229h-53.198
		c-2.335,0-4.229,1.895-4.229,4.229S101.454,264.539,103.789,264.539z"/>
	<path fill="#010101" d="M96.283,290.389h34.204c2.335,0,4.229-1.895,4.229-4.229s-1.895-4.229-4.229-4.229H96.283
		c-2.335,0-4.229,1.895-4.229,4.229S93.948,290.389,96.283,290.389z"/>
	<path fill="#010101" d="M2.325,137.055c-0.342,60.204-1.98,121.607-2.323,181.812c-0.026,4.545,0.174,9.646,3.479,12.767
		c3.033,2.862,7.637,3.046,11.808,3.064c94.794,0.416,189.588,0.833,284.382,1.249c12.337,0.055,24.681,0.25,36.997,0.958
		c6.359,0.364,12.929,0.7,18.908-1.494c2.328-0.854,4.747-2.378,5.243-4.808c0.402-1.977-0.593-3.941-1.556-5.715
		c-1.423-2.62-2.846-5.24-4.27-7.86l2.384-179.261c0.018-1.314-0.604-2.451-1.535-3.239c-0.089-0.102-0.129-0.229-0.229-0.324
		c-51.633-48.538-101.43-83.115-156.34-131.101c-4.475-3.916-11.168-4.147-15.927-0.573
		C121.119,49.454,10.101,126.961,8.573,130.919C6.306,132.748,3.672,134.808,2.325,137.055z M55.679,131.202
		c0.085-3.8,2.85-6.906,6.567-7.374c10.691-1.329,21.378-2.43,31.896-3.357c-0.195,20.337,0.88,40.806,3.231,61
		c-14.587-8.71-29.311-17.51-42.647-25.592c0.503-0.765,0.819-1.662,0.735-2.643C55.007,147.875,55.381,139.857,55.679,131.202z
		 M102.613,115.491c0.066-3.282,2.624-5.986,5.945-6.284c63.452-5.7,120.602-9.665,177.445-0.457
		c2.809,0.452,5.003,2.792,5.334,5.683c2.938,25.249,5.205,46.377,5.598,47.795c-10.354,5.656-20.599,11.279-30.726,16.85
		c-5.909-7.249-11.534-14.827-16.638-22.682c-2.134-3.288-5.614-5.348-9.55-5.656c-3.907-0.314-7.739,1.2-10.38,4.141
		c-9.739,10.841-20.358,20.753-31.542,29.62c-8.519-11.973-16.629-24.248-24.14-36.796c-2.109-3.519-5.796-5.854-9.866-6.239
		c-4.045-0.396-7.87,1.118-10.552,4.119c-12.751,14.28-26.726,27.668-41.531,39.794c-1.221,1.001-1.673,2.536-1.423,3.988
		c-1.667-0.997-3.319-1.983-4.983-2.979c0.396-0.741,0.643-1.57,0.53-2.469C103.334,161.298,102.15,138.273,102.613,115.491z
		 M215.026,207.113c-4.083-5.164-8.071-10.414-11.98-15.737c11.67-9.224,22.739-19.544,32.89-30.843
		c0.867-0.964,2.112-1.47,3.431-1.355c1.289,0.099,2.424,0.766,3.112,1.823c4.989,7.683,10.481,15.082,16.22,22.207
		C244.399,191.075,229.788,199.08,215.026,207.113z M193.746,192.936c0.054,0.08,0.064,0.176,0.124,0.253
		c0.039,0.052,0.102,0.068,0.143,0.117c4.385,6.054,8.865,12.024,13.471,17.882c-8.094,4.388-16.151,8.782-24.333,13.144
		c-5.088,2.721-11.289,2.5-16.177-0.567c-16.445-10.336-33.717-20.797-50.946-31.131c0.473-0.158,0.934-0.376,1.341-0.711
		c15.147-12.401,29.438-26.092,42.481-40.697c1.195-1.338,2.688-1.404,3.442-1.338c1.423,0.138,2.665,0.925,3.409,2.169
		C175.067,166.029,184.16,179.675,193.746,192.936z M131.969,212.134c10.337,6.276,20.589,12.56,30.503,18.789
		c7.335,4.612,16.777,5.075,24.661,0.876c12.51-6.673,24.91-13.396,37.191-20.096c29.222,32.948,68.33,66.72,102.853,96.522
		c4.393,3.794,8.617,7.456,12.86,11.135L20.05,316.364C79.016,258.588,129.506,215.03,131.969,212.134z M346.575,313.833
		c-4.563-3.957-9.134-7.917-13.87-12.007c-33.823-29.2-72.022-62.222-100.737-94.303c42.265-23.128,77.58-42.839,116.868-63.66
		L346.575,313.833z M124.514,207.608c-40.015,35.785-77.977,71.078-107.786,100.184V142.386
		C51.577,164.312,87.726,185.391,124.514,207.608z M188.438,9.287c1.569-1.184,3.794-1.107,5.271,0.182
		c52.636,46.006,102.015,80.774,151.569,126.705c-13.639,7.226-27.134,14.497-40.451,21.746l-5.086-44.445
		c-0.76-6.647-5.856-12.022-12.385-13.074c-57.824-9.373-115.527-5.375-179.555,0.38c-6.452,0.583-11.601,5.162-13.141,11.15
		c-11.021,0.953-22.243,2.108-33.466,3.504c-7.916,0.997-13.792,7.55-13.971,15.563c-0.259,7.789-0.562,14.507-0.338,20.093
		c-9.696-5.914-19.303-11.828-28.592-17.697C79.985,87.402,125.811,56.506,188.438,9.287z"/>
</g>
</svg>
