<?xml version="1.0" encoding="utf-8"?>
<!-- Generator: Adobe Illustrator 13.0.0, SVG Export Plug-In . SVG Version: 6.00 Build 14948)  -->
<!DOCTYPE svg PUBLIC "-//W3C//DTD SVG 1.1//EN" "http://www.w3.org/Graphics/SVG/1.1/DTD/svg11.dtd">
<svg version="1.1" id="Layer_1" xmlns="http://www.w3.org/2000/svg" xmlns:xlink="http://www.w3.org/1999/xlink" x="0px" y="0px"
	 width="31.8px" height="26.2px" viewBox="0 0 31.8 26.2" enable-background="new 0 0 31.8 26.2" xml:space="preserve">
<g>
	<path fill="#91606C" d="M5.4-1.2c4.1,0,8.9,3.6,8.7,9.4C18.5,6.3,25,0.6,28.8,0.6c0.9,0,1.6,0.3,2.1,1.1c5,11.4-12.9,19-22,24.6
		C8.8,15.5-6.9,7.5,1.2,0.4C2.3-0.7,3.8-1.2,5.4-1.2 M5.4,2.8c-0.6,0-1,0.2-1.4,0.5L3.9,3.3L3.8,3.4c-1.4,1.2-1.7,1.9,2.7,8
		c1.8,2.5,3.8,5.4,5.1,8.6c9.1-5.2,16.7-9.9,16.1-15.1c-1.6,0.7-4.1,2.2-5.7,3.3c-2.1,1.4-4.3,2.8-6.3,3.6L10,14.2l0.1-6.2
		c0-1.9-0.8-3.1-1.4-3.8C7.8,3.3,6.5,2.8,5.4,2.8L5.4,2.8z"/>
</g>
</svg>
