<?xml version="1.0" encoding="utf-8"?>
<!-- Generator: Adobe Illustrator 13.0.0, SVG Export Plug-In . SVG Version: 6.00 Build 14948)  -->
<!DOCTYPE svg PUBLIC "-//W3C//DTD SVG 1.1//EN" "http://www.w3.org/Graphics/SVG/1.1/DTD/svg11.dtd">
<svg version="1.1" id="Layer_1" xmlns="http://www.w3.org/2000/svg" xmlns:xlink="http://www.w3.org/1999/xlink" x="0px" y="0px"
	 width="47.288px" height="65.727px" viewBox="0 0 47.288 65.727" enable-background="new 0 0 47.288 65.727" xml:space="preserve">

<g fill="#2f4858">
	<path d="M26.719,2.65c0.069,0.086,0.061,0.386,0.413,0.412c-0.361,3.109-3.882,2.027-7.627,2.062
		C14.249,5.175,9.379,5.819,4.664,4.093c-0.232,0.721-0.061,0.979,0,2.061C4.964,5.922,5.17,5.931,5.282,6.36
		c0.996-0.31,3.573-0.215,6.184,0c2.224,0.18,4.647-0.146,5.977,0.206c1.813,0.481,2.74,2.354,1.031,3.504
		C14.265,9.727,9.791,9.392,5.282,9.246C4.741,18.127,5.823,26.106,6.106,34.6c0.232,6.932-0.017,18.861,0.619,26.592
		c2.938,0.48,7.851,0.12,12.78-0.412c4.226-0.455,9.877-2.5,10.1,1.855c-6.965,2.301-16.224,1.202-24.117,3.092
		c-1.983-0.352-2.636-2.035-3.71-3.299c1.194-1.64,0.927-4.543,0.618-7.215c-0.73-6.277-2.473-15.399-2.062-19.788
		c-0.077-9.122-0.713-19.548,0-27.416c0.138-1.512,0.713-2.998,0.825-4.535c0.086-1.142-0.455-2.396,0.413-3.298
		c1.709-0.618,2.421,0.55,3.916,1.031C9.825,2.59,15.675,2.04,20.537,1.825C22.76,1.731,25.526,1.061,26.719,2.65z"/>

<path d="M46.554,38.07c-1.682,0.539-2.374,2.4-3.972,2.977c-1.79,1.479-3.267,3.745-5.382,5.141
	c-0.406,0.267-0.046,0.104-0.348,0.494c-0.793,1.033-2.622,2.071-3.478,3.324c-0.292,0.068-1.109,0.335-1.432,0.016
	c-0.37-2.379,0.485-4.871,0.153-6.802c-0.803,0.576-1.998,0.721-2.936,0.776c-2.686,0.163-4.907,0-7.074-0.857
	c-0.128-0.052-0.166-0.265-0.308-0.33c-0.119-0.055-0.354,0.044-0.451-0.006c-5.504-2.692-6.318-10.724-4.677-16.258
	c0.081-0.226,0.277-0.358,0.378-0.416c-0.329-1.091,1.09-2.266,1.094-3.212c0.359-0.464,0.951-0.214,1.468-0.388
	c0.556-0.189,1.044-0.767,1.685-0.292c0.008,1.87-0.222,4.565,0.893,6.487c1.582,2.721,3.244,4.295,5.778,5.403
	c1.236,0.541,2.154,0.814,3.385,0.848c0.595-0.825,0.028-2.037-0.008-3.503c-0.033-1.283,0.347-2.326-0.398-3.352
	c-0.041-0.28,0.359-0.318,0.053-0.56c0.411-0.245,0.599-0.495,0.925-0.627c4.208,3.02,9.56,5.787,14.147,8.907
	c0.281-0.002,0.469,0.207,0.776,0.147c0.89,0.762,0.291,1.341-0.128,1.758C46.91,37.76,46.211,37.949,46.554,38.07z M34.435,47.168
	c-0.493,0.1-0.741,0.474-1.13,0.796C33.684,48.035,34.01,47.437,34.435,47.168z M17.627,26.975c0.286,0.033-0.034-0.57,0.204-0.169
	c0.175-0.052-0.071-0.291-0.073-0.42c-0.131,0.05-0.261,0.101-0.391,0.151C17.535,26.662,17.417,26.783,17.627,26.975z"/>
</g>
</svg>
