<?xml version="1.0" encoding="utf-8"?>
<!-- Generator: Adobe Illustrator 13.0.0, SVG Export Plug-In . SVG Version: 6.00 Build 14948)  -->
<!DOCTYPE svg PUBLIC "-//W3C//DTD SVG 1.1//EN" "http://www.w3.org/Graphics/SVG/1.1/DTD/svg11.dtd">
<svg version="1.1" id="Layer_1" xmlns="http://www.w3.org/2000/svg" xmlns:xlink="http://www.w3.org/1999/xlink" x="0px" y="0px"
	 width="124px" height="122.9px" viewBox="0 0 124 122.9" enable-background="new 0 0 124 122.9" xml:space="preserve">

<path fill="#2F4858" d="M111.7,30.1c6.1,7.7,10.1,17.4,11.9,28c1.7,10-1,19.5-4,28.7c-8,24.8-32.5,38.1-56.3,35.8
	c-8.6-0.8-16.5-4.2-23.4-9.2c-7.5-5.3-14.9-7.4-23.7-3.5c-3.1,1.4-6.8,1.7-10.2,2.5c-2,0.5-4.4,1.2-5.5-1.2c-1.1-2.4,1-3.8,2.5-5.2
	C8,101.4,11.9,96,14.4,89.4c2.1-5.7,1.7-10.9-1.2-16.1c-4.2-7.8-7.8-15.8-8.1-24.8C4.8,38,8.8,29.2,15.6,21.5
	C25.8,10,37.5,0.3,53.5,0c18.9-0.3,36.3,5.2,49.7,19.7c1.4,1.5,2.9,3,4.3,4.6C108.8,25.9,109.9,27.7,111.7,30.1z M9.6,106.5
	c1.5-0.3,2.5-0.3,3.4-0.6c11.2-5.3,21.2-2.7,30.9,4.3c6.3,4.5,13.6,7.3,21.4,7.8c39.7,2.6,61.7-38.5,50.6-66.8
	c-0.2-0.6-0.8-1.4-0.6-1.8c1.8-4.3-1.1-7.2-3.1-10.3c-2.6-4.1-5.3-8-8.2-11.8C91.3,10.9,73.7,4.3,53.9,4.5
	c-14.1,0.2-24.6,8.8-33.6,18.9c-5.4,6.1-9.8,12.7-10.2,21.6c-0.4,9.6,3.1,17.8,7.4,25.9c3.5,6.5,4.1,12.9,1.6,19.9
	C17.1,96.5,13.9,101.5,9.6,106.5z"/>
<path fill="#2F4858" d="M81.4,69c-4.5,0.5-5.3,7.8-17.2-1.7c-5.7-5.1-10.8-16.1-2.1-21.3c0.9-0.5,1.3-1.7,0.8-2.6
	c-2.8-4.9-7.7-7.4-12.3-10.5c-2.1-1.4-5.9,2.2-7.4,3.4C34,43.8,38.6,55.1,44,63.1c7.3,10.8,17.9,22.1,30.4,26.8
	c7.9,3,19-1.5,19.2-10.8C93.7,77.2,86,68.5,81.4,69z"/>
</svg>
