<svg xmlns="http://www.w3.org/2000/svg" width="192.6" height="199.9" xml:space="preserve"><path fill="#2f4858" d="M170.8 13.1c-3-1.5-7 1.7-4.9 4.9 4 5.9 17.1 16.1 9.3 24.2-9 9.3-18.4 18.3-27.9 27.1-10.1 9.5-19.2 17.6-29.1 24-3-2.9-7.7-4.9-10.9-7-3.3-2.1-7.7-5.6-10.8-9.2 18.2-27 46.5-49.8 66.4-72.8 1.8-2-.4-5.2-2.9-3.8-23.3 13.1-41.4 33.2-58.3 53.6-4.6 5.5-9.1 11.1-13.2 17-1.3.5-2.3 1.6-2.7 2.9-.2.4-.1.9-.2 1.4-2.8 4.2-5.4 8.6-7.6 13.1-6.9-4.5-15.9-4.1-23.9-4.6-8.9-.6-18.3-.9-27 1.3-2.6.6-2.6 4.6 0 5.2 7.6 1.8 15.5 1.8 23.2 2.5 8.1.7 17 3.1 25 1.4-2.2 5.5-3.9 11.2-4.8 17.3-.4 3 1.2 6.6 4.8 6.3 38.4-2.4 58.3-20.2 85.6-45.8 9.5-8.9 27.6-21.3 31.3-34.5 2.9-10.1-14.5-21.1-21.4-24.5zM82.1 107c2-6.9 4.9-13.5 8.4-19.9 2.3 2.7 4.9 5.2 6.8 6.8 2.1 1.8 5.3 4.2 8.8 6-7.1 3.3-14.9 5.7-24 7.1z"/><path fill="#2f4858" d="M93.5 55.4c-6-4.4-14.3-2.3-21.3-1.7-8.1.6-16.3 1.5-23.9 4.4-1.9.7-2.6 4.1 0 4.5 7.9 1.1 15.9.6 23.9.3 7-.3 15.4 1.4 21.3-3.1 1.6-1.2 1.6-3.2 0-4.4z"/><path fill="#2f4858" d="M156.9 100.6c-.3-5.2-7.4-5-8 0-1.5 15-1.4 30.2-1.8 45.2-.2 10.2-.1 20.4-1.7 30.6-2.5 16.3-31 11-42.6 9.5-19.1-2.5-38.3-3.1-57.5-3.1-9.6 0-19.2.6-28.8 1.1-9.8.6-6.3-19.7-6.5-24.4-1.2-36.1-1.1-72.2-.1-108.4.6-23.4 29.8-15.9 47.7-16.9 17.6-.9 35.1-1 52.5-4 3.4-.6 2.2-5.3-.8-5.6-33.9-3.3-69.4.4-103.5 2-2.7.1-4.7 2.1-4.8 4.8-2.1 52.7-.9 105 1.7 157.7.1 2.2 1.8 4.3 4.2 4.2 25.7-1.1 51.1-1.4 76.8.5 13.9 1 44.9 11.2 57.6 2.8 9.5-6.2 13.5-14.1 14.2-25.8 1.4-23.1 2.6-47 1.4-70.2z"/><path fill="#2f4858" d="M62.5 116.5c-4.1-3.9-9.4-2-14.6-1.6-7.6.5-15.3-1-22.7-.1-2.8.3-4.1 3.8-1.5 5.4 6.3 3.9 14.4 4.6 21.7 4.7 5.7.1 14.6.9 17.5-5.1.6-1.1.5-2.4-.4-3.3z"/></svg>