<svg xmlns="http://www.w3.org/2000/svg" width="371.1" height="344.6" xml:space="preserve"><path d="M86.4 275.4c.6 5.7 1.1 11.3 1.9 17 .8 5.6 2.1 11 3 16.6.6 4-.8 6.5-3.8 7.1-3.9.8-7.1-.7-7.9-4.7-1.1-5.5-1.7-11.1-2.7-17.1-1.7 8.6-9.6 7.1-15 9.4-3.2 1.4-6.5-2.1-6.3-6 .3-6.1.9-12.1 1.5-18.1 1.1-10.4.7-20.6-.7-31-1.2-9.1-.5-18.5-.2-27.8.2-8.4 1-16.8 1.5-25.3.4-8.2.7-16.4 1.1-24.7 0-.8-.3-1.5-.7-3-2 1.2-3.6 2.2-4.9 2.9-1.4 18.9-2.5 37.5-4.3 56-1.8 18.3-.9 36.8-5.5 54.9-8 2.2-11.6-.9-9.9-9 2.1-9.8 2.8-19.7 2.7-29.7-.1-6 1.1-12.1 1.7-18.1.3-2.6.4-5.1.7-8.5-5.5-1.1-10.7-2.4-16-3-7.1-.8-13.3-3.8-19.4-7-4.2-2.2-4.1-4.6-.8-8.1 1.9-2 3.9-4.2 5-6.6 9.9-20.7 25.9-36 43.2-50.2 2.1-1.8 3.3-3.1 3.4-6.3.1-5.8.9-11.7 2-17.4 2.4-13.2 4.8-26.4 7.9-39.4 1.4-6 4.2-11.8 7.2-17.2 5.2-9.8 9.9-20 17.9-27.8 8.3-8.2 17.6-15.6 29.1-18.8 6.1-1.7 12.8-1.6 19.2-1.9 3.4-.2 6.9.4 10.3 1 3.3.7 6.5 2 10.3 3.2.6-10.1 7.7-13.9 16.2-16.4 3.6-1.1 6.3-.1 8.5 2.8 3.2 4.3 5.7 8.7 3.7 14.4-.3 1-.3 2.1-.6 3.9 6.3-.2 12.4-.8 18-2.5 11.2-3.5 20.3.1 29 6.6 3.1 2.3 6.5 4.2 9.6 6.5 2.5 1.8 4.8 3.7 7.1 5.6 1.5 1.3 2.6 3 4.1 4.2 3.8 2.9 7.3 5.8 8.8 10.7.6 2 2.2 3.7 3.3 5.5 6.8 10.8 9.7 22.9 12.3 35.1.2 1 .1 2.2.2 3.2.4 3.8 2.3 6 6.2 7.2 17.8 5.1 33.2 14.7 47.1 26.6 2.6 2.2 4.8 5 7.3 7.4 3.8 3.5 7.5 7.1 11.5 10.3 6.1 4.8 12.5 9.3 18.5 14.1 3.6 2.8 2.7 6.3-1.4 8.4-3.6 1.8-6.9 4.3-10.5 6.3-5.6 3.3-11.1 6.6-16.9 9.5-1.3.7-3.7.5-4.9-.2-4.6-2.9-9.1-1.2-14.2-.5 0 1.9-.1 3.6 0 5.3.7 19.7-.5 39.4-2.4 59-.8 8.2-2.1 16.3-3.2 24.5-.8 5.7-2.5 6.9-8.6 6 .5-7.4.9-14.9 1.4-22.4 1.2-18.8 3-37.6 3.2-56.4.1-13.4-2.3-26.7-3.2-40.1-.5-6.8-2.4-13.1-4.8-19.4-1.9 4.2-.9 8.6-.5 12.8 1.2 12.3 3.1 24.5 4.1 36.7.5 6.2-.4 12.5-.6 18.8-.4 13.6-.5 27.3-1.3 40.9-.6 11-1.9 22-3.2 32.9-.3 2.2-1.5 4.7-3.2 6.1-1.3 1.1-4.1 1.1-6 .6-1.1-.3-2.2-2.7-2.2-4.1 0-3.2.7-6.4 1-9.7.7-7.8 1.6-15.5 2-23.3.9-20.8 2.3-41.5 2.1-62.3-.2-15.8-2.4-31.5-4.2-47.2-.6-5.8-1.4-6.1-7.4-6.5 0 2.7-.2 5.5 0 8.2.9 13.6 1.9 27.2 2.8 40.8.1 2.1-.1 4.4-.6 6.5-1.1 5.2-1.1 10.1.7 15.3 1.3 3.7 1.1 8.1 1 12.2-.1 9.3-.7 18.6-.9 27.9-.2 9.5-.2 19-.4 28.5 0 1.9-.2 3.9-.7 5.8-.8 3-3.4 4.6-6.4 4.1-2.9-.5-4.9-2.1-4.8-5.2.2-5 .7-9.9.9-14.9.1-3.4 0-6.9 0-11.4-1.3 1.6-2.2 2.4-2.6 3.3-1.4 3.4-2.5 7-4.1 10.2-2.2 4.4-4.8 8.6-7.4 12.8-2.4 3.8-5 7.5-7.4 11.3-14 22.1-30.9 40.9-57.5 47.7-20.6 5.3-41.2 5.6-61.1-2.9-6.4-2.7-12.5-5.9-18.6-9-7.4-3.9-12-10.3-15.4-17.8-5.1-11.2-9.8-22.6-13.2-34.5-.2-.5-.7-1-1.1-1.5.1.1-.3.2-.6.3zm-1.3-120.1c0 4.7.1 8.2 0 11.7-.1 1.7-.7 3.4-.6 5.1.5 9.3.8 18.6 1.7 27.8 1.3 12.9 2.7 25.8 4.7 38.6 1.6 10.2 3.1 20.6 6.3 30.4 4 12.7 9.4 25.1 14.6 37.4 2.6 6.2 6.4 11.9 12.4 15.6 11.4 7.1 23.9 11.7 37.1 13 30.6 3.1 55.2-8.4 72.9-33.4 9.8-13.9 20.8-27.2 26.9-43.4.2-.6.7-1.1 1-1.7 5.4-9.3 9.4-19.1 10.3-29.8 1.3-15.3 2.5-30.6 2.8-46 .2-10.6-1.2-21.2-2-31.7-.4-4.9-1.1-9.8-1.7-14.9-7.7-1.1-14.9-2.3-22.2-3.1-4.5-.5-9.1-1.1-13.6-.7-12.5.9-25 2-37.5 3.6-18 2.3-36 5-54 7.7-9.4 1.4-19 1.4-28.1 4.8-3.4 1.3-7.1 1.8-10.7 2.8-6.9 2.2-13.9 4.4-20.3 6.2zm183.7-54.8c.7-8.2-2.1-14.7-3.9-21.3-2.9-10.9-9.2-20.1-15.5-29-7.1-10-18.1-15.8-28.3-22.4-2.3-1.5-5.8-2-8.6-1.6-8.3 1.1-16.5 3.1-24.8 4.4-3.6.5-7.5.7-11 0-7.4-1.6-14.9-3.3-21.8-6.2-7.5-3.2-15.2-3.7-22.8-3.1-16 1.4-29.1 9.2-38.2 22-12.5 17.5-21.6 36.8-24 58.6-.5 4.3-1.4 8.5-1.9 12.7-.5 4.3-1.5 8.7-.7 13.4 11.4-6.3 22-12.2 32.6-17.9 3.2-1.7 6.6-3.6 10.1-4.2 8.7-1.5 17.5-2.9 26.3-3.4 13.2-.7 26.4-.2 39.6-1 17.7-1 35.4-3.1 53.1-4 9.2-.5 18.6.4 27.8 1 3.9.4 7.6 1.3 12 2zM33.6 170.8c.2.3.4.6.6.8.9-.4 1.8-.7 2.7-1.3 7.5-4.7 14.9-9.5 22.4-14.3 1.3-.8 2.6-1.6 4-2.1 13.7-5.2 27.4-10.6 41.7-14.2 5.7-1.4 11.2-3.6 16.9-4.6 9.4-1.6 18.9-2.6 28.3-3.7 10.5-1.3 21-2.4 31.5-3.8 9.2-1.2 18.4-2.6 27.6-4.1 20.1-3.4 40.1-2.3 60 1.6 6.1 1.2 12.4 2 18.5 3.4 11.7 2.7 23.4 5.7 36.5 8.9-1.6-1.8-2.2-2.6-3-3.2-5.3-3.8-10.6-7.5-15.8-11.3-9.2-6.8-19.5-11.1-30.8-12.8-9-1.4-18-3-27-3.5-10.1-.6-20.4-.4-30.5.2-15.5 1-31 2.8-46.5 4.1-4.3.3-8.7-.1-13-.1-6 .1-12.1.2-18.1.4-4.5.2-9 .4-13.5 1-3.4.4-6.8 1.1-10.2 1.9-3.1.8-6.4 1.5-9.1 3.2-14.2 9-30 15.2-42.9 26.6-7.9 7-16.5 13.2-24 20.7-2.2 2.1-4.2 4.2-6.3 6.2zm303.5 6.4c2-1 5.6-2.6 8.9-4.6 3.4-2 6.6-4.5 10-6.8-8.2-9.2-32.2-21-40.7-20.7 1.4 10.3 2.8 20.7 4.2 31 5.5.4 10.9.7 17.6 1.1zm-295.9 3.6c-6.3 2.6-22.2 15.8-27 22.3 7.2.9 14 1.8 20.9 2.5 3.1.3 4.7-1.5 4.9-4.7.3-6.5.8-12.9 1.2-20.1zM164.4 17.4c3.9 1.6 6.5 5.6 11.6 4.2 2-5 4.4-10 .1-15.2-8.1 1.6-11 4.3-11.7 11zM74.6 160.8c-4.9 1.5-4.9 4.6-5.1 7.6-.4 6.5-.7 13-.9 19.4-.1 5.1 0 10.2 0 15.2.4 0 .8.1 1.1.1 1.6-13.8 3.2-27.6 4.9-42.3zm3.5 67.7c-1.5 8-1.3 11.6 1.3 16.3.9-5.5-.6-10.9-1.3-16.3z"/><path d="M180.3 323.6c-9.2.3-17.7-2-25.2-7.2-4.8-3.3-9.6-7.2-13.2-11.8-2.8-3.6-4-8.5-5.4-13-.9-3.1-1.1-6.4-1.5-9.6-.5-4.2 1.4-5.9 5.7-5.3 2.3.3 4.7.8 7 1.5 5.4 1.7 10.6 1.4 16-.1 13.1-3.8 25.7-8.8 38-14.7 5.3-2.5 10.7-2 15 1.6 6.3 5.4 7.9 11.5 4.9 19.1-2.1 5.2-4 10.5-6.7 15.4-7 13.1-18 21.2-32.7 24-.6 0-1.3 0-1.9.1zm-33.4-35.8c1.6 4.4 1.9 9.6 4.7 12.1 4.8 4.3 8.8 9.5 15.1 12.6 8.7 4.3 16.2 3.4 23.9-1.3 12.2-7.3 18.2-18.7 21-32.1.4-1.8.1-3.9-.6-5.6-1.2-3.3-2.8-3.8-6.1-2.3-11.3 4.9-22.3 10.2-34.4 13.3-6.8 1.8-13.3 3.4-20.4 2.8-.7.1-1.5.3-3.2.5zM162.5 255.7c1.4.7 3.2 1.3 4.6 2.3 1.1.8 2.6 2.1 2.5 3.1 0 1.1-1.3 2.7-2.5 3.3-4.8 2.5-15.2-1.7-16.3-6.9-.4-1.8.5-4.4 1.8-5.8 8.3-9 11.5-19.6 10.9-31.6-.3-6.9-.3-13.8-.5-20.7-.1-2.7.4-5 3.6-5 2.7 0 4.6 1.4 4.8 4.2.7 8.6 1.8 17.2 1.8 25.8.1 10.8-2.8 20.9-10.4 29.2-.2.3-.1.9-.3 2.1zM242.5 167.5c-.9-.6-2.5-1.4-3.9-2.6-2-1.6-3.6-3.8-5.7-5.2-5-3.3-9.2-2.6-13.1 2-1.9 2.3-3.9 4.6-5.5 7.2-1.8 3-4.5 3.2-7.3 2.6-2.4-.5-3.9-2.3-2.6-4.8 7.5-15.2 22.5-25.1 39-10.8 1.6 1.4 3.3 2.9 4.6 4.6.9 1.2 2.1 3.2 1.7 4.3-.5 1.2-2.6 1.8-4.1 2.6-.7.1-1.4 0-3.1.1zM154.8 166.9c-4 2.6-7.4 2-10.6-1.2-1.7-1.6-3.6-3.1-5.7-4.1-3.4-1.5-6.7-1.5-9.4 1.6s-5.8 5.8-8.4 9c-2 2.5-4.2 3.6-7.3 2.7-4.2-1.2-5-3.4-2.6-7.1 3.9-6.1 9-11 15.2-14.8 1.4-.8 3.3-1.5 4.9-1.3 8 .9 15.7 2.8 21.7 8.9 1.9 2 2.5 3.8 2.2 6.3zM127.6 203.7c-.7-.4-3.4-1.1-4-2.5-1-2.6-1.1-5.8-.7-8.7.3-1.9 7.4-2.2 11.4-.6 2.9 1.1 3.7 2.9 2.8 6.2-.9 4-3.4 5.7-9.5 5.6zM226.2 204c-3.2 0-7.3-3.8-7.3-6.9-.1-3.3 3.2-6.4 6.7-6.5 3.7-.1 8 3.1 8.1 6 .2 3.4-3.9 7.4-7.5 7.4zM237.4 83.8c3.9-3.7 8.4-4.5 11.8-2.3.7.5 1.5 1.7 1.5 2.4-.1.8-1 2.1-1.8 2.3-3.9.9-7.9 1.5-11.5-2.4zM236.9 70.9c-2-2.1-4-3.2-4.2-4.6-.3-2.5 2.2-2.8 4.2-2.8 1.8 0 3.9.4 3.5 2.7-.4 1.5-2 2.7-3.5 4.7z"/></svg>