<svg xmlns="http://www.w3.org/2000/svg" width="83.1" height="85.1" xml:space="preserve"><path fill="#2f4858" d="M81.7 71.1C73.9 63.7 67.1 55.4 60 47.2c-.7-1-1.7-1.8-2.6-2.5-.5-.4-1-.7-1.7-.7-.6 0-1.2.4-1.5.8-.3.5-.4.9-.4 1.5-.1 0-.2.1-.3.2l-.1-.1c-1-1-1.9-2-3.1-3-.6-.5-.7-.7-.7-.8 0-.1.1-.4.5-1 3.7-4.8 5.5-10.5 5.5-16.1C55.6 18.7 53 12 48 6.8 43.2 1.8 37 0 30.6 0c-.7 0-1.4 0-2 .1-8.8.5-15.8 5.1-21.6 11-4 4.1-7 9.2-7 15.4C0 34 2.8 40.3 8.5 45.2c5.7 5 12.4 8.5 19.6 8.5 4 0 8.2-1.1 12.4-3.6 1.5-.9 2.2-1.2 2.5-1.2.2 0 .3 0 .7.3.4.3.9.8 1.7 1.5.6.6.8 1 .8 1.1 0 .1-.1.4-.8.9-1.2 1-2.1 1.9-2.1 3.3 0 1.2.7 2.1 1.7 3.3 2.2 2.6 4.7 5.1 7.1 7.7 3.7 3.8 7.5 7.1 10.2 11.3 1.1 1.7 2.4 3.2 3.2 4.4v.1l.1.1c1.4 1.5 3 2.2 4.7 2.2 1.2 0 2.3-.3 3.5-.8 2.8-1.3 4.3-3.4 6.1-4.9 1-.8 1.7-1.8 2.3-2.7.6-.8.9-1.6.9-2.6 0-1.1-.5-2.1-1.4-3zm-7.4-2.5c1.1-.6 1.6.9 2.3 1.5.7.6.6 1.2-.1 1.6-1.1.6-1-.8-1.6-1-.4-.7-1.5-1.6-.6-2.1zM68 65.9c.5-.3.7.1 1 .4.5.6.9 1.3 1.5 1.8 1.4 1.3.3 2.1-.5 3-1.1 1.2-1.4-.4-2-.7-.4-.2-.6-.6-.8-.8-1.2-1.4-.8-3 .8-3.7zm-3.5-3.5c1-1.2 1.5.3 1.9.8 1.3 1.4-.5 1.9-1.1 2.7-.9 1.2-1.4 0-2.1-.7-1-1.4.6-2 1.3-2.8zm-3.2-4c.9-1.1 1.3.3 1.7.8 1.5 1.6-.3 2.4-1 3.2-1 1.2-1.4-.4-2-.7-1.6-1.9.6-2.4 1.3-3.3zm-8-11.8zM43.5 43c-.3 0-.9-.3-1.8-.3-.3 0-.9.1-1.2.6-.3.4-.4.9-.4 1.3V44.9c0 .7-.2.8-.4 1-.3.2-.9.4-1.5.8-3.4 2.1-6.7 3.1-10.1 3.1-3.6 0-7.3-1.1-11-3.3-5.1-3.1-9.5-6.6-11.7-12.3-.9-2.4-1.4-4.7-1.4-6.8 0-4.7 2-9 5.6-13.2 1.2-1.4 2.5-2.7 4-3.6l-.5-.8.6.8c5.1-3.4 10-6.5 16.1-6.5.6 0 1.3 0 2 .1 3.5.4 6.9 1.2 10 2.7 4.6 2.2 6.5 5.9 6.5 10.9V19c0 .2 0 .5.1.8.1.4.7.9 1.2.8.5 0 .8-.2 1.1-.4.7 1.9 1.1 3.8 1.1 5.7 0 .8-.1 1.6-.2 2.4-1 5.7-3.6 10.4-7.8 14.6-.1 0-.1 0-.3.1zm7.7 7.5c-.8.9-1.4.7-2.1-.3-1.1-1.2-2.3-2.3-3.4-3.4-.6-.5-1-1-.1-1.7.6-.5.9-.9 1.9-.1 1.3 1.1 2.6 2.1 3.9 3.3 1 .9.9 1.6-.2 2.2zm.7 2.3c1.6-1.8 1.6-1.8 4.1-.9-1.7 2.8-1.9 2.9-4.1.9zm5.2 1.1c1.5-.9 1.8.9 2.5 1.6.9.9.4 2.1-1.2 3.2-.8.9-1.3 0-1.7-.5-1.3-1.6-1.1-3.4.4-4.3zm-1 11.9zm16 16.1c-2.5 1-4.9-.8-4.7-3.5 0-.1 0-.3-.1-.4-.7-1.2.1-1.9.9-2.3.9-.5 1 .7 1.5 1 .5.5.8.9.5 1.6-.3.4-.7.8-.2 1.3.3.4.7 0 1.1-.2 1.3-.9 1.9.5 2.3 1.1.6 1.2-.7 1.2-1.3 1.4zm1.2-7.1c-.9 1-1.4 0-2-.5-1.3-1.3.1-1.9.7-2.6.8-1 1.3 0 1.8.5 1.2 1.1.4 1.8-.5 2.6zm6.8-.1c-.9 1.7-2.3 3-3.7 4.2-.8.8-1.3 0-1.7-.6-.4-.6-1.4-1.1-.4-2 .9-.9 1.7-2.1 3.1-.9.4-.5.4-.8 0-1.1-.5-1 .3-1.3.8-1.8.5-.4.8.1 1.1.4.5.5 1.3.9.8 1.8z"/><path fill="#2f4858" d="M43.1 12.7c-4-3.3-8.6-5.1-13.7-5.1-.7 0-1.3 0-2 .1-4.4.4-7.8 2.9-11 5.2-1.3 1.1-2.8 2.2-4.1 3.5-.4.5-1 1-1.1 2.1 0 .4.2 1 .5 1.3.3.3.8.6 1.3.6 1.2-.1 1.6-.9 1.9-1.2 1.5-1.5 3.4-2.8 5.1-4.2 3.1-2.5 6.2-3.5 9.4-3.5 2.8 0 5.7.8 8.6 2.4 2.7 1.5 4.3 3 4.3 5.8V20.6c0 .3 0 .6.2 1.1.2.5.8.9 1.4.9h.1c.7 0 1.3-.5 1.5-.9.2-.4.3-.8.4-1.2v-1.1c.1-2.6-.7-5-2.8-6.7zm-.6.8z"/></svg>