<?xml version="1.0" encoding="utf-8"?>
<!-- Generator: Adobe Illustrator 13.0.0, SVG Export Plug-In . SVG Version: 6.00 Build 14948)  -->
<!DOCTYPE svg PUBLIC "-//W3C//DTD SVG 1.1//EN" "http://www.w3.org/Graphics/SVG/1.1/DTD/svg11.dtd">
<svg version="1.1" id="Layer_1" xmlns="http://www.w3.org/2000/svg" xmlns:xlink="http://www.w3.org/1999/xlink" x="0px" y="0px"
	 width="132.6px" height="134.9px" viewBox="0 0 132.6 134.9" enable-background="new 0 0 132.6 134.9" xml:space="preserve">
<path d="M30.8,124.3c0.2-12.1,3.5-23.6,8.1-34.7c1.6-3.7,1.6-5.4-3.2-6.2c-11.1-1.8-21.9-4.7-31.6-10.7c-5.4-3.3-5.5-5-0.3-8.2
	c12.4-7.6,25.6-13.1,40-15.7c3.5-0.6,5.4-2.1,6.6-5.6C55,28.8,62.6,15.9,71,3.5c1.2-1.7,2.2-3.9,4.7-3.4c2.8,0.5,2.9,3,3.2,5.2
	C80.7,18.2,84.3,30.9,85,44c0.2,3.3,1.8,4.2,4.7,4.7c7.9,1.3,15.8,2.8,23.6,4.3c5.2,1,10.1,3.1,14.8,5.5c5.3,2.7,5.7,5.2,2.2,9.8
	c-2.5,3.2-5.5,5.7-9.2,7.5c-7,3.5-13.9,7.2-21,10.6c-2.5,1.2-2.8,2.1-1.4,4.5c6.8,11.5,9.4,24.3,10.8,37.3c0.3,2.3,1,5.1-1.9,6.3
	c-2.5,1.1-4.1-0.9-5.9-2.3c-11.2-8.7-20.2-19.5-29.6-30c-2.1-2.4-2.8-3.1-5.3,0c-9,11.1-19.7,20.5-30.4,29.8c-3,2.6-5.3,1.4-5.7-2.6
	C30.6,127.8,30.8,126,30.8,124.3z"/>
</svg>
