<?xml version="1.0" encoding="utf-8"?>
<svg version="1.1" id="Layer_1" xmlns="http://www.w3.org/2000/svg" xmlns:xlink="http://www.w3.org/1999/xlink" x="0px" y="0px"
	 width="132.6px" height="134.9px" viewBox="0 0 132.6 134.9" enable-background="new 0 0 132.6 134.9" xml:space="preserve">

<path d="M30.8,124.3c0.2-12.1,3.5-23.6,8.1-34.7c1.6-3.7,1.6-5.4-3.2-6.2c-11.1-1.8-21.9-4.7-31.6-10.7c-5.4-3.3-5.5-5-0.3-8.2
	c12.4-7.6,25.6-13.1,40-15.7c3.5-0.6,5.4-2.1,6.6-5.6C55,28.8,62.6,15.9,71,3.5c1.2-1.7,2.2-3.9,4.7-3.4c2.8,0.5,2.9,3,3.2,5.2
	c1.8,12.9,5.4,25.6,6.1,38.7c0.2,3.3,1.8,4.2,4.7,4.7c7.9,1.3,15.8,2.8,23.6,4.3c5.2,1,10.1,3.1,14.8,5.5c5.3,2.7,5.7,5.2,2.2,9.8
	c-2.5,3.2-5.5,5.7-9.2,7.5c-7,3.5-13.9,7.2-21,10.6c-2.5,1.2-2.8,2.1-1.4,4.5c6.8,11.5,9.4,24.3,10.8,37.3c0.3,2.3,1,5.1-1.9,6.3
	c-2.5,1.1-4.1-0.9-5.9-2.3c-11.2-8.7-20.2-19.5-29.6-30c-2.1-2.4-2.8-3.1-5.3,0c-9,11.1-19.7,20.5-30.4,29.8c-3,2.6-5.3,1.4-5.7-2.6
	C30.6,127.8,30.8,126,30.8,124.3z M5.5,68.6c7.7,4.5,15.2,8,23.6,9.3c3.9,0.6,7.8,1.7,11.7,2.5c3.8,0.8,5.2,2.6,3.6,6.5
	c-1.9,4.7-3.6,9.5-5.2,14.4c-2.7,8.3-4.5,16.8-4,26.7c10.7-10,21.4-18.6,29.6-29.7c3.2-4.3,5.1-4.6,8.7-0.7
	c5.2,5.6,10.3,11.4,15.5,17.1c4.9,5.4,10.1,10.6,16.6,14.9c-1.9-14-4.4-27.3-12.1-38.9c-2.2-3.3-1-5.2,2.2-6.7
	c7.7-3.8,15.4-7.9,23.1-11.7c2.9-1.5,5.4-3.4,7.6-5.8c1.9-2.1,1.3-3.2-1-4.2c-4.8-2.1-9.7-4.2-14.9-5.1c-7.7-1.4-15.4-2.7-23.2-4
	c-4.3-0.7-6.5-2.8-6.8-7.6c-0.6-12.6-3.8-24.9-6.1-37.7c-10,11.9-16.9,25-21,39.4c-1,3.4-2.4,4.6-5.6,5.2
	C32.8,54.9,18.7,59.8,5.5,68.6z"/>
</svg>
